<?xml version="1.0" encoding="utf-8"?>
<!-- Generator: Adobe Illustrator 15.1.0, SVG Export Plug-In . SVG Version: 6.00 Build 0)  -->
<!DOCTYPE svg PUBLIC "-//W3C//DTD SVG 1.1//EN" "http://www.w3.org/Graphics/SVG/1.1/DTD/svg11.dtd">
<svg version="1.1" xmlns="http://www.w3.org/2000/svg" xmlns:xlink="http://www.w3.org/1999/xlink" x="0px" y="0px" width="983px"
	 height="690px" viewBox="0 0 983 690" enable-background="new 0 0 983 690" xml:space="preserve">
<g id="Layer_1" display="none">
	<image display="inline" overflow="visible" width="983" height="690" xlink:href="mapa1.png" >
	</image>
</g>
<g id="Layer_2">
	<rect fill="#61747E" width="983" height="690"/>
	<path fill="#C7BCB1" d="M323.95,132.89L324,133C324,133,323.75,133.05,323.95,132.89z"/>
	<path fill="#C7BCB1" d="M334.25,126.38h0.43C334.47,126.39,334.25,126.38,334.25,126.38z"/>
	<path fill="#C7BCB1" d="M473.83,591.75c0,0,0.01,0,0.02,0C473.87,591.78,473.83,591.75,473.83,591.75z"/>
	<path fill="#C7BCB1" d="M652.5,378.88c-0.12,0.37-2.12,2.87-2.25,3.87S644,390,643.62,390c-0.37,0-1.74,1.75-1.74,3.12
		c0,1.38-4.88,9.88-4.88,9.88l-2.12,0.75c0,0,0.24-1.37-1.76-1.13c-2,0.26,0.88,1.5,0.88,1.5s-0.25,0.76-0.88,1.26
		c-0.62,0.5-1.24,5-1.24,5l1,1.37c0,0-1.76,1.87-1.76,2.5s1.5,0.75,1.5,3.87c0,3.13,0.13,1.5,0.13,1.5l1,3.26c0,0,1,1.5,0.63,2.62
		c-0.38,1.12-2,2.38-1.88,3.62c0.12,1.26,0.38,3.38,0.38,3.38s0.5,2.62-1.5,4.75s-0.63,7-0.63,7s0.5,3.25-1.25,4.37
		c-1.75,1.13-1,3.88-1.38,4.63c-0.37,0.75-1.37,1.13-2.37,2.13s0.13,2.24-1,4.24s0.63,2.76,0.63,2.76s-1.5,0.74-2.13,0.87
		s-2.37,2-2.37,2l-1.38,1.25c0,0,0.62,2.5-0.12,2C618.62,468,614,469,614,469l-0.62-1c0,0-0.76,1.38-1.88,1.38s-1.62-0.76-1.62-0.76
		l-0.76,1.13l-1.5,0.63l-0.12-1l-3.25,0.12l1.75,1c0,0-2.38,2.38-2.88,2.38s-1.5,1.12-1.5,1.12l1,0.62l-0.37,0.88c0,0-1,0-1.87,0
		c-0.88,0,0.62-0.38-2.76,0c-0.19,0.02-0.39,0.06-0.59,0.12c-3.45,0.979-8.91,6.88-8.91,6.88l-0.37,2l-1.87,0.38l-1.63,1.62l1,1
		l-0.37,1.5c0,0-0.88,1.25-0.76,2c0.13,0.75,1.38,6.12,2.5,7.75c1.13,1.63,0.13,7-1.87,8.13c-2,1.12-4.13,6-4.13,6
		c0,10.24-9.37,17.5-9.37,17.5s-0.13-1.26-0.13,0.5c0,1.74-2.74,7.74-3.12,7.87s-0.88-0.63-0.88,1.13c0,1.74-5.62,7.74-6,7.74
		c-0.37,0-2-0.12-2.87-0.62s-2.5,0-3,0.25s-1.5,1-2.63-0.5c-1.12-1.5-3.24-0.75-4.37-0.75s-1.63-1.25-2-1.62
		c-0.37-0.38-1.37,0-3-0.13s-0.75-0.87-1.13-1.25c-0.37-0.38-1.24-1.25-2.74-1.12c-1.5,0.12-0.26,1.87,0,2.24
		c0.24,0.38,1.12,1.38,1.87,1.76c0.75,0.37,1,0.87,1.37,1.37c0.38,0.5,1.63,0.87,3,1c1.38,0.13,0.88,0.75,1.26,1.13
		c0.37,0.37,1,0.62,1.62,0.62s0.38,1.62,0.38,1.62s-0.76,2.13-0.13,2.63s0.75,1.5,0.75,1.5l1,1c0,0,0.62,0.13,1.25,0.87
		c0.63,0.76,0.75,1.13,1.37,1.38c0.63,0.25,0.13,2.38,0.13,2.38s-0.5,1-0.5,2.24c0,1.26-1.37,1.26-2.13,2.13c-0.74,0.87,0,3,0,3
		c-5.74,5-14.24,5-15.87,5h-4.13c-0.62,0-1.37-0.5-3.5-1c-2.12-0.5-0.5,1.25-0.12,1.87c0.38,0.63,1.12,1.76,2.25,2.26s1.13,2.62,0,3
		c-1.13,0.37-0.25,3.87,1,4.5c1.25,0.62-0.13,1.74-0.75,2.12s-1.12,1.25-1.12,1.25s-4,0.87-5.63-0.25s-3.87-1.25-5.37-2
		s-2.88,2.38-0.88,3.25s2.62,5.5,2.62,5.5l1.26,0.63c0,0,0.5,0.24,1.74,0.62c1.26,0.38,1-0.25,1-0.25s0.5-0.63,1.13-1.13
		s1.25-0.12,1.5,0.26c0.25,0.37,1,1.12,2,1.24c1,0.13,0.5,3,0.5,3l-2.37,0.26c0,0-0.76-0.5-1.13-0.5s-0.63-1-1.75-1.26
		c-1.12-0.24-0.88,0.26-1.75,1.26s0.75,0.62,1.37,1c0.63,0.37,1.38,0.37,1.38,0.37s0.5,0.75-0.62,1.75c-1.13,1-3,2.38-2,3.75
		s1.37,3.37,1.37,3.37s-0.25,1.13-1.37,1.88c-1.13,0.75,1.12,0.88,1.12,0.88s2.88,2-0.38,1.74c-3.24-0.24-3.74,0.63-5.87,2.63
		s-1,5.25-0.25,6s3.88,3,4.12,3.75c0.26,0.75,4.13,0.62,5,0.62c0.88,0,2.63,0.63,2.63,0.63s-0.87,2.75-0.13,3.63
		c0.76,0.87,1,1.62-0.24,2c-1.26,0.37-3.38,4.62-4.26,5c-0.87,0.37-2.62,1.87-0.5,3.74c2.13,1.88,0,4.26,0,4.26
		s-1.62,0.12-1.74-0.38c-0.13-0.5,0-1.25-0.88-1.5s-0.62,1.12-0.62,1.12l0.74,1c0,0-0.37,1.88-0.87,2.63s0.13,2.63,0.25,3.13
		s2.75,2.12,2.75,2.12s-3.63,0.88-1.75,1.25s4.12,1.25,5,2.25s1.12,2.25,1.12,2.25s-1.12,1-1,1.5c0.13,0.5,2,0.5,2,0.5l2.5,2
		c0,0-2.24,1.25-0.62,1.25s5.88,3.5,7,4.5s1.5,1.25,3.5,2.25s1.62,1.13,3,1.87c1.38,0.76,1.75,0.76,4.12,1.13
		c2.38,0.37,1.88,0.5,2.26,0.5c0.37,0,1.28,1.85,0.12,2.63c-0.25,0.16-3.12-0.26-3.5-0.63s-1.12-0.13-3.75,0.25s-1.5,0-2.63,0
		c-1.12,0-1.87-0.25-2.24-0.88c-0.38-0.62-2.13-1-3.5-1.37c-1.38-0.37,0.24,0.75,0.74,1.13c0.5,0.37,1,0.87,2,1.5
		c1,0.62,1.26,1.37,1.26,1.37s-1.13-0.13-2,0.37c-0.88,0.5-1.38,0.13-1.76-0.87c-0.37-1-0.62-0.63-1.24-1.37
		c-0.63-0.76-0.38,1-0.76,1.74c-0.37,0.76-0.87,0-1.24-0.24c-0.38-0.26-0.26-0.76-1.5-1c-1.26-0.26-1.38-0.5-0.38-1.63
		s0.5-0.75-0.75-1.13c-1.25-0.37-1.13,1.5-3.25,0.38s-1.12,0-2.38,0.25c-1.24,0.25-0.24-1-0.62-1.37c-0.38-0.38-1,0.37-2.62,0.62
		c-1.63,0.25-1.13-0.75-2.76-1.38c-1.62-0.62,2.26-0.24,2.63-0.24s2.13-0.38,2.13-0.38s-0.63-0.75-1.76-1.25
		c-1.12-0.5,0.76-0.63,0.76-0.63s1,0,1.24-0.37c0.26-0.37-0.24-0.75-0.87-1.37c-0.63-0.63,0.87-0.38,1.87-0.26
		c1,0.13,0.63,1.26,0.76,2.38c0.12,1.12,0.24,1.5,0.24,1.5s1.5-0.38,2.88-0.38s1.5,0.76,3.25,0.76s0,0-0.13-0.76
		c-0.12-0.74-1.74-0.37-1.74-0.37s-1,0-1.13-0.5s-1.37-0.5-1.75-1.13c-0.38-0.62-1.25-0.62-1.75-1.24c-0.5-0.63,0.87-0.63,1.25-0.76
		c0.38-0.12,0.12-0.74,1.38-1.24c1.24-0.5,0.24-1.38,0.24-1.38s-1.37,0.12-2,0.38c-0.62,0.24-1.37,0.24-1.87,0.37
		s-1.5-0.25-1.5-0.25l-0.25-1.12l-0.38-0.63l0.63-0.37c0,0-0.13-0.88,0.25-1.13s1.12-0.37,1.12-0.37s-1.87-0.63,0.38-1.26
		c2.25-0.62,0.38-0.62-0.12-1c-0.5-0.37-1.13,0-1.88,0.63s-1.25,0.5-2.88,1.37c-1.62,0.88-0.5,0.63,0.13,1.26
		c0.63,0.62,0.25,1.24,0.25,1.62s0.12,0.75,0.5,1.25s0.12,0.87,0.25,1.75s-0.13,0.62-0.5,0.62s-0.87,0.13-2.25,0
		c-1.38-0.12-1.5-0.24-1.5-0.62s-0.75-0.25-1.62-0.38c-0.88-0.12-0.76-1.37-0.76-1.37s0.5-0.63,1.13-1.5s0.75-0.37,1.63-0.75
		c0.87-0.38,1-0.88,0.12-1.62c-0.88-0.76-1.12,0.87-1.62,1.24c-0.5,0.38-1.5,0.63-2.13,1c-0.63,0.38-0.75,1-0.75,1
		s-1.25,0.13-2-0.24c-0.75-0.38-0.12-1.38-0.12-1.38s0.62-0.75-1.26-0.75c-1.87,0-2.24-0.75-3-1.87c-0.74-1.13-1.37,0-2-0.88
		c-0.62-0.88-0.74-0.25-0.87-1.38c-0.13-1.12,2-0.12,2-0.12s1.25-0.25,1.13-1c-0.13-0.75,0.5-0.12,1.37-1.5s-2.13-0.5-2.13,0
		s-0.62,1.75-0.62,1.75s-1.25-0.75-1.88-0.87c-0.62-0.13-1.12-1.5-1.12-1.5s-0.5,0.12-2.12-0.63c-1.63-0.75-0.63-1.13-0.63-1.13
		s2-0.74,0-1.24s-2.13-0.63-1.5-2.13s0,0,1.13-0.75c1.12-0.75-0.5-0.88-0.5-0.88s-0.63,0.88-1.26,0.26
		c-0.62-0.63-0.87,0.12-1.12,0.87s0,0,0.25,0.87c0.25,0.88-0.75,0.88-1.37,0.88c-0.63,0,0.12-0.62-1.5-1.25
		c-1.63-0.63-1.13-0.87-0.76-1.25c0.38-0.38,1.76,0.12,1.26-0.38s0.5-0.5,1-1s1-0.62,1-0.62s-0.88-0.25-2.5-0.62
		c-1.63-0.38-0.76-1.26-0.13-1.88s1.25-1,1.25-1s-1.38-0.12-1.5-1.12c-0.08-0.68,0.18-0.79,0.35-0.79
		c-0.15-0.14-0.35-0.59-0.35-2.09c0-2.38-1.5,0.12-1.5,0.12l-0.25,2c0,0-0.87,2.26-1.25,0.26s-0.5-0.5-0.5-0.5s-0.25,0.62-1,1.87
		s-0.88-0.5-0.88-0.5s-0.12-0.63-0.74-0.63c-0.63,0-0.38-1.37,0.87-1.74c1.25-0.38,0,0-0.37-0.26c-0.38-0.24,0-0.62,0.12-1.24
		c0.12-0.63-0.12-0.5-0.12-0.5s0-0.63-0.13-1c-0.13-0.38-1,0.62-1.13,1c-0.12,0.37-0.79,1.2-0.79,1.2s-2.66-2.16-0.16-2.75
		c2.5-0.58,0.66-1.41,0.66-1.41c-3.83,0.83-1.83-0.5-2.75-1.25c-0.91-0.75-0.5-1.34-0.5-2c0-0.67,0.92-0.84,1.59-1.09
		c0.66-0.25,0.91,0.75,1.75,1.17c0.83,0.42,1.66,1.75,1.91,2.33c0.25,0.59,1.5,1.75,1.5,1.75l0.59-1.33v-1.08
		c0,0-2.34-0.92-2.59-0.92s-0.75-0.92-0.75-0.92l0.59-0.83c0,0,1.08,0.33,1.75,0.42c0.66,0.08,0.91,0.33,1.75,0.83
		c0.83,0.5,0.83,0.25,1.58-0.5s-0.92-1.08-1.5-1.42c-0.58-0.33-2-0.16-2.75-0.66s-0.42-0.92-0.42-0.92s-0.91-0.67-1.58-0.83
		c-0.67-0.17-0.25-0.75,0.83-2.25c1.09-1.5-0.41,0.66-1.91-0.67s0.58-3.67,0.58-3.67s0.75,1,1,0.34c0.25-0.67,0.17-1.25,0.58-2
		c0.42-0.75-1.25-0.5-1.58-0.75s0.33-1.59,0.33-1.59s-0.83-0.83-1.16-1.75c-0.34-0.91,1.08,0.25,1.58,0s1.5-0.33,2-1.08
		s-1.92-0.42-3.5-1s0.83-1.67,0.83-1.67s0.42-0.16,1-0.83c0.59-0.67,0.09-1.5,0.25-2.25c0.17-0.75-0.5-0.33-1.33-0.5
		s-1-0.83-1.67-0.92c-0.66-0.08-1.66-0.5-1.25-1.5c0.42-1,0.92-0.83,1.25-1.66c0.34-0.84-0.25-0.92-1.16-1.17
		c-0.92-0.25-1-1.42-1.09-1.92c-0.08-0.5,0.92-2.25,1-2.5c0.09-0.25,0.17-0.75-0.75-1.08c-0.91-0.33,0,0-0.33-0.75s0-2,0-2
		c1.92-0.08,0.25-1.92,0.25-1.92c-2.58,0.59-1-0.33-1.67-1.16c-0.66-0.84,0.42-0.5,0.84-0.92c0.41-0.42-0.92-0.83-2.17-0.92
		c-1.25-0.08-0.58,0.59-0.83,0.84c-0.23,0.23-1.85,0.32-2.07,0.33c-0.03-0.04-0.43-0.39-2.68-2.17c-3.17-2.5-1.42-4.83-2.5-7
		c-1.09-2.16-0.25-1.91,0.83-3.33s-0.33-2.33-0.33-4s-1.34-2.42-2.25-3.33c-0.92-0.92-0.84-2-1.42-3.59
		c-0.58-1.58-0.67-1.58-1.33-3.83c-0.67-2.25-1.09-1.75,0.41-2.33c1.5-0.59,0.67-1.09,0.42-1.75c-0.25-0.67,0-1.67,0.67-2.25
		c0.66-0.59,0.41-2.25,0.41-2.25l-1.16-2c1.25-0.34,1.58-0.84,1.58-0.84s-2.67,0.17-0.5-2.66c2.17-2.84,0.83-5.09,0.58-5.59
		s-1.66-4.75,0-4.91c1.67-0.17,0.42-2.75-0.08-2.92s-0.58-0.67,0-3.17s-4.42-13.41-4.58-14.33c-0.17-0.92-0.59-0.42,1.25-3.33
		c1.83-2.92-1.34-5.5-2.17-6.25s-0.08-2.34,0.5-3.17s0.83-1.58,1.33-2.5s-0.58-1.5-0.91-2.08c-0.34-0.59,0.25-1.67,0.58-2
		c0.33-0.34,0.17-1.5-0.17-2c-0.33-0.5-0.25-4.34-0.25-5c0-0.67,0.84-1.59,0.84-2.75c0-1.17-1.17-1.75-1.5-2.67
		c-0.34-0.92,0-2,0.91-3c0.92-1,0.75-1.42,0.42-1.83c-0.33-0.42-0.75-0.5-0.75-3.42s-0.42-5.25-1.25-6s-1-1.83-1.17-2.42
		c-0.16-0.58,0.75-0.58,1.59-1.75c0.83-1.16,0.5-6,0.66-8.25c0.17-2.25-0.33-1.33-1.25-4.41c-0.91-3.09-0.58-3.92-0.91-6.84
		c-0.34-2.91-0.59-3.16-1.17-4.58s-0.75-3.58-0.33-4.17c0.41-0.58-0.25-1-0.5-1.08s-0.75-0.92-0.75-0.92
		c-3.59-1.58-6.67-5.16-7.34-6.08c-0.66-0.92-5-4.17-5.83-4.42s-3.58-1.16-5.33-2.75c-1.75-1.58-5.17-2.66-8.09-4.08
		c-2.91-1.42-4.33-3.67-6.41-5.75c-2.09-2.08-3.09-4.17-3.84-5.33c-0.75-1.17,0.67-2.25,0.84-3c0.16-0.75-3.75-6.84-4.42-7.09
		s-1.83-2.41-1.83-2.41s0-2.42-0.92-3.09c-0.92-0.66-2.17-2.66-2.58-3.25c-0.42-0.58-1.92-4.91-2.59-5.41c-0.66-0.5-1-2.42-1.5-3.17
		s-1.58-2.83-1.66-4.08c-0.09-1.25-1.75-3.34-2.17-4.34s-2.5-3.25-2.5-3.25s-3.83-7.33-5.92-9.41c-2.08-2.09-5.33-2.42-5.33-2.42
		l0.25-1.83c0.67-1.09,0.83-0.5,1.75-0.92s-0.92-2.33-0.92-2.33l-1.66-1.17c0,0,0.25-1.25-0.5-1.75s-0.42-1.25-0.84-1.67
		c-0.41-0.41,0.92-1.66,0.75-2.16c-0.16-0.5,0.84-1.34,1-1.59c0.17-0.25,0.92-0.75,1.17-1.5s1.92-1.83,2.17-1.83
		s3.16-3.25,3.16-3.25s-0.25-1.83,0.34-2.75c0.58-0.92,0-1.58-0.42-1.92c-0.42-0.33-1.08,0.25-1.42,0.5
		c-0.33,0.25-0.33,1.25-0.33,1.25l-0.5,0.5c0,0-1-0.58-1-0.91c0-0.34-0.67-1.17-0.67-1.17l-1.25-0.5l-0.16-0.83c0,0,0,0,0.66-0.84
		c0.67-0.83,0-2,0-2l-0.33-0.25c0,0-0.5-1.83,0.08-2.41c0.59-0.59-0.08-0.92-0.08-0.92s-0.42-1.5-0.33-2
		c0.08-0.5,1.25-1.25,1.58-1.42c0.33-0.16,1.33-0.08,1.67-0.66c0.33-0.59-1.42-0.42-1.42-0.42s-0.17-1.92,0.08-2.08
		c0.25-0.17,0.75-0.84,1-1.25c0.25-0.42,1.59-0.75,2.17-1.67s-0.25-0.42-0.92-0.75c-0.66-0.33-0.25-3.08-0.25-3.08
		c1.59-0.42,1.92-0.67,1.92-0.67c3.58-1.75,4.67-2.33,6-2.67c1.33-0.33-1.08-1.58-1.58-1.66c-0.5-0.09,0.08-1.17,0.5-1.92
		c0.41-0.75,1.5,0.25,2-0.17c0.5-0.41-0.34-0.75-0.34-2s0.92-2.25,1.75-2.41c0.84-0.17,2.09,0.75,3.17-0.67s1.67-3.5,3-5.83
		c1.33-2.34,1.33-1.5,1.08-2.84c-0.25-1.33-1.66-0.33-1.66-1.91c0-1.59,0.41-1.92,1.16-3.17s-0.66-1.33-0.66-1.33
		s-0.42-2.17-0.5-3.09c-0.09-0.91,0.25-1.08,0.25-1.08s0.5-0.75,1-1.33c0.5-0.59,0.16-0.92,0.16-0.92s-1.33-0.67-1.33-0.92
		s0.83-0.91,1.5-1.5c0.67-0.58-0.08-1.08-0.75-1.75c-0.67-0.66-0.75-1.08-0.83-1.58c-0.09-0.5-1.84-1.67-2.09-2.42
		s-1-2.41-2.08-2.58s-0.5-1.75-0.5-1.75s0.42-0.42,0.42-1s1.25-1.5,1.25-1.5s1.5-0.92,0.25-1.17s-3.3-2.21-3.3-2.21
		c-1.74-2.81-5.12-0.62-5.12-0.62c-2.38,5.06-3.94,2.12-4.62,3.56c-0.69,1.44-0.38,1.32,1.37,3.06c1.75,1.76,0.56,0.69,0.75,1.82
		c0.19,1.12-2.25,2.06-2.81,2.12c-0.57,0.06-2.88-0.37-3.19-0.56s-0.81-2.5-1-2.5s-2-0.56-2-0.56s-1.19-0.44-1.94-1.32
		c-0.75-0.87-0.81-1.62-1.75-1.87c-0.93-0.25-1.87,0-2.5-0.37c-0.62-0.38-2.31-3.5-2.87-1.69s-2.25,1.06-2.44,1.06
		s-1.44-1.94-0.81-2c0.62-0.06,2.12-1.25,1.12-2s-4.48-3.25-4.48-3.25c-1.5-0.67-2-3.5-2.5-4.5s-2,0.5-2,0.5l1.17,1.17h0.67
		l0.16,1.66c0,0,0,0-2,0s-1.66-1.5-1.66-1.5c-3-0.16-1.5-3.16-1.5-3.16s2.66-1,1.16-1.67s0-2,0-2s1.34-3.83,2.67-1.83s2.17-1.84,1-2
		c-1.17-0.17-2-2.34-2-2.34c-0.67,0-2.5-2-2.5-2s-1.17-1.66-2-1.16s0.33,1.83,0.83,1.83s1.5,0.83,1.5,0.83l0.84,3.5
		c0,0,1.16,0.84-0.34,1.34s-3.5-3-4.16-3.67c-0.67-0.67-1.5-2.33-3.67-4.33s-1.83-2.17-1.83-2.17s0.83-0.83,0.83-2.67
		c0-1.83-1.67-0.33-2,0.34c-0.33,0.66-2.5,0-3.33,0c-0.84,0-3.67-1-4.34-1.67c-0.66-0.67-2-0.17-2.83-0.33
		c-0.83-0.17-2.5-2.34-3-2.84s-4-0.66-6.5-0.83s-13.83-14.33-13.83-14.33s-2.34-0.5-2.84-1s-1.33,0.16-1.33,0.83s-2.33,1.5-2.33,1.5
		c-8.84,6.67-19.5-3.67-19.5-3.67l-3.5-0.16c-0.84-1-3-1.84-3-1.84c-7.84-3-8.84-6.83-8.84-6.83c-4.16,2.17-9.66-2.67-9.66-2.67
		c-0.84-1.83-3.84-4.83-4.5-5.83c-0.67-1-1.84,0-1.84,0s-2.5-4.5-3.83-5.5s-0.17-2.33-0.17-2.33c1.67,0.66,3.84-1.34,3.84-1.34
		s-1.34-0.66-1.5-1.33c-0.17-0.67,2.83-3.17,2.83-3.17L263,178c0,0-0.83-2-0.33-3.83c0.5-1.84-0.67-3.34-0.67-3.34
		c-5.33-7.16-7.17-11.5-7.17-11.5l-1.33-0.16L252,158l0.83-2.17c-1.5,0.5-4.33-3.83-4.33-3.83l-1-0.17l-1-0.83l0.17-2l1.83-1.67
		l-0.83-2.66l-1.84-0.17l-0.33-2l-2.83-1l0.66-2.83l-0.5-1.5c-4-0.67-5.5-6.67-5.5-6.67l-2.83,0.33l-0.33-1.66l1.66-0.34l1.67-1
		c0,0,0,0-0.83-1.83c-0.84-1.83-2-6.5-2-6.5l0.66-2l0.84-0.67l0.5-1.16l-3-2.34c-2.67,1.34-5.34-1.83-5.34-1.83l-2,3.83v5l-1,2.5
		c0,0,0.84,1.5,3.67,6.67s2,8.17,2,8.17c3,2.5,2.17,5.16,3.17,5.83s2.83,2.67,2.33,4.5s0.33,6.67,0.33,6.67l0.67,0.66l0.17,1.67
		c0,0-2.17-0.5-0.5,2.83c1.66,3.34,2.83,1,2.83,1l1.33,1.34l1,2.66l0.5,0.67v1.17l-0.83,0.66l-0.33,1.5c0,0,0,0-1.84,0.5
		c-1.83,0.5-2.16-2-2.16-2c1.33-1.16-7.34-9.16-7.34-9.16l-1.66-1.67l1.16-1c0,0,0,0,0.5-1.17c0.5-1.16,0.17-1.83,0.17-1.83
		c2.5-0.67-0.17-4.33-0.17-4.33c-2-0.67-3.5-3.67-3.5-3.67L224,144c-2.5-2.17-6-6.33-6-6.33h4.67l1.5,1.5
		c1.6-0.16-0.5-2.79-0.66-2.99c0.09,0.07,0.72,0.42,1.49-2.35c0.83-3-6-8.5-6-8.5l-0.5-0.66l0.33-1l-0.5-0.84l1.34-2l-1.17-0.33
		l-0.33-1l1-1.33l-1.17-1.34c0,0,0.5-1.33,0.17-2.33c-0.34-1-0.5-2-0.5-2s0.83-0.83,0.66-3.17c-0.16-2.33-0.83-6-0.83-8
		S213.83,99,213.83,99l-0.33-2l-1.83-0.33c0,0,0,0-0.34-0.84C211,95,209,94.67,209,94.67c-4,0.16-5.33-1.17-5.33-1.17
		c3-3,2.33-4.5,2.33-4.5c-2.83-0.5-2.17-3.33-2.17-3.33c-3-3.5-0.83-5.67-0.83-5.67c3.67-0.33,0.17-2.67,0.17-2.67
		C201,76.5,203,73,203,73c3,3.17,2.17-2.5,2.17-2.5c-2.17,2.5-2.84-0.17-2.84-0.17s0.67-4-0.66-4.66c-1.34-0.67,2.5-6.34,2.5-6.34
		c-3.34-2.16-1.67-4.16-1.67-4.16c5-4,5.5-6.84,5.5-6.84C209.83,40,213.33,37,213.33,37c9-7.67,13.17-18.33,13.17-18.33l4.14-0.46
		c-4.08,0.35-2.97-1.54-2.97-1.54c2.66-1.67,3.66-8.84,3.66-8.84c0.34-5,4.17-3.33,4.17-3.33c1,1.67,4.17,1.5,4.17,1.5
		c3.83,0.67,0,2.5,0,2.5c1,1-0.67,1.67-0.67,1.67c-1.33-0.5-1.67,2.33-1.67,2.33c8.34-3.83,9-12.5,9-12.5h140.05
		c-1.5,0,0,0,0.62,1.62c0.62,1.63,1.5,0.76,2.25,0.76s1,1.12,1.63,1.5c0.62,0.37,0.87-1.13,0.87-1.13s1.87-0.75,2.5,0s1,1,2,1.87
		c1,0.88,2,0.88,3.63,1.13C401.5,6,400.75,5,400.75,5l1.13-0.25c0,0,1,0.87,1.37,0.87s1.87,0,3.5-0.24c1.63-0.26,0.63,1.5,0.63,1.5
		s-1.13,1.62-2.5,1.62c-1.38,0-1.5,0.75-3.76,1.5c-2.24,0.75-2.62,0.5-3.74,1.38c-1.13,0.87-2.88,1.87-3.63,1.87
		s-1.63,1.37-0.5,1.87s4.5-1.62,4.5-1.62s1.37,0.25,1,0.75s0.87,1.25,1.25,1.25s1.62-0.12,2-0.62s2.38-0.76,2.38-0.76
		s2.12-0.5,2.87-0.5s1.75-1.24,1.75-1.24l1-0.88l0.75,0.62l0.63,2.5l1.5-1.12l1.37,1c0,0,1.63,0.25,1.5,1.12
		c-0.13,0.88,3.87,0.13,4.63,0c0.74-0.12,1.37,0,1.87-0.37s2.63-0.75,3.63-0.75s1.87-0.12,1.87-0.12s0.25,1.5,0.25,2
		s2.88,0.12,2.88,0.12l0.5,2.38l-1.26,0.62h-3l-1.37-0.25c0,0-1-0.37-2.37-0.37c-1.38,0-1.26,0.37-1.76,0.37s-2.5,0.63-3.12,1.25
		s-2.38,0.88-2.38,0.88s-2,0.12-2.62,0.5c-0.62,0.37-1.75,1.24-2.5,2c-0.75,0.74-0.88,0.5-2.38,1.87c-1.41,1.28-2.04,2.24-2.11,2.36
		l2.24-1.23l1.25,0.24c0,0-0.5,1.13-1.12,1.88c-0.63,0.75-1,1.12-1.38,1.75s-1,1.63-1,1.63s-1.88,1.24-2.12,2.37
		c-0.26,1.13-1.13,2.5-1.88,3.75s-1.5,3.5-2.25,4.88c-0.75,1.37,0.13,3.87,0.13,3.87s3.24-0.75,3.87-0.87c0.63-0.13,1.5-1.13,2.13-2
		c0.62-0.88,1.74-1.63,2.62-2.5c0.88-0.88,1.38-2.26,1.38-2.26s-0.63-1.12,0.37-2.24c1-1.13-0.63-1.76-0.63-1.76s1.26-1.5,1.76-2.24
		c0.5-0.76,1.24-2.5,1.87-3.26c0.63-0.74,1.87-1.5,2.63-3c0.74-1.5,2.74-2,2.74-2s0.5,1.13,0.63,1.5c0.13,0.38,1.13-0.12,1.37-1.12
		c0.26-1,1.38-1.5,1.38-1.5s0.88-1,1.38-1s1.62-1.88,1.62-1.88l1.75-0.5c0,0,0.87,1.13,1.37,1c0.5-0.12,1.26,0.88,1.76,1.26
		c0.5,0.37,1.12,1.12,1.12,1.12s0.12,1.12-0.62,1.88c-0.76,0.74-0.5,1.74-0.88,3.12s0,0-1.5,0.88c-1.5,0.87-1.12,1.24-2.75,2.5
		c-1.63,1.24-0.13,2-0.13,2l2.63-1.13l1.25-1c0,0,1.25,0,1.88,0c0.62,0,0.12,1,0.12,1s0.12,2.25-0.38,2.37
		c-0.5,0.13,0,0.76-0.24,1.88c-0.26,1.12-0.13,1.12-0.76,2.12c-0.62,1-0.5,1.63-1.37,1.63s-1.13,0-1.87,0.5
		c-0.76,0.5-0.88,1-1.88,1.87c-1,0.88-1.62,1.88-2.12,2c-0.5,0.13-1,1.5-0.26,1.88c0.76,0.38,1.13,0.88,1.63,1.5s1.87,0,3.63,0
		c1.74,0,2.12-0.62,3.24-1.38c1.13-0.74,0.88-0.37,1.63-0.87s2-0.63,2.75-0.75s2.12-0.75,3.38-1.38c1.24-0.62,2.37-1.37,2.74-1.37
		c0.38,0,1.76,0,3.5-1.5c1.76-1.5,3.76-2,3.26-2.63c-0.5-0.62,1.24-1.5,2.12-2s2.88-0.5,2.88-0.5s3.12,0,4.87,0s2.5-0.24,3.25-1
		c0.75-0.74,1.25-1,3.12-1.87c1.88-0.87,0.38-1.5,0.38-1.5s0.62-1.25,0.88-1.75c0.24-0.5,1.24,0,2.37-0.5s2.5-1.75,3-2.25
		s2.63-1.5,3-1.5s6,0.37,6.37,0.25c0.38-0.12,5.76-0.12,5.76-0.12l5.24-0.63c0,0,1.26-0.25,1.88-1.13c0.62-0.87,1.75-1.37,1.75-1.37
		l1.63-0.5L498.5,21c3.5-1.5,1.75-1.62,2.75-2.88c1-1.24,2-1.62,2.87-2.74c0.88-1.13,1.5-1.38,2.26-2.38c0.74-1,1.12-1.12,1.74-1.62
		c0.63-0.5,1.63-1.76,1.63-1.76l1.25,0.63c0,0-0.25,1.75,0,2.13c0.25,0.37,1.5-0.88,1.88-1c0.37-0.13,1.37-0.26,2.37,0.12
		s1,0.88,1,0.88l-0.37,2.87l-1.38,1.63c0,0-0.38,2.24-1.25,3c-0.87,0.74,0.5,1.12,0.5,1.12h0.75l0.38,1.12l-1.5,0.88l-0.5,1.5
		l1.62,0.38l0.62,1l-0.74,1.5H513L510.38,29l-2.76,0.88l-1.62,0.5l-0.12-0.63l-1.63-0.37l-1,1.74l-1.5,1.13l-2,0.87
		c0,0-1.87,0.38-2.37,0.38s-1.76,0.62-1.76,0.62l-1.24,1.5c0,0-2.26,2.26-2.88,2.76s-0.62,3-0.62,3s0,0.62-1.88,0.62
		s-0.25,1.38-0.25,1.38l0.63,0.74c0,0-0.63,2.63,0.74,2.5c1.38-0.12,2.63,0.13,1.76,0.88C491,48.25,489,47.75,489,47.75l-2.38,0.13
		c0,0-0.37-0.76-2.5,0c-2.12,0.74-0.24,1.37-2.37,1.5c-2.13,0.12-2.25,0.37-4.63,0.37c-2.37,0-2,0.13-3.87,0.75s-1.13,0-3.25,1.38
		c-2.12,1.37-0.5,1.87-2.38,3.24c-1.87,1.38,0.38,2.5,0.38,2.5l-7.5,7.26c0,0-0.62-0.76-0.25-2c0.37-1.26-1.63-1-1.63-1
		s0,0.62,0,1.74c0,1.13,0.26,3.63,0,4.38c-0.24,0.75,0,1.12-2.87,4.38c-2.87,3.24-4.25,3.87-4.25,3.87s-0.12-0.5,0.25-1.63
		c0.37-1.12,1.13-2.12,1.13-2.74c0-0.63,0.62-1.38,0.62-2.13s-1.5-0.5-1.5-0.5l0.62-1.37c0,0,1-1,0.88-1.63s-0.25-1.5,0-2.25
		s1.62-1.75,1.62-1.75l0.75-0.99c-0.13,0.04-1.2,0.42-2.37,1.24c-1.25,0.88-1.12,2.12-2.38,3.12c-1.24,1-0.5,3.13-0.5,3.13
		l-0.74-0.37l-2.13,0.87l2,1l1,1.13L450,72.5l-1.5-0.25l-0.5,0.37l0.62,0.76l0.76,0.87l0.87,1.63l-2.37,0.37l-0.38,0.87l0.88,1.13
		l1.74,0.13l0.26,1.37l-0.88,1.37l0.5,0.63l-0.88,0.75l-1-0.12l-1,1c0,0-1.37,0.37-2.24,0.37c-0.88,0-0.13,1-0.13,1L447,85l1,0.12
		l0.38,0.76c0,0-0.13,0.74-0.76,1.62c-0.62,0.88-2.5-0.25-4.12,0.12c-1.62,0.38,0.62,0.76,0.62,0.76s1,0.74-1.5,1.24
		s-0.87,1.13-0.87,1.13l2.75,0.63l-1.75,1.24c0,0-2.75-0.37-4.5,0.76c-1.75,1.12-1.25,1.5-1.25,1.5l-3.62,2.5
		c0,0-2.38-0.13-4.13,0.87S423,104,422,104.88c-1,0.87-3.12,2.12-3.12,2.12s-1.38,1.25-3.5,2.88c-2.13,1.62-3.26,2-3.63,2.62
		s-0.13,1.88-2.87,5c-2.76,3.12-0.26,8-0.26,9.75s0.13,1.25,0.76,2.25c0.62,1,0.12,1.12,0.12,1.12l1.25,1.26l-0.13,1.12
		c0,0-0.12,0.5-0.62,0s-0.88,0.75-0.62,2.88c0.24,2.12,1.5,7.24,1.5,7.24l-0.13,2.88c0,0-1,2.12-1,2.62s0,1.76-1,2.63
		s-1,2.13-1,2.13l-1.63,1.37c0,0,0.38,1.25-1.87,0.13c-2.25-1.13-1.37-1-1.25-1.38s-0.12-1.5-1.38-3c-1.24-1.5-1.37-2.12-1.37-2.12
		s0.25-1.38,0.13-1.76c-0.13-0.37-1.13-0.5-1.13-0.87S399,144,399,144l-1.12-1c0,0,0.12-1.5-0.63-1.88c0,0,0.5-1.87,1.37-2
		c0.88-0.12,0.76-1,0.63-2.24c-0.13-1.26-1,0.74-1,0.74s-1.87-1.12-2.25-1.24c-0.38-0.13,1.62-2.5,1.62-2.5s1.13-1.63,1.88-3.38
		s-0.12-1.25,0.12-1.62c0.26-0.38-3.37-1.76-4.5-3.38c-1.12-1.62-0.62-2-0.62-2s-1.38-0.88-2.12-1c-0.76-0.12-0.88,0.12-1.88,1.12
		s-0.62,1-2.38,1.63c-1.74,0.63-1.5,0.13-2.24,0.13c-0.76,0,0-0.76,0-0.76l-0.38-1c0,0,0-1.12-0.12-2c-0.13-0.87-1.5,0.38-1.5,0.38
		h-2.26v-1l0.26-1.25l-1,0.87l-2.88,0.5c0,0,0-1-0.62-1c-0.63,0-1.76,0.88-2.63,1.26c-0.87,0.37-1.63,0.24-1.63,0.24l-0.24-0.5
		l0.24-1.37l-0.74-0.37l-1.38,1.74c0,0-3.12-0.24-4.25,0.13s-2.25,0.5-2.25,0.5s-1.62-0.37-3.12-0.75s-2.76,0.5-2.76,0.5l0.5,1.5
		c0,0,1.76-0.12,3.13,0.5s1.5,0,1.5,0s0.63,0.75-0.37,1.5s-1.13,0.88-1.13,0.88s0.37,0.62,1.5,0.87s1.25,1.75,1.25,1.75l-0.12,1.5
		h-2.5c0,0-0.26-0.62,0.12-1.38c0.38-0.74,0,0-1.25-1.12s-1.75-1.12-1.75-1.12v1.74l-1.38,0.26l-1-1L356,128.5l-2.62,0.25
		c0,0-1.5-1-1.76-1.75c-0.24-0.75-0.24-0.75-0.24-0.75l-1.76-0.37c0,0,0.5-0.88-0.5-1.38s-0.62,0.5-0.62,0.5l-0.62,0.5
		c0,0-2.63,0.5-3.26,0.25c-0.62-0.25-1.12-0.87-1.12-0.87l-0.75-1.5l-0.87,1.12h-1.76l-0.37-1.25l-0.87,0.5l0.24,1l-2.24,1.63h-2.2
		c0.46-0.02,0.9-0.16-0.8-0.76c-2.5-0.87-1,1.76-1,1.76s2.24,1.24,0.12,1.24s-2.12,0.38-2.75,0.38s-0.87,0.88-2.25,1.88
		s-1.62,0.74-3.12,1.5c-0.55,0.27-0.81,0.43-0.93,0.51l-0.45-1.01l-1.38,0.24l-0.24,2.13l-2.26,1.25l-1,1.25l-1.74,1l0.24,1.63
		l-1.74,1.37l0.87,0.25c0,0,1.87-0.12-0.87,1.25c-2.76,1.37-1.38,6.13-1.38,6.13l0.75,2L314,152.5l-1.12,1.5c0,0-2.13,2-4.38,11
		s-1.62,11.75-1.62,11.75l0.87,1.87c0,0-0.75,1.88-0.25,2.88s0.88,3.38,1.75,4.12c0.87,0.76,3.13,7.76,3.13,7.76s0.24,2.37,2,3.37
		c1.74,1,1.12,0.37,3,0.37c1.87,0,1.12,0.26,1.12,0.26s0.88,1.12,1.5,2.12s1.88,1.12,1.88,1.12s0,0,0.62,0s2.25-0.62,2.25-0.62
		l4.75-1.25c0,0,1.38-0.25,2.12-1c0.76-0.75,3.76-0.25,3.76-0.25l0.62,1.62l1-0.12c0,0,0.88-0.62,1.38-1s0.74-0.25,1-0.62
		c0.24-0.38-0.76-0.76-0.76-0.76s-0.74-1-0.37-1s2-1,2.5-1.24c0.5-0.26,2.5-1.63,2.5-1.63s0.75-2.87,1.75-4.25s1-3.38,1.5-4.38
		s0.75-2.62,1.62-3.5c0.88-0.87,3.76-1,3.76-1h3.87l-0.13-0.62l4.38-1c0,0,1.62,0.38,2.12,1.25s0.88,0.37,1.63-0.5s1-0.13,1.5-0.25
		s1.5,1.12,1.5,1.12l0.5,2.38c0,0-0.37,1.62-0.75,2.25s-1.5,1.37-2.62,2c-1.13,0.63-1.38,1-1.38,1s0,1-0.88,1.75
		c-0.87,0.75-1.12,2-0.24,2.38c0.87,0.37,0,1.12-0.26,2.62c-0.24,1.5-1.12,2.62-1.74,3.25c-0.63,0.63-0.63,1.75-0.63,1.75l-1.25,0.5
		l-0.5-0.25c0,0,1.12-2.25,0.88-2.63c-0.26-0.37-2.88,3-2.88,3l2,0.5c0,0-1.12,3.26-1.12,4.26s-0.63,3.12-0.38,4
		c0.25,0.87-1.12,2.87-3.62,5c-2.5,2.12-1.76,2.37-1.76,2.37l0.88-0.13c0,0,1,0.88,1.38,1c0.37,0.13,1.62,0,2.37,0
		s-0.13-0.87-0.13-0.87l1.63-0.75c0,0,1.63-0.12,1.75,0.62c0.12,0.76,1.88,0,3.12,1.13c1.26,1.13,2.76-0.13,3.88-0.25
		s0.75-0.25,1.25-0.62c0.5-0.38,0.37-1.26,0.37-1.26l1.38-0.12l1.12,0.88c0,0,0.76,0.5,1.38,0.24c0.62-0.24,0.88-0.5,0.88-0.5
		l2.37-0.12c0,0,1.75,0.5,3,1.12c1.25,0.63,2.25-0.5,0.63,1.63c-1.63,2.13,1.5,1.63,2.62,1.63s1.62,2.5,1.12,2.74
		c-0.5,0.26-1.62,0.63-0.5,2.76c1.13,2.12-0.37,0.87,0,2.12c0.38,1.25-0.37,1.38-1.24,2.12c-0.88,0.76-0.38,3.76-0.38,5.26
		s-0.12,1.74-0.62,2.37s0,0.87-0.76,1.63c-0.74,0.74-0.12,1.62,0,2.62c0.13,1-0.12,1.25-1,2.25c-0.87,1-0.24,1.75-0.37,3
		s1.25,1,1.25,1s0.75,1.25-0.12,2.25c-0.88,1,0,1.62,1.5,2.75s1,1.63,2.74,3.25c1.76,1.62,2,2.25,2,2.25s-0.24,0.63-0.24,1.13
		s0.74,1.12,1.62,1.87s1.25-0.5,1.25-0.5l1,0.13c0,0,0.5,0.87,1.75,1.24c1.25,0.38,0.75,0,1.62-0.12c0.88-0.12,0.63-0.25,1.63-0.38
		c1-0.12,1.13,0,1.87-0.87c0.76-0.87,1.76-1.25,2.26-1.25s1.37-0.62,2-1c0.62-0.38,1-0.88,1.37-1s1.13,0.25,1.13,0.25
		c0.87,0,2-0.37,2-0.37l0.5,1c0,0,3.24-1,5,1.74c1.74,2.76,3.12,2.5,3.24,3c0.13,0.5,1.38,2.88,1.63,3.5c0.25,0.63,1,1.5,1.5,1.38
		s0.5-0.38,0.87-0.88c0.38-0.5-1-2.74-1-2.74s-0.12-1.38,1-1.38c1.13,0,4.26-4.62,4.26-4.62l2.37-0.38c0,0,0,0,0-1.5
		s-0.63-2.38-0.63-3s1.13-1.88,2.26-3.38c1.12-1.5,3.37-2.74,3.37-2.74h1.63c0,0-0.5,1.74,0.5,2.12s1.87-2.75,2.37-3.25
		s0.87,0.25,1.5,0.13c0.63-0.13,2.13-0.76,3.25-0.76s0.88-0.12,1.62-1c0.76-0.87,2-1.74,2.88-1.74s1.12-0.5,2-1.5s3.62-3.13,4-3
		c0.38,0.12,1,1.24,2.12,2.24c1.13,1-0.62,1.26-2.12,2c-1.5,0.76-1.25,0.76-3.12,2.13c-1.88,1.37-0.26,1.37,0.62,2s0.38,1.63,0,2.25
		s0.25,1.88,0.88,2.75c0.62,0.87-0.26,1.25-1.88,2.63c-1.62,1.37-1.12,2-1.5,2.5s0.62,1.12,2,3c1.38,1.87,1.62,0.74,1.62,0.74
		s1.13-1,2-2.12c0.88-1.12,0.38-1.5,0.38-2.62c0-1.13,0-1.5-1-2.63s-0.88-2.37-1.38-2.63c-0.5-0.24,0.88-1.24,1.26-1.74
		c0.37-0.5,1.24-1.13,1.87-1.88s1.5-0.38,2.13-0.62c0.62-0.26,1.12-0.38,2.24-1.26c1.13-0.87,2.13-0.5,5-0.5
		c2.88,0,3.63-0.87,3.38,0.26c-0.25,1.12,3,1.74,3,1.74s-0.62,2.63,0.5,4.13s1.75,0,3,0.37c1.25,0.38,1.5,0,3.5-0.24
		c2-0.26,1,0,2.62-0.26c1.63-0.24,1.76,0,2.5,0c0.76,0,0.88,0.5,1.26,1.13c0.37,0.63,2.24,1,3,1.63c0.74,0.62,1.62,0.5,2.24,0.5
		c0.63,0,1,0.37,1.5-0.26c0.5-0.62,2.13-1.37,2.88-2c0.75-0.62,1.12-0.37,1.62-0.62s2.26-0.5,2.76-0.88c0.5-0.37,3-0.5,3-0.5
		s1,0,2,0s3.24-0.87,3.24-0.87l0.13,1.87c0,0-1.25,0.63-3,0.63s-2.5,0.75-2.5,0.75l1.63,0.62l1.24,0.88c0,0,0.26,0.75-0.24,1.38
		c-0.5,0.62,0.62,0.87,1.12,1.37s0.62-1.13,0.62-1.13l1.13-0.5c0,0,1,1.38,1.63,1.38c0.62,0,1.37-0.38,1.37-0.38
		s1.63,1.38,2.37,1.63c0.76,0.25,1,1.25,1,1.25s-0.37,1-1,1.5c-0.62,0.5-0.87,2.38-0.87,2.38l-2.87,1.74c0,0,0.74,0.76,3.62,0.76
		s0.62-0.5,0.88-0.88c0.24-0.38,2.37-0.25,2.37-0.25l2.13,0.13l0.5,1c0,0,1,0.5,1.37,0.37s0.87,0.13,1.63,1.13
		c0.74,1,4.5,5,5.12,5.62s1.12,0.75,0.25,1.75s-1.75,2-2.25,2.5s0.38,1.87,0.38,1.87s1,0,1-1.12s0.87-1.25,0.87-1.25
		s0.25-0.87,2.63,0.13c2.37,1,4.24,5.5,4.24,5.5l1,0.12l0.76-0.5l0.74-0.12l2-0.38l0.76,0.75l1.37,0.63l0.87-0.5l0.88-0.38
		c0,0,1.38,0.88,4.12-0.12c2.76-1,9.88,3,9.88,3s4.5,3.74,5.38,4.74c0.87,1,5.12,5.26,6.12,6.5c1,1.26,1.38,7,1.38,8
		s1.24,2.13,1.87,3.13s1.75,1.75,3.13,2.75c1.37,1,1.12,1.62,1.12,1.62s-1.38,0-1.38,2.13s-3.87,5-7.24,7.87
		c-3.38,2.88-2.13,4.13-2.13,4.13l1.5-1.63c0,0,1.37,0.38,1.25,1.63s-0.12,2-2.25,2.25s-2.25,1.38-2.63,1.38h-2.24
		c-1.26,0-1.26,1.12-0.63,1.74c0.63,0.63,3.63-0.62,3.63-0.62l3-1.5c0,0,2.62-3.25,3.5-1.75c0.87,1.5,1.74,0.25,1.74,0.25
		s-0.62-1-0.74-1.62c-0.13-0.63,0-1.13,0-1.13l0.37-1.75l1-0.88c0,0,2-0.37,2.37,0.13c0.38,0.5,1.76,0.5,1.76,0.5
		s0.74-0.13,1.12-0.37c0.38-0.26,1.25-0.63,1.25-0.63s2,0.25,2.87,0.25c0.88,0,2.5,1.75,1.38,2.5s0,1,0,2.62
		c0,1.63-1.5,3.5-2.5,2.88s-3.62,1.62-3.62,1.62s-1.38,0.38-3.38,0.13s-2.88-1.37-2.88-1.37s-0.12,1,0,1.74
		c0.13,0.76,1.38,1.5,2.13,1s1.5,0.13,2.87,0.13c1.38,0,1.38-0.5,2.13-0.37l-0.13,1.5l-0.24,1.87h0.87l0.37-1.5l1.38-1.63l1.62-1.37
		c0,0,1.76-0.25,2-0.75c0.26-0.5,0.5-0.88,0.5-1.38s0.5-1,0.88-2.62s2.88-1,2.88-1l0.62-0.62c0,0,0.62-0.26,1-0.26
		s3.62,1.13,7.75,3.26c4.13,2.12,3.75,2.74,4.63,3.5c0.87,0.74,0.87-0.76,1.24-1.13c0.38-0.37,1.38-1.87,1.5,0
		c0.13,1.87,1.5,2.13,1.5,2.13s-1.12,2-0.62,2.37s1.12,1,1.12,1l1.13-0.5l1.25,1.5l-1.25,1l-0.87-0.37c0,0-0.76,0.12-1.5,1.12
		c-0.76,1-0.38,2-0.38,2s2.25-0.5,2.75-0.88c0.5-0.37,1.25-1,2.13-2c0.87-1,1-1.12,1.37-1.62s1.13-0.12,1.5-0.12s2.5-0.13,2.5-0.13
		s1.25,1,2.63,2.25c1.37,1.25,2,0.75,2,0.75l-0.13-0.63L613,336c0,0,0.88,1.12,3.25,2.38c2.37,1.24,1.63,0.24,1.63,0.24
		s0.87-0.62,1.5-0.62c0.62,0,2.24-0.5,3.12-0.5s2.38,0.38,3.5,1.25s2.5,1.75,3.5,3.13c1,1.37,2.5,2.37,5,3.62s3.25,2.12,5.5,5
		s6.88,2.5,8.12,2.5c1.26,0,1.26-0.12,2.13,0.25s1.87,1.75,1.87,2.5s0.26,3.87,0.88,5.63c0.62,1.74,1,6.24,1.75,7.74
		S652.62,378.5,652.5,378.88z"/>
	<polygon fill="#C7BCB1" points="327.75,320 329,322 330.75,322.75 330.75,324 329,325.5 330.5,326.5 331.75,325.5 334,324.75 
		333.75,323.5 332.25,321.75 331,320 330.5,319 329,318.25 	"/>
	<path fill="#C7BCB1" d="M332.75,320.75h2v-1.25C334.75,319.5,333.25,320.25,332.75,320.75z"/>
	<polygon fill="#C7BCB1" points="334.5,322.5 335.25,324.25 337,324.25 337.25,322.75 	"/>
	<polygon fill="#C7BCB1" points="340.833,324.083 340.417,324.583 339.583,325.083 340.333,325.75 341.667,325.917 341.833,325.167 
		341.5,323.917 	"/>
	<path fill="#C7BCB1" d="M471.917,593.333l1.083-0.5l1.833,1l0.583,1l0.083,0.834l-1.167,0.166c0,0-0.583,0.916-0.25,1
		s1.417,1.251,1.417,1.834s-0.333,0.75,0.083,1.083s1.25,0.166,1.167,0.583s-0.25,0.75-0.667,1.25s-0.833,1.25-0.833,1.25
		s-0.5,1.5-1.5,0s-2-1.916-1.417-2.583s0.917-2.249,0.25-2.833s-1-1-0.833-1.667s0.167-1.167,0.167-1.667
		S471.917,593.333,471.917,593.333z"/>
	<polygon fill="#C7BCB1" points="476.083,605.667 477,605.25 476.25,604.333 475.417,604.833 	"/>
	<polygon fill="#C7BCB1" points="477.833,606.667 476.917,607.667 477.333,608.667 479,608.5 	"/>
	<path fill="#C7BCB1" d="M475.917,608.917l1.25,1.083l0.583-0.083l0.583,0.833V612l1.417,0.5l1.5,1.333l0.083,1.25l-0.667,1.5
		l-0.75,0.334v1c0,0,0.75,0.417,1,0.5s0.417,1.416,0.417,1.416l0.5,1.084v0.75v0.5l0.25,0.916l-0.917,1.417l-1.917-0.25
		l-0.667-1.083l-0.917-0.417L477,623.583l0.333,0.834l-0.5,1l-1-0.167l-0.667-1.75l0.583-0.917l0.5-0.583l1.25-1.583h0.583
		l0.167-1.084l-1.5-0.083l-0.5-0.75l1.333-1l1.167-0.833v-1.5l1.25,0.25l-0.167-1.584l-1,0.334c0,0-0.75,1.417-1.083,0
		s-0.083-2.334-1-2.167s-2.25-0.583-2.25-0.583s0.25-0.084,0.417-0.917S475.75,608.917,475.917,608.917z"/>
	<path fill="#C7BCB1" d="M487,646.667l1.5,0.5l0.417-0.834c0,0-0.083-0.916-0.583-1.166s-1.083-0.25-1.083-0.25L487,646.667z"/>
	<polygon fill="#C7BCB1" points="488.25,647.75 488.833,647.917 488.917,649.333 488.417,650 487.583,648.833 	"/>
	<polygon fill="#C7BCB1" points="491.25,653.083 491.167,654.583 491.5,655.5 492.167,654.917 492.083,653.917 	"/>
	<polygon fill="#C7BCB1" points="493.333,653.167 493.417,653.917 494.667,654 493.833,652.583 	"/>
	<path fill="#C7BCB1" d="M493.167,655.75l0.5,1.5c0,0,0.916,0.417,0.916,0.75s0.334,1.25,0.334,1.25l1.666,0.083L495.75,658
		l-0.5-0.75l-0.167-1l-0.916-1.083l-0.917,0.083L493.167,655.75z"/>
	<path fill="#C7BCB1" d="M500,663l2,0.917l1.417,0.166c0,0,0.834,0.001,1.417,0.834s2.75,1.5,2.75,1.5l1.25,1
		c0,0,0.416,0.834,1.166,0.25s1.251-0.918,1.334-0.584s-0.168,1.167,0.166,1.417s1.25,0.334,1.667,0.417S513.75,670,513.75,670
		s0.666,0.333,0.5,0.75s-1.166,1.25-1.166,1.25s-0.084-0.917-0.334-1s-2.332-0.75-2.666-0.5s-1.001-0.749-1.334-0.833
		s-1.166,0.166-2.083-1.084s-0.834-1.666-1.667-1.666s-0.499,0.834-1.916,0s-2.001-0.917-2.584-1.667s-1.75-0.917-1.75-0.917
		S497.5,663.5,500,663z"/>
	<path fill="#C7BCB1" d="M515.208,670.542l0.792,0.625c0,0,0.624,0.25,0.583,0.375s0.459,0.25,0.459,0.25l0.416-0.334v-0.916
		l-0.708-0.625l-0.708,0.375C516.042,670.292,515.124,669.792,515.208,670.542z"/>
	<polygon fill="#C7BCB1" points="523.25,676.5 524.667,677.292 526.625,677.792 526.667,676.958 526.417,676.417 525.5,676.292 
		524.417,676.042 	"/>
	<path fill="#C7BCB1" d="M565.417,655.834l-0.833,0.5l0.417,0.917l-0.584,0.666l1.084,0.5l1.333-0.666l1.333-1.167l0.667-0.667
		l0.917-0.75l-0.084-1.916h-1.833l-1.833-0.25l-0.75,0.75l-1.667,0.333l0.25,0.833C563.834,654.917,566.333,655.917,565.417,655.834
		z"/>
	<polygon fill="#C7BCB1" points="562.667,657.001 561.751,657.167 561.751,656.501 562.334,656.001 562.751,656.417 	"/>
	<path fill="#C7BCB1" d="M570.001,659.084v-1.333v-0.667l0.333-0.833l0.667-0.334l1.25-1.166l-0.75-0.917l2.25-0.333l1.416,1.25
		c0,0,1.168-1.416,1.584,0.5s-1.084,1.416-1.084,1.416l-1.25,0.584l-1.583,1l-2.167,0.25L570.001,659.084z"/>
	<path fill="#C7BCB1" d="M566.584,650.334l1.083,1.25l1.5-0.5l0.75-0.833l1.334,1l0.916,0.333l0.834-0.833l1.083-1.25
		c0,0-0.583-2.25-0.75-1.917s-0.167,1.667-0.167,1.667l-0.916,0.25l-0.334,0.5l-1.083-0.584l-0.917,0.084l-0.583,0.416l-1,0.417
		l-0.583-0.583l-1,0.083L566.584,650.334z"/>
	<polygon fill="#C7BCB1" points="537.438,679.563 539.063,679.125 539.313,679.813 537.688,680.125 	"/>
	<polygon fill="#C7BCB1" points="540,680.875 540.438,679.688 541,680.625 	"/>
	<polygon fill="#C7BCB1" points="541.125,681.688 542.375,680 542.75,681.125 541.813,682.188 	"/>
	<polygon fill="none" stroke="#FFFFFF" stroke-width="0.5" stroke-miterlimit="10" points="553,675.938 553.688,675.938 
		554.938,674.875 556.188,674.563 556,674.063 554.188,674 553.563,674.875 	"/>
	<polygon fill="#C7BCB1" points="418.833,146.333 421.833,145.667 420.5,144.5 418.5,145 	"/>
	<polygon fill="#C7BCB1" points="423.833,143.333 424.5,145.333 426,145.5 426.167,146.667 425.667,148.333 425,149 425.333,150 
		426,150 426.5,149 427.667,148 427.667,146.667 426.833,145 424.667,142.667 	"/>
	<polygon fill="#C7BCB1" points="419.333,154.5 420.833,155.333 421.167,157.333 421.5,158.5 420.667,159.667 419.667,160.5 
		418.167,159.5 417.833,157.833 418.333,157.167 	"/>
	<polygon fill="#C7BCB1" points="420.5,161.167 421.833,161.5 421.833,163.167 421.333,164 420,163.833 	"/>
	<polygon fill="#C7BCB1" points="429.167,153.667 428,153.5 428,152.333 429.167,152.667 	"/>
	<polygon fill="#C7BCB1" points="429.667,155 430.833,156.333 431,157.833 430.333,158.5 430,157.667 430,156.667 	"/>
	<polygon fill="#C7BCB1" points="433,159 432.833,160.667 434.5,161.833 434.5,160 	"/>
	<polygon fill="#C7BCB1" points="437.667,161.5 439.167,162.5 438.667,163.5 	"/>
	<polygon fill="#C7BCB1" points="434.667,165.667 434,166.833 435,167 	"/>
	<polygon fill="#C7BCB1" points="438,169.667 440.333,172 439.5,173.167 438.5,174.667 440.167,174.667 440.833,173.5 
		441.5,172.833 441.5,171 439.833,170.167 	"/>
	<polygon fill="#C7BCB1" points="445,173.833 446.667,173.667 446.167,172.333 	"/>
	<polygon fill="#C7BCB1" points="445.5,179.5 444.833,181.667 443.833,182.833 440.667,182.667 440.833,181.667 442.5,180.5 
		444.167,180.5 444.333,179.167 	"/>
	<path fill="#C7BCB1" d="M378,176.167l3.167-0.833l0.167-2.167L383,171.5l3.833-1.833L388.5,169l2.833,0.167l1-1.333
		c0,0,7.667-0.5,9.167,0s4,1.5,4,1.5s1-0.834,2,0.333s0.5,2.167,1.333,2.5s2.667,0.833,3.5,0.833s3.167,1.5,3.167,1.5l3.167,1.667
		l-1.5-2.333l-1.833-1.167L414.667,172l1-0.5c0,0,1.167,0,1.5,0.833s1.167,1.667,1.167,1.667s2.5,1.667,2.333,2.167
		s-0.167,0.5-0.167,0.5s-1.666,1.5,0.667,2s2.666,1,3.333,1.5s3.834,0.667,4.667,1s0.167,0.334-0.5,1.167s1.5,1.167,1.5,1.167
		s3.833-0.167,5.667,2.5s2.833,1.5,0.167,2.667s-2.167,0.167-2.167,0.167H431c0,0,0.667,1.333-0.667,1s-4-0.5-4.333-1
		s-4,0.667-4,1.167s-2.166-1.333-2.333-0.667s-1.333,1-1.833,0.667s-1.167-1.667,0.167-2s1.334-1.667,2.667-1.167s0-1.5-0.5-2.167
		s-1.333,0.167-2,0s-1.333,0.5-2-0.167s-2.334-0.5-2.167-2.167s0.333-2.334-0.167-2.667s-1-1-1.667-1.333s-1,0.667-1.5,0.5
		s-3.334-0.167-3.667-1.167s-1.333-1.833-2.167-1.5s-1.667,0-1.667-0.5S401.5,176,401.5,176l-0.667-1L396,174
		c0,0-1.166-1-0.333-1.167s1.833-1.333,1.833-1.333s-2.833-0.333-3.5-0.333s-2-0.5-2.833,0.167s-1,1.166-2.5,1.333s0,2.167-1.833,2
		s-3.5-0.833-3.5,0s-1.167,1.5-1.833,1.667S378.5,177.833,378,176.167z"/>
	<path fill="#C7BCB1" d="M412,199.667c0,0-0.667,1.667,1.333,1.833s2.667,1.833,2.667,1.833s1.333,0,1.833,0
		s0.667-1.167,2.167-0.833s2.5,0.5,2.5,0.5l1-0.5c0,0,1.833-1.5-1-2.333s-1.333-0.667-3.833-1.667s-3-0.5-4.167,0.167
		S412,199.667,412,199.667z"/>
	<polygon fill="#C7BCB1" points="391.167,177.167 391.167,178.5 389.333,179.167 388.167,177.667 389.167,176.5 	"/>
	<path fill="#C7BCB1" d="M446.333,197.333l-1.5,1.5c0,0-0.667-0.5-1.667-0.333s-2.5,0-3,0s-1.167-1.167-1.833-1
		S436,197.833,436,197.833s-1.333,0.167-1.333,0.667s0.333-0.167,1,1s0.833,2,1.5,2.333s-1.833-1.333,1.5-1s5.667-0.167,5.667-0.167
		l3.333,0.5l1.333,1.667l1,1c0,0,0.5,0.167,0.833-0.333s0.333-0.833,1.333-2s2.666-3.5,3.333-2.5s2,1.667,2,1.667
		s1.5-1.667,2.333-2.5s2.167,0.667,2.167,0.667l3,0.167l0.667,1.333l1,0.167l1.667-2.167c0,0,0.333-1.5-0.167-1.5s-3-1.167-3-1.167
		L462,194c0,0-1.333-1.5-1.833-1.833s-3-1.333-3-1.333l-2.333-1.333l-4,0.667l-1.5,0.667l-2.167-1.167l-3-0.5l-2.5,1L445,192
		c0,0,0.5,0.833-0.167,1.333S444,195.5,444,195.5l-0.191,0.058L442.333,196l1.167,0.833l1.333-1.5L446.333,197.333z"/>
	<path fill="#C7BCB1" d="M474.5,199.333l0.833,2.167c0,0,0.333,0.667,2.5,0.667s3.667-1,4.167-0.667s1.5-0.833,1.5-0.833
		s0.833-2.167-1-2.5s-3.333-0.833-3.833-0.833s-3,1.167-3,1.167L474.5,199.333z"/>
	<polygon fill="#C7BCB1" points="448.833,178 449.833,178 450.333,177 449,177.167 	"/>
	<path fill="#C7BCB1" d="M453.333,242l1.333,0.833c0,0,1,0.667,1.5,0.167s0.5-1.833,0.5-1.833L455.5,240l-1,0.167l-0.333,1.167
		L453.333,242z"/>
	<polygon fill="#C7BCB1" points="460.333,239 461.167,240.167 462,241 463.667,240.333 462.5,239.333 461.333,238.167 	"/>
	<polygon fill="#C7BCB1" points="465.167,240 466.167,240 466.333,238.5 465.667,238.667 	"/>
	<path fill="#C7BCB1" d="M501.334,253.167c0,0,2.166,0.5,2.666,0.5s1.5-0.667,1.5-0.667s-0.333-1.333,0.167-1.833s0.167-2,0.167-2
		s-1.334-2-1.834-1.333s-2.332,1.666-1.666,1.833s1,0.167,1,0.833s-1.167,1.5-1.167,1.5L501.334,253.167z"/>
	<path fill="none" stroke="#FFFFFF" stroke-width="0.5" stroke-miterlimit="10" d="M507.834,245.5"/>
	<polygon fill="#C7BCB1" points="507.5,246.5 508,247.833 509.5,246.5 508.167,244.667 507.834,245.5 	"/>
	<polygon fill="#C7BCB1" points="502.667,240.667 503.667,240.667 503.5,239.5 502.834,239.333 	"/>
	<polygon fill="#C7BCB1" points="505.667,233.5 506.334,234 507.334,233 506.5,232 	"/>
	<polygon fill="#C7BCB1" points="507.334,230.5 508.334,230 508.5,228.167 507.334,228 507.167,229.833 	"/>
	<polygon fill="#C7BCB1" points="507.5,224.333 509.167,224.667 508.334,222.167 506.834,222.167 506.834,223.333 	"/>
	<polygon fill="#C7BCB1" points="505.667,219.5 507.334,219.5 506.667,217 504.334,217.833 	"/>
	<polygon fill="#C7BCB1" points="504.834,215.167 506.5,214 507.5,214 507.667,212.167 507,211.667 506,212.167 505.667,212.833 
		504.5,212.667 	"/>
	<polygon fill="#C7BCB1" points="504.334,208.667 505,208.667 506,207.167 504.667,206.667 504,207.333 	"/>
	<polygon fill="#C7BCB1" points="504.667,204.833 506,204.833 506.167,204 504.834,204 	"/>
	<polygon fill="#C7BCB1" points="498.834,206.5 499.834,206.667 500.167,205.667 499,205.667 	"/>
	<polygon fill="#C7BCB1" points="486.667,248.167 488,248.333 488,249 488.667,249.333 489.5,248.5 490,247.833 490,246.5 
		488.833,246.667 487.333,246.833 	"/>
	<polygon fill="#C7BCB1" points="514.875,233.813 516.313,234.188 516.375,232.875 515.313,232.875 	"/>
	<path fill="none" stroke="#666666" stroke-width="0.5" stroke-miterlimit="10" d="M218.05,106.67h0.12c0,0,1.33,0,2.16,0
		c0.84,0,2.67,0,3.17,0s1.33-1.17,1.33-1.17l4.67,0.33l0.67,1.67c0,0,4.66,0.83,5.33,1.5s6.33,2.17,6.33,2.17s0.34,0.33,0.84,1.16
		c0.5,0.84,4.16,1.67,4.16,1.67l0.67,1h14l2.67-3l8.83-0.5c0,0,5.67,6.83,6,7.67c0.33,0.83,1,3,1,3.83s-0.17,2.33-0.17,2.33
		l3.84,3.17l3.5,1.83c0,0,0.33-4.16,2.5-4.5c2.16-0.33,3.16-1.16,3.16-1.16l4.5,0.5l1.34,2.33l2,7l3,5l0.66,5.33l1,2.67l9.07,1.95"
		/>
	<polyline fill="none" stroke="#666666" stroke-width="0.5" stroke-miterlimit="10" points="331.98,225.83 331.5,219.33 
		334.33,214.83 341.33,214 342.17,212.5 337.33,207.17 339.33,206.33 339.5,203.67 340.33,202.83 351.33,202.67 355,199.62 	"/>
	<path fill="none" stroke="#666666" stroke-width="0.5" stroke-miterlimit="10" d="M342.67,230.17c1.7-2.61,3.76-5.48,4.83-5.84
		l0.17-2.5c0,0,3.94-2.95,5.53-5.15"/>
	<path fill="none" stroke="#666666" stroke-width="0.5" stroke-miterlimit="10" d="M355.89,236c0.86-0.55,1.91-1.17,2.69-1.42
		c1.59-0.5,1.92-2.25,1.92-2.25l0.67-2.58c0,0,1-0.58,1.75-0.33s2.33-2,2.33-2s0.83,0.83,1.08,1.08s0.67-0.25,1.09-0.67
		c0.41-0.41-0.17-1.08,0.75-1.5c0.91-0.41,1-0.58,2.16-1.33c1.17-0.75,2-1.75,2-1.75s1.09,0.58,1.84,0.5s2.75-0.33,3.41-0.83
		c0.67-0.5,1.59-0.75,1.59-0.75s1-0.42,1.75-0.92c0.1-0.07,0.22-0.11,0.35-0.13"/>
	<path fill="none" stroke="#666666" stroke-width="0.5" stroke-miterlimit="10" d="M366.06,245.99c0.33-0.01,0.75,0.1,1.02,0.59
		c0.5,0.92,1.25,1.09,1.75,1.17s2.09-0.08,2.42-0.33s0.92-0.84,1.33,0.33c0.42,1.17,1.17,1.75,1.75,1.83
		c0.36,0.05,2.05-0.3,3.4-0.73"/>
	<path fill="none" stroke="#666666" stroke-width="0.5" stroke-miterlimit="10" d="M380.23,263.64c0.07-0.28,0.12-0.58,0.19-0.81
		c0.16-0.58,0.08-0.75,0.08-1.66c0-0.92-1.17-1.59-0.75-2c0.42-0.42,0.83-0.75,0.83-1.17s-0.16-0.67,0.42-1.08
		c0.28-0.2,0.74-0.52,1.16-0.9"/>
	<path fill="none" stroke="#666666" stroke-width="0.5" stroke-miterlimit="10" d="M408.08,272.33l1.59-2.41l1.66-0.5
		c0,0-0.08-0.67,0.5-1.17c0.59-0.5,0.92-1,0.34-1.75c-0.59-0.75-1-1.08-0.92-1.67c0.04-0.31,0.28-1.12,0.51-1.85"/>
	<path fill="none" stroke="#666666" stroke-width="0.5" stroke-miterlimit="10" d="M394.43,341.28l0.9,1.05l-0.75,1
		c0,0-0.08,0.92-0.58,1.59c-0.5,0.66-0.75,1-1.08,1.5c-0.34,0.5,0.08,0.75,0.75,1.25c0.66,0.5,0.91,0.66,0.91,0.66l1.59,0.09
		c0,0,1,0.58,1.83,0.66c0.83,0.09,0.58,0.59,0.75,0.84s0.33,1.25,0.42,1.66c0.08,0.42,1.33,0,1.33,0L401,351
		c0,0,0.75-0.33,1.08-0.67c0.34-0.33,0.17-0.33,0.42-1.08s0.83-0.58,0.83-0.58c-0.33-2.75,0.92-3.09,1.5-5.25
		c0.59-2.17,2-3.09,2-3.09s1.09-1.08,1.75-1.66c0.67-0.59,1.84-0.92,2.34-0.92s0.91-0.5,1.58-0.83c0.67-0.34,2.67-1,2.67-1
		s0.58-0.25,1.5-1.34c0.91-1.08,1.83-1.66,2.08-1.91s0.83-2,0.83-2s0.42-0.75,0.25-1.75c-0.16-1,0.67-1,1.17-1.42
		s0.83-1.33,1.17-2.17c0.33-0.83,0.33-1.33,0-2.41c-0.34-1.09-0.92-0.92-0.92-0.92l-0.17-0.58l2.34-0.42c0,0,0.75,1.33,1.66,1.42
		c0.92,0.08,1.34,0.91,1.34,0.91l0.66,2.67c0,0,0.09,0.75,0.67,0.67c0.58-0.09,3.08,2.25,3.08,2.25l0.84,0.25l0.33,2.08l2.67,2.75
		l0.33,1.17l0.92,0.75c0,0,0.83-0.84,2.25,0.25c1.41,1.08,3.25-0.5,3.25-0.5s0.41-0.67,0.41-0.92s0.42-0.42,0.42-0.42l1.25-0.41
		l1,0.16l4,0.09l0.25,1.25l2.42,1.25l0.75,1.41c0,0-1.5,1.34-1.5,1.75c0,0.42-0.34,1-0.34,1s-0.41,0.75-0.66,1.34
		c-0.25,0.58-0.75,1.5-0.75,1.5l0.41,0.75l2.25,0.33l-0.25,1.33c0,0,0.75,1,1.25,0.92s0.92-1.17,1.09-1.5
		c0.16-0.33,1.16-4.75,1.16-4.75l0.34-6.83c0,0,0.5-2.5,0.83-4.5s0.5-0.67,0.25-2.09c-0.25-1.41-0.5-1.25-0.5-1.25l-1.17-2
		l-1.33-2.16l-0.92-1.34c0,0,0.67-0.83,0.17-2.58s0.92-2.33,0.92-2.33l1.5-0.17c0,0,0.91,0.08,1.25,0.25
		c0.33,0.17,1.08-0.25,1.08-0.25s0.33-0.83,0.33-1.17c0-0.33-0.08-0.91-0.33-1c-0.25-0.08-1.17-0.25-2.08-0.66
		c-0.92-0.42-2.09-0.34-2.09-0.34l-0.58-1.58c0,0,0.33-0.75,1-1.58c0.67-0.84,0.67-0.59,0.67-0.59l3.83-0.25
		c0,0,1.75,0.59,2.42-0.16c0.66-0.75,2.25,0.16,2.25,0.16l2.08,0.09c0,0,0.67-1.09,1-1.5c0.33-0.42,1.33-0.5,1.33-0.5l1.34-0.17
		l0.33-1.58c0,0-0.92-1.42-1.58-2.25c-0.67-0.84-1.84-1.42-1.84-1.42s0.25-0.67,1.25-1.58c1-0.92,1-0.59,1.34-0.92
		c0.33-0.33,0.33-0.75,0.16-1.33c-0.16-0.59-0.58-1.25-0.91-1.34c-0.34-0.08-1.5-2.5-1.5-2.5l-0.34-8.75l1.17-1.16
		c0,0,0.42-0.34,0.75-1.92s1.42-2,1.42-2l-1.25-1.08c0,0-2.17-0.25-3.09-0.34c-0.91-0.08-1.83,1.17-2.16,1.17
		c-0.34,0-1.84-0.08-4.34-0.17c-2.5-0.08-0.75-0.08-1.75-0.75c-1-0.66-0.83-0.91-1.41-1.75c-0.59-0.83-1.75-3-3.67-3
		s-9.33-0.25-9.33-0.25l-0.09-1.33c0,0-0.83-0.75-1.41-0.75c-0.59,0-0.25-0.75-0.17-1.25s0-0.5-0.08-0.92
		c-0.09-0.41-0.09-1.16,0.83-1.83s0.08-1.42,0-1.67s-0.42-0.91-1.08-1.58c-0.67-0.67-0.09-0.42-0.42-1.83
		c-0.33-1.42-1.42-2.34-1.83-2.75c-0.42-0.42-2-0.17-1.59-0.75c0.42-0.59,0.09-0.75,0.09-1.25s1-0.67,1-0.67s1.08,1.42,0.91-2.08
		c-0.16-3.5,0.84-2.42,0.84-3.17s0.41-1,1.25-2.25c0.83-1.25,1.08-1.33,1.83-2.25s0.58-0.67,0.83-1.25s0.59-0.5,0.59-0.5l0.09-0.02"
		/>
	<path fill="none" stroke="#666666" stroke-width="0.5" stroke-miterlimit="10" d="M402.25,310.83c0,0,2.08-0.16,2.08,1
		c0,1.17,1.17,1.17,1.17,1.17l2.5,0.5c0,0,1.17,3.17,1.67,3.5s6.16,0.67,6.16,0.67l0.84-1.67c0,0,0.66,0.17,1.5,1.33
		c0.83,1.17,1.5,2,1.5,2l1.41,2.09"/>
	<path fill="none" stroke="#666666" stroke-width="0.5" stroke-miterlimit="10" d="M451.08,346.08c0,0-2.75,0.5-3.58,1
		s-0.67,0.59-1.42,1c-0.75,0.42-1.33,0.34-2.83,0.17s-1.5,0.42-2.33,1.08c-0.84,0.67-1.5,1.67-2.34,2.42
		c-0.83,0.75-1.66,1.33-2.33,1.92c-0.67,0.58-0.75,1.33-0.75,1.33s0.17,2.58-0.25,3.17c-0.42,0.58-0.5,0.41-0.08,1.08
		c0.41,0.67,0.33,1.17,0.33,1.75s-0.08,0.92-0.33,1.17s-1.25,0.66-1.67,1.08s-1.58,1.5-1.58,1.5s0.33,0.75,0.25,1.67
		c-0.09,0.91-0.5,0.83-0.75,1.25c-0.25,0.41-0.75,1.25-0.75,1.25l0.91,1.08l0.5,0.83c0,0,0.75,2.25,1.25,3.5s1.67,1.42,2.34,2.17
		c0.66,0.75,2,2.5,1.83,3s-0.25,1.67-0.25,1.67l2.75,0.25l1.33-0.17c0,0,0,0.83,0,1.75s0.59,1.75,0.92,2s1.5,0.33,3.42,0.83
		c1.91,0.5,1.16-0.25,1.5-0.41c0.33-0.17,0.83-0.59,1.5-1.5c0.66-0.92,0.41-0.92,0.83-1.34c0.42-0.41,1.42-1.33,1.42-1.33
		s0.41,0.67,0.5,0.92c0.08,0.25-0.17,1-0.17,1l-0.25,1.41l0.25,6.3c0,0.74,0.63,0.87,1.37,0.87c0.76,0,0.76-0.25,0.76-0.25h2.87
		l1.5,0.12l6,10.13l-0.37,0.87c0,0-1,0.88-1.5,2.88s-0.13,2.25,0,3.12c0.12,0.88,0.5,0.76,0.74,1.26c0.26,0.5,0,2.74,0,2.74l-0.74,1
		l-0.26,1l-1.12,1.13l0.25,1.37l0.75,0.76l0.5,1.24l-0.38,1.26l0.13,4.74c0,0,2,3,1.25,3.38s-0.62,1.12-0.62,1.12
		s-0.13,0.88-1.38,1.38s-0.5,1.5-0.5,1.5l0.75,1.12l-1.63,1.5l-0.37,1.26l0.75,1.24l-0.5,0.88L459,439l-0.5,1.12l-0.45,0.11"/>
	<path fill="none" stroke="#666666" stroke-width="0.5" stroke-miterlimit="10" d="M533.09,671.76c0.03,0.07,0.16,0.391-0.67-0.59
		c-0.92-1.09-1.75-1.92-1.75-1.92l-0.92-1.42c0,0-0.17-0.75-1.33-1.83c-1.17-1.08-2.25-2.92-2.25-2.92s-1.59-0.58-1.92-0.83
		s0.08-1,0.17-1.5c0.08-0.5,0.75-1.42,0.08-1.75s-2.08-0.92-3.08-0.92s-4.25,0.25-4.17-0.33s-7.67-0.17-7.67-0.17
		s-1.25-0.58-1.66-1.16c-0.42-0.59-1.75-1.59-1.92-2.09s-1.08-2.08-1.17-3.08c-0.08-1-0.75-1.25-1.08-1.58
		c-0.33-0.34-2.17-0.42-2.17-0.42l-2.5,0.25c0,0,0.09-0.25-1.16-2.08c-1.25-1.84-1.42-1.84-2-2.34c-0.59-0.5-0.84-1.83-0.84-1.83
		l-1.16-1.08c0,0-0.5-1,0.25-1.59c0.75-0.58,0.83-0.58,1.58-1.41c0.75-0.84,1.08-1.09,1.5-1.42s-0.33-1.33-0.58-1.25
		s-1.92-0.58-1.34-1c0.59-0.42,1.92-1.08,1.92-1.08l0.08-1.17l-2.25-0.83c0,0-1.08,0.25-0.66-1.25c0.41-1.5,0.25-3.59,1-3.92
		s0.75-1.33,0.75-1.33s-2.25,0.33-1.42-0.92s0.75-2.58,0.75-2.58s-0.58-0.09-1.33-0.92s-1.59-1.25-0.59-1.67c1-0.41,0.17-1,0.17-1
		s-0.92-0.66-1.17-0.91s-0.08-0.92,0.42-1.09c0.5-0.16,0.92-1,0.92-1l-0.42-1.58l-1.75-0.58c0,0-0.58-1.17-1.5-1.17
		s-1.75-1.08-0.25-1s2.58-0.58,2.58-0.58l0.25-1.17L489,609c0,0-0.42-0.17-0.42-1.42s0-1.91-0.58-2.58s-0.67-1.75-1.42-2.67
		c-0.75-0.91-1.08-1.5-1.75-2.16c-0.66-0.67-1.83-0.92-1.83-2.5c0-1.59-0.58-1.59,0-2.09s1.25-1.16,1.25-1.16s-2.5-3.09-3.17-5
		c-0.66-1.92-0.83-1.92-1-2.84c-0.16-0.91-1.33-1.25-0.58-2.25s0.75-1.75,0.75-1.75s0.42,0.09-0.5-0.5c-0.92-0.58-1.42-1-1.17-1.75
		s0.59-1.75,0.34-2.25s-0.42-3.41-0.59-3.83c-0.16-0.42,1.25-0.58,1.75-0.83s1.34-0.84,1.34-0.84l-0.25-1c0,0-2.75-3.16-3-4.41
		s-0.67-1.42-1.09-1.75c-0.41-0.34-0.5-2.67-0.5-2.67s-0.08-1.17-0.58-1.75s-1.33-1.75-0.67-2.33c0.67-0.59,0.59-0.84,1.25-1.59
		c0.67-0.75,0.75-0.91,1.75-1.58s-0.16-1.33-0.16-1.33s-0.5-0.84-0.92-1.5c-0.42-0.67-1.17-0.84-1.17-2c0-1.17,0-2.67,0-2.67
		l0.75-2.92c0,0-0.08-0.41,0.67-0.91s1-0.84,1-0.84l-0.25-1.16c0,0-0.67,0-1.08-1.5c-0.42-1.5-0.09-1.17-1-3.09
		c-0.92-1.91-2.5-4.91-3.09-6.5c-0.58-1.58-0.41-1.5-0.91-2.08s0.08,0.42-1.34-1.33c-1.41-1.75-2.25-2.09-1.75-2.5
		c0.5-0.42,0.42-2.34,0.42-2.34s0,0.17,0.67-1.16c0.66-1.34,0.75-3.09,0.75-3.09s0.75-0.91,1-1c0.25-0.08,0.41-0.58-0.09-1.08
		s-1.08-2-1.08-2s-0.42-1.33-0.75-1.75s-0.83-0.42-0.75-1s0.58-1.17,0.58-1.17s1.09-4.33,0.92-5c-0.17-0.66,0.33-1,0.83-1.75
		s0.25-0.33,0.67-1.5c0.42-1.16,0.17-1.16,0.58-1.91c0.42-0.75,0.09-2.5,0.59-3.09c0.5-0.58,2.58-0.5,2.58-0.5s0-0.16,0.25-0.33
		s0-1.33,0-1.33l-1.5-1.79c0,0-0.75-0.63-0.75-1.38s0-2.5,0-3.25s-0.75-2-0.75-2.87c0-0.88-0.25-1.38,0-1.76
		c0.25-0.37,0.75-2.12,0.37-2.37c-0.37-0.25-2.12-0.63-0.12-1.63s3.5-1.87,4-2.37s1.62-1.5,1.62-1.5l0.13-6.5l-0.204-0.036
		l-2.666-0.464c0,0-2.13,0.13-1.88-1.63c0.25-1.74-0.12-1.37-0.75-3.37s-2.25-6-2.87-6.63c-0.63-0.62-1.13-0.62-1.63-2.37
		s-2.37-2.37-2-4s0.5-1.5,0.63-2.5c0.12-1,0-2.5,0-2.5s-0.19-0.5-0.63-1.19C466.81,444.38,467,445,466,443s-2.12-4.19-2.12-5.12
		c0-0.939-0.44-1.13-0.88-1.63s-1.38-1.63-1.38-1.81c0-0.19-0.37-0.82-0.37-0.82"/>
	<path fill="none" stroke="#666666" stroke-width="0.5" stroke-miterlimit="10" d="M533.08,671.75l0.01,0.01l1.91,1.57
		c0,0,1.83,1.34,2.17,1.5c0.33,0.17,2.41,1,2.66,1.17s2.5-0.08,2.5-0.08h1.75l2.59,0.25l1,0.25l0.66,0.92"/>
	<path fill="none" stroke="#666666" stroke-width="0.5" stroke-miterlimit="10" d="M479.25,469.75l-0.25-1.83c0,0,0.17-0.92,1-1.84
		c0.83-0.91,1.08-1.16,1.67-1.66c0.58-0.5,1.25-1.67,1.25-1.67l1.58-1c0,0,0.83,0.67,1.25,1.58c0.42,0.92,0.83,0.17,0.83,0.17
		l2.67,0.17c0,0,1.83,0.08,2.08,0.08s0.67,0.75,0.92,0.92c0.25,0.16,0.67,0.75,1.25,1.41c0.58,0.67,0.75,2.67,0.75,2.67
		s0.5-0.5,0.58-1.17c0.09-0.66,0.59-1,1.25-2c0.67-1,0-2.33,0-2.33l5.42,0.08c0,0,1.83,0.34,1.83,0.75c0,0.42,1.17,1.92,1.59,2.42
		c0.41,0.5,0,0,1,1.25s1.83,1.33,2.25,1.75c0.41,0.42,1.66,1.17,2.75,2.33c1.08,1.17,1.83,2.5,3.75,3.42
		c1.91,0.92,3.41,1.17,3.41,1.17l1.67,0.08c0,0,1.33,1.33,1.58,1.58s2.34,1.5,2.34,1.5s1.66,0.84,2.16,1.5
		c0.5,0.67,1.84,1.09,1.84,1.09l2.33,1.08c0,0,1.42,0.17,2.17,1s1.41,0.58,1.75,0.58c0.33,0,0.33,0,0.66,0.75
		c0.34,0.75-0.91,2-0.91,2s-0.34,1.34-0.59,1.92s-0.91,0.83-0.91,1.92c0,1.08-0.42,2.91-1.42,4.83s-0.08,0.92-0.08,1.5
		s0.75,0.42,3.08,0.42s1.5,0.08,2.5,0.25c1,0.16,1.42,1,2.75,1s3.33,0.25,3.33,0.25s1.92-0.59,2.75-0.59c0.84,0,1.25-0.41,1.84-1.08
		c0.58-0.67,0.83-0.92,1.33-1.5s0.92-1,2.08-2.58c1.17-1.59,0.67-1.42,0.67-2c0-0.59,0-4.59,0-4.59s0.5-0.58,1.17-0.66
		c0.66-0.09,1.66-0.17,1.66-0.17l1.17,0.17l0.33,0.91l1.09,1.17c0,0,0.25,1.25,0.91,3.5c0.67,2.25-1.75,5.42-1.75,5.42
		c-6.33,3.08-14.16,15.91-14.41,16.58s-1.17,1.75-1.34,2c-0.16,0.25-1.5,1.67-1.5,1.67v10.41c0,0,0.42,2.09,0.25,3.5
		c-0.16,1.42,1.17,2,1.17,2s0.25,0.67,0.42,1.25c0.16,0.59-0.34,0.75-0.67,1.09c-0.33,0.33-1.08,1.16-1.08,1.16s-0.67,1.09,0,2.25
		c0.66,1.17,1.66,1.84,1.66,1.84l0.11,0.49"/>
	<path fill="none" stroke="#666666" stroke-width="0.5" stroke-miterlimit="10" d="M538.33,517.93c1.11-0.199,2.75-0.68,2.75-0.68
		l0.92-0.5h1.67l1.25,0.17c0,0,0,0,0,0.41c0,0.42,0.58,0.84,2,2c1.41,1.17,1.58,1.42,1.58,1.42s-0.17,1.5-0.25,1.83
		c-0.08,0.34,1.08,0.59,1.5,0.09s0.67-0.67,0.67-0.67l0.91-0.25c0,0,0.59,0.33,1,1.17c0.42,0.83,2.5,1.25,2.5,1.25
		s1.84,1.25,2.25,1.58c0.42,0.33,2.25,1.58,2.25,1.58l1.92,1.34c0,0,1,1.16,1.83,1.91c0.84,0.75,1.59,0.84,1.59,0.84
		s-0.25-0.75,0.83,0.83c0.83,1.22,0.93,0.96,0.93,0.77"/>
	<path fill="none" stroke="#FFFFFF" stroke-width="0.5" stroke-miterlimit="10" d="M567.11,539.97c-0.61,0.08-1.44,0.04-1.44-0.8
		c0-1.34,0.25-1.5-0.34-2.25c-0.58-0.75-0.91-1-0.5-1.09c0.42-0.08,0-0.83,0.75-0.83s1-0.75,1-0.75l-0.15-1.23l-0.01-0.1"/>
	<path fill="none" stroke="#FFFFFF" stroke-width="0.5" stroke-miterlimit="10" d="M418.75,490"/>
	<path fill="none" stroke="#666666" stroke-width="0.5" stroke-miterlimit="10" d="M503.33,464.08c0,0,0.84-0.16,1-2.66
		c0.17-2.5,1.09-8.59,1.09-8.59s0.58-0.08,0.91-1.75c0.34-1.66,0.5-2.41,0.5-2.41s0.25-0.5,1.75-0.92s1.5,0.25,3.5-0.5
		s1.84-0.5,3.34-1.17c1.5-0.66,2.08-0.41,4,0c1.91,0.42,2.41,0.42,2.75,0.84c0.33,0.41,2.25,0.75,2.25,0.75s1.75-0.59,2.33,1.91
		s-0.08,1.92,0.75,3.5c0.83,1.59,1.25,4,1.92,4.5c0.66,0.5-0.09,0,0,2.67c0.08,2.67,0.41,2.83,0.41,3.08s-0.41,1.84,4.17,1.5
		c0,0,1.17-0.33,1.58,0.42c0.42,0.75,0.75,0.42,1,0.33c0.25-0.08-0.08-1,0.92-1s2,0,2.5,0.5s1,1.92,1.67,1.92
		c0.66,0,1.75,1.25,1.75,1.58c0,0.34-0.25,1.75,0.16,2.25c0.42,0.5,0.92,0.42,0.84,1.42c-0.09,1-0.09,1.67,0.41,2.33
		c0.5,0.67,0.75,0.5,0.5,1.25s1.5,1.5,2.09,0.92c0.58-0.58,0.08-1.42,1.08-1.42s1.75,0.09,2.08,0.34c0.34,0.25,1.09-0.09,1.17,2.08
		s0.25,3.33,0.25,3.33s-0.58,0.75-0.67,2.17c-0.08,1.42,0.17,2.5,0.17,2.5l-0.5,1.58"/>
	<path fill="none" stroke="#666666" stroke-width="0.5" stroke-miterlimit="10" d="M457.75,391.62c0,0,2.92,0.38,4.42,0.55
		c1.5,0.16,1,0.16,2.33-0.84s1.83-2.33,2.5-2.33s3-1.67,3-1.67s0.83-0.33,1.5-1c0.67-0.66,1.83-1.66,2.33-2.5
		c0.5-0.83,2.84,0,2.84,0l4.5-1c0,0,0.16,0.34,0.16,1.34s0.17,2,0.17,2.5s-0.17-0.34-0.67,1.16s-0.33,2.5,0.17,2.84
		c0.5,0.33,0.5,0.66,0,1.5c-0.5,0.83-0.83,1.66,0.17,2.16s2.66,2.34,3,3c0.33,0.67,1.16,2.34,2.16,2.67s1.17,1.33,1.17,1.33
		s4.33-0.16,4.83,0c0.5,0.17,2,1.34,3.34,2.17c1.33,0.83,2.16,1.83,3.5,2.67c1.33,0.83,2.5,0.83,2.5,1.83s0.66,0.67,2.5,0.67
		c1.83,0,2.66-0.5,3.83-0.17s2.5,1.33,2.33,2.5c-0.16,1.17,0.84,2,0.84,2.83c0,0.84,1.5,3.17,1.5,3.17s-0.84,0.5-1,1
		c-0.17,0.5-0.84,1.5-0.84,1.5s1.17-0.5,1.67,1.17c0.5,1.66,0.67,3.33,0.67,3.83s0.33,1.67,1.33,1.67s2.17,0.16,4.5,0.16
		s4.33,0.17,4.33,0.17l-0.16,3.67c0,0,0.16,2,0.83,2s0.33,1.16,0.83,1.16s1.34,1.17,1.34,1.17l2,0.17c0,0-0.84,1.16,0.16,2.66
		s1.67,1.67,1.67,2.5c0,0.84-2.67,1.34-2,1.34s0.67,1.33,0.67,2c0,0.66-1.17,3.16-1.17,3.16v1.5l-1,1"/>
	<path fill="none" stroke="#666666" stroke-width="0.5" stroke-miterlimit="10" d="M501.82,291.01c-0.08,0.09-0.431,0.54,2.01-0.84
		c2.67-1.5,2-2.17,2-2.17l0.5-0.83l0.5-1.17l-0.89-1.06c0,0-0.32-0.44-0.75-0.5c-0.44-0.06-1.631-1.56-1.631-1.56
		s0.5-0.44-0.18-0.88c-0.689-0.44-1-1.06-1-1.06s-0.689-0.63,0-1c0.68-0.38,0.93-0.75,0.93-1.56c0-0.82-0.43-2.07-0.43-2.07
		s0.561-0.25,1.37-0.69c0.81-0.43,1.37-0.12,2.13-0.5c0.74-0.37,1.62-0.5,1.62-1.18c0-0.69,0.69-1.32,0-1.75
		c-0.69-0.44-1.81-1.94-1.81-1.94s0.75-0.69,1.31-1.06c0.56-0.38,0.5-0.38,1.25-0.69s2.13-1.19,2.13-1.44s1.061-0.18,1.061-1.44
		c0-0.36,0.109-0.66,0.279-0.91"/>
	<path fill="none" stroke="#666666" stroke-width="0.5" stroke-miterlimit="10" d="M501.83,291c0,0,0,0-0.01,0.01
		c-0.11,0.05-2.03,1.01-3.32,1.49c-1.33,0.5-2.33,0-2.33,0l-1.5,1.17c0,0,0.5,1.33-0.17,2c-0.67,0.66-1.17,0-1.17,0
		s-1-0.84-2.16-0.84c-1.17,0-2.34-0.33-2.34-0.33l-2.5-1.33l-1.5-1.17l-2.16-0.33c0,0,1.16,1.5,1.16,2s1.67,1.66,1.67,1.66
		s0.83,0.84,1.33,1.5c0.5,0.67-1.16,2.34-1.16,2.34l1.33,1.5l0.5,1.33v1.17l0.67,0.33h2.33v2h-0.67l-0.33,1c0,0-0.83,0.17-2.17,0.5
		c-1.33,0.33-1,2.5-1,2.5l-0.83,0.83h-1.67c0,0-2.16,1-3.66,1.84c-1.5,0.83-0.67,2.66-0.67,2.66h-1.33l-0.17-1l-2-0.5l-0.83,0.5
		c0,0-1.17,0.67-2.17,0c-1-0.66,0,0-0.5-0.16c-0.5-0.17-1.17-1.84-1.33-2.34c-0.17-0.5-2,0.84-2,0.84s0-1-0.17-1.67
		s-0.17-1.5-0.17-2.5c0-0.78-0.41-1.77-0.58-2.16"/>
	<path fill="none" stroke="#666666" stroke-width="0.5" stroke-miterlimit="10" d="M506.83,286l2.42-0.25c0,0,1-0.42,1,0.58
		s0.08,1.25-0.08,1.5c-0.17,0.25-1,1.09-1,1.09l0.08,1.41c0,0,0.83-0.16,1.17,0.09c0.33,0.25,0.83,1.08,0.83,1.41
		c0,0.34-0.08,0.75,0,1.17s0.75,0.5,0.75,0.5s0.58,0.08,0,2.08s-0.5,2.17-1,3c-0.5,0.84-1.42,1.42-1.17,2.5
		c0.25,1.09,0.42,2.84,0.42,2.84l1.42,1.75l0.08,1.83c0,0,0.17,0.58,0.75,1.08s0.5,0.75,0.92,1.5c0.41,0.75,1.58,1.42,1.83,1.42
		s2.75,0,2.75,0s0.67-0.42,2.58-1.5c1.92-1.08,1.67-1.5,2.59-2c0.91-0.5,1.66-1.42,1.66-1.42s0.42-0.33,1.92,0
		c1.5,0.34,3.08,0.34,3.08,0.34s-1.25-2-1.5-2.17s-2.25-2-2.25-3.08c0-1.09-0.16-2-0.83-2.92s-1.58-1.83-1.58-1.83
		s-1.75-1.42-1.84-2.25c-0.08-0.84-0.91-1.59-0.91-2.17s0.25-1.92,0.83-2.5s0.83-1.83,0.83-2.25s0.09-0.67,0.25-0.92
		c0.17-0.25,0,0,1.59-0.25c1.58-0.25,1.33-2.16,1.33-2.16s0.67-0.34,0.67-1.25c0-0.34,0.16-1.26,0.36-2.27"/>
	<path fill="none" stroke="#666666" stroke-width="0.5" stroke-miterlimit="10" d="M529.83,306.92c0,0,2.09-0.25,2.42-0.25
		s0.67-0.5,0.75-1.25s-0.25-1.5-0.25-1.5s1.25,0,2.58,0c1.34,0,1.34-0.42,1.34-0.42l0.91-0.5l2.59,0.67c0,0,0.83,1.08,0.83,1.33
		s2.33,0.83,2.33,0.83l0.75-0.75c0,0,1.17-0.08,2-0.5c0.84-0.41,1.67-0.16,1.92-0.16s1.08,0.58,1.08,0.58l0.67,0.75
		c0,0,0.58-0.25,0.92-0.5c0.33-0.25,0.58-0.58,1-1.08c0.41-0.5,1-0.67,1-0.67s0.83-0.67,1-1.58c0.16-0.92,0-2.17,0-2.17l0.75-1.83
		c0,0,0.91-1.84,1.08-2.17s0.83-0.75,1.17-1.17c0.33-0.41,0.58-0.83,0.75-1.41c0.13-0.49,0.72-0.8,0.93-0.89"/>
	<path fill="none" stroke="#666666" stroke-width="0.5" stroke-miterlimit="10" d="M540.9,304.76c0.949-0.91,0.489-1.22,1.02-1.68
		c0.66-0.58,0.41-0.25,1.16-1.75s-0.66-1.33-0.58-2.16c0.08-0.84,0.42-0.67,1.25-2.25c0.83-1.59,0-0.75-0.33-1.84
		c-0.34-1.08-0.84-1.41-1.17-3.08s-0.25-2.33-0.25-2.33s0-2.09,0.08-3.17c0.09-1.08,0.92-1.25,1.5-1.83c0.59-0.59,0.5-0.92,0.5-2
		c0-0.47,0.16-0.97,0.34-1.43"/>
	<path fill="#394959" d="M457.75,419.418l1.167,0.75c0,0,1-0.167,0.75,0.583s-0.75,1.083-0.25,1.083s1.333,0,1.333,0
		s0.333,0.168,0.583,0.584s0.5,0.667,0.75,0.75s0.833,0.166,0.833,0.166s0.667,0.334,0.5,0.834s-0.167,0.5-0.167,0.5
		s0.833,0.666,0.333,1.166s-1.167-0.166-1.167-0.166s-0.5-0.834-1.167-0.834s-1.667-0.916-1.667-0.916s-0.167-0.667-0.75-0.667
		s-1.333-0.25-2-0.5s-0.167-0.833,0.25-1.333s0.5-1.334,0.5-1.334L457.75,419.418z"/>
	<path fill="none" stroke="#C7BCB1" stroke-width="0.25" stroke-miterlimit="10" d="M323.95,132.89L324,133
		C324,133,323.75,133.05,323.95,132.89z"/>
	<path fill="none" stroke="#C7BCB1" stroke-width="0.25" stroke-miterlimit="10" d="M334.25,126.38h0.43
		C334.47,126.39,334.25,126.38,334.25,126.38z"/>
	<path fill="none" stroke="#C7BCB1" stroke-width="0.25" stroke-miterlimit="10" d="M473.83,591.75c0,0,0.01,0,0.02,0
		C473.87,591.78,473.83,591.75,473.83,591.75z"/>
	<path fill="none" stroke="#C7BCB1" stroke-width="0.25" stroke-miterlimit="10" d="M652.5,378.88c-0.12,0.37-2.12,2.87-2.25,3.87
		S644,390,643.62,390c-0.37,0-1.74,1.75-1.74,3.12c0,1.38-4.88,9.88-4.88,9.88l-2.12,0.75c0,0,0.24-1.37-1.76-1.13
		c-2,0.26,0.88,1.5,0.88,1.5s-0.25,0.76-0.88,1.26c-0.62,0.5-1.24,5-1.24,5l1,1.37c0,0-1.76,1.87-1.76,2.5s1.5,0.75,1.5,3.87
		c0,3.13,0.13,1.5,0.13,1.5l1,3.26c0,0,1,1.5,0.63,2.62c-0.38,1.12-2,2.38-1.88,3.62c0.12,1.26,0.38,3.38,0.38,3.38
		s0.5,2.62-1.5,4.75s-0.63,7-0.63,7s0.5,3.25-1.25,4.37c-1.75,1.13-1,3.88-1.38,4.63c-0.37,0.75-1.37,1.13-2.37,2.13
		s0.13,2.24-1,4.24s0.63,2.76,0.63,2.76s-1.5,0.74-2.13,0.87s-2.37,2-2.37,2l-1.38,1.25c0,0,0.62,2.5-0.12,2
		C618.62,468,614,469,614,469l-0.62-1c0,0-0.76,1.38-1.88,1.38s-1.62-0.76-1.62-0.76l-0.76,1.13l-1.5,0.63l-0.12-1l-3.25,0.12
		l1.75,1c0,0-2.38,2.38-2.88,2.38s-1.5,1.12-1.5,1.12l1,0.62l-0.37,0.88c0,0-1,0-1.87,0c-0.88,0,0.62-0.38-2.76,0
		c-0.19,0.02-0.39,0.06-0.59,0.12c-3.45,0.979-8.91,6.88-8.91,6.88l-0.37,2l-1.87,0.38l-1.63,1.62l1,1l-0.37,1.5
		c0,0-0.88,1.25-0.76,2c0.13,0.75,1.38,6.12,2.5,7.75c1.13,1.63,0.13,7-1.87,8.13c-2,1.12-4.13,6-4.13,6
		c0,10.24-9.37,17.5-9.37,17.5s-0.13-1.26-0.13,0.5c0,1.74-2.74,7.74-3.12,7.87s-0.88-0.63-0.88,1.13c0,1.74-5.62,7.74-6,7.74
		c-0.37,0-2-0.12-2.87-0.62s-2.5,0-3,0.25s-1.5,1-2.63-0.5c-1.12-1.5-3.24-0.75-4.37-0.75s-1.63-1.25-2-1.62
		c-0.37-0.38-1.37,0-3-0.13s-0.75-0.87-1.13-1.25c-0.37-0.38-1.24-1.25-2.74-1.12c-1.5,0.12-0.26,1.87,0,2.24
		c0.24,0.38,1.12,1.38,1.87,1.76c0.75,0.37,1,0.87,1.37,1.37c0.38,0.5,1.63,0.87,3,1c1.38,0.13,0.88,0.75,1.26,1.13
		c0.37,0.37,1,0.62,1.62,0.62s0.38,1.62,0.38,1.62s-0.76,2.13-0.13,2.63s0.75,1.5,0.75,1.5l1,1c0,0,0.62,0.13,1.25,0.87
		c0.63,0.76,0.75,1.13,1.37,1.38c0.63,0.25,0.13,2.38,0.13,2.38s-0.5,1-0.5,2.24c0,1.26-1.37,1.26-2.13,2.13c-0.74,0.87,0,3,0,3
		c-5.74,5-14.24,5-15.87,5h-4.13c-0.62,0-1.37-0.5-3.5-1c-2.12-0.5-0.5,1.25-0.12,1.87c0.38,0.63,1.12,1.76,2.25,2.26s1.13,2.62,0,3
		c-1.13,0.37-0.25,3.87,1,4.5c1.25,0.62-0.13,1.74-0.75,2.12s-1.12,1.25-1.12,1.25s-4,0.87-5.63-0.25s-3.87-1.25-5.37-2
		s-2.88,2.38-0.88,3.25s2.62,5.5,2.62,5.5l1.26,0.63c0,0,0.5,0.24,1.74,0.62c1.26,0.38,1-0.25,1-0.25s0.5-0.63,1.13-1.13
		s1.25-0.12,1.5,0.26c0.25,0.37,1,1.12,2,1.24c1,0.13,0.5,3,0.5,3l-2.37,0.26c0,0-0.76-0.5-1.13-0.5s-0.63-1-1.75-1.26
		c-1.12-0.24-0.88,0.26-1.75,1.26s0.75,0.62,1.37,1c0.63,0.37,1.38,0.37,1.38,0.37s0.5,0.75-0.62,1.75c-1.13,1-3,2.38-2,3.75
		s1.37,3.37,1.37,3.37s-0.25,1.13-1.37,1.88c-1.13,0.75,1.12,0.88,1.12,0.88s2.88,2-0.38,1.74c-3.24-0.24-3.74,0.63-5.87,2.63
		s-1,5.25-0.25,6s3.88,3,4.12,3.75c0.26,0.75,4.13,0.62,5,0.62c0.88,0,2.63,0.63,2.63,0.63s-0.87,2.75-0.13,3.63
		c0.76,0.87,1,1.62-0.24,2c-1.26,0.37-3.38,4.62-4.26,5c-0.87,0.37-2.62,1.87-0.5,3.74c2.13,1.88,0,4.26,0,4.26
		s-1.62,0.12-1.74-0.38c-0.13-0.5,0-1.25-0.88-1.5s-0.62,1.12-0.62,1.12l0.74,1c0,0-0.37,1.88-0.87,2.63s0.13,2.63,0.25,3.13
		s2.75,2.12,2.75,2.12s-3.63,0.88-1.75,1.25s4.12,1.25,5,2.25s1.12,2.25,1.12,2.25s-1.12,1-1,1.5c0.13,0.5,2,0.5,2,0.5l2.5,2
		c0,0-2.24,1.25-0.62,1.25s5.88,3.5,7,4.5s1.5,1.25,3.5,2.25s1.62,1.13,3,1.87c1.38,0.76,1.75,0.76,4.12,1.13
		c2.38,0.37,1.88,0.5,2.26,0.5c0.37,0,1.28,1.85,0.12,2.63c-0.25,0.16-3.12-0.26-3.5-0.63s-1.12-0.13-3.75,0.25s-1.5,0-2.63,0
		c-1.12,0-1.87-0.25-2.24-0.88c-0.38-0.62-2.13-1-3.5-1.37c-1.38-0.37,0.24,0.75,0.74,1.13c0.5,0.37,1,0.87,2,1.5
		c1,0.62,1.26,1.37,1.26,1.37s-1.13-0.13-2,0.37c-0.88,0.5-1.38,0.13-1.76-0.87c-0.37-1-0.62-0.63-1.24-1.37
		c-0.63-0.76-0.38,1-0.76,1.74c-0.37,0.76-0.87,0-1.24-0.24c-0.38-0.26-0.26-0.76-1.5-1c-1.26-0.26-1.38-0.5-0.38-1.63
		s0.5-0.75-0.75-1.13c-1.25-0.37-1.13,1.5-3.25,0.38s-1.12,0-2.38,0.25c-1.24,0.25-0.24-1-0.62-1.37c-0.38-0.38-1,0.37-2.62,0.62
		c-1.63,0.25-1.13-0.75-2.76-1.38c-1.62-0.62,2.26-0.24,2.63-0.24s2.13-0.38,2.13-0.38s-0.63-0.75-1.76-1.25
		c-1.12-0.5,0.76-0.63,0.76-0.63s1,0,1.24-0.37c0.26-0.37-0.24-0.75-0.87-1.37c-0.63-0.63,0.87-0.38,1.87-0.26
		c1,0.13,0.63,1.26,0.76,2.38c0.12,1.12,0.24,1.5,0.24,1.5s1.5-0.38,2.88-0.38s1.5,0.76,3.25,0.76s0,0-0.13-0.76
		c-0.12-0.74-1.74-0.37-1.74-0.37s-1,0-1.13-0.5s-1.37-0.5-1.75-1.13c-0.38-0.62-1.25-0.62-1.75-1.24c-0.5-0.63,0.87-0.63,1.25-0.76
		c0.38-0.12,0.12-0.74,1.38-1.24c1.24-0.5,0.24-1.38,0.24-1.38s-1.37,0.12-2,0.38c-0.62,0.24-1.37,0.24-1.87,0.37
		s-1.5-0.25-1.5-0.25l-0.25-1.12l-0.38-0.63l0.63-0.37c0,0-0.13-0.88,0.25-1.13s1.12-0.37,1.12-0.37s-1.87-0.63,0.38-1.26
		c2.25-0.62,0.38-0.62-0.12-1c-0.5-0.37-1.13,0-1.88,0.63s-1.25,0.5-2.88,1.37c-1.62,0.88-0.5,0.63,0.13,1.26
		c0.63,0.62,0.25,1.24,0.25,1.62s0.12,0.75,0.5,1.25s0.12,0.87,0.25,1.75s-0.13,0.62-0.5,0.62s-0.87,0.13-2.25,0
		c-1.38-0.12-1.5-0.24-1.5-0.62s-0.75-0.25-1.62-0.38c-0.88-0.12-0.76-1.37-0.76-1.37s0.5-0.63,1.13-1.5s0.75-0.37,1.63-0.75
		c0.87-0.38,1-0.88,0.12-1.62c-0.88-0.76-1.12,0.87-1.62,1.24c-0.5,0.38-1.5,0.63-2.13,1c-0.63,0.38-0.75,1-0.75,1
		s-1.25,0.13-2-0.24c-0.75-0.38-0.12-1.38-0.12-1.38s0.62-0.75-1.26-0.75c-1.87,0-2.24-0.75-3-1.87c-0.74-1.13-1.37,0-2-0.88
		c-0.62-0.88-0.74-0.25-0.87-1.38c-0.13-1.12,2-0.12,2-0.12s1.25-0.25,1.13-1c-0.13-0.75,0.5-0.12,1.37-1.5s-2.13-0.5-2.13,0
		s-0.62,1.75-0.62,1.75s-1.25-0.75-1.88-0.87c-0.62-0.13-1.12-1.5-1.12-1.5s-0.5,0.12-2.12-0.63c-1.63-0.75-0.63-1.13-0.63-1.13
		s2-0.74,0-1.24s-2.13-0.63-1.5-2.13s0,0,1.13-0.75c1.12-0.75-0.5-0.88-0.5-0.88s-0.63,0.88-1.26,0.26
		c-0.62-0.63-0.87,0.12-1.12,0.87s0,0,0.25,0.87c0.25,0.88-0.75,0.88-1.37,0.88c-0.63,0,0.12-0.62-1.5-1.25
		c-1.63-0.63-1.13-0.87-0.76-1.25c0.38-0.38,1.76,0.12,1.26-0.38s0.5-0.5,1-1s1-0.62,1-0.62s-0.88-0.25-2.5-0.62
		c-1.63-0.38-0.76-1.26-0.13-1.88s1.25-1,1.25-1s-1.38-0.12-1.5-1.12c-0.08-0.68,0.18-0.79,0.35-0.79
		c-0.15-0.14-0.35-0.59-0.35-2.09c0-2.38-1.5,0.12-1.5,0.12l-0.25,2c0,0-0.87,2.26-1.25,0.26s-0.5-0.5-0.5-0.5s-0.25,0.62-1,1.87
		s-0.88-0.5-0.88-0.5s-0.12-0.63-0.74-0.63c-0.63,0-0.38-1.37,0.87-1.74c1.25-0.38,0,0-0.37-0.26c-0.38-0.24,0-0.62,0.12-1.24
		c0.12-0.63-0.12-0.5-0.12-0.5s0-0.63-0.13-1c-0.13-0.38-1,0.62-1.13,1c-0.12,0.37-0.79,1.2-0.79,1.2s-2.66-2.16-0.16-2.75
		c2.5-0.58,0.66-1.41,0.66-1.41c-3.83,0.83-1.83-0.5-2.75-1.25c-0.91-0.75-0.5-1.34-0.5-2c0-0.67,0.92-0.84,1.59-1.09
		c0.66-0.25,0.91,0.75,1.75,1.17c0.83,0.42,1.66,1.75,1.91,2.33c0.25,0.59,1.5,1.75,1.5,1.75l0.59-1.33v-1.08
		c0,0-2.34-0.92-2.59-0.92s-0.75-0.92-0.75-0.92l0.59-0.83c0,0,1.08,0.33,1.75,0.42c0.66,0.08,0.91,0.33,1.75,0.83
		c0.83,0.5,0.83,0.25,1.58-0.5s-0.92-1.08-1.5-1.42c-0.58-0.33-2-0.16-2.75-0.66s-0.42-0.92-0.42-0.92s-0.91-0.67-1.58-0.83
		c-0.67-0.17-0.25-0.75,0.83-2.25c1.09-1.5-0.41,0.66-1.91-0.67s0.58-3.67,0.58-3.67s0.75,1,1,0.34c0.25-0.67,0.17-1.25,0.58-2
		c0.42-0.75-1.25-0.5-1.58-0.75s0.33-1.59,0.33-1.59s-0.83-0.83-1.16-1.75c-0.34-0.91,1.08,0.25,1.58,0s1.5-0.33,2-1.08
		s-1.92-0.42-3.5-1s0.83-1.67,0.83-1.67s0.42-0.16,1-0.83c0.59-0.67,0.09-1.5,0.25-2.25c0.17-0.75-0.5-0.33-1.33-0.5
		s-1-0.83-1.67-0.92c-0.66-0.08-1.66-0.5-1.25-1.5c0.42-1,0.92-0.83,1.25-1.66c0.34-0.84-0.25-0.92-1.16-1.17
		c-0.92-0.25-1-1.42-1.09-1.92c-0.08-0.5,0.92-2.25,1-2.5c0.09-0.25,0.17-0.75-0.75-1.08c-0.91-0.33,0,0-0.33-0.75s0-2,0-2
		c1.92-0.08,0.25-1.92,0.25-1.92c-2.58,0.59-1-0.33-1.67-1.16c-0.66-0.84,0.42-0.5,0.84-0.92c0.41-0.42-0.92-0.83-2.17-0.92
		c-1.25-0.08-0.58,0.59-0.83,0.84c-0.23,0.23-1.85,0.32-2.07,0.33c-0.03-0.04-0.43-0.39-2.68-2.17c-3.17-2.5-1.42-4.83-2.5-7
		c-1.09-2.16-0.25-1.91,0.83-3.33s-0.33-2.33-0.33-4s-1.34-2.42-2.25-3.33c-0.92-0.92-0.84-2-1.42-3.59
		c-0.58-1.58-0.67-1.58-1.33-3.83c-0.67-2.25-1.09-1.75,0.41-2.33c1.5-0.59,0.67-1.09,0.42-1.75c-0.25-0.67,0-1.67,0.67-2.25
		c0.66-0.59,0.41-2.25,0.41-2.25l-1.16-2c1.25-0.34,1.58-0.84,1.58-0.84s-2.67,0.17-0.5-2.66c2.17-2.84,0.83-5.09,0.58-5.59
		s-1.66-4.75,0-4.91c1.67-0.17,0.42-2.75-0.08-2.92s-0.58-0.67,0-3.17s-4.42-13.41-4.58-14.33c-0.17-0.92-0.59-0.42,1.25-3.33
		c1.83-2.92-1.34-5.5-2.17-6.25s-0.08-2.34,0.5-3.17s0.83-1.58,1.33-2.5s-0.58-1.5-0.91-2.08c-0.34-0.59,0.25-1.67,0.58-2
		c0.33-0.34,0.17-1.5-0.17-2c-0.33-0.5-0.25-4.34-0.25-5c0-0.67,0.84-1.59,0.84-2.75c0-1.17-1.17-1.75-1.5-2.67
		c-0.34-0.92,0-2,0.91-3c0.92-1,0.75-1.42,0.42-1.83c-0.33-0.42-0.75-0.5-0.75-3.42s-0.42-5.25-1.25-6s-1-1.83-1.17-2.42
		c-0.16-0.58,0.75-0.58,1.59-1.75c0.83-1.16,0.5-6,0.66-8.25c0.17-2.25-0.33-1.33-1.25-4.41c-0.91-3.09-0.58-3.92-0.91-6.84
		c-0.34-2.91-0.59-3.16-1.17-4.58s-0.75-3.58-0.33-4.17c0.41-0.58-0.25-1-0.5-1.08s-0.75-0.92-0.75-0.92
		c-3.59-1.58-6.67-5.16-7.34-6.08c-0.66-0.92-5-4.17-5.83-4.42s-3.58-1.16-5.33-2.75c-1.75-1.58-5.17-2.66-8.09-4.08
		c-2.91-1.42-4.33-3.67-6.41-5.75c-2.09-2.08-3.09-4.17-3.84-5.33c-0.75-1.17,0.67-2.25,0.84-3c0.16-0.75-3.75-6.84-4.42-7.09
		s-1.83-2.41-1.83-2.41s0-2.42-0.92-3.09c-0.92-0.66-2.17-2.66-2.58-3.25c-0.42-0.58-1.92-4.91-2.59-5.41c-0.66-0.5-1-2.42-1.5-3.17
		s-1.58-2.83-1.66-4.08c-0.09-1.25-1.75-3.34-2.17-4.34s-2.5-3.25-2.5-3.25s-3.83-7.33-5.92-9.41c-2.08-2.09-5.33-2.42-5.33-2.42
		l0.25-1.83c0.67-1.09,0.83-0.5,1.75-0.92s-0.92-2.33-0.92-2.33l-1.66-1.17c0,0,0.25-1.25-0.5-1.75s-0.42-1.25-0.84-1.67
		c-0.41-0.41,0.92-1.66,0.75-2.16c-0.16-0.5,0.84-1.34,1-1.59c0.17-0.25,0.92-0.75,1.17-1.5s1.92-1.83,2.17-1.83
		s3.16-3.25,3.16-3.25s-0.25-1.83,0.34-2.75c0.58-0.92,0-1.58-0.42-1.92c-0.42-0.33-1.08,0.25-1.42,0.5
		c-0.33,0.25-0.33,1.25-0.33,1.25l-0.5,0.5c0,0-1-0.58-1-0.91c0-0.34-0.67-1.17-0.67-1.17l-1.25-0.5l-0.16-0.83c0,0,0,0,0.66-0.84
		c0.67-0.83,0-2,0-2l-0.33-0.25c0,0-0.5-1.83,0.08-2.41c0.59-0.59-0.08-0.92-0.08-0.92s-0.42-1.5-0.33-2
		c0.08-0.5,1.25-1.25,1.58-1.42c0.33-0.16,1.33-0.08,1.67-0.66c0.33-0.59-1.42-0.42-1.42-0.42s-0.17-1.92,0.08-2.08
		c0.25-0.17,0.75-0.84,1-1.25c0.25-0.42,1.59-0.75,2.17-1.67s-0.25-0.42-0.92-0.75c-0.66-0.33-0.25-3.08-0.25-3.08
		c1.59-0.42,1.92-0.67,1.92-0.67c3.58-1.75,4.67-2.33,6-2.67c1.33-0.33-1.08-1.58-1.58-1.66c-0.5-0.09,0.08-1.17,0.5-1.92
		c0.41-0.75,1.5,0.25,2-0.17c0.5-0.41-0.34-0.75-0.34-2s0.92-2.25,1.75-2.41c0.84-0.17,2.09,0.75,3.17-0.67s1.67-3.5,3-5.83
		c1.33-2.34,1.33-1.5,1.08-2.84c-0.25-1.33-1.66-0.33-1.66-1.91c0-1.59,0.41-1.92,1.16-3.17s-0.66-1.33-0.66-1.33
		s-0.42-2.17-0.5-3.09c-0.09-0.91,0.25-1.08,0.25-1.08s0.5-0.75,1-1.33c0.5-0.59,0.16-0.92,0.16-0.92s-1.33-0.67-1.33-0.92
		s0.83-0.91,1.5-1.5c0.67-0.58-0.08-1.08-0.75-1.75c-0.67-0.66-0.75-1.08-0.83-1.58c-0.09-0.5-1.84-1.67-2.09-2.42
		s-1-2.41-2.08-2.58s-0.5-1.75-0.5-1.75s0.42-0.42,0.42-1s1.25-1.5,1.25-1.5s1.5-0.92,0.25-1.17s-3.3-2.21-3.3-2.21
		c-1.74-2.81-5.12-0.62-5.12-0.62c-2.38,5.06-3.94,2.12-4.62,3.56c-0.69,1.44-0.38,1.32,1.37,3.06c1.75,1.76,0.56,0.69,0.75,1.82
		c0.19,1.12-2.25,2.06-2.81,2.12c-0.57,0.06-2.88-0.37-3.19-0.56s-0.81-2.5-1-2.5s-2-0.56-2-0.56s-1.19-0.44-1.94-1.32
		c-0.75-0.87-0.81-1.62-1.75-1.87c-0.93-0.25-1.87,0-2.5-0.37c-0.62-0.38-2.31-3.5-2.87-1.69s-2.25,1.06-2.44,1.06
		s-1.44-1.94-0.81-2c0.62-0.06,2.12-1.25,1.12-2s-4.48-3.25-4.48-3.25c-1.5-0.67-2-3.5-2.5-4.5s-2,0.5-2,0.5l1.17,1.17h0.67
		l0.16,1.66c0,0,0,0-2,0s-1.66-1.5-1.66-1.5c-3-0.16-1.5-3.16-1.5-3.16s2.66-1,1.16-1.67s0-2,0-2s1.34-3.83,2.67-1.83s2.17-1.84,1-2
		c-1.17-0.17-2-2.34-2-2.34c-0.67,0-2.5-2-2.5-2s-1.17-1.66-2-1.16s0.33,1.83,0.83,1.83s1.5,0.83,1.5,0.83l0.84,3.5
		c0,0,1.16,0.84-0.34,1.34s-3.5-3-4.16-3.67c-0.67-0.67-1.5-2.33-3.67-4.33s-1.83-2.17-1.83-2.17s0.83-0.83,0.83-2.67
		c0-1.83-1.67-0.33-2,0.34c-0.33,0.66-2.5,0-3.33,0c-0.84,0-3.67-1-4.34-1.67c-0.66-0.67-2-0.17-2.83-0.33
		c-0.83-0.17-2.5-2.34-3-2.84s-4-0.66-6.5-0.83s-13.83-14.33-13.83-14.33s-2.34-0.5-2.84-1s-1.33,0.16-1.33,0.83s-2.33,1.5-2.33,1.5
		c-8.84,6.67-19.5-3.67-19.5-3.67l-3.5-0.16c-0.84-1-3-1.84-3-1.84c-7.84-3-8.84-6.83-8.84-6.83c-4.16,2.17-9.66-2.67-9.66-2.67
		c-0.84-1.83-3.84-4.83-4.5-5.83c-0.67-1-1.84,0-1.84,0s-2.5-4.5-3.83-5.5s-0.17-2.33-0.17-2.33c1.67,0.66,3.84-1.34,3.84-1.34
		s-1.34-0.66-1.5-1.33c-0.17-0.67,2.83-3.17,2.83-3.17L263,178c0,0-0.83-2-0.33-3.83c0.5-1.84-0.67-3.34-0.67-3.34
		c-5.33-7.16-7.17-11.5-7.17-11.5l-1.33-0.16L252,158l0.83-2.17c-1.5,0.5-4.33-3.83-4.33-3.83l-1-0.17l-1-0.83l0.17-2l1.83-1.67
		l-0.83-2.66l-1.84-0.17l-0.33-2l-2.83-1l0.66-2.83l-0.5-1.5c-4-0.67-5.5-6.67-5.5-6.67l-2.83,0.33l-0.33-1.66l1.66-0.34l1.67-1
		c0,0,0,0-0.83-1.83c-0.84-1.83-2-6.5-2-6.5l0.66-2l0.84-0.67l0.5-1.16l-3-2.34c-2.67,1.34-5.34-1.83-5.34-1.83l-2,3.83v5l-1,2.5
		c0,0,0.84,1.5,3.67,6.67s2,8.17,2,8.17c3,2.5,2.17,5.16,3.17,5.83s2.83,2.67,2.33,4.5s0.33,6.67,0.33,6.67l0.67,0.66l0.17,1.67
		c0,0-2.17-0.5-0.5,2.83c1.66,3.34,2.83,1,2.83,1l1.33,1.34l1,2.66l0.5,0.67v1.17l-0.83,0.66l-0.33,1.5c0,0,0,0-1.84,0.5
		c-1.83,0.5-2.16-2-2.16-2c1.33-1.16-7.34-9.16-7.34-9.16l-1.66-1.67l1.16-1c0,0,0,0,0.5-1.17c0.5-1.16,0.17-1.83,0.17-1.83
		c2.5-0.67-0.17-4.33-0.17-4.33c-2-0.67-3.5-3.67-3.5-3.67L224,144c-2.5-2.17-6-6.33-6-6.33h4.67l1.5,1.5
		c1.6-0.16-0.5-2.79-0.66-2.99c0.09,0.07,0.72,0.42,1.49-2.35c0.83-3-6-8.5-6-8.5l-0.5-0.66l0.33-1l-0.5-0.84l1.34-2l-1.17-0.33
		l-0.33-1l1-1.33l-1.17-1.34c0,0,0.5-1.33,0.17-2.33c-0.34-1-0.5-2-0.5-2s0.83-0.83,0.66-3.17c-0.16-2.33-0.83-6-0.83-8
		S213.83,99,213.83,99l-0.33-2l-1.83-0.33c0,0,0,0-0.34-0.84C211,95,209,94.67,209,94.67c-4,0.16-5.33-1.17-5.33-1.17
		c3-3,2.33-4.5,2.33-4.5c-2.83-0.5-2.17-3.33-2.17-3.33c-3-3.5-0.83-5.67-0.83-5.67c3.67-0.33,0.17-2.67,0.17-2.67
		C201,76.5,203,73,203,73c3,3.17,2.17-2.5,2.17-2.5c-2.17,2.5-2.84-0.17-2.84-0.17s0.67-4-0.66-4.66c-1.34-0.67,2.5-6.34,2.5-6.34
		c-3.34-2.16-1.67-4.16-1.67-4.16c5-4,5.5-6.84,5.5-6.84C209.83,40,213.33,37,213.33,37c9-7.67,13.17-18.33,13.17-18.33l4.14-0.46
		c-4.08,0.35-2.97-1.54-2.97-1.54c2.66-1.67,3.66-8.84,3.66-8.84c0.34-5,4.17-3.33,4.17-3.33c1,1.67,4.17,1.5,4.17,1.5
		c3.83,0.67,0,2.5,0,2.5c1,1-0.67,1.67-0.67,1.67c-1.33-0.5-1.67,2.33-1.67,2.33c8.34-3.83,9-12.5,9-12.5h140.05
		c-1.5,0,0,0,0.62,1.62c0.62,1.63,1.5,0.76,2.25,0.76s1,1.12,1.63,1.5c0.62,0.37,0.87-1.13,0.87-1.13s1.87-0.75,2.5,0s1,1,2,1.87
		c1,0.88,2,0.88,3.63,1.13C401.5,6,400.75,5,400.75,5l1.13-0.25c0,0,1,0.87,1.37,0.87s1.87,0,3.5-0.24c1.63-0.26,0.63,1.5,0.63,1.5
		s-1.13,1.62-2.5,1.62c-1.38,0-1.5,0.75-3.76,1.5c-2.24,0.75-2.62,0.5-3.74,1.38c-1.13,0.87-2.88,1.87-3.63,1.87
		s-1.63,1.37-0.5,1.87s4.5-1.62,4.5-1.62s1.37,0.25,1,0.75s0.87,1.25,1.25,1.25s1.62-0.12,2-0.62s2.38-0.76,2.38-0.76
		s2.12-0.5,2.87-0.5s1.75-1.24,1.75-1.24l1-0.88l0.75,0.62l0.63,2.5l1.5-1.12l1.37,1c0,0,1.63,0.25,1.5,1.12
		c-0.13,0.88,3.87,0.13,4.63,0c0.74-0.12,1.37,0,1.87-0.37s2.63-0.75,3.63-0.75s1.87-0.12,1.87-0.12s0.25,1.5,0.25,2
		s2.88,0.12,2.88,0.12l0.5,2.38l-1.26,0.62h-3l-1.37-0.25c0,0-1-0.37-2.37-0.37c-1.38,0-1.26,0.37-1.76,0.37s-2.5,0.63-3.12,1.25
		s-2.38,0.88-2.38,0.88s-2,0.12-2.62,0.5c-0.62,0.37-1.75,1.24-2.5,2c-0.75,0.74-0.88,0.5-2.38,1.87c-1.41,1.28-2.04,2.24-2.11,2.36
		l2.24-1.23l1.25,0.24c0,0-0.5,1.13-1.12,1.88c-0.63,0.75-1,1.12-1.38,1.75s-1,1.63-1,1.63s-1.88,1.24-2.12,2.37
		c-0.26,1.13-1.13,2.5-1.88,3.75s-1.5,3.5-2.25,4.88c-0.75,1.37,0.13,3.87,0.13,3.87s3.24-0.75,3.87-0.87c0.63-0.13,1.5-1.13,2.13-2
		c0.62-0.88,1.74-1.63,2.62-2.5c0.88-0.88,1.38-2.26,1.38-2.26s-0.63-1.12,0.37-2.24c1-1.13-0.63-1.76-0.63-1.76s1.26-1.5,1.76-2.24
		c0.5-0.76,1.24-2.5,1.87-3.26c0.63-0.74,1.87-1.5,2.63-3c0.74-1.5,2.74-2,2.74-2s0.5,1.13,0.63,1.5c0.13,0.38,1.13-0.12,1.37-1.12
		c0.26-1,1.38-1.5,1.38-1.5s0.88-1,1.38-1s1.62-1.88,1.62-1.88l1.75-0.5c0,0,0.87,1.13,1.37,1c0.5-0.12,1.26,0.88,1.76,1.26
		c0.5,0.37,1.12,1.12,1.12,1.12s0.12,1.12-0.62,1.88c-0.76,0.74-0.5,1.74-0.88,3.12s0,0-1.5,0.88c-1.5,0.87-1.12,1.24-2.75,2.5
		c-1.63,1.24-0.13,2-0.13,2l2.63-1.13l1.25-1c0,0,1.25,0,1.88,0c0.62,0,0.12,1,0.12,1s0.12,2.25-0.38,2.37
		c-0.5,0.13,0,0.76-0.24,1.88c-0.26,1.12-0.13,1.12-0.76,2.12c-0.62,1-0.5,1.63-1.37,1.63s-1.13,0-1.87,0.5
		c-0.76,0.5-0.88,1-1.88,1.87c-1,0.88-1.62,1.88-2.12,2c-0.5,0.13-1,1.5-0.26,1.88c0.76,0.38,1.13,0.88,1.63,1.5s1.87,0,3.63,0
		c1.74,0,2.12-0.62,3.24-1.38c1.13-0.74,0.88-0.37,1.63-0.87s2-0.63,2.75-0.75s2.12-0.75,3.38-1.38c1.24-0.62,2.37-1.37,2.74-1.37
		c0.38,0,1.76,0,3.5-1.5c1.76-1.5,3.76-2,3.26-2.63c-0.5-0.62,1.24-1.5,2.12-2s2.88-0.5,2.88-0.5s3.12,0,4.87,0s2.5-0.24,3.25-1
		c0.75-0.74,1.25-1,3.12-1.87c1.88-0.87,0.38-1.5,0.38-1.5s0.62-1.25,0.88-1.75c0.24-0.5,1.24,0,2.37-0.5s2.5-1.75,3-2.25
		s2.63-1.5,3-1.5s6,0.37,6.37,0.25c0.38-0.12,5.76-0.12,5.76-0.12l5.24-0.63c0,0,1.26-0.25,1.88-1.13c0.62-0.87,1.75-1.37,1.75-1.37
		l1.63-0.5L498.5,21c3.5-1.5,1.75-1.62,2.75-2.88c1-1.24,2-1.62,2.87-2.74c0.88-1.13,1.5-1.38,2.26-2.38c0.74-1,1.12-1.12,1.74-1.62
		c0.63-0.5,1.63-1.76,1.63-1.76l1.25,0.63c0,0-0.25,1.75,0,2.13c0.25,0.37,1.5-0.88,1.88-1c0.37-0.13,1.37-0.26,2.37,0.12
		s1,0.88,1,0.88l-0.37,2.87l-1.38,1.63c0,0-0.38,2.24-1.25,3c-0.87,0.74,0.5,1.12,0.5,1.12h0.75l0.38,1.12l-1.5,0.88l-0.5,1.5
		l1.62,0.38l0.62,1l-0.74,1.5H513L510.38,29l-2.76,0.88l-1.62,0.5l-0.12-0.63l-1.63-0.37l-1,1.74l-1.5,1.13l-2,0.87
		c0,0-1.87,0.38-2.37,0.38s-1.76,0.62-1.76,0.62l-1.24,1.5c0,0-2.26,2.26-2.88,2.76s-0.62,3-0.62,3s0,0.62-1.88,0.62
		s-0.25,1.38-0.25,1.38l0.63,0.74c0,0-0.63,2.63,0.74,2.5c1.38-0.12,2.63,0.13,1.76,0.88C491,48.25,489,47.75,489,47.75l-2.38,0.13
		c0,0-0.37-0.76-2.5,0c-2.12,0.74-0.24,1.37-2.37,1.5c-2.13,0.12-2.25,0.37-4.63,0.37c-2.37,0-2,0.13-3.87,0.75s-1.13,0-3.25,1.38
		c-2.12,1.37-0.5,1.87-2.38,3.24c-1.87,1.38,0.38,2.5,0.38,2.5l-7.5,7.26c0,0-0.62-0.76-0.25-2c0.37-1.26-1.63-1-1.63-1
		s0,0.62,0,1.74c0,1.13,0.26,3.63,0,4.38c-0.24,0.75,0,1.12-2.87,4.38c-2.87,3.24-4.25,3.87-4.25,3.87s-0.12-0.5,0.25-1.63
		c0.37-1.12,1.13-2.12,1.13-2.74c0-0.63,0.62-1.38,0.62-2.13s-1.5-0.5-1.5-0.5l0.62-1.37c0,0,1-1,0.88-1.63s-0.25-1.5,0-2.25
		s1.62-1.75,1.62-1.75l0.75-0.99c-0.13,0.04-1.2,0.42-2.37,1.24c-1.25,0.88-1.12,2.12-2.38,3.12c-1.24,1-0.5,3.13-0.5,3.13
		l-0.74-0.37l-2.13,0.87l2,1l1,1.13L450,72.5l-1.5-0.25l-0.5,0.37l0.62,0.76l0.76,0.87l0.87,1.63l-2.37,0.37l-0.38,0.87l0.88,1.13
		l1.74,0.13l0.26,1.37l-0.88,1.37l0.5,0.63l-0.88,0.75l-1-0.12l-1,1c0,0-1.37,0.37-2.24,0.37c-0.88,0-0.13,1-0.13,1L447,85l1,0.12
		l0.38,0.76c0,0-0.13,0.74-0.76,1.62c-0.62,0.88-2.5-0.25-4.12,0.12c-1.62,0.38,0.62,0.76,0.62,0.76s1,0.74-1.5,1.24
		s-0.87,1.13-0.87,1.13l2.75,0.63l-1.75,1.24c0,0-2.75-0.37-4.5,0.76c-1.75,1.12-1.25,1.5-1.25,1.5l-3.62,2.5
		c0,0-2.38-0.13-4.13,0.87S423,104,422,104.88c-1,0.87-3.12,2.12-3.12,2.12s-1.38,1.25-3.5,2.88c-2.13,1.62-3.26,2-3.63,2.62
		s-0.13,1.88-2.87,5c-2.76,3.12-0.26,8-0.26,9.75s0.13,1.25,0.76,2.25c0.62,1,0.12,1.12,0.12,1.12l1.25,1.26l-0.13,1.12
		c0,0-0.12,0.5-0.62,0s-0.88,0.75-0.62,2.88c0.24,2.12,1.5,7.24,1.5,7.24l-0.13,2.88c0,0-1,2.12-1,2.62s0,1.76-1,2.63
		s-1,2.13-1,2.13l-1.63,1.37c0,0,0.38,1.25-1.87,0.13c-2.25-1.13-1.37-1-1.25-1.38s-0.12-1.5-1.38-3c-1.24-1.5-1.37-2.12-1.37-2.12
		s0.25-1.38,0.13-1.76c-0.13-0.37-1.13-0.5-1.13-0.87S399,144,399,144l-1.12-1c0,0,0.12-1.5-0.63-1.88c0,0,0.5-1.87,1.37-2
		c0.88-0.12,0.76-1,0.63-2.24c-0.13-1.26-1,0.74-1,0.74s-1.87-1.12-2.25-1.24c-0.38-0.13,1.62-2.5,1.62-2.5s1.13-1.63,1.88-3.38
		s-0.12-1.25,0.12-1.62c0.26-0.38-3.37-1.76-4.5-3.38c-1.12-1.62-0.62-2-0.62-2s-1.38-0.88-2.12-1c-0.76-0.12-0.88,0.12-1.88,1.12
		s-0.62,1-2.38,1.63c-1.74,0.63-1.5,0.13-2.24,0.13c-0.76,0,0-0.76,0-0.76l-0.38-1c0,0,0-1.12-0.12-2c-0.13-0.87-1.5,0.38-1.5,0.38
		h-2.26v-1l0.26-1.25l-1,0.87l-2.88,0.5c0,0,0-1-0.62-1c-0.63,0-1.76,0.88-2.63,1.26c-0.87,0.37-1.63,0.24-1.63,0.24l-0.24-0.5
		l0.24-1.37l-0.74-0.37l-1.38,1.74c0,0-3.12-0.24-4.25,0.13s-2.25,0.5-2.25,0.5s-1.62-0.37-3.12-0.75s-2.76,0.5-2.76,0.5l0.5,1.5
		c0,0,1.76-0.12,3.13,0.5s1.5,0,1.5,0s0.63,0.75-0.37,1.5s-1.13,0.88-1.13,0.88s0.37,0.62,1.5,0.87s1.25,1.75,1.25,1.75l-0.12,1.5
		h-2.5c0,0-0.26-0.62,0.12-1.38c0.38-0.74,0,0-1.25-1.12s-1.75-1.12-1.75-1.12v1.74l-1.38,0.26l-1-1L356,128.5l-2.62,0.25
		c0,0-1.5-1-1.76-1.75c-0.24-0.75-0.24-0.75-0.24-0.75l-1.76-0.37c0,0,0.5-0.88-0.5-1.38s-0.62,0.5-0.62,0.5l-0.62,0.5
		c0,0-2.63,0.5-3.26,0.25c-0.62-0.25-1.12-0.87-1.12-0.87l-0.75-1.5l-0.87,1.12h-1.76l-0.37-1.25l-0.87,0.5l0.24,1l-2.24,1.63h-2.2
		c0.46-0.02,0.9-0.16-0.8-0.76c-2.5-0.87-1,1.76-1,1.76s2.24,1.24,0.12,1.24s-2.12,0.38-2.75,0.38s-0.87,0.88-2.25,1.88
		s-1.62,0.74-3.12,1.5c-0.55,0.27-0.81,0.43-0.93,0.51l-0.45-1.01l-1.38,0.24l-0.24,2.13l-2.26,1.25l-1,1.25l-1.74,1l0.24,1.63
		l-1.74,1.37l0.87,0.25c0,0,1.87-0.12-0.87,1.25c-2.76,1.37-1.38,6.13-1.38,6.13l0.75,2L314,152.5l-1.12,1.5c0,0-2.13,2-4.38,11
		s-1.62,11.75-1.62,11.75l0.87,1.87c0,0-0.75,1.88-0.25,2.88s0.88,3.38,1.75,4.12c0.87,0.76,3.13,7.76,3.13,7.76s0.24,2.37,2,3.37
		c1.74,1,1.12,0.37,3,0.37c1.87,0,1.12,0.26,1.12,0.26s0.88,1.12,1.5,2.12s1.88,1.12,1.88,1.12s0,0,0.62,0s2.25-0.62,2.25-0.62
		l4.75-1.25c0,0,1.38-0.25,2.12-1c0.76-0.75,3.76-0.25,3.76-0.25l0.62,1.62l1-0.12c0,0,0.88-0.62,1.38-1s0.74-0.25,1-0.62
		c0.24-0.38-0.76-0.76-0.76-0.76s-0.74-1-0.37-1s2-1,2.5-1.24c0.5-0.26,2.5-1.63,2.5-1.63s0.75-2.87,1.75-4.25s1-3.38,1.5-4.38
		s0.75-2.62,1.62-3.5c0.88-0.87,3.76-1,3.76-1h3.87l-0.13-0.62l4.38-1c0,0,1.62,0.38,2.12,1.25s0.88,0.37,1.63-0.5s1-0.13,1.5-0.25
		s1.5,1.12,1.5,1.12l0.5,2.38c0,0-0.37,1.62-0.75,2.25s-1.5,1.37-2.62,2c-1.13,0.63-1.38,1-1.38,1s0,1-0.88,1.75
		c-0.87,0.75-1.12,2-0.24,2.38c0.87,0.37,0,1.12-0.26,2.62c-0.24,1.5-1.12,2.62-1.74,3.25c-0.63,0.63-0.63,1.75-0.63,1.75l-1.25,0.5
		l-0.5-0.25c0,0,1.12-2.25,0.88-2.63c-0.26-0.37-2.88,3-2.88,3l2,0.5c0,0-1.12,3.26-1.12,4.26s-0.63,3.12-0.38,4
		c0.25,0.87-1.12,2.87-3.62,5c-2.5,2.12-1.76,2.37-1.76,2.37l0.88-0.13c0,0,1,0.88,1.38,1c0.37,0.13,1.62,0,2.37,0
		s-0.13-0.87-0.13-0.87l1.63-0.75c0,0,1.63-0.12,1.75,0.62c0.12,0.76,1.88,0,3.12,1.13c1.26,1.13,2.76-0.13,3.88-0.25
		s0.75-0.25,1.25-0.62c0.5-0.38,0.37-1.26,0.37-1.26l1.38-0.12l1.12,0.88c0,0,0.76,0.5,1.38,0.24c0.62-0.24,0.88-0.5,0.88-0.5
		l2.37-0.12c0,0,1.75,0.5,3,1.12c1.25,0.63,2.25-0.5,0.63,1.63c-1.63,2.13,1.5,1.63,2.62,1.63s1.62,2.5,1.12,2.74
		c-0.5,0.26-1.62,0.63-0.5,2.76c1.13,2.12-0.37,0.87,0,2.12c0.38,1.25-0.37,1.38-1.24,2.12c-0.88,0.76-0.38,3.76-0.38,5.26
		s-0.12,1.74-0.62,2.37s0,0.87-0.76,1.63c-0.74,0.74-0.12,1.62,0,2.62c0.13,1-0.12,1.25-1,2.25c-0.87,1-0.24,1.75-0.37,3
		s1.25,1,1.25,1s0.75,1.25-0.12,2.25c-0.88,1,0,1.62,1.5,2.75s1,1.63,2.74,3.25c1.76,1.62,2,2.25,2,2.25s-0.24,0.63-0.24,1.13
		s0.74,1.12,1.62,1.87s1.25-0.5,1.25-0.5l1,0.13c0,0,0.5,0.87,1.75,1.24c1.25,0.38,0.75,0,1.62-0.12c0.88-0.12,0.63-0.25,1.63-0.38
		c1-0.12,1.13,0,1.87-0.87c0.76-0.87,1.76-1.25,2.26-1.25s1.37-0.62,2-1c0.62-0.38,1-0.88,1.37-1s1.13,0.25,1.13,0.25
		c0.87,0,2-0.37,2-0.37l0.5,1c0,0,3.24-1,5,1.74c1.74,2.76,3.12,2.5,3.24,3c0.13,0.5,1.38,2.88,1.63,3.5c0.25,0.63,1,1.5,1.5,1.38
		s0.5-0.38,0.87-0.88c0.38-0.5-1-2.74-1-2.74s-0.12-1.38,1-1.38c1.13,0,4.26-4.62,4.26-4.62l2.37-0.38c0,0,0,0,0-1.5
		s-0.63-2.38-0.63-3s1.13-1.88,2.26-3.38c1.12-1.5,3.37-2.74,3.37-2.74h1.63c0,0-0.5,1.74,0.5,2.12s1.87-2.75,2.37-3.25
		s0.87,0.25,1.5,0.13c0.63-0.13,2.13-0.76,3.25-0.76s0.88-0.12,1.62-1c0.76-0.87,2-1.74,2.88-1.74s1.12-0.5,2-1.5s3.62-3.13,4-3
		c0.38,0.12,1,1.24,2.12,2.24c1.13,1-0.62,1.26-2.12,2c-1.5,0.76-1.25,0.76-3.12,2.13c-1.88,1.37-0.26,1.37,0.62,2s0.38,1.63,0,2.25
		s0.25,1.88,0.88,2.75c0.62,0.87-0.26,1.25-1.88,2.63c-1.62,1.37-1.12,2-1.5,2.5s0.62,1.12,2,3c1.38,1.87,1.62,0.74,1.62,0.74
		s1.13-1,2-2.12c0.88-1.12,0.38-1.5,0.38-2.62c0-1.13,0-1.5-1-2.63s-0.88-2.37-1.38-2.63c-0.5-0.24,0.88-1.24,1.26-1.74
		c0.37-0.5,1.24-1.13,1.87-1.88s1.5-0.38,2.13-0.62c0.62-0.26,1.12-0.38,2.24-1.26c1.13-0.87,2.13-0.5,5-0.5
		c2.88,0,3.63-0.87,3.38,0.26c-0.25,1.12,3,1.74,3,1.74s-0.62,2.63,0.5,4.13s1.75,0,3,0.37c1.25,0.38,1.5,0,3.5-0.24
		c2-0.26,1,0,2.62-0.26c1.63-0.24,1.76,0,2.5,0c0.76,0,0.88,0.5,1.26,1.13c0.37,0.63,2.24,1,3,1.63c0.74,0.62,1.62,0.5,2.24,0.5
		c0.63,0,1,0.37,1.5-0.26c0.5-0.62,2.13-1.37,2.88-2c0.75-0.62,1.12-0.37,1.62-0.62s2.26-0.5,2.76-0.88c0.5-0.37,3-0.5,3-0.5
		s1,0,2,0s3.24-0.87,3.24-0.87l0.13,1.87c0,0-1.25,0.63-3,0.63s-2.5,0.75-2.5,0.75l1.63,0.62l1.24,0.88c0,0,0.26,0.75-0.24,1.38
		c-0.5,0.62,0.62,0.87,1.12,1.37s0.62-1.13,0.62-1.13l1.13-0.5c0,0,1,1.38,1.63,1.38c0.62,0,1.37-0.38,1.37-0.38
		s1.63,1.38,2.37,1.63c0.76,0.25,1,1.25,1,1.25s-0.37,1-1,1.5c-0.62,0.5-0.87,2.38-0.87,2.38l-2.87,1.74c0,0,0.74,0.76,3.62,0.76
		s0.62-0.5,0.88-0.88c0.24-0.38,2.37-0.25,2.37-0.25l2.13,0.13l0.5,1c0,0,1,0.5,1.37,0.37s0.87,0.13,1.63,1.13
		c0.74,1,4.5,5,5.12,5.62s1.12,0.75,0.25,1.75s-1.75,2-2.25,2.5s0.38,1.87,0.38,1.87s1,0,1-1.12s0.87-1.25,0.87-1.25
		s0.25-0.87,2.63,0.13c2.37,1,4.24,5.5,4.24,5.5l1,0.12l0.76-0.5l0.74-0.12l2-0.38l0.76,0.75l1.37,0.63l0.87-0.5l0.88-0.38
		c0,0,1.38,0.88,4.12-0.12c2.76-1,9.88,3,9.88,3s4.5,3.74,5.38,4.74c0.87,1,5.12,5.26,6.12,6.5c1,1.26,1.38,7,1.38,8
		s1.24,2.13,1.87,3.13s1.75,1.75,3.13,2.75c1.37,1,1.12,1.62,1.12,1.62s-1.38,0-1.38,2.13s-3.87,5-7.24,7.87
		c-3.38,2.88-2.13,4.13-2.13,4.13l1.5-1.63c0,0,1.37,0.38,1.25,1.63s-0.12,2-2.25,2.25s-2.25,1.38-2.63,1.38h-2.24
		c-1.26,0-1.26,1.12-0.63,1.74c0.63,0.63,3.63-0.62,3.63-0.62l3-1.5c0,0,2.62-3.25,3.5-1.75c0.87,1.5,1.74,0.25,1.74,0.25
		s-0.62-1-0.74-1.62c-0.13-0.63,0-1.13,0-1.13l0.37-1.75l1-0.88c0,0,2-0.37,2.37,0.13c0.38,0.5,1.76,0.5,1.76,0.5
		s0.74-0.13,1.12-0.37c0.38-0.26,1.25-0.63,1.25-0.63s2,0.25,2.87,0.25c0.88,0,2.5,1.75,1.38,2.5s0,1,0,2.62
		c0,1.63-1.5,3.5-2.5,2.88s-3.62,1.62-3.62,1.62s-1.38,0.38-3.38,0.13s-2.88-1.37-2.88-1.37s-0.12,1,0,1.74
		c0.13,0.76,1.38,1.5,2.13,1s1.5,0.13,2.87,0.13c1.38,0,1.38-0.5,2.13-0.37l-0.13,1.5l-0.24,1.87h0.87l0.37-1.5l1.38-1.63l1.62-1.37
		c0,0,1.76-0.25,2-0.75c0.26-0.5,0.5-0.88,0.5-1.38s0.5-1,0.88-2.62s2.88-1,2.88-1l0.62-0.62c0,0,0.62-0.26,1-0.26
		s3.62,1.13,7.75,3.26c4.13,2.12,3.75,2.74,4.63,3.5c0.87,0.74,0.87-0.76,1.24-1.13c0.38-0.37,1.38-1.87,1.5,0
		c0.13,1.87,1.5,2.13,1.5,2.13s-1.12,2-0.62,2.37s1.12,1,1.12,1l1.13-0.5l1.25,1.5l-1.25,1l-0.87-0.37c0,0-0.76,0.12-1.5,1.12
		c-0.76,1-0.38,2-0.38,2s2.25-0.5,2.75-0.88c0.5-0.37,1.25-1,2.13-2c0.87-1,1-1.12,1.37-1.62s1.13-0.12,1.5-0.12s2.5-0.13,2.5-0.13
		s1.25,1,2.63,2.25c1.37,1.25,2,0.75,2,0.75l-0.13-0.63L613,336c0,0,0.88,1.12,3.25,2.38c2.37,1.24,1.63,0.24,1.63,0.24
		s0.87-0.62,1.5-0.62c0.62,0,2.24-0.5,3.12-0.5s2.38,0.38,3.5,1.25s2.5,1.75,3.5,3.13c1,1.37,2.5,2.37,5,3.62s3.25,2.12,5.5,5
		s6.88,2.5,8.12,2.5c1.26,0,1.26-0.12,2.13,0.25s1.87,1.75,1.87,2.5s0.26,3.87,0.88,5.63c0.62,1.74,1,6.24,1.75,7.74
		S652.62,378.5,652.5,378.88z"/>
	<g>
		<path fill="#09B9E8" d="M295.004,446.778c0,2.053-0.737,4.316-2.141,5.721c-1.053,1.035-2.422,1.649-4.054,1.649
			c-3.053,0-4.492-2.299-4.492-4.809c0-2.088,0.825-4.387,2.264-5.808c1-0.983,2.474-1.598,3.966-1.598
			C293.723,441.935,295.004,444.251,295.004,446.778z M287.651,444.356c-1.141,1.141-1.807,3.211-1.807,4.86
			c0,1.931,0.86,3.703,3.176,3.703c1,0,1.965-0.438,2.703-1.176c1.105-1.123,1.754-3.246,1.754-4.896
			c0-1.685-0.544-3.686-3.124-3.686C289.301,443.163,288.371,443.619,287.651,444.356z"/>
		<path fill="#09B9E8" d="M303.915,453.569c-0.667,0.298-1.737,0.562-3.071,0.562c-2.983,0-4.791-1.878-4.791-4.896
			c0-2.229,0.895-4.352,2.527-5.702c1.211-1.036,2.72-1.598,4.457-1.598c1.316,0,2.246,0.334,2.562,0.579l-0.474,1.176
			c-0.439-0.263-1.281-0.491-2.334-0.491c-1.229,0-2.474,0.474-3.387,1.334c-1.105,1.035-1.808,2.702-1.808,4.492
			c0,2.123,0.965,3.86,3.598,3.86c0.895,0,1.877-0.176,2.527-0.509L303.915,453.569z"/>
		<path fill="#09B9E8" d="M312.283,448.393h-4.299l-0.807,4.316h4.843l-0.246,1.246h-6.3l2.246-11.827h6.037l-0.246,1.246h-4.562
			l-0.72,3.79h4.299L312.283,448.393z M313.634,439.426l-2.387,2.07h-1.298l1.79-2.07H313.634z"/>
		<path fill="#09B9E8" d="M316.123,450.218l-1.877,3.737h-1.544l6.124-11.827h1.72l1.632,11.827h-1.492l-0.474-3.737H316.123z
			 M320.089,449.06l-0.456-3.422c-0.07-0.614-0.158-1.475-0.21-2.176h-0.035c-0.316,0.701-0.614,1.438-0.965,2.158l-1.772,3.439
			H320.089z"/>
		<path fill="#09B9E8" d="M323.684,453.955l2.246-11.827h1.597l2.72,6.703c0.509,1.334,0.79,2.281,1.035,3.299l0.035-0.018
			c0.07-1.07,0.193-2.053,0.491-3.702l1.193-6.282h1.386l-2.264,11.827h-1.439L328,447.27c-0.579-1.457-0.842-2.299-1.105-3.404
			l-0.053,0.018c-0.123,1.105-0.316,2.281-0.614,3.896l-1.176,6.177H323.684z"/>
		<path fill="#09B9E8" d="M345.755,446.778c0,2.053-0.737,4.316-2.141,5.721c-1.053,1.035-2.422,1.649-4.054,1.649
			c-3.053,0-4.492-2.299-4.492-4.809c0-2.088,0.825-4.387,2.264-5.808c1-0.983,2.474-1.598,3.966-1.598
			C344.475,441.935,345.755,444.251,345.755,446.778z M338.403,444.356c-1.141,1.141-1.807,3.211-1.807,4.86
			c0,1.931,0.859,3.703,3.176,3.703c1,0,1.965-0.438,2.703-1.176c1.105-1.123,1.754-3.246,1.754-4.896
			c0-1.685-0.544-3.686-3.123-3.686C340.052,443.163,339.123,443.619,338.403,444.356z"/>
		<path fill="#09B9E8" d="M285.257,463.355c0.667-0.158,1.597-0.264,2.562-0.264c1.141,0,2.229,0.281,2.896,0.913
			c0.562,0.526,0.86,1.21,0.86,2.141c0,1.333-0.649,2.438-1.421,3.088c-0.913,0.772-2.246,1.123-3.58,1.123
			c-0.438,0-0.842-0.035-1.21-0.088l-0.895,4.738h-1.439L285.257,463.355z M285.59,469.041c0.421,0.087,0.754,0.122,1.176,0.122
			c2,0,3.334-1.245,3.334-2.912c0-1.404-1-1.966-2.352-1.966c-0.579,0-1.018,0.053-1.281,0.123L285.59,469.041z"/>
		<path fill="#09B9E8" d="M293.204,471.27l-1.878,3.737h-1.544l6.124-11.827h1.72l1.632,11.827h-1.492l-0.474-3.737H293.204z
			 M297.169,470.111l-0.456-3.422c-0.07-0.614-0.158-1.475-0.21-2.176h-0.035c-0.316,0.701-0.614,1.438-0.965,2.158l-1.772,3.439
			H297.169z"/>
		<path fill="#09B9E8" d="M308.573,474.621c-0.667,0.298-1.737,0.562-3.071,0.562c-2.983,0-4.791-1.878-4.791-4.896
			c0-2.229,0.895-4.352,2.527-5.702c1.211-1.036,2.72-1.598,4.457-1.598c1.316,0,2.246,0.334,2.562,0.579l-0.474,1.176
			c-0.439-0.263-1.281-0.491-2.334-0.491c-1.229,0-2.474,0.474-3.387,1.334c-1.105,1.035-1.808,2.702-1.808,4.492
			c0,2.123,0.965,3.86,3.598,3.86c0.895,0,1.877-0.176,2.527-0.509L308.573,474.621z"/>
		<path fill="#09B9E8" d="M313.817,463.18l-2.246,11.827h-1.457l2.246-11.827H313.817z M315.923,460.478l-2.404,2.07h-1.281
			l1.772-2.07H315.923z"/>
		<path fill="#09B9E8" d="M316.465,463.18h6.001l-0.229,1.246h-4.544l-0.772,3.983h4.194l-0.246,1.246h-4.176l-1.018,5.352h-1.457
			L316.465,463.18z"/>
		<path fill="#09B9E8" d="M326.062,463.18l-2.246,11.827h-1.457l2.246-11.827H326.062z"/>
		<path fill="#09B9E8" d="M334.642,474.621c-0.667,0.298-1.737,0.562-3.071,0.562c-2.983,0-4.791-1.878-4.791-4.896
			c0-2.229,0.895-4.352,2.527-5.702c1.211-1.036,2.72-1.598,4.457-1.598c1.316,0,2.246,0.334,2.562,0.579l-0.474,1.176
			c-0.439-0.263-1.281-0.491-2.334-0.491c-1.229,0-2.474,0.474-3.387,1.334c-1.105,1.035-1.808,2.702-1.808,4.492
			c0,2.123,0.965,3.86,3.598,3.86c0.895,0,1.877-0.176,2.527-0.509L334.642,474.621z"/>
		<path fill="#09B9E8" d="M346.747,467.83c0,2.053-0.737,4.316-2.141,5.721c-1.053,1.035-2.422,1.649-4.054,1.649
			c-3.053,0-4.492-2.299-4.492-4.809c0-2.088,0.825-4.387,2.264-5.808c1-0.983,2.474-1.598,3.966-1.598
			C345.466,462.986,346.747,465.303,346.747,467.83z M339.395,465.408c-1.141,1.141-1.807,3.211-1.807,4.86
			c0,1.931,0.86,3.703,3.176,3.703c1,0,1.965-0.438,2.703-1.176c1.105-1.123,1.754-3.246,1.754-4.896
			c0-1.685-0.544-3.686-3.124-3.686C341.044,464.215,340.114,464.671,339.395,465.408z"/>
	</g>
	<g>
		<path fill="#09B9E8" d="M707.683,266.164c0,2.091-0.75,4.396-2.18,5.825c-1.072,1.054-2.466,1.68-4.128,1.68
			c-3.108,0-4.574-2.341-4.574-4.896c0-2.126,0.84-4.467,2.306-5.915c1.018-1,2.519-1.626,4.038-1.626
			C706.378,261.232,707.683,263.591,707.683,266.164z M700.196,263.698c-1.162,1.162-1.841,3.27-1.841,4.95
			c0,1.965,0.876,3.77,3.234,3.77c1.019,0,2.001-0.447,2.752-1.197c1.125-1.144,1.786-3.306,1.786-4.985
			c0-1.715-0.554-3.752-3.181-3.752C701.876,262.483,700.929,262.947,700.196,263.698z"/>
		<path fill="#09B9E8" d="M716.755,273.079c-0.68,0.304-1.77,0.572-3.127,0.572c-3.038,0-4.878-1.912-4.878-4.985
			c0-2.269,0.911-4.431,2.572-5.807c1.233-1.054,2.77-1.626,4.539-1.626c1.34,0,2.287,0.34,2.608,0.59l-0.482,1.197
			c-0.446-0.268-1.305-0.5-2.376-0.5c-1.251,0-2.52,0.482-3.449,1.358c-1.125,1.054-1.84,2.752-1.84,4.574
			c0,2.162,0.982,3.931,3.663,3.931c0.911,0,1.911-0.179,2.572-0.518L716.755,273.079z"/>
		<path fill="#09B9E8" d="M725.273,267.808h-4.377l-0.822,4.396h4.932l-0.25,1.269h-6.415l2.287-12.043h6.146l-0.25,1.269h-4.646
			l-0.732,3.859h4.378L725.273,267.808z M726.649,258.677l-2.43,2.108h-1.322l1.822-2.108H726.649z"/>
		<path fill="#09B9E8" d="M729.184,269.666l-1.912,3.806h-1.572l6.236-12.043h1.751l1.661,12.043h-1.519l-0.482-3.806H729.184z
			 M733.222,268.486l-0.465-3.484c-0.071-0.625-0.16-1.501-0.214-2.216h-0.036c-0.321,0.715-0.625,1.465-0.982,2.198l-1.805,3.502
			H733.222z"/>
		<path fill="#09B9E8" d="M736.88,273.472l2.287-12.043h1.626l2.77,6.826c0.519,1.358,0.805,2.323,1.055,3.359l0.035-0.018
			c0.072-1.09,0.197-2.091,0.501-3.771l1.215-6.396h1.411l-2.305,12.043h-1.465l-2.734-6.808c-0.59-1.483-0.857-2.341-1.125-3.466
			l-0.054,0.018c-0.125,1.126-0.322,2.323-0.626,3.967l-1.197,6.29H736.88z"/>
		<path fill="#09B9E8" d="M759.354,266.164c0,2.091-0.75,4.396-2.18,5.825c-1.072,1.054-2.466,1.68-4.128,1.68
			c-3.108,0-4.574-2.341-4.574-4.896c0-2.126,0.84-4.467,2.306-5.915c1.018-1,2.519-1.626,4.038-1.626
			C758.049,261.232,759.354,263.591,759.354,266.164z M751.867,263.698c-1.162,1.162-1.841,3.27-1.841,4.95
			c0,1.965,0.876,3.77,3.234,3.77c1.019,0,2.001-0.447,2.752-1.197c1.125-1.144,1.786-3.306,1.786-4.985
			c0-1.715-0.554-3.752-3.181-3.752C753.547,262.483,752.6,262.947,751.867,263.698z"/>
		<path fill="#09B9E8" d="M690.203,291.099l-1.912,3.806h-1.572l6.236-12.043h1.751l1.661,12.043h-1.519l-0.482-3.806H690.203z
			 M694.241,289.919l-0.465-3.484c-0.071-0.625-0.16-1.501-0.214-2.216h-0.036c-0.321,0.715-0.625,1.465-0.982,2.198l-1.805,3.502
			H694.241z"/>
		<path fill="#09B9E8" d="M700.956,284.148h-3.521l0.25-1.287h8.541l-0.25,1.287h-3.538l-2.036,10.756h-1.483L700.956,284.148z"/>
		<path fill="#09B9E8" d="M707.581,282.862h1.483l-2.055,10.756h4.859l-0.25,1.287h-6.325L707.581,282.862z"/>
		<path fill="#09B9E8" d="M715.833,291.099l-1.912,3.806h-1.572l6.236-12.043h1.751l1.661,12.043h-1.519l-0.482-3.806H715.833z
			 M719.871,289.919l-0.465-3.484c-0.071-0.625-0.16-1.501-0.214-2.216h-0.036c-0.321,0.715-0.625,1.465-0.982,2.198l-1.805,3.502
			H719.871z M722.337,280.11l-2.43,2.108h-1.322l1.822-2.108H722.337z"/>
		<path fill="#09B9E8" d="M723.529,294.905l2.287-12.043h1.626l2.77,6.826c0.519,1.358,0.805,2.323,1.055,3.359l0.035-0.018
			c0.072-1.09,0.197-2.091,0.501-3.771l1.215-6.396h1.411l-2.305,12.043h-1.465l-2.734-6.808c-0.59-1.483-0.857-2.341-1.125-3.466
			l-0.054,0.018c-0.125,1.126-0.322,2.323-0.626,3.967l-1.197,6.29H723.529z"/>
		<path fill="#09B9E8" d="M738.945,284.148h-3.521l0.25-1.287h8.541l-0.25,1.287h-3.538l-2.036,10.756h-1.483L738.945,284.148z"/>
		<path fill="#09B9E8" d="M747.036,282.862l-2.287,12.043h-1.483l2.287-12.043H747.036z"/>
		<path fill="#09B9E8" d="M755.771,294.512c-0.68,0.304-1.77,0.572-3.127,0.572c-3.038,0-4.878-1.912-4.878-4.985
			c0-2.269,0.911-4.431,2.572-5.807c1.233-1.054,2.77-1.626,4.539-1.626c1.34,0,2.287,0.34,2.608,0.59l-0.482,1.197
			c-0.446-0.268-1.305-0.5-2.376-0.5c-1.251,0-2.52,0.482-3.449,1.358c-1.125,1.054-1.84,2.752-1.84,4.574
			c0,2.162,0.982,3.931,3.663,3.931c0.911,0,1.911-0.179,2.572-0.518L755.771,294.512z"/>
		<path fill="#09B9E8" d="M768.096,287.597c0,2.091-0.75,4.396-2.18,5.825c-1.072,1.054-2.466,1.68-4.128,1.68
			c-3.108,0-4.574-2.341-4.574-4.896c0-2.126,0.84-4.467,2.306-5.915c1.018-1,2.519-1.626,4.038-1.626
			C766.791,282.665,768.096,285.024,768.096,287.597z M760.609,285.131c-1.162,1.162-1.841,3.27-1.841,4.95
			c0,1.965,0.876,3.77,3.234,3.77c1.019,0,2.001-0.447,2.752-1.197c1.125-1.144,1.786-3.306,1.786-4.985
			c0-1.715-0.554-3.752-3.181-3.752C762.289,283.916,761.342,284.38,760.609,285.131z"/>
	</g>
</g>
</svg>
