<?xml version="1.0" encoding="utf-8"?>
<!-- Generator: Adobe Illustrator 15.1.0, SVG Export Plug-In . SVG Version: 6.00 Build 0)  -->
<!DOCTYPE svg PUBLIC "-//W3C//DTD SVG 1.1//EN" "http://www.w3.org/Graphics/SVG/1.1/DTD/svg11.dtd">
<svg version="1.1" id="Layer_1" xmlns="http://www.w3.org/2000/svg" xmlns:xlink="http://www.w3.org/1999/xlink" x="0px" y="0px"
	 width="983px" height="690px" viewBox="0 0 983 690" enable-background="new 0 0 983 690" xml:space="preserve">
<g id="Layer_1_1_" display="none">
	
		<image display="inline" overflow="visible" enable-background="new    " width="983" height="690" xlink:href="mapa3.png"  transform="matrix(0.9999 0 0 0.9999 -4.882813e-004 7.324219e-004)">
	</image>
	<rect x="-213.941" y="-279.385" display="inline" fill="#61747E" width="1282.436" height="1100.943"/>
	
		<image display="inline" overflow="visible" enable-background="new    " width="893" height="1056" xlink:href="mapa.png"  transform="matrix(0.9511 0 0 0.9534 20.9995 -283.8152)">
	</image>
	
		<image display="inline" overflow="visible" enable-background="new    " width="166" height="357" xlink:href="rojo3.png"  transform="matrix(1 0 0 1 292.5 163.0002)">
	</image>
</g>
<g id="Layer_2">
	<rect y="0" fill="#61747E" width="983" height="690"/>
	<g>
		<path fill="#C7BCB1" d="M418.699,581.31c0,0,0.015,0,0.029,0C418.758,581.356,418.699,581.31,418.699,581.31z"/>
		<path fill="#C7BCB1" d="M111.41,0h1.72c-0.72,0.08-1.36,0.62-1.36,0.62S111.64,0.39,111.41,0z"/>
		<path fill="#C7BCB1" d="M679.22,270.93c-0.17,0.53-3.09,4.18-3.278,5.64c-0.19,1.45-9.12,10.57-9.66,10.57
			c-0.55,0-2.54,2.55-2.54,4.55c0,2.011-7.12,14.4-7.12,14.4l-3.09,1.1c0,0,0.34-2-2.57-1.65c-2.92,0.37,1.28,2.181,1.28,2.181
			s-0.36,1.109-1.28,1.85c-0.91,0.72-1.8,7.28-1.8,7.28l1.45,2c0,0-2.57,2.729-2.57,3.64c0,0.92,2.19,1.101,2.19,5.65
			c0,4.57,0.188,2.189,0.188,2.189l1.46,4.75c0,0,1.46,2.19,0.92,3.82c-0.56,1.63-2.92,3.48-2.75,5.271
			c0.182,1.85,0.562,4.939,0.562,4.939s0.729,3.819-2.19,6.93c-2.92,3.101-0.92,10.2-0.92,10.2s0.73,4.74-1.82,6.37
			c-2.55,1.649-1.448,5.649-2.01,6.75c-0.54,1.09-2,1.649-3.45,3.109c-1.46,1.46,0.19,3.271-1.46,6.189
			c-1.648,2.91,0.91,4.021,0.91,4.021s-2.188,1.069-3.11,1.261c-0.908,0.189-3.448,2.92-3.448,2.92l-2.012,1.819
			c0,0,0.91,3.649-0.18,2.91c-1.1-0.721-7.84,0.739-7.84,0.739l-0.91-1.46c0,0-1.1,2.011-2.74,2.011c-1.63,0-2.35-1.101-2.35-1.101
			l-1.11,1.641l-2.188,0.93l-0.182-1.47l-4.738,0.18l2.55,1.45c0,0-3.46,3.479-4.19,3.479c-0.729,0-2.188,1.63-2.188,1.63l1.46,0.91
			l-0.54,1.279c0,0-1.47,0-2.73,0c-1.278,0,0.91-0.56-4.02,0c-0.28,0.021-0.57,0.08-0.86,0.181c-5.03,1.41-13,10.021-13,10.021
			l-0.53,2.92l-2.729,0.561l-2.38,2.351l1.46,1.47l-0.54,2.19c0,0-1.28,1.819-1.11,2.899c0.19,1.101,2.011,8.93,3.642,11.311
			c1.659,2.369,0.188,10.199-2.71,11.859c-2.932,1.63-6.04,8.75-6.04,8.75c0,14.92-13.65,25.51-13.65,25.51s-0.189-1.84-0.189,0.721
			c0,2.54-4,11.29-4.551,11.479c-0.56,0.189-1.278-0.92-1.278,1.649c0,2.54-8.19,11.29-8.75,11.29c-0.54,0-2.921-0.18-4.19-0.91
			c-1.271-0.729-3.649,0-4.37,0.37c-0.729,0.36-2.188,1.45-3.83-0.739c-1.64-2.181-4.729-1.08-6.38-1.08
			c-1.65,0-2.37-1.83-2.91-2.37c-0.55-0.561-2,0-4.38-0.189s-1.1-1.261-1.64-1.819c-0.44-0.45-1.352-1.36-2.82-1.591
			c-0.35-0.069-0.75-0.08-1.18-0.04c-2.19,0.16-0.38,2.721,0,3.261c0.34,0.561,1.63,2.01,2.72,2.569c1.1,0.54,1.47,1.261,2,2
			c0.561,0.729,2.38,1.261,4.37,1.45c2.021,0.189,1.29,1.101,1.85,1.659c0.53,0.53,1.45,0.891,2.36,0.891c0.9,0,0.55,2.37,0.55,2.37
			s-1.1,3.101-0.188,3.83c0.92,0.729,1.1,2.189,1.1,2.189l1.45,1.449c0,0,0.898,0.2,1.818,1.28c0.922,1.109,1.102,1.641,2,2.01
			c0.922,0.36,0.19,3.471,0.19,3.471s-0.72,1.46-0.72,3.271c0,1.83-2,1.83-3.11,3.101c-1.08,1.271,0,4.369,0,4.369
			c-8.37,7.29-20.76,7.29-23.14,7.29h-6.03c-0.9,0-2-0.729-5.1-1.449c-3.08-0.729-0.73,1.819-0.17,2.729
			c0.55,0.91,1.63,2.561,3.27,3.29c1.66,0.729,1.66,3.819,0,4.37c-1.64,0.55-0.35,5.64,1.47,6.569c1.82,0.899-0.188,2.529-1.1,3.08
			c-0.9,0.561-1.63,1.819-1.63,1.819s-5.83,1.28-8.21-0.351c-2.38-1.63-5.641-1.829-7.83-2.92c-2.181-1.101-4.19,3.46-1.29,4.74
			c2.92,1.26,3.82,8.021,3.82,8.021l1.85,0.92c0,0,0.72,0.34,2.53,0.899c1.84,0.55,1.46-0.37,1.46-0.37s0.729-0.909,1.649-1.641
			c0.92-0.729,1.82-0.18,2.19,0.381c0.359,0.54,1.45,1.63,2.898,1.811c1.472,0.18,0.74,4.369,0.74,4.369l-3.45,0.381
			c0,0-1.118-0.729-1.648-0.729c-0.54,0-0.92-1.461-2.55-1.841c-1.631-0.35-1.29,0.38-2.561,1.841c-1.26,1.46,1.09,0.899,2,1.46
			c0.92,0.529,2.01,0.529,2.01,0.529s0.73,1.101-0.899,2.561c-1.65,1.45-4.37,3.471-2.92,5.46c1.46,2.011,2,4.92,2,4.92
			s-0.36,1.641-2,2.74c-1.641,1.09,1.64,1.29,1.64,1.29s4.19,2.909-0.56,2.529c-4.721-0.351-5.45,0.92-8.561,3.83
			c-3.1,2.92-1.46,7.67-0.359,8.75c1.09,1.101,5.649,4.38,6.01,5.479c0.38,1.08,6.02,0.891,7.28,0.891
			c1.289,0,3.828,0.93,3.828,0.93s-1.26,4.011-0.17,5.29c1.102,1.271,1.45,2.359-0.358,2.91c-1.84,0.55-4.931,6.739-6.21,7.3
			c-1.271,0.53-3.82,2.721-0.73,5.45c3.11,2.739,0,6.21,0,6.21s-2.359,0.17-2.54-0.561c-0.189-0.72,0-1.819-1.28-2.189
			c-1.289-0.351-0.909,1.649-0.909,1.649l1.09,1.45c0,0-0.54,2.739-1.28,3.83c-0.72,1.101,0.19,3.84,0.37,4.561
			c0.18,0.739,4.01,3.1,4.01,3.1s-5.29,1.28-2.55,1.82c2.74,0.55,6.01,1.819,7.29,3.279c1.29,1.471,1.63,3.29,1.63,3.29
			s-1.63,1.45-1.45,2.181c0.19,0.729,2.92,0.729,2.92,0.729l3.642,2.92c0,0-3.271,1.819-0.91,1.819c1.148,0,3.2,1.2,5.2,2.609h-9.58
			c0.09-0.59-0.55-1.159-0.55-1.159s-1.99,0.18-2.91,0.561c-0.91,0.35-2,0.35-2.73,0.54c-0.72,0.189-2.189-0.37-2.189-0.37
			l-0.36-1.63l-0.55-0.921l0.91-0.529c0,0-0.19-1.29,0.37-1.66c0.55-0.35,1.63-0.529,1.63-0.529s-2.721-0.92,0.56-1.83
			s0.55-0.91-0.18-1.471c-0.72-0.539-1.65,0-2.74,0.92c-1.09,0.931-1.83,0.73-4.2,2c-2.359,1.28-0.729,0.91,0.181,1.83
			c0.93,0.9,0.37,1.811,0.37,2.37c0,0.561,0.18,1.091,0.729,1.82c0.021,0.021,0.03,0.04,0.04,0.06h-9.34c0-0.039,0-0.06,0-0.06
			s0.729-0.921,1.64-2.19c0.931-1.26,1.101-0.539,2.38-1.1c1.28-0.54,1.471-1.271,0.181-2.351c-1.28-1.109-1.63,1.271-2.37,1.811
			c-0.721,0.54-2.18,0.909-3.101,1.449c-0.92,0.561-1.1,1.46-1.1,1.46s-1.82,0.189-2.9-0.34c-1.1-0.561-0.18-2.029-0.18-2.029
			s0.9-1.08-1.83-1.08c-2.74,0-3.28-1.09-4.38-2.721c-1.09-1.659-2,0-2.92-1.29c-0.91-1.279-1.08-0.369-1.27-2.01
			c-0.181-1.631,2.909-0.181,2.909-0.181s1.83-0.37,1.66-1.45c-0.189-1.109,0.72-0.18,2-2.188c1.26-2.011-3.11-0.74-3.11,0
			c0,0.72-0.909,2.539-0.909,2.539s-1.82-1.09-2.73-1.271c-0.91-0.189-1.649-2.18-1.649-2.18s-0.721,0.17-3.08-0.92
			c-2.381-1.091-0.931-1.65-0.931-1.65s2.931-1.069,0-1.81c-2.899-0.721-3.09-0.921-2.18-3.11c0.92-2.18,0,0,1.65-1.08
			c1.63-1.1-0.73-1.279-0.73-1.279s-0.92,1.279-1.83,0.38c-0.91-0.92-1.28,0.16-1.649,1.261c-0.351,1.09,0,0,0.369,1.27
			c0.37,1.29-1.09,1.29-2,1.29c-0.909,0,0.181-0.92-2.189-1.84c-2.37-0.91-1.641-1.26-1.1-1.82c0.56-0.539,2.569,0.182,1.84-0.539
			c-0.74-0.729,0.729-0.729,1.449-1.471c0.73-0.72,1.471-0.899,1.471-0.899s-1.29-0.359-3.66-0.909c-2.37-0.551-1.1-1.83-0.19-2.74
			c0.931-0.9,1.83-1.45,1.83-1.45s-2.01-0.18-2.18-1.64c-0.12-0.99,0.26-1.15,0.51-1.15c-0.229-0.199-0.51-0.859-0.51-3.04
			c0-3.47-2.19,0.17-2.19,0.17l-0.359,2.91c0,0-1.28,3.3-1.82,0.38c-0.56-2.909-0.74-0.72-0.74-0.72s-0.359,0.899-1.449,2.72
			c-1.101,1.82-1.29-0.72-1.29-0.72s-0.181-0.92-1.08-0.92c-0.92,0-0.551-2,1.27-2.55c1.82-0.54,0,0-0.55-0.37
			c-0.54-0.351,0-0.9,0.18-1.811c0.181-0.921-0.18-0.721-0.18-0.721s0-0.93-0.18-1.47c-0.19-0.54-1.46,0.91-1.65,1.47
			c-0.18,0.53-1.14,1.74-1.14,1.74s-3.88-3.15-0.24-4c3.64-0.851,0.96-2.061,0.96-2.061c-5.58,1.21-2.66-0.729-4.01-1.83
			c-1.33-1.091-0.721-1.96-0.721-2.909c0-0.98,1.33-1.23,2.311-1.591c0.96-0.359,1.33,1.091,2.55,1.71
			c1.21,0.609,2.42,2.551,2.79,3.391c0.36,0.859,2.18,2.55,2.18,2.55l0.87-1.939v-1.569c0,0-3.42-1.351-3.79-1.351
			c-0.35,0-1.08-1.33-1.08-1.33l0.86-1.22c0,0,1.57,0.479,2.54,0.619c0.97,0.11,1.34,0.48,2.55,1.21
			c1.22,0.721,1.22,0.36,2.31-0.729c1.101-1.101-1.34-1.57-2.189-2.07c-0.84-0.479-2.91-0.239-4.01-0.97
			c-1.09-0.721-0.61-1.33-0.61-1.33s-1.32-0.99-2.31-1.21c-0.96-0.25-0.351-1.101,1.22-3.29c1.59-2.181-0.601,0.97-2.79-0.971
			c-2.19-1.939,0.85-5.351,0.85-5.351s1.09,1.45,1.46,0.49c0.36-0.979,0.25-1.82,0.851-2.92c0.6-1.091-1.83-0.729-2.311-1.091
			c-0.479-0.359,0.48-2.311,0.48-2.311s-1.21-1.22-1.7-2.56c-0.49-1.32,1.59,0.369,2.31,0c0.73-0.36,2.19-0.479,2.921-1.57
			c0.729-1.1-2.801-0.609-5.11-1.46c-2.3-0.84,1.21-2.43,1.21-2.43s0.61-0.24,1.47-1.221c0.86-0.971,0.13-2.181,0.36-3.279
			c0.25-1.091-0.73-0.48-1.94-0.73c-1.22-0.25-1.46-1.199-2.43-1.34c-0.97-0.109-2.43-0.72-1.82-2.18
			c0.601-1.471,1.33-1.221,1.82-2.421c0.49-1.229-0.37-1.351-1.69-1.71c-1.35-0.359-1.47-2.079-1.6-2.8
			c-0.12-0.729,1.35-3.279,1.47-3.649c0.13-0.36,0.24-1.091-1.1-1.57c-1.33-0.489,0,0-0.49-1.09c-0.47-1.101,0-2.92,0-2.92
			c2.8-0.12,0.37-2.8,0.37-2.8c-3.76,0.858-1.46-0.48-2.44-1.69c-0.949-1.22,0.62-0.729,1.23-1.34c0.59-0.62-1.35-1.22-3.17-1.34
			c-1.82-0.13-0.84,0.859-1.2,1.22c-0.35,0.33-2.7,0.46-3.02,0.479c-0.04-0.061-0.62-0.561-3.91-3.159
			c-4.62-3.65-2.07-7.051-3.64-10.21c-1.6-3.16-0.37-2.79,1.2-4.86c1.58-2.069-0.47-3.39-0.47-5.83c0-2.43-1.96-3.52-3.29-4.85
			c-1.33-1.341-1.23-2.92-2.07-5.24c-0.85-2.3-0.98-2.3-1.94-5.59c-0.98-3.271-1.58-2.551,0.6-3.391
			c2.18-0.859,0.98-1.591,0.61-2.551c-0.35-0.979,0-2.438,0.98-3.279c0.96-0.859,0.59-3.29,0.59-3.29l-1.69-2.92
			c1.84-0.479,2.31-1.21,2.31-1.21s-3.89,0.239-0.72-3.881c3.15-4.14,1.2-7.43,0.84-8.159c-0.37-0.721-2.43-6.92,0-7.149
			c2.43-0.25,0.61-4.01-0.12-4.26c-0.72-0.25-0.84-0.98,0-4.62c0.85-3.641-6.45-19.562-6.68-20.9c-0.24-1.34-0.85-0.609,1.83-4.859
			c2.66-4.25-1.96-8.011-3.17-9.109c-1.2-1.09-0.12-3.41,0.73-4.62c0.84-1.21,1.21-2.3,1.94-3.649c0.73-1.33-0.85-2.181-1.33-3.021
			c-0.49-0.87,0.36-2.439,0.85-2.92c0.48-0.5,0.25-2.19-0.25-2.931c-0.48-0.71-0.37-6.319-0.37-7.279c0-0.98,1.23-2.32,1.23-4.011
			c0-1.71-1.7-2.55-2.18-3.88c-0.5-1.351,0-2.931,1.32-4.38c1.35-1.471,1.1-2.08,0.62-2.671c-0.49-0.619-1.1-0.739-1.1-4.989
			c0-4.261-0.61-7.649-1.82-8.75c-1.21-1.09-1.46-2.659-1.71-3.529c-0.23-0.851,1.09-0.851,2.32-2.551
			c1.21-1.689,0.73-8.75,0.96-12.021c0.25-3.29-0.48-1.949-1.82-6.439c-1.33-4.5-0.84-5.721-1.33-9.979
			c-0.49-4.239-0.86-4.601-1.7-6.66c-0.85-2.09-1.1-5.229-0.48-6.09c0.37-0.521,0.14-0.96-0.18-1.239
			c-0.19-0.171-0.42-0.29-0.56-0.341c-0.35-0.12-1.09-1.34-1.09-1.34c-5.23-2.3-9.73-7.53-10.7-8.859
			c-0.97-1.351-7.29-6.091-8.5-6.44c-1.22-0.37-5.22-1.7-7.78-4.01c-2.54-2.311-7.53-3.88-11.79-5.96
			c-4.24-2.07-6.31-5.351-9.35-8.391c-3.04-3.02-4.5-6.069-5.59-7.76c-1.1-1.71,0.97-3.28,1.22-4.38c0.23-1.09-5.47-9.97-6.45-10.33
			c-0.97-0.37-2.66-3.51-2.66-3.51s0-3.54-1.35-4.51c-1.33-0.97-3.15-3.88-3.76-4.74c-0.61-0.85-2.8-7.17-3.77-7.89
			c-0.97-0.73-1.46-3.53-2.19-4.62c-0.73-1.101-2.3-4.13-2.42-5.96c-0.13-1.82-2.55-4.86-3.17-6.33c-0.6-1.45-3.64-4.72-3.64-4.72
			s-5.58-10.69-8.63-13.73c-3.04-3.05-7.77-3.53-7.77-3.53l0.36-2.67c0.98-1.59,1.21-0.729,2.55-1.33c1.35-0.62-1.34-3.41-1.34-3.41
			l-2.42-1.699c0,0,0.37-1.82-0.72-2.561c-1.1-0.72-0.62-1.819-1.23-2.43c-0.6-0.59,1.33-2.43,1.09-3.15
			c-0.23-0.729,1.23-1.949,1.46-2.31c0.25-0.37,1.34-1.1,1.7-2.19c0.37-1.1,2.81-2.67,3.17-2.67c0.19,0,1.42-1.279,2.57-2.51
			c1.05-1.14,2.03-2.24,2.03-2.24s-0.36-2.649,0.5-4c0.85-1.34,0-2.31-0.61-2.81c-0.61-0.47-1.58,0.37-2.07,0.74
			c-0.48,0.359-0.48,1.819-0.48,1.819l-0.73,0.73c0,0-1.45-0.851-1.45-1.32c0-0.5-0.99-1.72-0.99-1.72l-1.82-0.72l-0.23-1.221
			c0,0,0,0,0.97-1.21c0.97-1.22,0-2.92,0-2.92l-0.49-0.37c0,0-0.73-2.66,0.12-3.51c0.85-0.87-0.12-1.34-0.12-1.34
			s-0.61-2.19-0.48-2.92c0.11-0.73,1.82-1.82,2.3-2.07c0.49-0.24,1.94-0.12,2.44-0.97c0.48-0.851-2.07-0.601-2.07-0.601
			s-0.25-2.8,0.12-3.04c0.35-0.25,1.09-1.22,1.45-1.819c0.37-0.62,2.32-1.09,3.17-2.44c0.84-1.33-0.37-0.609-1.35-1.09
			c-0.96-0.479-0.36-4.49-0.36-4.49c2.31-0.609,2.8-0.979,2.8-0.979c5.22-2.55,6.81-3.391,8.75-3.891c1.94-0.479-1.57-2.3-2.31-2.42
			c-0.73-0.13,0.12-1.71,0.74-2.81c0.59-1.08,2.18,0.37,2.9-0.24c0.74-0.59-0.48-1.09-0.48-2.91c0-1.819,1.34-3.29,2.54-3.51
			c1.23-0.25,3.05,1.08,4.62-0.979c1.58-2.08,2.44-5.11,4.38-8.511c1.94-3.41,1.94-2.18,1.57-4.14c-0.35-1.93-2.41-0.48-2.41-2.79
			s0.59-2.79,1.69-4.62c1.09-1.82-0.97-1.939-0.97-1.939s-0.6-3.15-0.72-4.5c-0.13-1.33,0.37-1.58,0.37-1.58s0.72-1.08,1.45-1.931
			c0.72-0.87,0.24-1.34,0.24-1.34s-1.94-0.979-1.94-1.35c0-0.36,1.2-1.32,2.19-2.19c0.97-0.84-0.12-1.569-1.1-2.55
			c-0.99-0.96-1.09-1.57-1.21-2.29c-0.13-0.74-2.68-2.44-3.05-3.54c-0.37-1.09-1.46-3.51-3.04-3.76c-1.57-0.25-0.72-2.55-0.72-2.55
			s0.61-0.62,0.61-1.46c0-0.851,1.82-2.181,1.82-2.181s2.19-1.35,0.37-1.71c-1.83-0.359-4.81-3.229-4.81-3.229
			c-2.54-4.09-7.47-0.891-7.47-0.891c-3.47,7.38-5.75,3.08-6.74,5.19c-1.01,2.09-0.55,1.91,2,4.45c2.55,2.569,0.82,1.01,1.09,2.649
			c0.28,1.65-3.28,3.011-4.1,3.101c-0.83,0.08-4.2-0.54-4.65-0.811c-0.44-0.29-1.18-3.66-1.45-3.66c-0.28,0-2.92-0.81-2.92-0.81
			s-1.74-0.64-2.83-1.92c-1.09-1.28-1.18-2.36-2.55-2.73c-1.36-0.369-2.73,0-3.64-0.54c-0.36-0.22-0.95-1.04-1.58-1.81
			c-1-1.2-2.11-2.26-2.61-0.65c-0.81,2.631-3.28,1.551-3.56,1.551c-0.27,0-2.1-2.841-1.18-2.931c0.91-0.08,3.09-1.819,1.63-2.92
			c-1.45-1.08-6.52-4.729-6.52-4.729c-2.19-0.98-2.92-5.101-3.66-6.561c-0.72-1.46-2.91,0.721-2.91,0.721l1.71,1.72h0.98l0.22,2.41
			c0,0,0,0-2.91,0c-2.92,0-2.42-2.19-2.42-2.19c-4.37-0.22-2.19-4.6-2.19-4.6s3.88-1.46,1.69-2.431c-2.18-0.979,0-2.92,0-2.92
			s0.43-1.21,1.07-2.2h0.01c0.73-1.159,1.77-2.039,2.81-0.47c1.94,2.91,3.17-2.68,1.47-2.91c-1.71-0.25-2.92-3.42-2.92-3.42
			c-0.98,0-3.64-2.91-3.64-2.91s-1.72-2.42-2.92-1.699c-1.21,0.729,0.48,2.67,1.2,2.67c0.74,0,2.19,1.22,2.19,1.22l1.23,5.09
			c0,0,1.69,1.23-0.5,1.96c-2.18,0.73-5.1-4.38-6.06-5.35c-0.98-0.98-2.19-3.391-5.36-6.311c-1.31-1.22-2-1.979-2.34-2.439
			c-0.48-0.65-0.32-0.73-0.32-0.73s1.21-1.21,1.21-3.89c0-2.67-2.44-0.49-2.92,0.49c-0.48,0.96-3.64,0-4.85,0
			c-1.23,0-5.36-1.45-6.33-2.431c-0.97-0.979-2.92-0.25-4.12-0.489c-1.22-0.24-3.66-3.4-4.38-4.131c-0.73-0.739-5.84-0.96-9.48-1.21
			c-0.76-0.05-2.06-0.979-3.67-2.439h-0.01c-6.11-5.49-16.48-18.45-16.48-18.45s-3.42-0.74-4.15-1.47
			c-0.72-0.73-1.94,0.24-1.94,1.22c0,0.97-3.39,2.19-3.39,2.19c-12.89,9.72-28.44-5.36-28.44-5.36l-5.1-0.24
			c-1.22-1.45-4.37-2.68-4.37-2.68c-11.43-4.36-12.89-9.96-12.89-9.96c-6.06,3.17-14.09-3.89-14.09-3.89
			c-1.22-2.671-5.59-7.04-6.56-8.5c-0.26-0.391-0.58-0.57-0.9-0.62h69.59c0.09,0.279,0.14,0.439,0.14,0.439s0.36,3.46,2.92,4.92
			c2.55,1.46,1.64,0.53,4.38,0.53c2.73,0,1.63,0.38,1.63,0.38s1.29,1.65,2.19,3.101c0.9,1.449,2.74,1.63,2.74,1.63s0,0,0.9,0
			c0.91,0,3.29-0.91,3.29-0.91l6.93-1.82c0,0,2.01-0.35,3.08-1.45c1.11-1.09,5.49-0.37,5.49-0.37l0.9,2.37l1.45-0.18
			c0,0,1.29-0.9,2.02-1.46c0.72-0.55,1.08-0.36,1.46-0.91c0.35-0.54-1.11-1.1-1.11-1.1s-1.08-1.46-0.54-1.46
			c0.54,0,2.91-1.46,3.65-1.811c0.5-0.26,2.03-1.29,2.94-1.899h27.13c-0.15,0.399-0.28,0.84-0.37,1.35
			c-0.36,2.19-1.63,3.82-2.54,4.73c-0.92,0.93-0.92,2.56-0.92,2.56l-1.83,0.73L248.35,9c0,0,1.63-3.271,1.28-3.83
			c-0.38-0.54-4.2,4.38-4.2,4.38l2.92,0.72c0,0-1.63,4.75-1.63,6.22c0,1.45-0.92,4.54-0.56,5.83c0.37,1.261-1.63,4.181-5.28,7.28
			c-3.64,3.101-2.57,3.47-2.57,3.47l1.29-0.189c0,0,1.46,1.27,2.01,1.45c0.23,0.08,0.68,0.1,1.2,0.08
			c0.73-0.021,1.62-0.08,2.25-0.08c1.1,0-0.18-1.261-0.18-1.261l2.37-1.1c0,0,2.38-0.18,2.56,0.91c0.17,1.1,2.74,0,4.55,1.64
			c1.83,1.641,4.02-0.189,5.65-0.37c1.64-0.17,1.1-0.359,1.83-0.89c0.72-0.56,0.53-1.85,0.53-1.85l2.01-0.16l1.65,1.27
			c0,0,1.1,0.74,2.01,0.36c0.9-0.36,1.27-0.74,1.27-0.74l3.46-0.17c0,0,2.55,0.73,4.37,1.63c1.82,0.92,3.29-0.72,0.92,2.37
			c-2.37,3.11,2.19,2.38,3.82,2.38c1.01,0,1.67,1.4,1.86,2.54c0.12,0.71,0.06,1.33-0.22,1.46c-0.73,0.38-2.37,0.92-0.73,4.03
			c1.65,3.09-0.54,1.27,0,3.09c0.55,1.82-0.54,2.01-1.81,3.08c-1.28,1.11-0.55,5.49-0.55,7.68c0,2.181-0.18,2.54-0.91,3.45
			c-0.72,0.92,0,1.28-1.1,2.37c-1.09,1.09-0.18,2.37,0,3.84c0.19,1.45-0.18,1.82-1.47,3.271c-1.26,1.46-0.34,2.55-0.53,4.38
			c-0.19,1.819,1.82,1.449,1.82,1.449s0.68,1.131,0.34,2.341c-0.09,0.319-0.25,0.64-0.52,0.949c-1.27,1.45,0,2.36,2.19,4.011
			c2.19,1.64,1.46,2.37,4,4.739c0.29,0.271,0.55,0.521,0.79,0.75c1.84,1.811,2.13,2.521,2.13,2.521s-0.36,0.92-0.36,1.649
			c0,0.73,1.08,1.641,2.37,2.73c1.28,1.1,1.82-0.74,1.82-0.74l1.45,0.19c0,0,0.74,1.28,2.56,1.81c1.82,0.561,1.09,0,2.36-0.16
			c1.28-0.18,0.92-0.369,2.38-0.56c1.45-0.18,1.64,0,2.72-1.28c1.11-1.26,2.57-1.819,3.3-1.819s2-0.9,2.92-1.45
			c0.9-0.561,1.45-1.28,2-1.46c0.53-0.17,1.64,0.359,1.64,0.359c1.26,0,2.92-0.529,2.92-0.529l0.72,1.449c0,0,4.73-1.449,7.3,2.54
			c2.54,4.021,4.55,3.641,4.73,4.381c0.02,0.119,0.09,0.29,0.2,0.52c0.52,1.22,1.87,3.82,2.17,4.57c0.36,0.93,1.46,2.189,2.19,2.029
			c0.72-0.18,0.72-0.56,1.27-1.29c0.55-0.739-1.47-4-1.47-4s-0.17-2.01,1.47-2.01s6.2-6.74,6.2-6.74l3.46-0.55c0,0,0,0,0-2.189
			c0-2.19-0.91-3.471-0.91-4.38c0-0.891,1.64-2.73,3.28-4.921c1.63-2.18,4.92-3.989,4.92-3.989h2.38c0,0-0.74,2.529,0.73,3.08
			c1.45,0.56,2.72-4,3.45-4.74c0.74-0.72,1.27,0.37,2.19,0.189c0.92-0.189,3.11-1.1,4.74-1.1s1.28-0.18,2.36-1.46
			c1.11-1.27,2.92-2.53,4.2-2.53s1.63-0.739,2.91-2.189c1.29-1.471,5.29-4.57,5.84-4.38c0.55,0.18,1.46,1.81,3.09,3.27
			c1.64,1.45-0.9,1.83-3.09,2.92c-2.18,1.101-1.83,1.101-4.55,3.101c-0.91,0.659-1.26,1.1-1.27,1.43c-0.03,0.66,1.31,0.87,2.17,1.49
			c1.29,0.92,0.56,2.37,0,3.27c-0.56,0.91,0.37,2.74,1.29,4.021c0.9,1.27-0.38,1.819-2.74,3.83c-2.37,2-1.64,2.909-2.19,3.64
			c-0.56,0.74,0.9,1.64,2.92,4.38c2.01,2.73,2.35,1.07,2.35,1.07s1.66-1.45,2.92-3.08c1.29-1.63,0.56-2.19,0.56-3.82
			c0-1.64,0-2.189-1.46-3.83c-1.46-1.66-1.29-3.47-2.02-3.84c-0.72-0.35,1.29-1.81,1.85-2.53c0.53-0.739,1.81-1.66,2.72-2.75
			c0.92-1.1,2.18-0.55,3.11-0.91c0.89-0.38,1.63-0.55,3.26-1.829c1.65-1.271,3.11-0.73,7.29-0.73c4.2,0,5.3-1.27,4.93,0.37
			c-0.36,1.64,4.38,2.55,4.38,2.55s-0.91,3.83,0.72,6.021c1.63,2.18,2.55,0,4.38,0.54c1.82,0.55,2.18,0,5.1-0.36
			c2.91-0.37,1.46,0,3.82-0.37c2.38-0.35,2.57,0,3.65,0c1.109,0,1.279,0.73,1.84,1.65c0.53,0.909,3.26,1.46,4.37,2.38
			c1.08,0.899,2.359,0.72,3.27,0.72c0.92,0,1.45,0.54,2.19-0.38c0.72-0.9,3.1-2,4.189-2.91s1.63-0.54,2.37-0.91
			c0.721-0.359,3.28-0.729,4.021-1.28c0.729-0.539,4.37-0.729,4.37-0.729s1.46,0,2.92,0s4.72-1.26,4.72-1.26l0.19,2.72
			c0,0-1.82,0.92-4.381,0.92c-2.55,0-3.64,1.09-3.64,1.09l2.38,0.91l1.811,1.271c0,0,0.38,1.1-0.36,2.01
			c-0.72,0.91,0.91,1.28,1.64,2.01c0.73,0.72,0.91-1.65,0.91-1.65L457.221,89c0,0,1.459,2.029,2.38,2.029
			c0.909,0,1.989-0.56,1.989-0.56s2.381,2.01,3.46,2.38c1.11,0.36,1.46,1.82,1.46,1.82s-0.539,1.45-1.46,2.189
			c-0.899,0.73-1.27,3.46-1.27,3.46l-4.18,2.54c0,0,1.079,1.11,5.279,1.11s0.9-0.73,1.28-1.29c0.35-0.55,3.45-0.36,3.45-0.36
			l3.11,0.19l0.729,1.46c0,0,0.63,0.32,1.22,0.479c0.311,0.08,0.59,0.12,0.78,0.061c0.53-0.19,1.271,0.189,2.38,1.65
			c1.08,1.46,6.561,7.279,7.46,8.199c0.91,0.891,1.63,1.08,0.37,2.551c-1.27,1.449-2.56,2.909-3.29,3.64
			c-0.72,0.729,0.55,2.729,0.55,2.729s1.471,0,1.471-1.64c0-1.63,1.27-1.82,1.27-1.82s0.36-1.27,3.83,0.19
			c3.46,1.46,6.18,8.01,6.18,8.01l1.471,0.18l1.101-0.72l1.069-0.18l2.921-0.55l1.119,1.1l1.989,0.91l1.271-0.74l1.29-0.54
			c0,0,2.01,1.28,6-0.18c1.8-0.65,4.869,0.16,7.72,1.25c3.51,1.35,6.68,3.13,6.68,3.13s6.57,5.45,7.86,6.9
			c0.79,0.909,3.5,3.68,5.78,6.069c1.369,1.431,2.59,2.73,3.13,3.42c1.47,1.83,2.01,10.2,2.01,11.65c0,1.47,1.81,3.11,2.729,4.57
			c0.931,1.46,2.561,2.55,4.569,4.02c1.99,1.45,1.63,2.351,1.63,2.351s-2.01,0-2.01,3.109c0,3.11-5.64,7.29-10.56,11.48
			c-4.932,4.199-3.11,6.02-3.11,6.02l2.2-2.38c0,0,1.989,0.56,1.819,2.38c-0.181,1.82-0.181,2.91-3.29,3.271
			c-3.109,0.37-3.271,2.029-3.829,2.029h-3.271c-1.84,0-1.84,1.631-0.91,2.53c0.91,0.92,5.29-0.899,5.29-0.899l4.37-2.19
			c0,0,3.83-4.74,5.101-2.55c1.271,2.18,2.54,0.359,2.54,0.359s-0.909-1.46-1.08-2.359c-0.189-0.92,0-1.641,0-1.641l0.539-2.56
			l1.461-1.29c0,0,2.921-0.53,3.461,0.19c0.56,0.729,2.568,0.729,2.568,0.729s1.07-0.18,1.63-0.54c0.552-0.38,1.82-0.91,1.82-0.91
			s2.92,0.351,4.19,0.351c1.27,0,3.64,2.56,2.01,3.66c-1.641,1.09,0,1.449,0,3.819s-2.19,5.09-3.65,4.19
			c-1.46-0.891-5.279,2.37-5.279,2.37s-2.011,0.56-4.921,0.189c-2.92-0.37-4.21-2-4.21-2s-0.17,1.46,0,2.53
			c0.19,1.11,2.012,2.189,3.11,1.47c1.1-0.729,2.19,0.19,4.19,0.19s2-0.74,3.1-0.55l-0.18,2.189l-0.36,2.73h1.26l0.55-2.19
			l2.012-2.37l2.37-2c0,0,2.56-0.37,2.92-1.1c0.358-0.72,0.72-1.28,0.72-2.01c0-0.73,0.729-1.45,1.29-3.82
			c0.54-2.36,4.188-1.45,4.188-1.45l0.9-0.91c0,0,0.91-0.38,1.47-0.38c0.54,0,5.271,1.64,11.29,4.75c6.03,3.101,5.48,4,6.75,5.11
			c1.28,1.08,1.28-1.11,1.812-1.66c0.56-0.53,2.02-2.72,2.188,0c0.19,2.74,2.182,3.11,2.182,3.11s-1.632,2.92-0.892,3.46
			c0.722,0.54,1.63,1.46,1.63,1.46l1.642-0.73l1.818,2.19l-1.818,1.449l-1.262-0.529c0,0-1.118,0.18-2.188,1.63
			c-1.11,1.45-0.562,2.91-0.562,2.91s3.28-0.721,4.012-1.28c0.729-0.54,1.818-1.45,3.108-2.92c1.271-1.45,1.46-1.63,2-2.35
			c0.53-0.74,1.642-0.181,2.19-0.181c0.53,0,3.64-0.189,3.64-0.189s1.82,1.46,3.83,3.279c2,1.82,2.92,1.101,2.92,1.101l-0.188-0.931
			l1.1-1.63c0,0,1.28,1.63,4.73,3.471c3.46,1.81,2.369,0.35,2.369,0.35s1.279-0.91,2.189-0.91s3.28-0.72,4.561-0.72
			c1.279,0,3.46,0.56,5.101,1.82c1.64,1.27,3.649,2.55,5.1,4.56c1.46,2,3.65,3.46,7.301,5.28c3.641,1.83,4.739,3.1,8.011,7.29
			c3.278,4.2,10.04,3.649,11.84,3.649c1.84,0,1.84-0.18,3.11,0.36c1.26,0.55,2.729,2.56,2.729,3.64c0,1.101,0.38,5.65,1.271,8.221
			c0.92,2.529,1.47,9.09,2.56,11.279C683.591,258.88,679.39,270.37,679.22,270.93z"/>
		<polygon fill="#C7BCB1" points="205.699,185.07 207.521,187.986 210.074,189.081 210.074,190.904 207.521,193.09 209.709,194.549 
			211.532,193.09 214.813,191.997 214.448,190.173 212.261,187.622 210.438,185.07 209.709,183.613 207.521,182.519 		"/>
		<path fill="#C7BCB1" d="M212.989,186.164h2.917v-1.822C215.906,184.342,213.719,185.435,212.989,186.164z"/>
		<polygon fill="#C7BCB1" points="215.541,188.716 216.634,191.267 219.186,191.267 219.551,189.081 		"/>
		<polygon fill="#C7BCB1" points="224.777,191.026 224.168,191.753 222.953,192.483 224.048,193.455 225.99,193.699 
			226.234,192.605 225.747,190.783 		"/>
		<path fill="#C7BCB1" d="M415.909,583.619l1.58-0.729l2.674,1.459l0.848,1.457l0.123,1.216l-1.699,0.241
			c0,0-0.852,1.338-0.365,1.458c0.484,0.121,2.064,1.826,2.064,2.675c0,0.85-0.485,1.094,0.124,1.578
			c0.605,0.489,1.822,0.241,1.7,0.853c-0.123,0.605-0.365,1.095-0.972,1.822c-0.609,0.73-1.216,1.821-1.216,1.821
			s-0.729,2.188-2.187,0s-2.916-2.796-2.065-3.77c0.849-0.97,1.335-3.273,0.363-4.128c-0.973-0.853-1.458-1.458-1.214-2.431
			c0.242-0.971,0.242-1.701,0.242-2.431C415.909,583.986,415.909,583.619,415.909,583.619z"/>
		<polygon fill="#C7BCB1" points="421.986,601.605 423.321,600.993 422.229,599.658 421.011,600.387 		"/>
		<polygon fill="#C7BCB1" points="424.538,603.063 423.198,604.521 423.808,605.979 426.237,605.731 		"/>
		<path fill="#C7BCB1" d="M421.739,606.343l1.824,1.58l0.853-0.122l0.85,1.213v1.825l2.067,0.729l2.186,1.944l0.123,1.823
			l-0.974,2.187l-1.093,0.484v1.46c0,0,1.093,0.606,1.457,0.729c0.365,0.121,0.609,2.065,0.609,2.065l0.729,1.577v1.096v0.731
			l0.366,1.334l-1.339,2.063l-2.793-0.364l-0.974-1.578l-1.337-0.605l-0.972,1.214l0.485,1.216l-0.728,1.458l-1.458-0.246
			l-0.973-2.547l0.852-1.339l0.729-0.851l1.821-2.309h0.852l0.243-1.58l-2.188-0.123l-0.729-1.093l1.944-1.459l1.701-1.215v-2.185
			l1.822,0.362l-0.243-2.31l-1.46,0.491c0,0-1.094,2.063-1.58,0c-0.488-2.069-0.123-3.405-1.458-3.161
			c-1.336,0.242-3.28-0.851-3.28-0.851s0.363-0.123,0.605-1.342C420.527,607.438,421.5,606.343,421.739,606.343z"/>
		<path fill="#C7BCB1" d="M437.902,661.389l2.188,0.728l0.607-1.216c0,0-0.12-1.339-0.85-1.7c-0.729-0.362-1.581-0.362-1.581-0.362
			L437.902,661.389z"/>
		<polygon fill="#C7BCB1" points="439.725,662.963 440.576,663.206 440.696,665.274 439.966,666.246 438.753,664.546 		"/>
		<polygon fill="#C7BCB1" points="444.1,670.738 443.977,672.93 444.463,674.267 445.438,673.414 445.314,671.957 		"/>
		<polygon fill="#C7BCB1" points="447.136,670.864 447.258,671.957 449.082,672.078 447.866,670.015 		"/>
		<path fill="#C7BCB1" d="M446.895,674.629l0.729,2.186c0,0,1.334,0.612,1.334,1.097c0,0.488,0.488,1.821,0.488,1.821l2.428,0.123
			l-1.212-1.944l-0.73-1.097l-0.244-1.456l-1.334-1.576l-1.339,0.118L446.895,674.629z"/>
		<path fill="#C7BCB1" d="M467.36,690h-7.681c-0.949-0.48-1.52-0.78-2.09-1.521c-0.85-1.091-2.55-1.33-2.55-1.33
			s-1.83-1.221,1.82-1.95l2.909,1.34l2.07,0.24c0,0,1.221,0,2.07,1.22C464.54,688.89,466.41,689.659,467.36,690z"/>
		<path fill="#C7BCB1" d="M552.243,674.75l-1.214,0.73l0.606,1.338l-0.85,0.971l1.577,0.729l1.944-0.971l1.941-1.702l0.975-0.975
			l1.337-1.091l-0.123-2.795h-2.673l-2.671-0.362l-1.096,1.091l-2.43,0.484l0.363,1.216
			C549.935,673.414,553.578,674.872,552.243,674.75z"/>
		<polygon fill="#C7BCB1" points="548.234,676.457 546.898,676.698 546.898,675.726 547.748,674.996 548.355,675.603 		"/>
		<path fill="#C7BCB1" d="M558.93,679.49v-1.94v-0.977l0.481-1.213l0.976-0.487l1.819-1.7l-1.091-1.338l3.278-0.482l2.065,1.82
			c0,0,1.7-2.062,2.308,0.731c0.607,2.794-1.579,2.065-1.579,2.065l-1.822,0.85l-2.308,1.457l-3.164,0.366L558.93,679.49z"/>
		<path fill="#C7BCB1" d="M553.946,666.733l1.579,1.823l2.186-0.731l1.097-1.213l1.941,1.459l1.335,0.485l1.218-1.216l1.578-1.821
			c0,0-0.85-3.28-1.094-2.795c-0.242,0.481-0.242,2.43-0.242,2.43l-1.338,0.365l-0.486,0.729l-1.579-0.853l-1.333,0.123
			l-0.854,0.604l-1.459,0.608l-0.85-0.85l-1.458,0.118L553.946,666.733z"/>
		<path fill="#C7BCB1" d="M328.544,9.612c0,0-0.971,2.431,1.946,2.675c2.917,0.241,3.887,2.671,3.887,2.671s1.944,0,2.674,0
			c0.729,0,0.971-1.7,3.158-1.213c2.188,0.484,3.645,0.729,3.645,0.729l1.458-0.729c0,0,2.673-2.188-1.458-3.403
			c-4.13-1.214-1.944-0.971-5.588-2.429c-3.646-1.459-4.376-0.73-6.075,0.241C330.49,9.126,328.544,9.612,328.544,9.612z"/>
		<path fill="#C7BCB1" d="M400.2,0c0.65,0.68,1.25,1.35,1.25,1.35l4.62,2.43c0,0,3.64,1.7,4.37,1.7s0.25,2.19,0.25,2.19l-2.43,3.16
			l-1.46-0.25l-0.98-1.94l-4.37-0.24c0,0-1.94-2.189-3.16-0.979c-1.21,1.22-3.4,3.649-3.4,3.649s-1.95-0.97-2.92-2.43
			c-0.97-1.46-3.4,1.94-4.86,3.65c-1.45,1.699-1.45,2.18-1.94,2.91c-0.49,0.729-1.22,0.489-1.22,0.489l-1.46-1.46l-1.94-2.43
			l-4.86-0.73c0,0-3.4,0.73-8.26,0.24c-4.86-0.479-1.22,1.95-2.19,1.46c-0.97-0.479-1.21-1.7-2.19-3.399
			c-0.97-1.7-1.45-0.73-1.45-1.46c0-0.73,1.94-0.971,1.94-0.971s2.43-0.239,3.4-0.489c0.97-0.24,1.95,1.46,2.68,1.46
			c0.72,0,2.91,0.239,4.37,0c1.46-0.24,2.43,0.489,2.43,0.489l2.19-2.189l-2.19-2.92l-1.94,2.189l-1.7-1.21l2.14-0.649l0.28-0.08
			c0,0,0.25-2.431,1.22-3.16c0.16-0.12,0.27-0.25,0.35-0.38H400.2z"/>
		<path fill="#C7BCB1" d="M419.677,9.126l1.214,3.16c0,0,0.487,0.971,3.646,0.971c3.158,0,5.345-1.458,6.074-0.971
			c0.729,0.484,2.187-1.218,2.187-1.218s1.214-3.159-1.458-3.645c-2.672-0.486-4.859-1.215-5.588-1.215
			c-0.73,0-4.375,1.702-4.375,1.702L419.677,9.126z"/>
		<path fill="#C7BCB1" d="M388.814,71.339l1.944,1.214c0,0,1.458,0.973,2.187,0.243c0.73-0.729,0.73-2.673,0.73-2.673l-1.702-1.701
			l-1.457,0.242l-0.486,1.703L388.814,71.339z"/>
		<polygon fill="#C7BCB1" points="399.021,66.965 400.235,68.664 401.449,69.879 403.882,68.908 402.178,67.45 400.479,65.749 		"/>
		<polygon fill="#C7BCB1" points="406.068,68.422 407.527,68.422 407.768,66.234 406.797,66.478 		"/>
		<path fill="#C7BCB1" d="M458.803,87.621c0,0,3.157,0.729,3.888,0.729c0.729,0,2.187-0.972,2.187-0.972s-0.485-1.946,0.244-2.675
			c0.729-0.729,0.244-2.915,0.244-2.915s-1.945-2.916-2.675-1.945c-0.729,0.973-3.4,2.431-2.429,2.673
			c0.971,0.244,1.458,0.244,1.458,1.216c0,0.971-1.702,2.188-1.702,2.188L458.803,87.621z"/>
		<path fill="none" stroke="#FFFFFF" stroke-width="0.5" stroke-miterlimit="10" d="M468.281,76.441"/>
		<polygon fill="#C7BCB1" points="467.792,77.899 468.521,79.843 470.709,77.899 468.767,75.227 468.281,76.441 		"/>
		<polygon fill="#C7BCB1" points="460.747,69.394 462.206,69.394 461.96,67.693 460.99,67.45 		"/>
		<polygon fill="#C7BCB1" points="465.121,58.945 466.094,59.674 467.553,58.216 466.335,56.758 		"/>
		<polygon fill="#C7BCB1" points="467.553,54.571 469.01,53.84 469.251,51.167 467.553,50.925 467.309,53.599 		"/>
		<polygon fill="#C7BCB1" points="467.792,45.579 470.225,46.064 469.01,42.419 466.822,42.419 466.822,44.121 		"/>
		<polygon fill="#C7BCB1" points="465.121,38.531 467.553,38.531 466.58,34.886 463.178,36.101 		"/>
		<polygon fill="#C7BCB1" points="463.907,32.212 466.335,30.51 467.792,30.51 468.037,27.837 467.064,27.108 465.605,27.837 
			465.121,28.81 463.419,28.566 		"/>
		<polygon fill="#C7BCB1" points="463.178,22.734 464.148,22.734 465.605,20.548 463.663,19.817 462.69,20.791 		"/>
		<polygon fill="#C7BCB1" points="463.663,17.146 465.605,17.146 465.85,15.931 463.907,15.931 		"/>
		<polygon fill="#C7BCB1" points="455.158,19.576 456.617,19.817 457.102,18.361 455.4,18.361 		"/>
		<polygon fill="#C7BCB1" points="437.417,80.331 439.36,80.573 439.36,81.546 440.333,82.031 441.547,80.816 442.276,79.843 
			442.276,77.899 440.576,78.143 438.39,78.387 		"/>
		<polygon fill="#C7BCB1" points="478.548,59.4 480.642,59.946 480.735,58.034 479.184,58.034 		"/>
		<polyline fill="none" stroke="#666666" stroke-width="0.5" stroke-miterlimit="10" points="211.867,47.76 211.167,38.281 
			215.294,31.722 225.5,30.51 226.725,28.323 219.669,20.551 222.586,19.328 222.832,15.45 224.042,14.224 240.082,13.99 
			245.432,9.543 		"/>
		<path fill="none" stroke="#666666" stroke-width="0.5" stroke-miterlimit="10" d="M227.454,54.088
			c2.479-3.807,5.483-7.99,7.043-8.516l0.248-3.644c0,0,5.745-4.304,8.064-7.511"/>
		<path fill="none" stroke="#666666" stroke-width="0.5" stroke-miterlimit="10" d="M246.73,62.591
			c1.254-0.801,2.785-1.707,3.923-2.071c2.317-0.729,2.797-3.28,2.797-3.28l0.979-3.763c0,0,1.457-0.847,2.55-0.48
			c1.095,0.364,3.399-2.916,3.399-2.916s1.209,1.21,1.574,1.573c0.365,0.365,0.977-0.363,1.589-0.977
			c0.598-0.598-0.247-1.574,1.093-2.188c1.328-0.598,1.458-0.846,3.151-1.938c1.705-1.094,2.917-2.551,2.917-2.551
			s1.587,0.845,2.68,0.729c1.097-0.118,4.011-0.48,4.973-1.211c0.979-0.729,2.317-1.093,2.317-1.093s1.458-0.612,2.553-1.341
			c0.146-0.103,0.321-0.16,0.511-0.189"/>
		<path fill="none" stroke="#666666" stroke-width="0.5" stroke-miterlimit="10" d="M261.559,77.156
			c0.482-0.015,1.095,0.145,1.487,0.86c0.73,1.341,1.824,1.589,2.553,1.705c0.729,0.117,3.048-0.116,3.529-0.479
			c0.481-0.368,1.34-1.227,1.938,0.479c0.613,1.708,1.707,2.553,2.553,2.669c0.523,0.072,2.988-0.438,4.958-1.065"/>
		<path fill="none" stroke="#666666" stroke-width="0.5" stroke-miterlimit="10" d="M282.221,102.893
			c0.101-0.41,0.176-0.846,0.276-1.181c0.233-0.847,0.117-1.094,0.117-2.421c0-1.341-1.705-2.318-1.093-2.917
			c0.61-0.613,1.209-1.094,1.209-1.706c0-0.613-0.233-0.979,0.613-1.574c0.408-0.292,1.079-0.76,1.692-1.313"/>
		<path fill="none" stroke="#666666" stroke-width="0.5" stroke-miterlimit="10" d="M322.828,115.563l2.318-3.513l2.421-0.729
			c0,0-0.116-0.978,0.729-1.707c0.86-0.729,1.341-1.458,0.495-2.55c-0.86-1.096-1.458-1.576-1.34-2.436
			c0.057-0.452,0.407-1.633,0.743-2.698"/>
		<path fill="none" stroke="#666666" stroke-width="0.5" stroke-miterlimit="10" d="M302.925,216.099l1.312,1.53l-1.094,1.458
			c0,0-0.115,1.342-0.845,2.318c-0.729,0.964-1.092,1.458-1.575,2.188c-0.495,0.729,0.118,1.093,1.094,1.822
			c0.962,0.729,1.326,0.963,1.326,0.963l2.32,0.131c0,0,1.456,0.846,2.667,0.963c1.212,0.129,0.847,0.858,1.094,1.225
			c0.248,0.364,0.482,1.822,0.612,2.421c0.117,0.611,1.941,0,1.941,0l0.729-0.847c0,0,1.093-0.48,1.575-0.976
			c0.496-0.482,0.247-0.482,0.611-1.575c0.364-1.094,1.211-0.846,1.211-0.846c-0.481-4.011,1.34-4.505,2.187-7.656
			c0.86-3.164,2.916-4.505,2.916-4.505s1.591-1.574,2.551-2.42c0.978-0.861,2.684-1.342,3.411-1.342c0.731,0,1.328-0.729,2.306-1.21
			c0.976-0.496,3.892-1.458,3.892-1.458s0.847-0.365,2.187-1.953c1.328-1.575,2.67-2.422,3.034-2.786
			c0.364-0.364,1.211-2.916,1.211-2.916s0.611-1.095,0.364-2.552c-0.234-1.458,0.976-1.458,1.706-2.071
			c0.729-0.611,1.21-1.938,1.705-3.164c0.481-1.21,0.481-1.938,0-3.514c-0.494-1.59-1.341-1.343-1.341-1.343l-0.247-0.845
			l3.412-0.613c0,0,1.093,1.94,2.421,2.071c1.341,0.116,1.953,1.326,1.953,1.326l0.963,3.895c0,0,0.131,1.093,0.977,0.977
			c0.846-0.131,4.491,3.281,4.491,3.281l1.227,0.364l0.48,3.032l3.893,4.01l0.481,1.706l1.34,1.095c0,0,1.211-1.227,3.281,0.363
			c2.057,1.575,4.739-0.729,4.739-0.729s0.598-0.978,0.598-1.342c0-0.363,0.612-0.613,0.612-0.613l1.823-0.598l1.457,0.233
			l5.834,0.131l0.364,1.823l3.529,1.822l1.094,2.055c0,0-2.187,1.954-2.187,2.553c0,0.611-0.497,1.458-0.497,1.458
			s-0.596,1.094-0.961,1.953c-0.366,0.846-1.094,2.188-1.094,2.188l0.598,1.094l3.28,0.481l-0.365,1.938
			c0,0,1.094,1.459,1.823,1.341c0.729-0.117,1.343-1.705,1.589-2.187c0.234-0.481,1.693-6.926,1.693-6.926l0.495-9.959
			c0,0,0.729-3.646,1.21-6.563c0.481-2.916,0.728-0.979,0.364-3.047c-0.364-2.056-0.729-1.822-0.729-1.822l-1.707-2.917
			l-1.939-3.149l-1.34-1.953c0,0,0.976-1.213,0.248-3.764c-0.729-2.552,1.341-3.396,1.341-3.396l2.187-0.248
			c0,0,1.327,0.117,1.822,0.365c0.48,0.246,1.575-0.365,1.575-0.365s0.481-1.21,0.481-1.707c0-0.481-0.117-1.327-0.481-1.458
			c-0.365-0.116-1.706-0.365-3.033-0.961c-1.342-0.613-3.048-0.497-3.048-0.497l-0.845-2.304c0,0,0.481-1.094,1.459-2.306
			c0.975-1.224,0.975-0.858,0.975-0.858l5.586-0.364c0,0,2.551,0.861,3.528-0.233c0.962-1.093,3.28,0.233,3.28,0.233l3.033,0.131
			c0,0,0.978-1.59,1.458-2.187c0.481-0.613,1.94-0.729,1.94-0.729l1.954-0.25l0.479-2.302c0,0-1.341-2.072-2.303-3.282
			c-0.977-1.223-2.683-2.068-2.683-2.068s0.364-0.978,1.822-2.306c1.458-1.341,1.458-0.86,1.955-1.341
			c0.48-0.481,0.48-1.093,0.232-1.939c-0.232-0.859-0.845-1.822-1.327-1.953c-0.495-0.116-2.187-3.646-2.187-3.646l-0.496-12.758
			l1.706-1.692c0,0,0.613-0.495,1.093-2.799c0.481-2.304,2.07-2.916,2.07-2.916l-1.821-1.575c0,0-3.166-0.365-4.507-0.495
			c-1.326-0.117-2.668,1.705-3.15,1.705c-0.495,0-2.683-0.117-6.328-0.248c-3.646-0.115-1.094-0.115-2.551-1.094
			c-1.458-0.964-1.211-1.327-2.057-2.551c-0.859-1.211-2.551-4.375-5.351-4.375c-2.8,0-13.604-0.365-13.604-0.365l-0.13-1.938
			c0,0-1.211-1.094-2.056-1.094c-0.86,0-0.364-1.094-0.248-1.822c0.117-0.729,0-0.729-0.116-1.344
			c-0.131-0.597-0.131-1.688,1.209-2.667c1.341-0.977,0.118-2.068,0-2.436c-0.118-0.362-0.612-1.327-1.575-2.303
			c-0.976-0.978-0.13-0.613-0.611-2.669c-0.481-2.07-2.071-3.411-2.668-4.011c-0.612-0.609-2.917-0.248-2.318-1.093
			c0.611-0.86,0.13-1.093,0.13-1.823c0-0.728,1.46-0.977,1.46-0.977s1.573,2.07,1.324-3.033c-0.233-5.104,1.224-3.529,1.224-4.623
			c0-1.093,0.599-1.458,1.824-3.281c1.209-1.821,1.574-1.938,2.668-3.28c1.093-1.342,0.846-0.978,1.21-1.822
			c0.365-0.846,0.861-0.729,0.861-0.729l0.13-0.029"/>
		<path fill="none" stroke="#666666" stroke-width="0.5" stroke-miterlimit="10" d="M314.328,171.699c0,0,3.034-0.232,3.034,1.457
			c0,1.707,1.706,1.707,1.706,1.707l3.646,0.729c0,0,1.705,4.623,2.434,5.104s8.981,0.978,8.981,0.978l1.225-2.436
			c0,0,0.964,0.247,2.188,1.938c1.211,1.706,2.188,2.917,2.188,2.917l2.057,3.046"/>
		<path fill="none" stroke="#666666" stroke-width="0.5" stroke-miterlimit="10" d="M385.526,223.098c0,0-4.009,0.729-5.219,1.459
			c-1.211,0.729-0.977,0.859-2.071,1.458c-1.093,0.611-1.939,0.494-4.126,0.247c-2.188-0.247-2.188,0.612-3.397,1.574
			c-1.224,0.977-2.188,2.435-3.411,3.528c-1.21,1.094-2.422,1.938-3.396,2.8c-0.978,0.846-1.095,1.938-1.095,1.938
			s0.248,3.762-0.363,4.622c-0.613,0.847-0.73,0.599-0.119,1.574c0.6,0.978,0.482,1.707,0.482,2.554
			c0,0.845-0.117,1.339-0.482,1.705c-0.365,0.366-1.822,0.963-2.434,1.575c-0.613,0.612-2.304,2.187-2.304,2.187
			s0.481,1.095,0.363,2.437c-0.13,1.328-0.727,1.209-1.093,1.823c-0.364,0.598-1.092,1.821-1.092,1.821l1.327,1.576l0.729,1.21
			c0,0,1.093,3.279,1.823,5.104c0.727,1.821,2.435,2.071,3.411,3.164c0.963,1.094,2.917,3.646,2.669,4.375
			c-0.248,0.729-0.365,2.435-0.365,2.435l4.01,0.365l1.939-0.246c0,0,0,1.209,0,2.55s0.861,2.552,1.341,2.917
			c0.482,0.366,2.186,0.482,4.988,1.211c2.783,0.73,1.691-0.366,2.185-0.599c0.482-0.247,1.211-0.86,2.188-2.188
			c0.961-1.341,0.598-1.341,1.21-1.953c0.613-0.6,2.071-1.938,2.071-1.938s0.598,0.975,0.729,1.339
			c0.116,0.367-0.248,1.459-0.248,1.459l-0.365,2.057l0.365,9.187c0,1.079,0.918,1.269,1.998,1.269c1.107,0,1.107-0.362,1.107-0.362
			h4.184l2.188,0.173l8.749,14.772l-0.541,1.268c0,0-1.459,1.281-2.188,4.197c-0.729,2.917-0.188,3.282,0,4.549
			c0.175,1.285,0.729,1.11,1.08,1.842c0.379,0.727,0,3.991,0,3.991l-1.08,1.46l-0.378,1.459l-1.634,1.646l0.366,1.999l1.093,1.109
			l0.729,1.806l-0.553,1.838l0.189,6.911c0,0,2.917,4.374,1.822,4.927c-1.092,0.556-0.905,1.633-0.905,1.633
			s-0.188,1.284-2.011,2.012c-1.823,0.732-0.73,2.188-0.73,2.188l1.095,1.633l-2.377,2.188l-0.539,1.835l1.094,1.809l-0.729,1.283
			l-0.729,0.73l-0.729,1.632l-0.657,0.159"/>
		<path fill="none" stroke="#666666" stroke-width="0.5" stroke-miterlimit="10" d="M400.36,350.74c0,0,0.54,0.92,0.54,1.2
			c0,0.26,1.37,1.909,2.01,2.63c0.64,0.729,1.28,1.01,1.28,2.38c0,1.359,1.63,4.551,3.09,7.471c1.46,2.909,1.18,2.01,1.82,3
			c0.65,1.01,0.92,1.739,0.92,1.739s0.18,2.181,0,3.641c-0.19,1.46-0.37,1.271-0.92,3.649c-0.53,2.37,2.19,3.28,2.92,5.83
			s1.46,2.55,2.38,3.46c0.9,0.91,3.26,6.74,4.18,9.66s1.46,2.38,1.1,4.92c-0.37,2.561,2.74,2.37,2.74,2.37l3.88,0.68l0.3,0.051
			l-0.189,9.479c0,0-1.63,1.46-2.36,2.189c-0.729,0.729-2.92,2-5.83,3.449c-2.92,1.46-0.37,2.021,0.17,2.381
			c0.56,0.359-0.17,2.92-0.54,3.46c-0.36,0.55,0,1.279,0,2.561c0,1.271,1.1,3.09,1.1,4.189c0,1.09,0,3.64,0,4.729
			c0,1.101,1.09,2.021,1.09,2.021l2.19,2.609c0,0,0.359,1.689,0,1.939c-0.37,0.24-0.37,0.479-0.37,0.479s-3.03-0.12-3.76,0.729
			c-0.73,0.859-0.25,3.41-0.86,4.5c-0.6,1.101-0.23,1.101-0.84,2.79c-0.62,1.7-0.25,1.09-0.98,2.181c-0.73,1.1-1.46,1.59-1.21,2.561
			c0.25,0.97-1.34,7.289-1.34,7.289s-0.73,0.86-0.85,1.7c-0.12,0.851,0.61,0.851,1.09,1.46c0.49,0.61,1.1,2.551,1.1,2.551
			s0.84,2.189,1.57,2.92c0.73,0.729,0.5,1.449,0.13,1.569c-0.36,0.13-1.45,1.46-1.45,1.46s-0.13,2.551-1.1,4.511
			c-0.97,1.939-0.97,1.689-0.97,1.689s0.11,2.8-0.62,3.41c-0.73,0.6,0.5,1.09,2.56,3.649c2.07,2.55,1.22,1.09,1.95,1.939
			c0.73,0.84,0.48,0.72,1.32,3.029c0.87,2.32,3.17,6.689,4.51,9.479c1.33,2.79,0.85,2.311,1.46,4.5
			c0.6,2.189,1.569,2.189,1.569,2.189l0.37,1.689c0,0-0.37,0.5-1.46,1.221c-1.09,0.729-0.979,1.33-0.979,1.33l-1.09,4.26
			c0,0,0,2.189,0,3.891c0,1.689,1.09,1.939,1.71,2.92c0.609,0.96,1.34,2.189,1.34,2.189s1.689,0.961,0.229,1.931
			c-1.46,0.979-1.569,1.221-2.55,2.311c-0.96,1.09-0.85,1.46-1.82,2.319c-0.97,0.841,0.24,2.54,0.97,3.391
			c0.729,0.851,0.85,2.55,0.85,2.55s0.13,3.4,0.73,3.9c0.609,0.479,1.22,0.729,1.59,2.55c0.359,1.819,4.37,6.431,4.37,6.431
			l0.37,1.46c0,0-1.23,0.859-1.96,1.22c-0.73,0.37-2.78,0.601-2.551,1.211c0.25,0.619,0.5,4.859,0.86,5.59
			c0.37,0.729-0.13,2.189-0.5,3.279c-0.36,1.091,0.37,1.7,1.71,2.551c1.34,0.859,0.73,0.729,0.73,0.729s0,1.09-1.091,2.55
			c-1.1,1.46,0.61,1.96,0.841,3.29c0.25,1.34,0.5,1.34,1.46,4.141c0.979,2.779,4.619,7.29,4.619,7.29s-0.97,0.96-1.819,1.689
			c-0.851,0.72,0,0.72,0,3.05c0,2.3,1.71,2.66,2.67,3.641c0.97,0.96,1.46,1.819,2.55,3.149c1.09,1.34,1.23,2.91,2.07,3.891
			c0.85,0.979,0.85,1.939,0.85,3.76s0.61,2.07,0.61,2.07l5.58,1.1l-0.36,1.7c0,0-1.58,0.971-3.76,0.851
			c-2.19-0.12-0.98,1.46,0.359,1.46c1.341,0,2.19,1.699,2.19,1.699l2.55,0.851l0.61,2.301c0,0-0.61,1.229-1.34,1.46
			c-0.73,0.25-0.98,1.22-0.61,1.59c0.36,0.36,1.71,1.32,1.71,1.32s1.21,0.87-0.25,1.46c-1.46,0.62-0.24,1.229,0.86,2.439
			c1.09,1.21,1.93,1.34,1.93,1.34s0.12,1.939-1.09,3.761c-1.21,1.82,2.069,1.34,2.069,1.34s0,1.46-1.09,1.939
			c-1.09,0.489-0.859,3.529-1.46,5.721c-0.609,2.189,0.96,1.819,0.96,1.819l3.28,1.21l-0.11,1.71c0,0-1.939,0.961-2.8,1.569
			c-0.85,0.62,1.59,1.58,1.95,1.46c0.37-0.119,1.46,1.341,0.85,1.82c-0.609,0.479-1.1,0.851-2.189,2.07
			c-1.09,1.21-1.21,1.21-2.3,2.06c-1.101,0.86-0.37,2.32-0.37,2.32l1.689,1.569c0,0,0.37,1.939,1.23,2.67
			c0.84,0.729,1.09,0.729,2.91,3.41c1.83,2.67,1.7,3.039,1.7,3.039l3.64-0.369c0,0,2.68,0.119,3.17,0.609
			c0.48,0.49,1.45,0.851,1.57,2.311c0.13,1.46,1.46,3.761,1.71,4.489c0.239,0.73,2.18,2.19,2.8,3.04c0.59,0.852,2.42,1.7,2.42,1.7
			s11.3-0.601,11.18,0.25c-0.119,0.84,4.62,0.479,6.08,0.479s3.51,0.859,4.49,1.341c0.979,0.479,0,1.819-0.12,2.55
			c-0.13,0.729-0.729,1.83-0.24,2.189c0.48,0.359,2.801,1.21,2.801,1.21s1.569,2.681,3.279,4.261c0.16,0.14,0.3,0.29,0.432,0.42"/>
		<path fill="none" stroke="#666666" stroke-width="0.5" stroke-miterlimit="10" d="M426.603,403.422l-0.365-2.67
			c0,0,0.249-1.343,1.459-2.682c1.21-1.327,1.573-1.691,2.435-2.42c0.846-0.729,1.822-2.435,1.822-2.435l2.304-1.459
			c0,0,1.21,0.977,1.823,2.305c0.612,1.339,1.21,0.246,1.21,0.246l3.893,0.251c0,0,2.668,0.115,3.033,0.115s0.978,1.089,1.341,1.341
			c0.364,0.232,0.979,1.092,1.821,2.056c0.847,0.979,1.096,3.894,1.096,3.894s0.729-0.73,0.846-1.707
			c0.129-0.962,0.859-1.457,1.821-2.917c0.978-1.457,0-3.396,0-3.396l7.903,0.118c0,0,2.67,0.497,2.67,1.093
			c0,0.608,1.704,2.799,2.316,3.526c0.601,0.729,0,0,1.459,1.826c1.458,1.82,2.668,1.938,3.28,2.548
			c0.599,0.614,2.421,1.708,4.01,3.398c1.577,1.703,2.669,3.646,5.468,4.986c2.786,1.341,4.973,1.706,4.973,1.706l2.436,0.116
			c0,0,1.94,1.937,2.303,2.305c0.366,0.364,3.412,2.188,3.412,2.188s2.421,1.225,3.152,2.187c0.728,0.979,2.683,1.59,2.683,1.59
			l3.398,1.573c0,0,2.066,0.25,3.157,1.462c1.096,1.206,2.06,0.843,2.553,0.843c0.483,0,0.483,0,0.969,1.093
			c0.493,1.093-1.329,2.916-1.329,2.916s-0.498,1.953-0.859,2.802c-0.365,0.844-1.332,1.209-1.332,2.799
			c0,1.575-0.607,4.244-2.064,7.045c-1.459,2.798-0.118,1.337-0.118,2.187c0,0.845,1.093,0.611,4.49,0.611s2.188,0.117,3.644,0.363
			c1.462,0.233,2.072,1.459,4.014,1.459c1.938,0,4.854,0.366,4.854,0.366s2.8-0.864,4.011-0.864c1.225,0,1.822-0.595,2.68-1.574
			c0.85-0.976,1.215-1.34,1.941-2.183c0.73-0.85,1.344-1.461,3.032-3.765c1.709-2.319,0.979-2.07,0.979-2.915
			c0-0.862,0-6.694,0-6.694s0.729-0.845,1.705-0.96c0.963-0.136,2.417-0.249,2.417-0.249l1.709,0.249l0.479,1.323l1.59,1.708
			c0,0,0.364,1.82,1.327,5.104c0.977,3.28-2.551,7.903-2.551,7.903c-9.229,4.487-20.648,23.195-21.012,24.174
			c-0.364,0.976-1.706,2.552-1.952,2.915c-0.232,0.365-2.188,2.434-2.188,2.434v15.18c0,0,0.611,3.051,0.365,5.104
			c-0.236,2.071,1.706,2.916,1.706,2.916s0.362,0.978,0.607,1.823c0.234,0.859-0.492,1.095-0.977,1.589
			c-0.48,0.479-1.574,1.69-1.574,1.69s-0.975,1.591,0,3.282c0.963,1.707,2.424,2.685,2.424,2.685l0.158,0.714"/>
		<path fill="none" stroke="#666666" stroke-width="0.5" stroke-miterlimit="10" d="M512.748,473.671
			c1.619-0.288,4.01-0.988,4.01-0.988l1.341-0.73h2.435l1.823,0.248c0,0,0,0,0,0.6c0,0.611,0.847,1.224,2.913,2.916
			c2.058,1.706,2.309,2.07,2.309,2.07s-0.251,2.188-0.366,2.668c-0.115,0.492,1.574,0.859,2.188,0.134
			c0.612-0.733,0.978-0.979,0.978-0.979l1.324-0.363c0,0,0.864,0.48,1.46,1.702c0.616,1.213,3.646,1.823,3.646,1.823
			s2.682,1.826,3.278,2.307c0.615,0.481,3.281,2.304,3.281,2.304l2.799,1.952c0,0,1.457,1.69,2.673,2.786
			c1.225,1.095,2.315,1.227,2.315,1.227s-0.362-1.093,1.21,1.211c1.211,1.779,1.356,1.398,1.356,1.119"/>
		<path fill="none" stroke="#666666" stroke-width="0.5" stroke-miterlimit="10" d="M554.711,505.809
			c-0.889,0.118-2.1,0.058-2.1-1.164c0-1.956,0.367-2.188-0.496-3.282c-0.845-1.094-1.324-1.461-0.729-1.588
			c0.61-0.118,0-1.21,1.094-1.21s1.458-1.096,1.458-1.096l-0.219-1.795l-0.016-0.146"/>
		<path fill="none" stroke="#FFFFFF" stroke-width="0.5" stroke-miterlimit="10" d="M338.387,432.947"/>
		<path fill="none" stroke="#666666" stroke-width="0.5" stroke-miterlimit="10" d="M461.715,395.155c0,0,1.223-0.233,1.457-3.88
			c0.247-3.646,1.588-12.524,1.588-12.524s0.847-0.115,1.328-2.553c0.496-2.419,0.729-3.513,0.729-3.513s0.364-0.729,2.553-1.341
			c2.187-0.614,2.187,0.362,5.104-0.729c2.915-1.097,2.682-0.731,4.869-1.709c2.188-0.965,3.033-0.595,5.833,0
			c2.783,0.612,3.515,0.612,4.008,1.227c0.483,0.597,3.281,1.094,3.281,1.094s2.551-0.86,3.396,2.783
			c0.847,3.644-0.116,2.801,1.095,5.104c1.21,2.319,1.821,5.832,2.798,6.563c0.965,0.727-0.132,0,0,3.893
			c0.118,3.894,0.601,4.128,0.601,4.493c0,0.362-0.601,2.682,6.084,2.188c0,0,1.7-0.485,2.302,0.611
			c0.612,1.093,1.092,0.613,1.458,0.479c0.361-0.117-0.117-1.457,1.339-1.457c1.46,0,2.915,0,3.646,0.73
			c0.729,0.727,1.461,2.796,2.437,2.796c0.961,0,2.55,1.823,2.55,2.307c0,0.494-0.363,2.552,0.233,3.278
			c0.613,0.732,1.344,0.613,1.223,2.07c-0.128,1.461-0.128,2.435,0.599,3.397c0.729,0.979,1.095,0.73,0.729,1.821
			c-0.362,1.097,2.189,2.19,3.05,1.345c0.847-0.848,0.116-2.07,1.575-2.07s2.551,0.129,3.032,0.495
			c0.491,0.362,1.588-0.133,1.705,3.032c0.118,3.163,0.365,4.855,0.365,4.855s-0.847,1.094-0.98,3.163
			c-0.113,2.072,0.253,3.647,0.253,3.647l-0.729,2.302"/>
		<path fill="none" stroke="#666666" stroke-width="0.5" stroke-miterlimit="10" d="M395.253,289.5c0,0,4.258,0.555,6.444,0.802
			c2.188,0.235,1.459,0.235,3.397-1.223c1.939-1.458,2.667-3.4,3.645-3.4s4.375-2.434,4.375-2.434s1.21-0.482,2.188-1.457
			c0.977-0.964,2.668-2.423,3.397-3.646c0.729-1.211,4.141,0,4.141,0l6.563-1.458c0,0,0.232,0.495,0.232,1.954
			c0,1.457,0.247,2.917,0.247,3.646s-0.247-0.494-0.977,1.69c-0.729,2.188-0.482,3.647,0.248,4.141c0.729,0.481,0.729,0.965,0,2.188
			c-0.729,1.21-1.21,2.42,0.249,3.15c1.458,0.729,3.877,3.414,4.374,4.374c0.48,0.977,1.69,3.412,3.148,3.893
			c1.459,0.481,1.707,1.939,1.707,1.939s6.313-0.234,7.042,0c0.729,0.249,2.916,1.954,4.87,3.163
			c1.939,1.211,3.149,2.669,5.104,3.894c1.938,1.211,3.646,1.211,3.646,2.668c0,1.459,0.962,0.979,3.645,0.979
			c2.669,0,3.878-0.729,5.585-0.249c1.706,0.479,3.645,1.938,3.397,3.645c-0.234,1.706,1.225,2.917,1.225,4.127
			c0,1.226,2.188,4.622,2.188,4.622s-1.226,0.729-1.458,1.457c-0.248,0.73-1.227,2.188-1.227,2.188s1.709-0.729,2.437,1.706
			c0.729,2.42,0.977,4.854,0.977,5.585c0,0.729,0.48,2.435,1.939,2.435c1.458,0,3.163,0.232,6.563,0.232
			c3.395,0,6.312,0.248,6.312,0.248l-0.232,5.351c0,0,0.232,2.919,1.21,2.919s0.481,1.688,1.212,1.688
			c0.728,0,1.951,1.706,1.951,1.706l2.915,0.248c0,0-1.223,1.691,0.235,3.879c1.456,2.188,2.438,2.437,2.438,3.646
			c0,1.226-3.896,1.953-2.92,1.953c0.979,0,0.979,1.938,0.979,2.916c0,0.96-1.706,4.606-1.706,4.606v2.186l-1.458,1.459"/>
		<path fill="none" stroke="#666666" stroke-width="0.5" stroke-miterlimit="10" d="M459.512,142.8
			c-0.117,0.132-0.628,0.788,2.932-1.224c3.892-2.188,2.916-3.165,2.916-3.165l0.729-1.21l0.729-1.706l-1.297-1.544
			c0,0-0.468-0.644-1.094-0.731c-0.643-0.088-2.379-2.275-2.379-2.275s0.73-0.642-0.261-1.282c-1.005-0.644-1.458-1.545-1.458-1.545
			s-1.006-0.919,0-1.458c0.99-0.556,1.354-1.096,1.354-2.275c0-1.196-0.626-3.02-0.626-3.02s0.817-0.361,1.998-1.005
			c1.18-0.626,1.997-0.173,3.104-0.729c1.082-0.541,2.362-0.73,2.362-1.72c0-1.007,1.009-1.926,0-2.554
			c-1.006-0.642-2.638-2.828-2.638-2.828s1.095-1.007,1.908-1.546c0.815-0.554,0.729-0.554,1.825-1.005
			c1.092-0.453,3.104-1.734,3.104-2.1s1.545-0.265,1.545-2.101c0-0.524,0.163-0.963,0.408-1.326"/>
		<path fill="none" stroke="#666666" stroke-width="0.5" stroke-miterlimit="10" d="M459.526,142.786c0,0,0,0-0.015,0.014
			c-0.162,0.073-2.96,1.473-4.841,2.174c-1.94,0.729-3.396,0-3.396,0l-2.188,1.704c0,0,0.729,1.94-0.25,2.917
			c-0.976,0.963-1.705,0-1.705,0s-1.457-1.223-3.148-1.223c-1.707,0-3.413-0.482-3.413-0.482l-3.646-1.938l-2.187-1.705
			l-3.149-0.484c0,0,1.69,2.189,1.69,2.917c0,0.73,2.436,2.422,2.436,2.422s1.21,1.226,1.94,2.188
			c0.729,0.976-1.691,3.41-1.691,3.41l1.938,2.188l0.729,1.941v1.705l0.977,0.48h3.396v2.917h-0.976l-0.481,1.458
			c0,0-1.209,0.247-3.163,0.73c-1.939,0.479-1.459,3.645-1.459,3.645l-1.21,1.21h-2.436c0,0-3.148,1.458-5.336,2.684
			c-2.188,1.21-0.978,3.878-0.978,3.878h-1.938l-0.248-1.458l-2.917-0.729l-1.209,0.729c0,0-1.707,0.979-3.165,0
			c-1.458-0.962,0,0-0.728-0.232c-0.729-0.249-1.707-2.684-1.939-3.413c-0.249-0.729-2.917,1.227-2.917,1.227s0-1.459-0.249-2.436
			c-0.248-0.977-0.248-2.187-0.248-3.646c0-1.138-0.598-2.581-0.845-3.15"/>
		<path fill="none" stroke="#666666" stroke-width="0.5" stroke-miterlimit="10" d="M466.816,135.496l3.528-0.365
			c0,0,1.458-0.613,1.458,0.844c0,1.458,0.117,1.824-0.117,2.188c-0.248,0.364-1.457,1.591-1.457,1.591l0.116,2.054
			c0,0,1.21-0.231,1.706,0.132c0.48,0.365,1.209,1.575,1.209,2.057c0,0.496-0.115,1.094,0,1.708c0.116,0.61,1.097,0.729,1.097,0.729
			s0.845,0.117,0,3.031c-0.849,2.917-0.729,3.165-1.458,4.375c-0.731,1.224-2.072,2.071-1.708,3.646
			c0.364,1.588,0.611,4.141,0.611,4.141l2.071,2.552l0.114,2.668c0,0,0.248,0.845,1.096,1.574c0.845,0.729,0.729,1.094,1.341,2.187
			c0.599,1.094,2.307,2.07,2.667,2.07c0.366,0,4.013,0,4.013,0s0.974-0.612,3.761-2.187c2.801-1.573,2.434-2.188,3.775-2.917
			c1.327-0.729,2.423-2.07,2.423-2.07s0.608-0.481,2.797,0c2.188,0.498,4.492,0.498,4.492,0.498s-1.822-2.916-2.188-3.165
			c-0.364-0.249-3.279-2.917-3.279-4.491c0-1.589-0.233-2.917-1.213-4.258c-0.976-1.342-2.304-2.668-2.304-2.668
			s-2.55-2.07-2.681-3.282c-0.118-1.225-1.329-2.317-1.329-3.163s0.365-2.801,1.21-3.646c0.846-0.846,1.213-2.668,1.213-3.28
			c0-0.613,0.127-0.978,0.361-1.342c0.249-0.364,0,0,2.319-0.364c2.305-0.366,1.94-3.149,1.94-3.149s0.975-0.496,0.975-1.822
			c0-0.496,0.236-1.836,0.528-3.312"/>
		<path fill="none" stroke="#666666" stroke-width="0.5" stroke-miterlimit="10" d="M500.354,166c0,0,3.046-0.366,3.526-0.366
			c0.483,0,0.977-0.729,1.099-1.821c0.114-1.094-0.364-2.188-0.364-2.188s1.823,0,3.758,0c1.954,0,1.954-0.612,1.954-0.612
			l1.328-0.728l3.772,0.977c0,0,1.215,1.574,1.215,1.938c0,0.362,3.394,1.212,3.394,1.212l1.098-1.096c0,0,1.706-0.116,2.915-0.729
			c1.222-0.597,2.437-0.231,2.801-0.231c0.362,0,1.572,0.846,1.572,0.846l0.978,1.093c0,0,0.846-0.364,1.341-0.73
			c0.484-0.362,0.848-0.844,1.459-1.572c0.599-0.729,1.457-0.978,1.457-0.978s1.215-0.977,1.46-2.303c0.23-1.341,0-3.167,0-3.167
			l1.094-2.667c0,0,1.325-2.684,1.576-3.164c0.247-0.481,1.207-1.094,1.703-1.707c0.48-0.598,0.845-1.209,1.096-2.056
			c0.188-0.716,1.049-1.166,1.355-1.299"/>
		<path fill="none" stroke="#666666" stroke-width="0.5" stroke-miterlimit="10" d="M516.495,162.849
			c1.385-1.327,0.713-1.778,1.486-2.448c0.963-0.847,0.598-0.365,1.69-2.553s-0.963-1.938-0.846-3.15
			c0.117-1.224,0.611-0.977,1.82-3.279c1.213-2.318,0-1.093-0.479-2.685c-0.495-1.571-1.224-2.056-1.705-4.488
			c-0.481-2.438-0.364-3.399-0.364-3.399s0-3.046,0.118-4.62c0.128-1.576,1.341-1.824,2.186-2.67c0.862-0.859,0.73-1.341,0.73-2.916
			c0-0.683,0.233-1.413,0.491-2.085"/>
		<path fill="#394959" d="M395.253,330.031l1.699,1.095c0,0,1.458-0.243,1.093,0.853c-0.364,1.094-1.093,1.576-0.364,1.576
			s1.945,0,1.945,0s0.487,0.243,0.851,0.851c0.365,0.607,0.729,0.977,1.095,1.096c0.363,0.124,1.212,0.241,1.212,0.241
			s0.973,0.488,0.729,1.215c-0.241,0.729-0.241,0.729-0.241,0.729s1.215,0.97,0.486,1.698c-0.729,0.729-1.703-0.241-1.703-0.241
			s-0.73-1.216-1.7-1.216c-0.971,0-2.429-1.337-2.429-1.337s-0.244-0.969-1.095-0.969c-0.85,0-1.943-0.367-2.916-0.729
			c-0.973-0.365-0.242-1.218,0.365-1.947c0.607-0.729,0.729-1.945,0.729-1.945L395.253,330.031z"/>
		<path fill="none" stroke="#C7BCB1" stroke-width="0.25" stroke-miterlimit="10" d="M418.699,581.31c0,0,0.015,0,0.029,0
			C418.758,581.356,418.699,581.31,418.699,581.31z"/>
		<path fill="none" stroke="#C7BCB1" stroke-width="0.25" stroke-miterlimit="10" d="M111.41,0h1.72c-0.72,0.08-1.36,0.62-1.36,0.62
			S111.64,0.39,111.41,0z"/>
		<path fill="none" stroke="#C7BCB1" stroke-width="0.25" stroke-miterlimit="10" d="M679.22,270.93
			c-0.17,0.53-3.09,4.18-3.278,5.64c-0.19,1.45-9.12,10.57-9.66,10.57c-0.55,0-2.54,2.55-2.54,4.55c0,2.011-7.12,14.4-7.12,14.4
			l-3.09,1.1c0,0,0.34-2-2.57-1.65c-2.92,0.37,1.28,2.181,1.28,2.181s-0.36,1.109-1.28,1.85c-0.91,0.72-1.8,7.28-1.8,7.28l1.45,2
			c0,0-2.57,2.729-2.57,3.64c0,0.92,2.19,1.101,2.19,5.65c0,4.57,0.188,2.189,0.188,2.189l1.46,4.75c0,0,1.46,2.19,0.92,3.82
			c-0.56,1.63-2.92,3.48-2.75,5.271c0.182,1.85,0.562,4.939,0.562,4.939s0.729,3.819-2.19,6.93c-2.92,3.101-0.92,10.2-0.92,10.2
			s0.73,4.74-1.82,6.37c-2.55,1.649-1.448,5.649-2.01,6.75c-0.54,1.09-2,1.649-3.45,3.109c-1.46,1.46,0.19,3.271-1.46,6.189
			c-1.648,2.91,0.91,4.021,0.91,4.021s-2.188,1.069-3.11,1.261c-0.908,0.189-3.448,2.92-3.448,2.92l-2.012,1.819
			c0,0,0.91,3.649-0.18,2.91c-1.1-0.721-7.84,0.739-7.84,0.739l-0.91-1.46c0,0-1.1,2.011-2.74,2.011c-1.63,0-2.35-1.101-2.35-1.101
			l-1.11,1.641l-2.188,0.93l-0.182-1.47l-4.738,0.18l2.55,1.45c0,0-3.46,3.479-4.19,3.479c-0.729,0-2.188,1.63-2.188,1.63l1.46,0.91
			l-0.54,1.279c0,0-1.47,0-2.73,0c-1.278,0,0.91-0.56-4.02,0c-0.28,0.021-0.57,0.08-0.86,0.181c-5.03,1.41-13,10.021-13,10.021
			l-0.53,2.92l-2.729,0.561l-2.38,2.351l1.46,1.47l-0.54,2.19c0,0-1.28,1.819-1.11,2.899c0.19,1.101,2.011,8.93,3.642,11.311
			c1.659,2.369,0.188,10.199-2.71,11.859c-2.932,1.63-6.04,8.75-6.04,8.75c0,14.92-13.65,25.51-13.65,25.51s-0.189-1.84-0.189,0.721
			c0,2.54-4,11.29-4.551,11.479c-0.56,0.189-1.278-0.92-1.278,1.649c0,2.54-8.19,11.29-8.75,11.29c-0.54,0-2.921-0.18-4.19-0.91
			c-1.271-0.729-3.649,0-4.37,0.37c-0.729,0.36-2.188,1.45-3.83-0.739c-1.64-2.181-4.729-1.08-6.38-1.08
			c-1.65,0-2.37-1.83-2.91-2.37c-0.55-0.561-2,0-4.38-0.189s-1.1-1.261-1.64-1.819c-0.44-0.45-1.352-1.36-2.82-1.591
			c-0.35-0.069-0.75-0.08-1.18-0.04c-2.19,0.16-0.38,2.721,0,3.261c0.34,0.561,1.63,2.01,2.72,2.569c1.1,0.54,1.47,1.261,2,2
			c0.561,0.729,2.38,1.261,4.37,1.45c2.021,0.189,1.29,1.101,1.85,1.659c0.53,0.53,1.45,0.891,2.36,0.891c0.9,0,0.55,2.37,0.55,2.37
			s-1.1,3.101-0.188,3.83c0.92,0.729,1.1,2.189,1.1,2.189l1.45,1.449c0,0,0.898,0.2,1.818,1.28c0.922,1.109,1.102,1.641,2,2.01
			c0.922,0.36,0.19,3.471,0.19,3.471s-0.72,1.46-0.72,3.271c0,1.83-2,1.83-3.11,3.101c-1.08,1.271,0,4.369,0,4.369
			c-8.37,7.29-20.76,7.29-23.14,7.29h-6.03c-0.9,0-2-0.729-5.1-1.449c-3.08-0.729-0.73,1.819-0.17,2.729
			c0.55,0.91,1.63,2.561,3.27,3.29c1.66,0.729,1.66,3.819,0,4.37c-1.64,0.55-0.35,5.64,1.47,6.569c1.82,0.899-0.188,2.529-1.1,3.08
			c-0.9,0.561-1.63,1.819-1.63,1.819s-5.83,1.28-8.21-0.351c-2.38-1.63-5.641-1.829-7.83-2.92c-2.181-1.101-4.19,3.46-1.29,4.74
			c2.92,1.26,3.82,8.021,3.82,8.021l1.85,0.92c0,0,0.72,0.34,2.53,0.899c1.84,0.55,1.46-0.37,1.46-0.37s0.729-0.909,1.649-1.641
			c0.92-0.729,1.82-0.18,2.19,0.381c0.359,0.54,1.45,1.63,2.898,1.811c1.472,0.18,0.74,4.369,0.74,4.369l-3.45,0.381
			c0,0-1.118-0.729-1.648-0.729c-0.54,0-0.92-1.461-2.55-1.841c-1.631-0.35-1.29,0.38-2.561,1.841c-1.26,1.46,1.09,0.899,2,1.46
			c0.92,0.529,2.01,0.529,2.01,0.529s0.73,1.101-0.899,2.561c-1.65,1.45-4.37,3.471-2.92,5.46c1.46,2.011,2,4.92,2,4.92
			s-0.36,1.641-2,2.74c-1.641,1.09,1.64,1.29,1.64,1.29s4.19,2.909-0.56,2.529c-4.721-0.351-5.45,0.92-8.561,3.83
			c-3.1,2.92-1.46,7.67-0.359,8.75c1.09,1.101,5.649,4.38,6.01,5.479c0.38,1.08,6.02,0.891,7.28,0.891
			c1.289,0,3.828,0.93,3.828,0.93s-1.26,4.011-0.17,5.29c1.102,1.271,1.45,2.359-0.358,2.91c-1.84,0.55-4.931,6.739-6.21,7.3
			c-1.271,0.53-3.82,2.721-0.73,5.45c3.11,2.739,0,6.21,0,6.21s-2.359,0.17-2.54-0.561c-0.189-0.72,0-1.819-1.28-2.189
			c-1.289-0.351-0.909,1.649-0.909,1.649l1.09,1.45c0,0-0.54,2.739-1.28,3.83c-0.72,1.101,0.19,3.84,0.37,4.561
			c0.18,0.739,4.01,3.1,4.01,3.1s-5.29,1.28-2.55,1.82c2.74,0.55,6.01,1.819,7.29,3.279c1.29,1.471,1.63,3.29,1.63,3.29
			s-1.63,1.45-1.45,2.181c0.19,0.729,2.92,0.729,2.92,0.729l3.642,2.92c0,0-3.271,1.819-0.91,1.819c1.148,0,3.2,1.2,5.2,2.609h-9.58
			c0.09-0.59-0.55-1.159-0.55-1.159s-1.99,0.18-2.91,0.561c-0.91,0.35-2,0.35-2.73,0.54c-0.72,0.189-2.189-0.37-2.189-0.37
			l-0.36-1.63l-0.55-0.921l0.91-0.529c0,0-0.19-1.29,0.37-1.66c0.55-0.35,1.63-0.529,1.63-0.529s-2.721-0.92,0.56-1.83
			s0.55-0.91-0.18-1.471c-0.72-0.539-1.65,0-2.74,0.92c-1.09,0.931-1.83,0.73-4.2,2c-2.359,1.28-0.729,0.91,0.181,1.83
			c0.93,0.9,0.37,1.811,0.37,2.37c0,0.561,0.18,1.091,0.729,1.82c0.021,0.021,0.03,0.04,0.04,0.06h-9.34c0-0.039,0-0.06,0-0.06
			s0.729-0.921,1.64-2.19c0.931-1.26,1.101-0.539,2.38-1.1c1.28-0.54,1.471-1.271,0.181-2.351c-1.28-1.109-1.63,1.271-2.37,1.811
			c-0.721,0.54-2.18,0.909-3.101,1.449c-0.92,0.561-1.1,1.46-1.1,1.46s-1.82,0.189-2.9-0.34c-1.1-0.561-0.18-2.029-0.18-2.029
			s0.9-1.08-1.83-1.08c-2.74,0-3.28-1.09-4.38-2.721c-1.09-1.659-2,0-2.92-1.29c-0.91-1.279-1.08-0.369-1.27-2.01
			c-0.181-1.631,2.909-0.181,2.909-0.181s1.83-0.37,1.66-1.45c-0.189-1.109,0.72-0.18,2-2.188c1.26-2.011-3.11-0.74-3.11,0
			c0,0.72-0.909,2.539-0.909,2.539s-1.82-1.09-2.73-1.271c-0.91-0.189-1.649-2.18-1.649-2.18s-0.721,0.17-3.08-0.92
			c-2.381-1.091-0.931-1.65-0.931-1.65s2.931-1.069,0-1.81c-2.899-0.721-3.09-0.921-2.18-3.11c0.92-2.18,0,0,1.65-1.08
			c1.63-1.1-0.73-1.279-0.73-1.279s-0.92,1.279-1.83,0.38c-0.91-0.92-1.28,0.16-1.649,1.261c-0.351,1.09,0,0,0.369,1.27
			c0.37,1.29-1.09,1.29-2,1.29c-0.909,0,0.181-0.92-2.189-1.84c-2.37-0.91-1.641-1.26-1.1-1.82c0.56-0.539,2.569,0.182,1.84-0.539
			c-0.74-0.729,0.729-0.729,1.449-1.471c0.73-0.72,1.471-0.899,1.471-0.899s-1.29-0.359-3.66-0.909c-2.37-0.551-1.1-1.83-0.19-2.74
			c0.931-0.9,1.83-1.45,1.83-1.45s-2.01-0.18-2.18-1.64c-0.12-0.99,0.26-1.15,0.51-1.15c-0.229-0.199-0.51-0.859-0.51-3.04
			c0-3.47-2.19,0.17-2.19,0.17l-0.359,2.91c0,0-1.28,3.3-1.82,0.38c-0.56-2.909-0.74-0.72-0.74-0.72s-0.359,0.899-1.449,2.72
			c-1.101,1.82-1.29-0.72-1.29-0.72s-0.181-0.92-1.08-0.92c-0.92,0-0.551-2,1.27-2.55c1.82-0.54,0,0-0.55-0.37
			c-0.54-0.351,0-0.9,0.18-1.811c0.181-0.921-0.18-0.721-0.18-0.721s0-0.93-0.18-1.47c-0.19-0.54-1.46,0.91-1.65,1.47
			c-0.18,0.53-1.14,1.74-1.14,1.74s-3.88-3.15-0.24-4c3.64-0.851,0.96-2.061,0.96-2.061c-5.58,1.21-2.66-0.729-4.01-1.83
			c-1.33-1.091-0.721-1.96-0.721-2.909c0-0.98,1.33-1.23,2.311-1.591c0.96-0.359,1.33,1.091,2.55,1.71
			c1.21,0.609,2.42,2.551,2.79,3.391c0.36,0.859,2.18,2.55,2.18,2.55l0.87-1.939v-1.569c0,0-3.42-1.351-3.79-1.351
			c-0.35,0-1.08-1.33-1.08-1.33l0.86-1.22c0,0,1.57,0.479,2.54,0.619c0.97,0.11,1.34,0.48,2.55,1.21
			c1.22,0.721,1.22,0.36,2.31-0.729c1.101-1.101-1.34-1.57-2.189-2.07c-0.84-0.479-2.91-0.239-4.01-0.97
			c-1.09-0.721-0.61-1.33-0.61-1.33s-1.32-0.99-2.31-1.21c-0.96-0.25-0.351-1.101,1.22-3.29c1.59-2.181-0.601,0.97-2.79-0.971
			c-2.19-1.939,0.85-5.351,0.85-5.351s1.09,1.45,1.46,0.49c0.36-0.979,0.25-1.82,0.851-2.92c0.6-1.091-1.83-0.729-2.311-1.091
			c-0.479-0.359,0.48-2.311,0.48-2.311s-1.21-1.22-1.7-2.56c-0.49-1.32,1.59,0.369,2.31,0c0.73-0.36,2.19-0.479,2.921-1.57
			c0.729-1.1-2.801-0.609-5.11-1.46c-2.3-0.84,1.21-2.43,1.21-2.43s0.61-0.24,1.47-1.221c0.86-0.971,0.13-2.181,0.36-3.279
			c0.25-1.091-0.73-0.48-1.94-0.73c-1.22-0.25-1.46-1.199-2.43-1.34c-0.97-0.109-2.43-0.72-1.82-2.18
			c0.601-1.471,1.33-1.221,1.82-2.421c0.49-1.229-0.37-1.351-1.69-1.71c-1.35-0.359-1.47-2.079-1.6-2.8
			c-0.12-0.729,1.35-3.279,1.47-3.649c0.13-0.36,0.24-1.091-1.1-1.57c-1.33-0.489,0,0-0.49-1.09c-0.47-1.101,0-2.92,0-2.92
			c2.8-0.12,0.37-2.8,0.37-2.8c-3.76,0.858-1.46-0.48-2.44-1.69c-0.949-1.22,0.62-0.729,1.23-1.34c0.59-0.62-1.35-1.22-3.17-1.34
			c-1.82-0.13-0.84,0.859-1.2,1.22c-0.35,0.33-2.7,0.46-3.02,0.479c-0.04-0.061-0.62-0.561-3.91-3.159
			c-4.62-3.65-2.07-7.051-3.64-10.21c-1.6-3.16-0.37-2.79,1.2-4.86c1.58-2.069-0.47-3.39-0.47-5.83c0-2.43-1.96-3.52-3.29-4.85
			c-1.33-1.341-1.23-2.92-2.07-5.24c-0.85-2.3-0.98-2.3-1.94-5.59c-0.98-3.271-1.58-2.551,0.6-3.391
			c2.18-0.859,0.98-1.591,0.61-2.551c-0.35-0.979,0-2.438,0.98-3.279c0.96-0.859,0.59-3.29,0.59-3.29l-1.69-2.92
			c1.84-0.479,2.31-1.21,2.31-1.21s-3.89,0.239-0.72-3.881c3.15-4.14,1.2-7.43,0.84-8.159c-0.37-0.721-2.43-6.92,0-7.149
			c2.43-0.25,0.61-4.01-0.12-4.26c-0.72-0.25-0.84-0.98,0-4.62c0.85-3.641-6.45-19.562-6.68-20.9c-0.24-1.34-0.85-0.609,1.83-4.859
			c2.66-4.25-1.96-8.011-3.17-9.109c-1.2-1.09-0.12-3.41,0.73-4.62c0.84-1.21,1.21-2.3,1.94-3.649c0.73-1.33-0.85-2.181-1.33-3.021
			c-0.49-0.87,0.36-2.439,0.85-2.92c0.48-0.5,0.25-2.19-0.25-2.931c-0.48-0.71-0.37-6.319-0.37-7.279c0-0.98,1.23-2.32,1.23-4.011
			c0-1.71-1.7-2.55-2.18-3.88c-0.5-1.351,0-2.931,1.32-4.38c1.35-1.471,1.1-2.08,0.62-2.671c-0.49-0.619-1.1-0.739-1.1-4.989
			c0-4.261-0.61-7.649-1.82-8.75c-1.21-1.09-1.46-2.659-1.71-3.529c-0.23-0.851,1.09-0.851,2.32-2.551
			c1.21-1.689,0.73-8.75,0.96-12.021c0.25-3.29-0.48-1.949-1.82-6.439c-1.33-4.5-0.84-5.721-1.33-9.979
			c-0.49-4.239-0.86-4.601-1.7-6.66c-0.85-2.09-1.1-5.229-0.48-6.09c0.37-0.521,0.14-0.96-0.18-1.239
			c-0.19-0.171-0.42-0.29-0.56-0.341c-0.35-0.12-1.09-1.34-1.09-1.34c-5.23-2.3-9.73-7.53-10.7-8.859
			c-0.97-1.351-7.29-6.091-8.5-6.44c-1.22-0.37-5.22-1.7-7.78-4.01c-2.54-2.311-7.53-3.88-11.79-5.96
			c-4.24-2.07-6.31-5.351-9.35-8.391c-3.04-3.02-4.5-6.069-5.59-7.76c-1.1-1.71,0.97-3.28,1.22-4.38c0.23-1.09-5.47-9.97-6.45-10.33
			c-0.97-0.37-2.66-3.51-2.66-3.51s0-3.54-1.35-4.51c-1.33-0.97-3.15-3.88-3.76-4.74c-0.61-0.85-2.8-7.17-3.77-7.89
			c-0.97-0.73-1.46-3.53-2.19-4.62c-0.73-1.101-2.3-4.13-2.42-5.96c-0.13-1.82-2.55-4.86-3.17-6.33c-0.6-1.45-3.64-4.72-3.64-4.72
			s-5.58-10.69-8.63-13.73c-3.04-3.05-7.77-3.53-7.77-3.53l0.36-2.67c0.98-1.59,1.21-0.729,2.55-1.33c1.35-0.62-1.34-3.41-1.34-3.41
			l-2.42-1.699c0,0,0.37-1.82-0.72-2.561c-1.1-0.72-0.62-1.819-1.23-2.43c-0.6-0.59,1.33-2.43,1.09-3.15
			c-0.23-0.729,1.23-1.949,1.46-2.31c0.25-0.37,1.34-1.1,1.7-2.19c0.37-1.1,2.81-2.67,3.17-2.67c0.19,0,1.42-1.279,2.57-2.51
			c1.05-1.14,2.03-2.24,2.03-2.24s-0.36-2.649,0.5-4c0.85-1.34,0-2.31-0.61-2.81c-0.61-0.47-1.58,0.37-2.07,0.74
			c-0.48,0.359-0.48,1.819-0.48,1.819l-0.73,0.73c0,0-1.45-0.851-1.45-1.32c0-0.5-0.99-1.72-0.99-1.72l-1.82-0.72l-0.23-1.221
			c0,0,0,0,0.97-1.21c0.97-1.22,0-2.92,0-2.92l-0.49-0.37c0,0-0.73-2.66,0.12-3.51c0.85-0.87-0.12-1.34-0.12-1.34
			s-0.61-2.19-0.48-2.92c0.11-0.73,1.82-1.82,2.3-2.07c0.49-0.24,1.94-0.12,2.44-0.97c0.48-0.851-2.07-0.601-2.07-0.601
			s-0.25-2.8,0.12-3.04c0.35-0.25,1.09-1.22,1.45-1.819c0.37-0.62,2.32-1.09,3.17-2.44c0.84-1.33-0.37-0.609-1.35-1.09
			c-0.96-0.479-0.36-4.49-0.36-4.49c2.31-0.609,2.8-0.979,2.8-0.979c5.22-2.55,6.81-3.391,8.75-3.891c1.94-0.479-1.57-2.3-2.31-2.42
			c-0.73-0.13,0.12-1.71,0.74-2.81c0.59-1.08,2.18,0.37,2.9-0.24c0.74-0.59-0.48-1.09-0.48-2.91c0-1.819,1.34-3.29,2.54-3.51
			c1.23-0.25,3.05,1.08,4.62-0.979c1.58-2.08,2.44-5.11,4.38-8.511c1.94-3.41,1.94-2.18,1.57-4.14c-0.35-1.93-2.41-0.48-2.41-2.79
			s0.59-2.79,1.69-4.62c1.09-1.82-0.97-1.939-0.97-1.939s-0.6-3.15-0.72-4.5c-0.13-1.33,0.37-1.58,0.37-1.58s0.72-1.08,1.45-1.931
			c0.72-0.87,0.24-1.34,0.24-1.34s-1.94-0.979-1.94-1.35c0-0.36,1.2-1.32,2.19-2.19c0.97-0.84-0.12-1.569-1.1-2.55
			c-0.99-0.96-1.09-1.57-1.21-2.29c-0.13-0.74-2.68-2.44-3.05-3.54c-0.37-1.09-1.46-3.51-3.04-3.76c-1.57-0.25-0.72-2.55-0.72-2.55
			s0.61-0.62,0.61-1.46c0-0.851,1.82-2.181,1.82-2.181s2.19-1.35,0.37-1.71c-1.83-0.359-4.81-3.229-4.81-3.229
			c-2.54-4.09-7.47-0.891-7.47-0.891c-3.47,7.38-5.75,3.08-6.74,5.19c-1.01,2.09-0.55,1.91,2,4.45c2.55,2.569,0.82,1.01,1.09,2.649
			c0.28,1.65-3.28,3.011-4.1,3.101c-0.83,0.08-4.2-0.54-4.65-0.811c-0.44-0.29-1.18-3.66-1.45-3.66c-0.28,0-2.92-0.81-2.92-0.81
			s-1.74-0.64-2.83-1.92c-1.09-1.28-1.18-2.36-2.55-2.73c-1.36-0.369-2.73,0-3.64-0.54c-0.36-0.22-0.95-1.04-1.58-1.81
			c-1-1.2-2.11-2.26-2.61-0.65c-0.81,2.631-3.28,1.551-3.56,1.551c-0.27,0-2.1-2.841-1.18-2.931c0.91-0.08,3.09-1.819,1.63-2.92
			c-1.45-1.08-6.52-4.729-6.52-4.729c-2.19-0.98-2.92-5.101-3.66-6.561c-0.72-1.46-2.91,0.721-2.91,0.721l1.71,1.72h0.98l0.22,2.41
			c0,0,0,0-2.91,0c-2.92,0-2.42-2.19-2.42-2.19c-4.37-0.22-2.19-4.6-2.19-4.6s3.88-1.46,1.69-2.431c-2.18-0.979,0-2.92,0-2.92
			s0.43-1.21,1.07-2.2h0.01c0.73-1.159,1.77-2.039,2.81-0.47c1.94,2.91,3.17-2.68,1.47-2.91c-1.71-0.25-2.92-3.42-2.92-3.42
			c-0.98,0-3.64-2.91-3.64-2.91s-1.72-2.42-2.92-1.699c-1.21,0.729,0.48,2.67,1.2,2.67c0.74,0,2.19,1.22,2.19,1.22l1.23,5.09
			c0,0,1.69,1.23-0.5,1.96c-2.18,0.73-5.1-4.38-6.06-5.35c-0.98-0.98-2.19-3.391-5.36-6.311c-1.31-1.22-2-1.979-2.34-2.439
			c-0.48-0.65-0.32-0.73-0.32-0.73s1.21-1.21,1.21-3.89c0-2.67-2.44-0.49-2.92,0.49c-0.48,0.96-3.64,0-4.85,0
			c-1.23,0-5.36-1.45-6.33-2.431c-0.97-0.979-2.92-0.25-4.12-0.489c-1.22-0.24-3.66-3.4-4.38-4.131c-0.73-0.739-5.84-0.96-9.48-1.21
			c-0.76-0.05-2.06-0.979-3.67-2.439h-0.01c-6.11-5.49-16.48-18.45-16.48-18.45s-3.42-0.74-4.15-1.47
			c-0.72-0.73-1.94,0.24-1.94,1.22c0,0.97-3.39,2.19-3.39,2.19c-12.89,9.72-28.44-5.36-28.44-5.36l-5.1-0.24
			c-1.22-1.45-4.37-2.68-4.37-2.68c-11.43-4.36-12.89-9.96-12.89-9.96c-6.06,3.17-14.09-3.89-14.09-3.89
			c-1.22-2.671-5.59-7.04-6.56-8.5c-0.26-0.391-0.58-0.57-0.9-0.62h69.59c0.09,0.279,0.14,0.439,0.14,0.439s0.36,3.46,2.92,4.92
			c2.55,1.46,1.64,0.53,4.38,0.53c2.73,0,1.63,0.38,1.63,0.38s1.29,1.65,2.19,3.101c0.9,1.449,2.74,1.63,2.74,1.63s0,0,0.9,0
			c0.91,0,3.29-0.91,3.29-0.91l6.93-1.82c0,0,2.01-0.35,3.08-1.45c1.11-1.09,5.49-0.37,5.49-0.37l0.9,2.37l1.45-0.18
			c0,0,1.29-0.9,2.02-1.46c0.72-0.55,1.08-0.36,1.46-0.91c0.35-0.54-1.11-1.1-1.11-1.1s-1.08-1.46-0.54-1.46
			c0.54,0,2.91-1.46,3.65-1.811c0.5-0.26,2.03-1.29,2.94-1.899h27.13c-0.15,0.399-0.28,0.84-0.37,1.35
			c-0.36,2.19-1.63,3.82-2.54,4.73c-0.92,0.93-0.92,2.56-0.92,2.56l-1.83,0.73L248.35,9c0,0,1.63-3.271,1.28-3.83
			c-0.38-0.54-4.2,4.38-4.2,4.38l2.92,0.72c0,0-1.63,4.75-1.63,6.22c0,1.45-0.92,4.54-0.56,5.83c0.37,1.261-1.63,4.181-5.28,7.28
			c-3.64,3.101-2.57,3.47-2.57,3.47l1.29-0.189c0,0,1.46,1.27,2.01,1.45c0.23,0.08,0.68,0.1,1.2,0.08
			c0.73-0.021,1.62-0.08,2.25-0.08c1.1,0-0.18-1.261-0.18-1.261l2.37-1.1c0,0,2.38-0.18,2.56,0.91c0.17,1.1,2.74,0,4.55,1.64
			c1.83,1.641,4.02-0.189,5.65-0.37c1.64-0.17,1.1-0.359,1.83-0.89c0.72-0.56,0.53-1.85,0.53-1.85l2.01-0.16l1.65,1.27
			c0,0,1.1,0.74,2.01,0.36c0.9-0.36,1.27-0.74,1.27-0.74l3.46-0.17c0,0,2.55,0.73,4.37,1.63c1.82,0.92,3.29-0.72,0.92,2.37
			c-2.37,3.11,2.19,2.38,3.82,2.38c1.01,0,1.67,1.4,1.86,2.54c0.12,0.71,0.06,1.33-0.22,1.46c-0.73,0.38-2.37,0.92-0.73,4.03
			c1.65,3.09-0.54,1.27,0,3.09c0.55,1.82-0.54,2.01-1.81,3.08c-1.28,1.11-0.55,5.49-0.55,7.68c0,2.181-0.18,2.54-0.91,3.45
			c-0.72,0.92,0,1.28-1.1,2.37c-1.09,1.09-0.18,2.37,0,3.84c0.19,1.45-0.18,1.82-1.47,3.271c-1.26,1.46-0.34,2.55-0.53,4.38
			c-0.19,1.819,1.82,1.449,1.82,1.449s0.68,1.131,0.34,2.341c-0.09,0.319-0.25,0.64-0.52,0.949c-1.27,1.45,0,2.36,2.19,4.011
			c2.19,1.64,1.46,2.37,4,4.739c0.29,0.271,0.55,0.521,0.79,0.75c1.84,1.811,2.13,2.521,2.13,2.521s-0.36,0.92-0.36,1.649
			c0,0.73,1.08,1.641,2.37,2.73c1.28,1.1,1.82-0.74,1.82-0.74l1.45,0.19c0,0,0.74,1.28,2.56,1.81c1.82,0.561,1.09,0,2.36-0.16
			c1.28-0.18,0.92-0.369,2.38-0.56c1.45-0.18,1.64,0,2.72-1.28c1.11-1.26,2.57-1.819,3.3-1.819s2-0.9,2.92-1.45
			c0.9-0.561,1.45-1.28,2-1.46c0.53-0.17,1.64,0.359,1.64,0.359c1.26,0,2.92-0.529,2.92-0.529l0.72,1.449c0,0,4.73-1.449,7.3,2.54
			c2.54,4.021,4.55,3.641,4.73,4.381c0.02,0.119,0.09,0.29,0.2,0.52c0.52,1.22,1.87,3.82,2.17,4.57c0.36,0.93,1.46,2.189,2.19,2.029
			c0.72-0.18,0.72-0.56,1.27-1.29c0.55-0.739-1.47-4-1.47-4s-0.17-2.01,1.47-2.01s6.2-6.74,6.2-6.74l3.46-0.55c0,0,0,0,0-2.189
			c0-2.19-0.91-3.471-0.91-4.38c0-0.891,1.64-2.73,3.28-4.921c1.63-2.18,4.92-3.989,4.92-3.989h2.38c0,0-0.74,2.529,0.73,3.08
			c1.45,0.56,2.72-4,3.45-4.74c0.74-0.72,1.27,0.37,2.19,0.189c0.92-0.189,3.11-1.1,4.74-1.1s1.28-0.18,2.36-1.46
			c1.11-1.27,2.92-2.53,4.2-2.53s1.63-0.739,2.91-2.189c1.29-1.471,5.29-4.57,5.84-4.38c0.55,0.18,1.46,1.81,3.09,3.27
			c1.64,1.45-0.9,1.83-3.09,2.92c-2.18,1.101-1.83,1.101-4.55,3.101c-0.91,0.659-1.26,1.1-1.27,1.43c-0.03,0.66,1.31,0.87,2.17,1.49
			c1.29,0.92,0.56,2.37,0,3.27c-0.56,0.91,0.37,2.74,1.29,4.021c0.9,1.27-0.38,1.819-2.74,3.83c-2.37,2-1.64,2.909-2.19,3.64
			c-0.56,0.74,0.9,1.64,2.92,4.38c2.01,2.73,2.35,1.07,2.35,1.07s1.66-1.45,2.92-3.08c1.29-1.63,0.56-2.19,0.56-3.82
			c0-1.64,0-2.189-1.46-3.83c-1.46-1.66-1.29-3.47-2.02-3.84c-0.72-0.35,1.29-1.81,1.85-2.53c0.53-0.739,1.81-1.66,2.72-2.75
			c0.92-1.1,2.18-0.55,3.11-0.91c0.89-0.38,1.63-0.55,3.26-1.829c1.65-1.271,3.11-0.73,7.29-0.73c4.2,0,5.3-1.27,4.93,0.37
			c-0.36,1.64,4.38,2.55,4.38,2.55s-0.91,3.83,0.72,6.021c1.63,2.18,2.55,0,4.38,0.54c1.82,0.55,2.18,0,5.1-0.36
			c2.91-0.37,1.46,0,3.82-0.37c2.38-0.35,2.57,0,3.65,0c1.109,0,1.279,0.73,1.84,1.65c0.53,0.909,3.26,1.46,4.37,2.38
			c1.08,0.899,2.359,0.72,3.27,0.72c0.92,0,1.45,0.54,2.19-0.38c0.72-0.9,3.1-2,4.189-2.91s1.63-0.54,2.37-0.91
			c0.721-0.359,3.28-0.729,4.021-1.28c0.729-0.539,4.37-0.729,4.37-0.729s1.46,0,2.92,0s4.72-1.26,4.72-1.26l0.19,2.72
			c0,0-1.82,0.92-4.381,0.92c-2.55,0-3.64,1.09-3.64,1.09l2.38,0.91l1.811,1.271c0,0,0.38,1.1-0.36,2.01
			c-0.72,0.91,0.91,1.28,1.64,2.01c0.73,0.72,0.91-1.65,0.91-1.65L457.221,89c0,0,1.459,2.029,2.38,2.029
			c0.909,0,1.989-0.56,1.989-0.56s2.381,2.01,3.46,2.38c1.11,0.36,1.46,1.82,1.46,1.82s-0.539,1.45-1.46,2.189
			c-0.899,0.73-1.27,3.46-1.27,3.46l-4.18,2.54c0,0,1.079,1.11,5.279,1.11s0.9-0.73,1.28-1.29c0.35-0.55,3.45-0.36,3.45-0.36
			l3.11,0.19l0.729,1.46c0,0,0.63,0.32,1.22,0.479c0.311,0.08,0.59,0.12,0.78,0.061c0.53-0.19,1.271,0.189,2.38,1.65
			c1.08,1.46,6.561,7.279,7.46,8.199c0.91,0.891,1.63,1.08,0.37,2.551c-1.27,1.449-2.56,2.909-3.29,3.64
			c-0.72,0.729,0.55,2.729,0.55,2.729s1.471,0,1.471-1.64c0-1.63,1.27-1.82,1.27-1.82s0.36-1.27,3.83,0.19
			c3.46,1.46,6.18,8.01,6.18,8.01l1.471,0.18l1.101-0.72l1.069-0.18l2.921-0.55l1.119,1.1l1.989,0.91l1.271-0.74l1.29-0.54
			c0,0,2.01,1.28,6-0.18c1.8-0.65,4.869,0.16,7.72,1.25c3.51,1.35,6.68,3.13,6.68,3.13s6.57,5.45,7.86,6.9
			c0.79,0.909,3.5,3.68,5.78,6.069c1.369,1.431,2.59,2.73,3.13,3.42c1.47,1.83,2.01,10.2,2.01,11.65c0,1.47,1.81,3.11,2.729,4.57
			c0.931,1.46,2.561,2.55,4.569,4.02c1.99,1.45,1.63,2.351,1.63,2.351s-2.01,0-2.01,3.109c0,3.11-5.64,7.29-10.56,11.48
			c-4.932,4.199-3.11,6.02-3.11,6.02l2.2-2.38c0,0,1.989,0.56,1.819,2.38c-0.181,1.82-0.181,2.91-3.29,3.271
			c-3.109,0.37-3.271,2.029-3.829,2.029h-3.271c-1.84,0-1.84,1.631-0.91,2.53c0.91,0.92,5.29-0.899,5.29-0.899l4.37-2.19
			c0,0,3.83-4.74,5.101-2.55c1.271,2.18,2.54,0.359,2.54,0.359s-0.909-1.46-1.08-2.359c-0.189-0.92,0-1.641,0-1.641l0.539-2.56
			l1.461-1.29c0,0,2.921-0.53,3.461,0.19c0.56,0.729,2.568,0.729,2.568,0.729s1.07-0.18,1.63-0.54c0.552-0.38,1.82-0.91,1.82-0.91
			s2.92,0.351,4.19,0.351c1.27,0,3.64,2.56,2.01,3.66c-1.641,1.09,0,1.449,0,3.819s-2.19,5.09-3.65,4.19
			c-1.46-0.891-5.279,2.37-5.279,2.37s-2.011,0.56-4.921,0.189c-2.92-0.37-4.21-2-4.21-2s-0.17,1.46,0,2.53
			c0.19,1.11,2.012,2.189,3.11,1.47c1.1-0.729,2.19,0.19,4.19,0.19s2-0.74,3.1-0.55l-0.18,2.189l-0.36,2.73h1.26l0.55-2.19
			l2.012-2.37l2.37-2c0,0,2.56-0.37,2.92-1.1c0.358-0.72,0.72-1.28,0.72-2.01c0-0.73,0.729-1.45,1.29-3.82
			c0.54-2.36,4.188-1.45,4.188-1.45l0.9-0.91c0,0,0.91-0.38,1.47-0.38c0.54,0,5.271,1.64,11.29,4.75c6.03,3.101,5.48,4,6.75,5.11
			c1.28,1.08,1.28-1.11,1.812-1.66c0.56-0.53,2.02-2.72,2.188,0c0.19,2.74,2.182,3.11,2.182,3.11s-1.632,2.92-0.892,3.46
			c0.722,0.54,1.63,1.46,1.63,1.46l1.642-0.73l1.818,2.19l-1.818,1.449l-1.262-0.529c0,0-1.118,0.18-2.188,1.63
			c-1.11,1.45-0.562,2.91-0.562,2.91s3.28-0.721,4.012-1.28c0.729-0.54,1.818-1.45,3.108-2.92c1.271-1.45,1.46-1.63,2-2.35
			c0.53-0.74,1.642-0.181,2.19-0.181c0.53,0,3.64-0.189,3.64-0.189s1.82,1.46,3.83,3.279c2,1.82,2.92,1.101,2.92,1.101l-0.188-0.931
			l1.1-1.63c0,0,1.28,1.63,4.73,3.471c3.46,1.81,2.369,0.35,2.369,0.35s1.279-0.91,2.189-0.91s3.28-0.72,4.561-0.72
			c1.279,0,3.46,0.56,5.101,1.82c1.64,1.27,3.649,2.55,5.1,4.56c1.46,2,3.65,3.46,7.301,5.28c3.641,1.83,4.739,3.1,8.011,7.29
			c3.278,4.2,10.04,3.649,11.84,3.649c1.84,0,1.84-0.18,3.11,0.36c1.26,0.55,2.729,2.56,2.729,3.64c0,1.101,0.38,5.65,1.271,8.221
			c0.92,2.529,1.47,9.09,2.56,11.279C683.591,258.88,679.39,270.37,679.22,270.93z"/>
	</g>
	
		<image overflow="visible" enable-background="new    " width="166" height="357" xlink:href="rojo3.png"  transform="matrix(1 0 0 1 292.333 163.0002)">
	</image>
</g>
<g>
	<path fill="#09B9E8" d="M147.614,380.635c0,3.242-1.164,6.816-3.381,9.033c-1.663,1.635-3.824,2.604-6.401,2.604
		c-4.822,0-7.094-3.63-7.094-7.593c0-3.297,1.302-6.927,3.575-9.172c1.579-1.552,3.907-2.521,6.262-2.521
		C145.591,372.987,147.614,376.645,147.614,380.635z M136.004,376.811c-1.801,1.801-2.854,5.07-2.854,7.676
		c0,3.048,1.358,5.847,5.016,5.847c1.58,0,3.104-0.692,4.268-1.856c1.746-1.773,2.771-5.127,2.771-7.731
		c0-2.66-0.859-5.819-4.932-5.819C138.608,374.926,137.14,375.647,136.004,376.811z"/>
	<path fill="#09B9E8" d="M161.692,391.359c-1.053,0.471-2.743,0.887-4.85,0.887c-4.71,0-7.564-2.965-7.564-7.731
		c0-3.52,1.413-6.872,3.99-9.006c1.912-1.635,4.295-2.521,7.038-2.521c2.078,0,3.547,0.526,4.046,0.914l-0.748,1.857
		c-0.693-0.416-2.023-0.776-3.686-0.776c-1.94,0-3.907,0.748-5.348,2.106c-1.746,1.635-2.854,4.267-2.854,7.094
		c0,3.353,1.524,6.096,5.681,6.096c1.413,0,2.965-0.277,3.99-0.804L161.692,391.359z"/>
	<path fill="#09B9E8" d="M174.911,383.184h-6.789L166.848,390h7.648l-0.388,1.968h-9.948l3.547-18.677h9.532l-0.388,1.968h-7.205
		l-1.136,5.985h6.789L174.911,383.184z M177.045,369.024l-3.769,3.271h-2.051l2.827-3.271H177.045z"/>
	<path fill="#09B9E8" d="M180.98,386.066l-2.965,5.902h-2.438l9.671-18.677h2.715l2.577,18.677h-2.355l-0.748-5.902H180.98z
		 M187.243,384.237l-0.721-5.403c-0.111-0.97-0.25-2.327-0.333-3.436h-0.055c-0.499,1.108-0.97,2.272-1.524,3.408l-2.799,5.431
		H187.243z"/>
	<path fill="#09B9E8" d="M192.925,391.968l3.547-18.677h2.521l4.295,10.586c0.803,2.105,1.247,3.602,1.635,5.209l0.055-0.027
		c0.111-1.69,0.305-3.242,0.776-5.848l1.884-9.92h2.189l-3.575,18.677h-2.272l-4.24-10.558c-0.915-2.3-1.33-3.63-1.746-5.376
		l-0.083,0.028c-0.194,1.745-0.499,3.602-0.97,6.151l-1.856,9.754H192.925z"/>
	<path fill="#09B9E8" d="M227.785,380.635c0,3.242-1.164,6.816-3.381,9.033c-1.663,1.635-3.824,2.604-6.401,2.604
		c-4.822,0-7.094-3.63-7.094-7.593c0-3.297,1.302-6.927,3.575-9.172c1.579-1.552,3.907-2.521,6.262-2.521
		C225.762,372.987,227.785,376.645,227.785,380.635z M216.175,376.811c-1.801,1.801-2.854,5.07-2.854,7.676
		c0,3.048,1.358,5.847,5.016,5.847c1.58,0,3.104-0.692,4.268-1.856c1.746-1.773,2.771-5.127,2.771-7.731
		c0-2.66-0.859-5.819-4.932-5.819C218.779,374.926,217.311,375.647,216.175,376.811z"/>
	<path fill="#09B9E8" d="M132.221,406.823c1.053-0.249,2.522-0.416,4.046-0.416c1.801,0,3.519,0.443,4.572,1.441
		c0.887,0.831,1.357,1.912,1.357,3.381c0,2.105-1.025,3.852-2.244,4.877c-1.441,1.219-3.547,1.773-5.653,1.773
		c-0.693,0-1.33-0.056-1.912-0.139l-1.413,7.481h-2.272L132.221,406.823z M132.748,415.801c0.665,0.139,1.191,0.194,1.856,0.194
		c3.159,0,5.265-1.968,5.265-4.6c0-2.217-1.58-3.104-3.713-3.104c-0.915,0-1.607,0.083-2.023,0.194L132.748,415.801z"/>
	<path fill="#09B9E8" d="M144.774,419.321l-2.965,5.902h-2.438l9.671-18.677h2.715l2.577,18.677h-2.355l-0.748-5.902H144.774z
		 M151.037,417.491l-0.721-5.403c-0.111-0.97-0.25-2.327-0.333-3.436h-0.055c-0.499,1.108-0.97,2.271-1.524,3.408l-2.799,5.431
		H151.037z"/>
	<path fill="#09B9E8" d="M169.05,424.614c-1.053,0.471-2.743,0.887-4.85,0.887c-4.71,0-7.564-2.965-7.564-7.731
		c0-3.519,1.413-6.872,3.99-9.006c1.912-1.635,4.295-2.521,7.038-2.521c2.078,0,3.547,0.526,4.046,0.915l-0.748,1.856
		c-0.693-0.416-2.023-0.776-3.686-0.776c-1.94,0-3.907,0.748-5.348,2.106c-1.746,1.635-2.854,4.267-2.854,7.094
		c0,3.353,1.524,6.096,5.681,6.096c1.413,0,2.965-0.277,3.99-0.804L169.05,424.614z"/>
	<path fill="#09B9E8" d="M177.336,406.546l-3.547,18.677h-2.3l3.547-18.677H177.336z M180.662,402.28l-3.796,3.27h-2.023l2.799-3.27
		H180.662z"/>
	<path fill="#09B9E8" d="M181.521,406.546h9.477l-0.36,1.968h-7.177l-1.219,6.29h6.623l-0.388,1.968h-6.595l-1.607,8.451h-2.3
		L181.521,406.546z"/>
	<path fill="#09B9E8" d="M196.679,406.546l-3.547,18.677h-2.3l3.547-18.677H196.679z"/>
	<path fill="#09B9E8" d="M210.229,424.614c-1.053,0.471-2.743,0.887-4.85,0.887c-4.71,0-7.564-2.965-7.564-7.731
		c0-3.519,1.413-6.872,3.99-9.006c1.912-1.635,4.295-2.521,7.038-2.521c2.078,0,3.547,0.526,4.046,0.915l-0.748,1.856
		c-0.693-0.416-2.023-0.776-3.686-0.776c-1.94,0-3.907,0.748-5.348,2.106c-1.746,1.635-2.854,4.267-2.854,7.094
		c0,3.353,1.524,6.096,5.681,6.096c1.413,0,2.965-0.277,3.99-0.804L210.229,424.614z"/>
	<path fill="#09B9E8" d="M229.351,413.89c0,3.241-1.164,6.816-3.381,9.033c-1.663,1.635-3.824,2.604-6.401,2.604
		c-4.822,0-7.094-3.63-7.094-7.593c0-3.297,1.302-6.927,3.575-9.172c1.579-1.552,3.907-2.521,6.262-2.521
		C227.328,406.241,229.351,409.9,229.351,413.89z M217.74,410.066c-1.801,1.801-2.854,5.071-2.854,7.676
		c0,3.048,1.358,5.847,5.016,5.847c1.58,0,3.104-0.693,4.268-1.856c1.746-1.773,2.771-5.127,2.771-7.731
		c0-2.66-0.859-5.819-4.932-5.819C220.345,408.181,218.876,408.902,217.74,410.066z"/>
</g>
<g>
	<path fill="#09B9E8" d="M741.361,71.698c0,3.242-1.164,6.816-3.381,9.033c-1.662,1.635-3.824,2.604-6.4,2.604
		c-4.822,0-7.094-3.63-7.094-7.593c0-3.297,1.302-6.927,3.574-9.172c1.579-1.552,3.907-2.521,6.262-2.521
		C739.338,64.05,741.361,67.708,741.361,71.698z M729.751,67.874c-1.802,1.801-2.854,5.07-2.854,7.676
		c0,3.048,1.357,5.847,5.016,5.847c1.58,0,3.104-0.692,4.268-1.856c1.746-1.773,2.771-5.127,2.771-7.731
		c0-2.66-0.858-5.819-4.933-5.819C732.355,65.99,730.887,66.71,729.751,67.874z"/>
	<path fill="#09B9E8" d="M755.439,82.422c-1.053,0.471-2.743,0.887-4.85,0.887c-4.711,0-7.564-2.965-7.564-7.731
		c0-3.52,1.413-6.872,3.99-9.006c1.912-1.635,4.295-2.521,7.038-2.521c2.078,0,3.547,0.526,4.046,0.914l-0.748,1.857
		c-0.693-0.416-2.023-0.776-3.686-0.776c-1.939,0-3.907,0.748-5.348,2.106c-1.746,1.635-2.854,4.267-2.854,7.094
		c0,3.353,1.524,6.096,5.681,6.096c1.413,0,2.965-0.277,3.99-0.804L755.439,82.422z"/>
	<path fill="#09B9E8" d="M768.658,74.247h-6.789l-1.274,6.816h7.647l-0.388,1.968h-9.948l3.547-18.677h9.533l-0.389,1.968h-7.204
		l-1.136,5.985h6.789L768.658,74.247z M770.792,60.087l-3.769,3.271h-2.051l2.826-3.271H770.792z"/>
	<path fill="#09B9E8" d="M774.728,77.129l-2.965,5.902h-2.438l9.671-18.677h2.716l2.576,18.677h-2.355l-0.748-5.902H774.728z
		 M780.99,75.3l-0.721-5.403c-0.111-0.97-0.25-2.327-0.332-3.436h-0.056c-0.499,1.108-0.97,2.272-1.524,3.408l-2.799,5.431H780.99z"
		/>
	<path fill="#09B9E8" d="M786.672,83.031l3.547-18.677h2.521l4.295,10.586c0.804,2.105,1.247,3.602,1.635,5.209l0.056-0.027
		c0.111-1.69,0.306-3.242,0.776-5.848l1.884-9.92h2.189L800,83.031h-2.271l-4.24-10.558c-0.914-2.3-1.33-3.63-1.745-5.376
		l-0.083,0.028c-0.194,1.745-0.499,3.602-0.971,6.151l-1.855,9.754H786.672z"/>
	<path fill="#09B9E8" d="M821.532,71.698c0,3.242-1.164,6.816-3.381,9.033c-1.663,1.635-3.823,2.604-6.401,2.604
		c-4.821,0-7.094-3.63-7.094-7.593c0-3.297,1.303-6.927,3.575-9.172c1.579-1.552,3.907-2.521,6.263-2.521
		C819.51,64.05,821.532,67.708,821.532,71.698z M809.922,67.874c-1.801,1.801-2.854,5.07-2.854,7.676
		c0,3.048,1.358,5.847,5.016,5.847c1.579,0,3.104-0.692,4.268-1.856c1.745-1.773,2.771-5.127,2.771-7.731
		c0-2.66-0.859-5.819-4.932-5.819C812.526,65.99,811.058,66.71,809.922,67.874z"/>
	<path fill="#09B9E8" d="M714.246,110.384l-2.965,5.902h-2.438l9.671-18.677h2.715l2.578,18.677h-2.355l-0.748-5.902H714.246z
		 M720.509,108.555l-0.721-5.403c-0.11-0.97-0.249-2.327-0.333-3.436H719.4c-0.499,1.108-0.971,2.271-1.524,3.408l-2.799,5.431
		H720.509z"/>
	<path fill="#09B9E8" d="M730.929,99.605h-5.459l0.388-1.995h13.246l-0.389,1.995h-5.486l-3.159,16.682h-2.3L730.929,99.605z"/>
	<path fill="#09B9E8" d="M741.21,97.61h2.3l-3.187,16.682h7.537l-0.388,1.995h-9.81L741.21,97.61z"/>
	<path fill="#09B9E8" d="M754.013,110.384l-2.965,5.902h-2.438l9.671-18.677h2.716l2.576,18.677h-2.355l-0.748-5.902H754.013z
		 M760.275,108.555l-0.721-5.403c-0.111-0.97-0.25-2.327-0.332-3.436h-0.056c-0.499,1.108-0.97,2.271-1.524,3.408l-2.799,5.431
		H760.275z M764.1,93.343l-3.77,3.27h-2.05l2.826-3.27H764.1z"/>
	<path fill="#09B9E8" d="M765.957,116.286l3.547-18.677h2.521l4.295,10.585c0.804,2.106,1.247,3.603,1.635,5.21l0.056-0.027
		c0.11-1.69,0.305-3.242,0.775-5.847l1.885-9.921h2.188l-3.574,18.677h-2.272l-4.239-10.558c-0.914-2.3-1.33-3.63-1.746-5.376
		l-0.083,0.028c-0.194,1.745-0.499,3.603-0.97,6.151l-1.856,9.754H765.957z"/>
	<path fill="#09B9E8" d="M789.872,99.605h-5.459l0.388-1.995h13.246l-0.389,1.995h-5.486l-3.159,16.682h-2.3L789.872,99.605z"/>
	<path fill="#09B9E8" d="M802.426,97.61l-3.547,18.677h-2.3l3.547-18.677H802.426z"/>
	<path fill="#09B9E8" d="M815.977,115.677c-1.054,0.471-2.744,0.887-4.85,0.887c-4.711,0-7.564-2.965-7.564-7.731
		c0-3.519,1.412-6.872,3.99-9.006c1.911-1.635,4.295-2.521,7.037-2.521c2.079,0,3.547,0.526,4.047,0.915l-0.749,1.856
		c-0.692-0.416-2.022-0.776-3.685-0.776c-1.94,0-3.908,0.748-5.349,2.106c-1.745,1.635-2.854,4.267-2.854,7.094
		c0,3.353,1.524,6.096,5.681,6.096c1.413,0,2.966-0.277,3.99-0.804L815.977,115.677z"/>
	<path fill="#09B9E8" d="M835.098,104.953c0,3.241-1.164,6.816-3.381,9.033c-1.663,1.635-3.824,2.604-6.401,2.604
		c-4.821,0-7.094-3.63-7.094-7.593c0-3.297,1.302-6.927,3.575-9.172c1.579-1.552,3.906-2.521,6.262-2.521
		C833.074,97.305,835.098,100.963,835.098,104.953z M823.486,101.129c-1.801,1.801-2.854,5.071-2.854,7.676
		c0,3.048,1.357,5.847,5.016,5.847c1.579,0,3.104-0.693,4.267-1.856c1.746-1.773,2.771-5.127,2.771-7.731
		c0-2.66-0.859-5.819-4.933-5.819C826.092,99.244,824.623,99.965,823.486,101.129z"/>
</g>
</svg>
