<?xml version="1.0" encoding="utf-8"?>
<!-- Generator: Adobe Illustrator 15.1.0, SVG Export Plug-In . SVG Version: 6.00 Build 0)  -->
<!DOCTYPE svg PUBLIC "-//W3C//DTD SVG 1.1//EN" "http://www.w3.org/Graphics/SVG/1.1/DTD/svg11.dtd">
<svg version="1.1" id="Layer_2" xmlns="http://www.w3.org/2000/svg" xmlns:xlink="http://www.w3.org/1999/xlink" x="0px" y="0px"
	 width="983px" height="690px" viewBox="0 0 983 690" enable-background="new 0 0 983 690" xml:space="preserve">
<rect fill="#61747E" width="983" height="690"/>
<g>
	<path fill="#C7BCB1" d="M-6.082-56.317h2.386c-0.999,0.111-1.886,0.86-1.886,0.86S-5.762-55.777-6.082-56.317z"/>
	<path fill="#C7BCB1" d="M780.95,319.21c-0.24,0.74-4.28,5.8-4.55,7.82c-0.261,2.01-12.641,14.65-13.391,14.65
		c-0.76,0-3.52,3.53-3.52,6.31c0,2.79-9.87,19.96-9.87,19.96l-4.28,1.52c0,0,0.47-2.77-3.56-2.279c-4.05,0.51,1.77,3.02,1.77,3.02
		s-0.5,1.53-1.77,2.56c-1.261,1-2.5,10.091-2.5,10.091l2.01,2.77c0,0-3.56,3.79-3.56,5.05c0,1.271,3.039,1.521,3.039,7.83
		c0,6.34,0.261,3.04,0.261,3.04l2.02,6.58c0,0,2.03,3.03,1.28,5.29c-0.78,2.26-4.05,4.83-3.811,7.311
		c0.25,2.56,0.771,6.85,0.771,6.85s1.01,5.29-3.03,9.6c-4.05,4.301-1.279,14.141-1.279,14.141s1.01,6.569-2.521,8.83
		c-3.53,2.29-2.01,7.83-2.79,9.359c-0.74,1.51-2.77,2.28-4.78,4.311c-2.02,2.02,0.261,4.529-2.02,8.58
		c-2.29,4.029,1.26,5.569,1.26,5.569s-3.04,1.48-4.31,1.75c-1.261,0.261-4.78,4.04-4.78,4.04l-2.79,2.521c0,0,1.26,5.06-0.25,4.04
		c-1.52-1-10.87,1.02-10.87,1.02l-1.26-2.02c0,0-1.521,2.79-3.8,2.79c-2.25,0-3.25-1.53-3.25-1.53l-1.54,2.27l-3.03,1.29
		l-0.26-2.029l-6.561,0.25l3.53,2.01c0,0-4.8,4.82-5.81,4.82c-1.011,0-3.03,2.26-3.03,2.26l2.02,1.26l-0.75,1.78c0,0-2.04,0-3.779,0
		c-1.78,0,1.26-0.78-5.58,0c-0.38,0.02-0.78,0.109-1.19,0.24c-6.97,1.96-18.02,13.89-18.02,13.89l-0.73,4.05l-3.79,0.78l-3.29,3.25
		l2.021,2.04l-0.75,3.04c0,0-1.771,2.52-1.54,4.02c0.27,1.521,2.79,12.37,5.05,15.67c2.3,3.29,0.26,14.141-3.76,16.44
		c-4.061,2.26-8.37,12.13-8.37,12.13c0,20.68-18.92,35.36-18.92,35.36s-0.26-2.551-0.26,1c0,3.52-5.551,15.64-6.311,15.909
		c-0.78,0.261-1.77-1.279-1.77,2.28c0,3.53-11.351,15.66-12.131,15.66c-0.75,0-4.05-0.25-5.81-1.27c-1.76-1.011-5.06,0-6.06,0.51
		c-1.011,0.51-3.03,2.02-5.311-1.021c-2.27-3.02-6.55-1.5-8.84-1.5s-3.29-2.529-4.03-3.279c-0.77-0.78-2.77,0-6.069-0.261
		c-3.301-0.27-1.53-1.75-2.28-2.529c-0.61-0.62-1.87-1.881-3.91-2.2c-0.479-0.101-1.03-0.11-1.63-0.061
		c-3.04,0.221-0.53,3.771,0,4.521c0.47,0.78,2.26,2.79,3.77,3.56c1.521,0.75,2.04,1.75,2.771,2.771c0.78,1.02,3.3,1.75,6.06,2.02
		c2.801,0.26,1.79,1.521,2.561,2.3c0.74,0.73,2.01,1.23,3.27,1.23c1.25,0,0.771,3.29,0.771,3.29s-1.53,4.29-0.271,5.3
		c1.28,1.021,1.53,3.04,1.53,3.04l2.01,2.01c0,0,1.24,0.28,2.521,1.771c1.279,1.54,1.52,2.28,2.77,2.79
		c1.28,0.5,0.271,4.81,0.271,4.81s-0.38,0.771-0.67,1.95H400.16c0.27-0.09,0.6-0.21,0.99-0.36c3.02-1.189,1.36-2.199,0.84-3.529
		c-0.48-1.36,0-3.38,1.36-4.551c1.33-1.189,0.82-4.56,0.82-4.56l-2.34-4.04c2.55-0.67,3.2-1.68,3.2-1.68s-5.39,0.33-1-5.38
		c4.37-5.74,1.67-10.301,1.17-11.311c-0.52-1-3.37-9.59,0-9.91c3.36-0.35,0.84-5.56-0.17-5.91c-1-0.34-1.16-1.35,0-6.399
		c1.18-5.04-8.94-27.11-9.26-28.97c-0.33-1.86-1.18-0.841,2.54-6.74c3.68-5.891-2.72-11.101-4.4-12.62
		c-1.66-1.51-0.16-4.73,1.02-6.4c1.16-1.68,1.67-3.189,2.68-5.06c1.02-1.85-1.17-3.03-1.84-4.19c-0.68-1.21,0.5-3.38,1.18-4.05
		c0.66-0.689,0.34-3.03-0.35-4.06c-0.66-0.98-0.51-8.761-0.51-10.09c0-1.36,1.71-3.221,1.71-5.561c0-2.37-2.36-3.53-3.03-5.38
		c-0.69-1.87,0-4.06,1.83-6.07c1.87-2.04,1.53-2.88,0.86-3.699c-0.68-0.86-1.52-1.021-1.52-6.91c0-5.91-0.85-10.61-2.52-12.13
		c-1.68-1.511-2.03-3.69-2.38-4.9c-0.32-1.17,1.51-1.17,3.22-3.53c1.68-2.34,1.01-12.13,1.33-16.66c0.35-4.56-0.66-2.71-2.52-8.93
		c-1.84-6.24-1.17-7.93-1.84-13.83c-0.68-5.88-1.2-6.38-2.36-9.229c-1.18-2.9-1.53-7.25-0.67-8.44c0.52-0.72,0.2-1.34-0.25-1.72
		c-0.26-0.24-0.58-0.41-0.77-0.47c-0.49-0.171-1.51-1.86-1.51-1.86c-7.25-3.19-13.49-10.44-14.84-12.28
		c-1.34-1.87-10.1-8.439-11.78-8.93c-1.69-0.51-7.23-2.351-10.78-5.561c-3.52-3.199-10.44-5.38-16.34-8.26
		c-5.88-2.87-8.75-7.41-12.96-11.63c-4.21-4.18-6.24-8.41-7.75-10.75c-1.52-2.37,1.35-4.55,1.69-6.07
		c0.32-1.51-7.58-13.819-8.94-14.319c-1.34-0.511-3.69-4.87-3.69-4.87s0-4.91-1.87-6.25c-1.84-1.34-4.36-5.38-5.21-6.57
		c-0.84-1.17-3.88-9.94-5.22-10.93c-1.35-1.02-2.03-4.9-3.04-6.41c-1.01-1.52-3.19-5.72-3.35-8.26c-0.18-2.52-3.54-6.73-4.4-8.77
		c-0.83-2.01-5.04-6.54-5.04-6.54s-7.74-14.82-11.97-19.03c-4.21-4.23-10.76-4.9-10.76-4.9l0.49-3.7c1.36-2.2,1.68-1.01,3.54-1.84
		c1.87-0.86-1.86-4.73-1.86-4.73l-3.35-2.36c0,0,0.51-2.52-1-3.54c-1.53-1-0.86-2.53-1.71-3.37c-0.83-0.82,1.85-3.37,1.51-4.37
		c-0.31-1.01,1.71-2.7,2.03-3.2c0.35-0.51,1.86-1.53,2.35-3.04c0.52-1.52,3.9-3.7,4.4-3.7c0.26,0,1.97-1.77,3.56-3.48
		c1.46-1.58,2.82-3.1,2.82-3.1s-0.51-3.67,0.69-5.55c1.18-1.85,0-3.2-0.85-3.89c-0.84-0.65-2.19,0.51-2.87,1.03
		c-0.66,0.49-0.66,2.52-0.66,2.52l-1.01,1.01c0,0-2.01-1.18-2.01-1.83c0-0.69-1.38-2.38-1.38-2.38l-2.52-1l-0.32-1.69
		c0,0,0,0,1.35-1.68c1.34-1.69,0-4.05,0-4.05l-0.68-0.51c0,0-1.01-3.69,0.16-4.86c1.18-1.21-0.16-1.86-0.16-1.86
		s-0.85-3.04-0.67-4.05c0.15-1.01,2.52-2.52,3.19-2.87c0.68-0.33,2.69-0.16,3.38-1.34c0.67-1.18-2.87-0.83-2.87-0.83
		s-0.34-3.89,0.17-4.22c0.48-0.34,1.51-1.69,2.01-2.52c0.51-0.86,3.22-1.51,4.39-3.38c1.17-1.85-0.51-0.85-1.87-1.51
		c-1.33-0.67-0.5-6.23-0.5-6.23c3.2-0.84,3.88-1.36,3.88-1.36c7.24-3.53,9.44-4.69,12.13-5.39c2.69-0.66-2.17-3.19-3.2-3.35
		c-1.01-0.18,0.17-2.37,1.03-3.9c0.81-1.49,3.02,0.52,4.02-0.33c1.02-0.82-0.67-1.51-0.67-4.03c0-2.53,1.86-4.56,3.52-4.87
		c1.71-0.34,4.23,1.5,6.4-1.36c2.19-2.88,3.39-7.08,6.08-11.79c2.68-4.73,2.68-3.02,2.17-5.74c-0.48-2.68-3.34-0.67-3.34-3.87
		c0-3.2,0.82-3.86,2.34-6.4c1.51-2.52-1.34-2.69-1.34-2.69s-0.83-4.37-1-6.24c-0.18-1.84,0.51-2.19,0.51-2.19s1-1.49,2.02-2.67
		c0.99-1.21,0.33-1.86,0.33-1.86s-2.69-1.36-2.69-1.87c0-0.5,1.66-1.83,3.03-3.04c1.35-1.16-0.16-2.17-1.52-3.53
		c-1.38-1.33-1.51-2.18-1.68-3.17c-0.18-1.03-3.71-3.39-4.23-4.91c-0.51-1.51-2.02-4.87-4.21-5.21c-2.17-0.35-1-3.54-1-3.54
		s0.85-0.86,0.85-2.02c0-1.18,2.52-3.02,2.52-3.02s3.03-1.87,0.51-2.37c-2.53-0.5-6.66-4.48-6.66-4.48
		c-3.53-5.67-10.36-1.23-10.36-1.23c-4.81,10.23-7.97,4.26-9.34,7.19c-1.4,2.9-0.76,2.65,2.77,6.17c3.54,3.56,1.14,1.4,1.51,3.67
		c0.39,2.29-4.54,4.17-5.68,4.3c-1.15,0.11-5.82-0.75-6.45-1.13c-0.61-0.4-1.63-5.07-2-5.07c-0.39,0-4.05-1.12-4.05-1.12
		s-2.41-0.89-3.92-2.66c-1.52-1.78-1.64-3.27-3.54-3.79c-1.89-0.51-3.78,0-5.04-0.74c-0.5-0.31-1.32-1.45-2.19-2.51
		c-1.39-1.67-2.93-3.14-3.62-0.9c-1.12,3.64-4.55,2.14-4.94,2.14c-0.37,0-2.91-3.93-1.63-4.06c1.26-0.11,4.28-2.52,2.26-4.05
		c-2.01-1.49-9.04-6.55-9.04-6.55c-3.03-1.36-4.05-7.07-5.07-9.09c-1-2.03-4.04,0.99-4.04,0.99l2.37,2.39h1.36l0.31,3.34
		c0,0,0,0-4.04,0s-3.35-3.04-3.35-3.04c-6.06-0.3-3.04-6.37-3.04-6.37s5.38-2.03,2.35-3.37c-3.03-1.36,0-4.05,0-4.05
		s0.59-1.68,1.48-3.05h0.01c1.01-1.61,2.45-2.82,3.9-0.65c2.69,4.03,4.39-3.71,2.03-4.03c-2.37-0.35-4.04-4.74-4.04-4.74
		c-1.36,0-5.05-4.04-5.05-4.04s-2.38-3.35-4.04-2.35c-1.68,1.01,0.66,3.7,1.66,3.7c1.02,0,3.03,1.69,3.03,1.69l1.71,7.05
		c0,0,2.34,1.71-0.69,2.72c-3.03,1.01-7.07-6.07-8.4-7.41c-1.36-1.36-3.04-4.7-7.43-8.75c-1.82-1.69-2.78-2.75-3.25-3.38
		c-0.66-0.9-0.44-1.01-0.44-1.01s1.68-1.68,1.68-5.4c0-3.7-3.39-0.68-4.05,0.68c-0.67,1.33-5.05,0-6.72,0
		c-1.71,0-7.43-2.01-8.78-3.37c-1.34-1.35-4.05-0.34-5.71-0.67c-1.69-0.34-5.07-4.72-6.07-5.73c-1.01-1.02-8.09-1.33-13.14-1.68
		c-1.05-0.07-2.85-1.35-5.08-3.38h-0.02c-2.79-2.5-6.22-6.14-9.57-9.88H232.7c0.04,0.12,0.06,0.24,0.08,0.36
		c0.17,0.98,0.09,1.84-0.3,2.02c-1.01,0.53-3.29,1.28-1.01,5.59c2.28,4.28-0.75,1.76,0,4.28c0.76,2.52-0.75,2.79-2.51,4.27
		c-1.78,1.54-0.77,7.61-0.77,10.65c0,3.02-0.25,3.52-1.26,4.78c-0.99,1.27,0,1.77-1.52,3.28c-1.51,1.51-0.25,3.29,0,5.33
		c0.26,2.01-0.25,2.52-2.04,4.53c-1.75,2.02-0.47,3.53-0.74,6.07c-0.26,2.52,2.53,2.01,2.53,2.01s0.94,1.57,0.47,3.24
		c-0.13,0.45-0.35,0.89-0.72,1.32c-1.76,2.01,0,3.27,3.03,5.56c3.04,2.27,2.03,3.28,5.55,6.57c0.4,0.37,0.76,0.72,1.09,1.04
		c2.56,2.51,2.96,3.49,2.96,3.49s-0.5,1.28-0.5,2.29c0,1.01,1.49,2.27,3.28,3.78c1.78,1.53,2.52-1.03,2.52-1.03l2.02,0.27
		c0,0,1.02,1.77,3.54,2.51c2.53,0.77,1.51,0,3.28-0.22c1.77-0.25,1.27-0.52,3.29-0.78c2.01-0.25,2.28,0,3.77-1.78
		c1.54-1.74,3.57-2.52,4.58-2.52c1.01,0,2.77-1.24,4.04-2.01c1.25-0.77,2.02-1.77,2.78-2.02c0.73-0.24,2.27,0.5,2.27,0.5
		c1.75,0,4.05-0.74,4.05-0.74l1,2.01c0,0,6.55-2.01,10.11,3.52c3.52,5.58,6.31,5.05,6.56,6.08c0.03,0.16,0.12,0.39,0.27,0.71
		c0.01,0,0.01,0.01,0.01,0.01c0.72,1.69,2.59,5.29,3.01,6.33c0.49,1.29,2.02,3.04,3.03,2.81c1-0.25,1-0.77,1.76-1.78
		c0.76-1.03-2.04-5.55-2.04-5.55S299.94,84,302.21,84s8.59-9.35,8.59-9.35l4.8-0.76c0,0,0,0,0-3.03c0-3.04-1.26-4.81-1.26-6.08
		c0-1.23,2.27-3.78,4.54-6.82c2.26-3.02,6.82-5.53,6.82-5.53h3.3c0,0-1.02,3.51,1.02,4.27c2,0.78,3.76-5.54,4.78-6.57
		c1.02-0.99,1.76,0.52,3.03,0.27c1.28-0.27,4.31-1.53,6.57-1.53c2.26,0,1.78-0.25,3.27-2.02c1.54-1.76,4.05-3.51,5.82-3.51
		c1.78,0,2.27-1.02,4.04-3.03c1.79-2.04,7.33-6.34,8.09-6.07c0.77,0.24,2.03,2.5,4.29,4.53c2.27,2.01-1.25,2.53-4.29,4.05
		c-3.02,1.52-2.53,1.52-6.3,4.29c-1.26,0.92-1.75,1.53-1.76,1.98c-0.04,0.92,1.81,1.21,3,2.07c1.79,1.27,0.78,3.28,0,4.53
		c-0.77,1.26,0.52,3.8,1.79,5.57c1.25,1.76-0.52,2.53-3.8,5.31c-3.28,2.77-2.27,4.04-3.03,5.05c-0.78,1.02,1.25,2.27,4.05,6.07
		c2.78,3.78,3.25,1.48,3.25,1.48s2.31-2.01,4.05-4.27c1.79-2.26,0.78-3.03,0.78-5.29c0-2.28,0-3.04-2.03-5.31
		c-2.02-2.3-1.78-4.81-2.8-5.32c-0.99-0.49,1.79-2.51,2.57-3.51c0.73-1.03,2.51-2.3,3.77-3.81c1.27-1.53,3.02-0.76,4.31-1.26
		c1.23-0.53,2.26-0.77,4.52-2.54c2.28-1.76,4.31-1.01,10.1-1.01c5.82,0,7.35-1.76,6.84,0.51c-0.5,2.27,6.07,3.54,6.07,3.54
		s-1.27,5.31,0.99,8.34c2.26,3.02,3.54,0,6.08,0.75c2.52,0.76,3.02,0,7.07-0.5c4.03-0.51,2.02,0,5.29-0.51c3.3-0.49,3.56,0,5.06,0
		c1.54,0,1.77,1.01,2.55,2.28c0.73,1.27,4.52,2.03,6.06,3.3c1.49,1.25,3.27,1,4.53,1c1.27,0,2.01,0.75,3.03-0.53
		c1-1.24,4.3-2.77,5.81-4.03c1.51-1.26,2.26-0.75,3.29-1.26c0.99-0.5,4.54-1.01,5.57-1.78c1.01-0.74,6.06-1.01,6.06-1.01
		s2.02,0,4.04,0c2.03,0,6.54-1.74,6.54-1.74l0.27,3.77c0,0-2.52,1.27-6.07,1.27c-3.54,0-5.05,1.51-5.05,1.51l3.3,1.26l2.51,1.76
		c0,0,0.53,1.53-0.5,2.79c-1,1.26,1.26,1.77,2.27,2.79c1.02,0.99,1.27-2.29,1.27-2.29l2.27-1.03c0,0,2.02,2.82,3.3,2.82
		c1.26,0,2.76-0.78,2.76-0.78s3.29,2.79,4.79,3.3c1.54,0.5,2.02,2.52,2.02,2.52s-0.74,2.01-2.02,3.04
		c-1.24,1.01-1.76,4.79-1.76,4.79l-5.79,3.52c0,0,1.49,1.54,7.32,1.54c5.82,0,1.24-1.01,1.77-1.78c0.48-0.77,4.78-0.5,4.78-0.5
		l4.31,0.26l1.021,2.02c0,0,0.87,0.45,1.689,0.67c0.431,0.11,0.811,0.16,1.08,0.08c0.73-0.26,1.76,0.27,3.29,2.29
		c1.5,2.02,9.101,10.09,10.351,11.36c1.26,1.24,2.26,1.5,0.51,3.54c-1.76,2.01-3.55,4.03-4.561,5.04c-1,1.02,0.761,3.79,0.761,3.79
		s2.04,0,2.04-2.27c0-2.26,1.76-2.53,1.76-2.53s0.5-1.76,5.31,0.27c4.79,2.02,8.561,11.1,8.561,11.1l2.04,0.25l1.529-1l1.48-0.25
		l4.05-0.76l1.55,1.52l2.761,1.26l1.76-1.02l1.79-0.75c0,0,2.779,1.77,8.31-0.25c2.5-0.9,6.75,0.22,10.7,1.73l0.01,0.01
		c4.87,1.86,9.25,4.33,9.25,4.33s9.11,7.56,10.9,9.57c1.09,1.26,4.85,5.1,8.01,8.41c1.9,1.98,3.59,3.78,4.34,4.74
		c2.04,2.54,2.78,14.14,2.78,16.15c0,2.03,2.51,4.31,3.79,6.33c1.28,2.03,3.54,3.54,6.33,5.57c2.76,2.01,2.26,3.26,2.26,3.26
		s-2.79,0-2.79,4.31s-7.81,10.11-14.63,15.91c-6.84,5.83-4.31,8.35-4.31,8.35l3.05-3.3c0,0,2.75,0.78,2.52,3.3
		c-0.25,2.52-0.25,4.03-4.56,4.53c-4.311,0.51-4.53,2.81-5.311,2.81h-4.529c-2.551,0-2.551,2.26-1.261,3.51
		c1.261,1.28,7.33-1.25,7.33-1.25l6.061-3.03c0,0,5.31-6.57,7.06-3.54c1.771,3.02,3.521,0.5,3.521,0.5s-1.261-2.02-1.49-3.27
		c-0.26-1.27,0-2.27,0-2.27l0.75-3.55l2.02-1.79c0,0,4.051-0.73,4.801,0.27c0.77,1.01,3.56,1.01,3.56,1.01s1.48-0.25,2.26-0.75
		c0.761-0.53,2.521-1.26,2.521-1.26s4.05,0.48,5.81,0.48s5.04,3.55,2.78,5.08c-2.271,1.51,0,2.01,0,5.29c0,3.28-3.03,7.05-5.05,5.81
		c-2.03-1.24-7.33,3.28-7.33,3.28s-2.78,0.78-6.82,0.27c-4.04-0.52-5.83-2.78-5.83-2.78s-0.229,2.03,0,3.51
		c0.271,1.54,2.79,3.04,4.311,2.04c1.52-1.01,3.04,0.26,5.81,0.26c2.771,0,2.771-1.02,4.29-0.76l-0.24,3.03l-0.5,3.79h1.74
		l0.771-3.04l2.779-3.28l3.29-2.77c0,0,3.55-0.52,4.05-1.53c0.49-1,0.99-1.77,0.99-2.78c0-1.02,1.01-2.01,1.79-5.3
		c0.75-3.27,5.811-2.01,5.811-2.01l1.25-1.26c0,0,1.26-0.53,2.029-0.53c0.75,0,7.311,2.28,15.65,6.59c8.36,4.29,7.6,5.54,9.36,7.08
		c1.77,1.5,1.77-1.54,2.51-2.3c0.77-0.74,2.8-3.77,3.029,0c0.271,3.8,3.021,4.31,3.021,4.31s-2.26,4.05-1.23,4.8
		c1,0.74,2.261,2.02,2.261,2.02l2.27-1.01l2.521,3.03l-2.521,2.01l-1.74-0.73c0,0-1.56,0.25-3.04,2.26
		c-1.54,2.01-0.779,4.03-0.779,4.03s4.55-1,5.56-1.77c1.01-0.75,2.521-2.01,4.311-4.05c1.76-2.01,2.029-2.26,2.779-3.26
		c0.73-1.02,2.271-0.25,3.03-0.25c0.74,0,5.05-0.26,5.05-0.26s2.521,2.02,5.311,4.54c2.77,2.53,4.04,1.53,4.04,1.53l-0.261-1.29
		l1.521-2.26c0,0,1.78,2.26,6.56,4.81c4.801,2.51,3.29,0.49,3.29,0.49s1.771-1.26,3.03-1.26s4.55-1,6.32-1
		c1.77,0,4.8,0.77,7.069,2.52c2.271,1.76,5.061,3.53,7.07,6.32c2.021,2.77,5.06,4.8,10.12,7.32c5.04,2.54,6.57,4.3,11.1,10.1
		c4.54,5.83,13.92,5.06,16.41,5.06c2.55,0,2.55-0.25,4.311,0.5c1.75,0.76,3.79,3.55,3.79,5.05c0,1.52,0.52,7.83,1.76,11.39
		c1.27,3.51,2.03,12.6,3.55,15.63C787.01,302.51,781.18,318.44,780.95,319.21z"/>
	<polygon fill="#C7BCB1" points="124.611,200.205 127.136,204.247 130.675,205.763 130.675,208.291 127.136,211.321 
		130.168,213.343 132.697,211.321 137.242,209.805 136.737,207.278 133.708,203.741 131.178,200.205 130.168,198.186 
		127.136,196.668 	"/>
	<path fill="#C7BCB1" d="M134.717,201.721h4.042v-2.526C138.759,199.195,135.727,200.709,134.717,201.721z"/>
	<polygon fill="#C7BCB1" points="138.252,205.258 139.768,208.794 143.304,208.794 143.811,205.763 	"/>
	<polygon fill="#C7BCB1" points="151.055,208.459 150.21,209.468 148.526,210.48 150.045,211.826 152.735,212.164 153.074,210.648 
		152.4,208.124 	"/>
	<path fill="#C7BCB1" d="M378.423,42.564l2.693,1.684c0,0,2.022,1.348,3.032,0.336c1.009-1.011,1.009-3.705,1.009-3.705
		l-2.357-2.357l-2.02,0.334l-0.674,2.361L378.423,42.564z"/>
	<polygon fill="#C7BCB1" points="392.571,36.501 394.255,38.856 395.936,40.541 399.309,39.195 396.945,37.174 394.59,34.815 	"/>
	<polygon fill="#C7BCB1" points="402.338,38.521 404.36,38.521 404.694,35.489 403.348,35.826 	"/>
	<path fill="#C7BCB1" d="M475.433,65.132c0,0,4.378,1.01,5.387,1.01c1.013,0,3.031-1.347,3.031-1.347s-0.671-2.697,0.338-3.708
		c1.011-1.011,0.339-4.04,0.339-4.04s-2.696-4.042-3.708-2.696c-1.009,1.35-4.711,3.37-3.365,3.706
		c1.345,0.337,2.021,0.337,2.021,1.686c0,1.345-2.361,3.032-2.361,3.032L475.433,65.132z"/>
	<path fill="none" stroke="#FFFFFF" stroke-width="0.5" stroke-miterlimit="10" d="M488.57,49.637"/>
	<polygon fill="#C7BCB1" points="487.894,51.658 488.906,54.352 491.936,51.658 489.245,47.953 488.57,49.637 	"/>
	<polygon fill="#C7BCB1" points="478.128,39.868 480.147,39.868 479.811,37.511 478.464,37.174 	"/>
	<polygon fill="#C7BCB1" points="484.189,25.386 485.537,26.396 487.56,24.375 485.875,22.354 	"/>
	<polygon fill="#C7BCB1" points="487.56,19.322 489.58,18.31 489.916,14.605 487.56,14.269 487.222,17.975 	"/>
	<polygon fill="#C7BCB1" points="487.894,6.859 491.263,7.531 489.58,2.479 486.548,2.479 486.548,4.837 	"/>
	<polygon fill="#C7BCB1" points="445.792,55.027 448.484,55.364 448.484,56.712 449.833,57.384 451.514,55.701 452.526,54.352 
		452.526,51.658 450.168,51.995 447.139,52.333 	"/>
	<polygon fill="#C7BCB1" points="502.802,26.017 505.704,26.773 505.835,24.122 503.683,24.122 	"/>
	<line fill="none" stroke="#666666" stroke-width="0.5" stroke-miterlimit="10" x1="133.16" y1="9.88" x2="132.43" y2="0"/>
	<path fill="none" stroke="#666666" stroke-width="0.5" stroke-miterlimit="10" d="M154.76,18.65c3.44-5.27,7.6-11.07,9.77-11.8
		l0.34-5.05c0,0,0.94-0.7,2.3-1.8"/>
	<path fill="none" stroke="#666666" stroke-width="0.5" stroke-miterlimit="10" d="M181.483,30.438
		c1.738-1.11,3.861-2.366,5.438-2.871c3.211-1.01,3.876-4.546,3.876-4.546l1.357-5.216c0,0,2.02-1.174,3.535-0.667
		c1.516,0.506,4.711-4.041,4.711-4.041s1.675,1.677,2.182,2.182c0.506,0.506,1.353-0.505,2.203-1.354
		c0.828-0.828-0.343-2.182,1.513-3.031c1.841-0.828,2.023-1.173,4.37-2.687c2.363-1.517,4.042-3.538,4.042-3.538
		s2.201,1.172,3.714,1.011c1.522-0.163,5.561-0.667,6.896-1.679c1.355-1.009,3.21-1.516,3.21-1.516s2.022-0.849,3.539-1.858
		c0.203-0.141,0.446-0.222,0.708-0.263"/>
	<path fill="none" stroke="#666666" stroke-width="0.5" stroke-miterlimit="10" d="M202.036,50.628
		c0.669-0.021,1.519,0.199,2.06,1.193c1.013,1.858,2.529,2.203,3.539,2.363c1.012,0.162,4.226-0.161,4.892-0.665
		c0.668-0.509,1.857-1.699,2.688,0.665c0.847,2.367,2.363,3.539,3.538,3.7c0.725,0.101,4.142-0.608,6.871-1.478"/>
	<path fill="none" stroke="#666666" stroke-width="0.5" stroke-miterlimit="10" d="M230.676,86.3
		c0.141-0.567,0.244-1.173,0.385-1.637c0.321-1.173,0.162-1.517,0.162-3.356c0-1.859-2.364-3.213-1.516-4.042
		c0.847-0.851,1.675-1.516,1.675-2.364c0-0.849-0.321-1.355,0.851-2.182c0.565-0.405,1.494-1.053,2.344-1.82"/>
	<path fill="none" stroke="#666666" stroke-width="0.5" stroke-miterlimit="10" d="M286.96,103.861l3.213-4.87l3.357-1.011
		c0,0-0.163-1.355,1.009-2.365c1.191-1.009,1.86-2.02,0.685-3.534c-1.191-1.519-2.02-2.185-1.857-3.376
		c0.081-0.626,0.566-2.264,1.032-3.74"/>
	<path fill="none" stroke="#666666" stroke-width="0.5" stroke-miterlimit="10" d="M259.375,243.213l1.818,2.121l-1.519,2.021
		c0,0-0.157,1.86-1.17,3.214c-1.009,1.334-1.513,2.021-2.184,3.031c-0.685,1.011,0.165,1.515,1.516,2.526
		c1.334,1.011,1.838,1.334,1.838,1.334l3.216,0.182c0,0,2.019,1.172,3.698,1.335c1.678,0.179,1.172,1.189,1.516,1.698
		c0.344,0.503,0.669,2.525,0.848,3.354c0.163,0.849,2.691,0,2.691,0l1.01-1.172c0,0,1.516-0.667,2.185-1.354
		c0.688-0.668,0.341-0.668,0.847-2.183c0.504-1.516,1.679-1.173,1.679-1.173c-0.669-5.557,1.856-6.244,3.029-10.611
		c1.191-4.385,4.042-6.244,4.042-6.244s2.207-2.182,3.536-3.355c1.356-1.193,3.72-1.86,4.729-1.86c1.013,0,1.841-1.009,3.195-1.677
		c1.354-0.688,5.395-2.02,5.395-2.02s1.175-0.505,3.033-2.708c1.838-2.183,3.701-3.357,4.204-3.862
		c0.506-0.504,1.679-4.042,1.679-4.042s0.847-1.517,0.505-3.537c-0.324-2.021,1.351-2.021,2.364-2.871
		c1.009-0.847,1.678-2.686,2.363-4.386c0.667-1.676,0.667-2.687,0-4.871c-0.686-2.203-1.86-1.859-1.86-1.859l-0.34-1.172
		l4.726-0.849c0,0,1.516,2.688,3.357,2.871c1.86,0.161,2.708,1.837,2.708,1.837l1.334,5.398c0,0,0.181,1.513,1.354,1.352
		c1.172-0.18,6.224,4.548,6.224,4.548l1.7,0.506l0.667,4.203l5.395,5.558l0.669,2.365l1.857,1.516c0,0,1.678-1.699,4.548,0.505
		c2.851,2.183,6.568-1.01,6.568-1.01s0.828-1.355,0.828-1.86c0-0.502,0.85-0.85,0.85-0.85l2.526-0.827l2.02,0.322l8.087,0.183
		l0.505,2.527l4.89,2.525l1.516,2.848c0,0-3.029,2.708-3.029,3.539c0,0.848-0.69,2.022-0.69,2.022s-0.826,1.514-1.333,2.708
		c-0.506,1.173-1.516,3.031-1.516,3.031l0.829,1.517l4.547,0.668l-0.505,2.686c0,0,1.515,2.023,2.524,1.859
		c1.01-0.162,1.863-2.362,2.204-3.031c0.325-0.667,2.345-9.598,2.345-9.598l0.687-13.805c0,0,1.01-5.053,1.679-9.096
		c0.666-4.041,1.007-1.355,0.504-4.224c-0.504-2.848-1.01-2.525-1.01-2.525l-2.366-4.043l-2.688-4.364l-1.857-2.708
		c0,0,1.354-1.68,0.344-5.215c-1.013-3.538,1.86-4.709,1.86-4.709l3.029-0.343c0,0,1.841,0.163,2.526,0.506
		c0.666,0.342,2.185-0.506,2.185-0.506s0.666-1.678,0.666-2.365c0-0.667-0.163-1.839-0.666-2.02
		c-0.506-0.162-2.366-0.506-4.205-1.333c-1.859-0.849-4.226-0.688-4.226-0.688l-1.169-3.194c0,0,0.666-1.515,2.022-3.194
		c1.352-1.696,1.352-1.191,1.352-1.191l7.742-0.504c0,0,3.536,1.194,4.889-0.323c1.335-1.515,4.548,0.323,4.548,0.323l4.204,0.181
		c0,0,1.356-2.203,2.02-3.03c0.669-0.85,2.692-1.011,2.692-1.011l2.707-0.346l0.666-3.191c0,0-1.86-2.872-3.194-4.549
		c-1.353-1.695-3.717-2.867-3.717-2.867s0.504-1.355,2.527-3.196c2.02-1.86,2.02-1.192,2.709-1.86
		c0.664-0.667,0.664-1.516,0.322-2.688c-0.322-1.192-1.172-2.526-1.841-2.707c-0.685-0.163-3.029-5.053-3.029-5.053l-0.688-17.684
		l2.365-2.345c0,0,0.85-0.687,1.515-3.879c0.667-3.194,2.87-4.042,2.87-4.042l-2.523-2.184c0,0-4.388-0.506-6.248-0.686
		c-1.838-0.164-3.697,2.363-4.364,2.363c-0.688,0-3.72-0.163-8.771-0.343c-5.055-0.161-1.516-0.161-3.539-1.516
		c-2.019-1.337-1.678-1.839-2.851-3.537c-1.19-1.678-3.535-6.064-7.415-6.064c-3.882,0-18.857-0.505-18.857-0.505l-0.181-2.687
		c0,0-1.679-1.516-2.849-1.516c-1.194,0-0.506-1.516-0.344-2.525c0.163-1.011,0-1.011-0.163-1.862
		c-0.181-0.829-0.181-2.342,1.676-3.696c1.86-1.354,0.165-2.869,0-3.377c-0.163-0.502-0.848-1.839-2.183-3.191
		c-1.353-1.354-0.181-0.85-0.847-3.7c-0.666-2.87-2.873-4.728-3.698-5.558c-0.85-0.846-4.044-0.344-3.213-1.515
		c0.848-1.193,0.182-1.516,0.182-2.527c0-1.009,2.022-1.354,2.022-1.354s2.183,2.87,1.835-4.203
		c-0.322-7.077,1.698-4.891,1.698-6.407s0.831-2.021,2.528-4.547c1.676-2.526,2.183-2.687,3.698-4.549
		c1.516-1.858,1.172-1.353,1.679-2.525c0.506-1.173,1.193-1.009,1.193-1.009l0.179-0.042"/>
	<path fill="none" stroke="#666666" stroke-width="0.5" stroke-miterlimit="10" d="M275.179,181.672c0,0,4.205-0.322,4.205,2.021
		c0,2.366,2.363,2.366,2.363,2.366l5.054,1.009c0,0,2.363,6.408,3.373,7.075c1.01,0.667,12.451,1.354,12.451,1.354l1.698-3.375
		c0,0,1.334,0.342,3.032,2.688c1.678,2.364,3.032,4.043,3.032,4.043l2.851,4.223"/>
	<path fill="none" stroke="#666666" stroke-width="0.5" stroke-miterlimit="10" d="M373.868,252.914c0,0-5.559,1.01-7.235,2.023
		c-1.678,1.009-1.353,1.19-2.872,2.021c-1.513,0.847-2.688,0.685-5.72,0.342c-3.032-0.342-3.032,0.848-4.708,2.182
		c-1.697,1.354-3.032,3.376-4.729,4.893c-1.676,1.515-3.357,2.686-4.708,3.88c-1.354,1.172-1.517,2.688-1.517,2.688
		s0.344,5.214-0.503,6.406c-0.85,1.173-1.012,0.83-0.166,2.182c0.831,1.356,0.668,2.366,0.668,3.54c0,1.171-0.162,1.855-0.668,2.362
		c-0.506,0.506-2.525,1.336-3.373,2.185c-0.85,0.848-3.194,3.029-3.194,3.029s0.669,1.516,0.504,3.376
		c-0.179,1.841-1.008,1.678-1.514,2.528c-0.506,0.828-1.516,2.525-1.516,2.525l1.841,2.183l1.01,1.679c0,0,1.516,4.544,2.526,7.073
		c1.009,2.525,3.375,2.87,4.729,4.383c1.335,1.518,4.042,5.055,3.698,6.064c-0.343,1.01-0.506,3.375-0.506,3.375l5.561,0.504
		l2.686-0.342c0,0,0,1.679,0,3.536c0,1.86,1.194,3.538,1.859,4.042c0.669,0.506,3.03,0.668,6.915,1.678
		c3.857,1.013,2.344-0.506,3.029-0.828c0.668-0.344,1.678-1.195,3.032-3.033c1.332-1.86,0.829-1.86,1.676-2.707
		c0.85-0.832,2.872-2.689,2.872-2.689s0.828,1.354,1.01,1.857c0.159,0.509-0.344,2.022-0.344,2.022l-0.506,2.851l0.506,12.73
		c0,1.496,1.272,1.761,2.77,1.761c1.535,0,1.535-0.504,1.535-0.504h5.799l3.035,0.239l12.125,20.476l-0.75,1.758
		c0,0-2.022,1.775-3.032,5.817c-1.01,4.046-0.26,4.549,0,6.306c0.243,1.78,1.01,1.541,1.497,2.552c0.525,1.008,0,5.531,0,5.531
		l-1.497,2.025l-0.522,2.02l-2.267,2.283l0.507,2.771l1.516,1.539l1.01,2.502l-0.766,2.547l0.263,9.58c0,0,4.042,6.063,2.525,6.83
		c-1.515,0.77-1.255,2.264-1.255,2.264s-0.259,1.78-2.786,2.786c-2.525,1.019-1.013,3.035-1.013,3.035l1.519,2.263l-3.297,3.035
		l-0.747,2.542l1.516,2.508l-1.01,1.778l-1.01,1.013l-1.012,2.263l-0.91,0.218"/>
	<path fill="none" stroke="#666666" stroke-width="0.5" stroke-miterlimit="10" d="M425.3,690c-0.14-0.79-0.44-1.99-1.07-2.73
		c-1.01-1.17-2.69-3.529-1.35-4.699c1.35-1.19,1.19-1.7,2.53-3.21c1.35-1.511,1.51-1.851,3.53-3.2c2.02-1.351-0.32-2.68-0.32-2.68
		s-1.01-1.7-1.86-3.03c-0.86-1.36-2.37-1.71-2.37-4.05c0-2.36,0-5.391,0-5.391l1.51-5.91c0,0-0.15-0.83,1.36-1.84
		c1.51-1,2.03-1.689,2.03-1.689l-0.52-2.351c0,0-1.34,0-2.17-3.029c-0.85-3.04-0.18-2.37-2.03-6.24
		c-1.86-3.86-5.04-9.92-6.25-13.141c-1.16-3.199-0.82-3.029-1.83-4.199c-1.01-1.17,0.17,0.85-2.7-2.69
		c-2.86-3.54-4.56-4.22-3.55-5.05c1.01-0.851,0.86-4.73,0.86-4.73s0,0.341,1.34-2.34c1.35-2.72,1.53-6.26,1.53-6.26
		s1.51-1.84,2.01-2.021c0.51-0.17,0.83-1.159-0.18-2.18c-1.01-1.01-2.18-4.04-2.18-4.04s-0.84-2.689-1.52-3.54
		c-0.67-0.84-1.68-0.84-1.51-2.02c0.16-1.17,1.18-2.36,1.18-2.36s2.2-8.76,1.85-10.1c-0.34-1.351,0.67-2.03,1.68-3.55
		c1.01-1.511,0.5-0.671,1.36-3.021c0.84-2.35,0.33-2.35,1.16-3.87c0.85-1.51,0.18-5.05,1.19-6.24c1.02-1.18,5.22-1.01,5.22-1.01
		s0-0.33,0.51-0.66c0.5-0.35,0-2.689,0-2.689l-3.04-3.62c0,0-1.51-1.271-1.51-2.8c0-1.511,0-5.04,0-6.561c0-1.52-1.52-4.04-1.52-5.8
		c0-1.78-0.5-2.79,0-3.55c0.51-0.75,1.52-4.3,0.75-4.8c-0.75-0.5-4.28-1.28-0.24-3.301c4.04-2.01,7.07-3.77,8.08-4.779
		c1.01-1.011,3.27-3.03,3.27-3.03l0.27-13.14v-0.011l-0.42-0.06l-5.38-0.95c0,0-4.31,0.271-3.8-3.28c0.5-3.52-0.24-2.77-1.52-6.819
		c-1.27-4.05-4.54-12.13-5.79-13.391c-1.28-1.26-2.29-1.26-3.3-4.8c-1.01-3.53-4.78-4.79-4.05-8.08c0.76-3.3,1.01-3.029,1.27-5.06
		c0.26-2.021,0-5.04,0-5.04s-0.37-1.01-1.27-2.41c-0.89-1.38-0.5-0.13-2.52-4.16c-2.03-4.05-4.29-8.47-4.29-10.35
		c0-1.91-0.88-2.29-1.77-3.311c-0.89-0.989-2.79-3.279-2.79-3.64c0-0.39-0.74-1.66-0.74-1.66"/>
	<path fill="none" stroke="#666666" stroke-width="0.5" stroke-miterlimit="10" d="M430.801,502.857l-0.506-3.701
		c0,0,0.344-1.859,2.023-3.714c1.675-1.842,2.179-2.348,3.373-3.354c1.172-1.013,2.526-3.377,2.526-3.377l3.194-2.022
		c0,0,1.679,1.354,2.526,3.194c0.848,1.858,1.677,0.342,1.677,0.342l5.396,0.35c0,0,3.698,0.158,4.204,0.158
		c0.506,0,1.353,1.509,1.86,1.859c0.503,0.324,1.354,1.512,2.523,2.85c1.175,1.353,1.519,5.395,1.519,5.395s1.01-1.013,1.172-2.365
		c0.179-1.335,1.191-2.021,2.526-4.044c1.353-2.02,0-4.705,0-4.705l10.954,0.161c0,0,3.7,0.691,3.7,1.517
		c0,0.842,2.364,3.88,3.211,4.887c0.833,1.01,0,0,2.022,2.53c2.023,2.526,3.698,2.687,4.548,3.533
		c0.829,0.85,3.355,2.365,5.554,4.71c2.188,2.362,3.702,5.055,7.582,6.913c3.859,1.86,6.892,2.366,6.892,2.366l3.376,0.158
		c0,0,2.688,2.687,3.191,3.194c0.507,0.508,4.729,3.033,4.729,3.033s3.354,1.698,4.369,3.032c1.008,1.356,3.718,2.203,3.718,2.203
		l4.711,2.179c0,0,2.866,0.348,4.377,2.027c1.519,1.672,2.853,1.168,3.539,1.168c0.67,0,0.67,0,1.341,1.516
		c0.685,1.513-1.843,4.042-1.843,4.042s-0.689,2.707-1.191,3.883c-0.506,1.168-1.846,1.675-1.846,3.88
		c0,2.182-0.842,5.88-2.861,9.764c-2.021,3.876-0.165,1.851-0.165,3.029c0,1.168,1.516,0.847,6.225,0.847
		c4.71,0,3.03,0.163,5.051,0.503c2.024,0.325,2.873,2.023,5.563,2.023c2.684,0,6.727,0.51,6.727,0.51s3.881-1.199,5.559-1.199
		c1.699,0,2.526-0.823,3.716-2.183c1.177-1.351,1.682-1.856,2.69-3.023c1.012-1.178,1.862-2.025,4.203-5.218
		c2.369-3.217,1.359-2.871,1.359-4.041c0-1.197,0-9.281,0-9.281s1.01-1.168,2.363-1.329c1.335-0.187,3.349-0.345,3.349-0.345
		l2.37,0.345l0.662,1.836l2.204,2.366c0,0,0.506,2.522,1.841,7.073c1.354,4.549-3.535,10.956-3.535,10.956
		c-12.794,6.222-28.622,32.15-29.124,33.509c-0.506,1.35-2.364,3.534-2.707,4.038c-0.323,0.506-3.033,3.373-3.033,3.373v21.04
		c0,0,0.849,4.229,0.507,7.076c-0.328,2.87,2.367,4.042,2.367,4.042s0.502,1.354,0.84,2.525c0.326,1.194-0.681,1.519-1.353,2.205
		c-0.665,0.665-2.183,2.344-2.183,2.344s-1.349,2.203,0,4.548c1.336,2.366,3.36,3.719,3.36,3.719l0.218,0.992"/>
	<path fill="none" stroke="#666666" stroke-width="0.5" stroke-miterlimit="10" d="M550.204,600.23
		c2.245-0.401,5.559-1.37,5.559-1.37l1.859-1.014h3.372l2.528,0.344c0,0,0,0,0,0.828c0,0.851,1.174,1.698,4.039,4.043
		c2.85,2.365,3.199,2.872,3.199,2.872s-0.35,3.029-0.509,3.697c-0.16,0.683,2.181,1.192,3.03,0.185
		c0.852-1.018,1.355-1.357,1.355-1.357l1.835-0.506c0,0,1.2,0.667,2.024,2.361c0.853,1.681,5.055,2.526,5.055,2.526
		s3.717,2.531,4.544,3.197c0.854,0.668,4.551,3.192,4.551,3.192l3.88,2.705c0,0,2.019,2.345,3.7,3.864
		c1.698,1.517,3.213,1.698,3.213,1.698s-0.504-1.515,1.675,1.678c1.679,2.466,1.882,1.94,1.882,1.551"/>
	<path fill="none" stroke="#666666" stroke-width="0.5" stroke-miterlimit="10" d="M608.369,644.773
		c-1.232,0.164-2.91,0.08-2.91-1.612c0-2.712,0.509-3.034-0.688-4.55c-1.171-1.515-1.836-2.025-1.008-2.201
		c0.846-0.164,0-1.679,1.514-1.679c1.516,0,2.022-1.518,2.022-1.518l-0.304-2.488l-0.021-0.2"/>
	<path fill="none" stroke="#FFFFFF" stroke-width="0.5" stroke-miterlimit="10" d="M308.526,543.781"/>
	<path fill="none" stroke="#666666" stroke-width="0.5" stroke-miterlimit="10" d="M479.468,491.4c0,0,1.695-0.324,2.02-5.38
		c0.345-5.054,2.202-17.359,2.202-17.359s1.172-0.161,1.84-3.536c0.688-3.356,1.009-4.871,1.009-4.871s0.507-1.01,3.539-1.855
		c3.032-0.854,3.032,0.503,7.076-1.011c4.038-1.52,3.715-1.015,6.747-2.368c3.03-1.339,4.205-0.824,8.087,0
		c3.856,0.849,4.869,0.849,5.554,1.699c0.672,0.825,4.548,1.517,4.548,1.517s3.536-1.194,4.709,3.857
		c1.175,5.048-0.16,3.882,1.518,7.073c1.677,3.213,2.524,8.084,3.876,9.097c1.339,1.008-0.181,0,0,5.395
		c0.167,5.396,0.836,5.721,0.836,6.227c0,0.505-0.836,3.717,8.43,3.033c0,0,2.358-0.675,3.19,0.848
		c0.852,1.516,1.515,0.849,2.021,0.663c0.503-0.163-0.162-2.02,1.857-2.02c2.021,0,4.039,0,5.054,1.016
		c1.008,1.004,2.023,3.873,3.377,3.873c1.33,0,3.531,2.527,3.531,3.197c0,0.685-0.502,3.535,0.326,4.544
		c0.85,1.017,1.862,0.852,1.694,2.87c-0.179,2.025-0.179,3.373,0.828,4.709c1.013,1.356,1.516,1.014,1.013,2.524
		c-0.504,1.521,3.035,3.039,4.225,1.863c1.177-1.171,0.164-2.869,2.187-2.869s3.535,0.179,4.2,0.688
		c0.684,0.503,2.201-0.184,2.363,4.202c0.167,4.385,0.511,6.732,0.511,6.732s-1.176,1.516-1.362,4.382
		c-0.156,2.873,0.352,5.058,0.352,5.058l-1.01,3.188"/>
	<path fill="none" stroke="#666666" stroke-width="0.5" stroke-miterlimit="10" d="M387.349,344.952c0,0,5.902,0.769,8.931,1.111
		c3.033,0.326,2.022,0.326,4.71-1.694c2.689-2.021,3.699-4.713,5.052-4.713c1.356,0,6.064-3.373,6.064-3.373
		s1.678-0.669,3.032-2.019c1.354-1.338,3.697-3.36,4.707-5.055c1.013-1.678,5.739,0,5.739,0l9.097-2.021
		c0,0,0.325,0.686,0.325,2.708c0,2.02,0.341,4.042,0.341,5.052c0,1.01-0.341-0.685-1.354,2.345c-1.01,3.032-0.669,5.054,0.344,5.736
		c1.01,0.668,1.01,1.339,0,3.034c-1.013,1.678-1.678,3.356,0.344,4.368c2.019,1.009,5.374,4.731,6.063,6.063
		c0.667,1.351,2.345,4.727,4.364,5.394c2.023,0.668,2.367,2.69,2.367,2.69s8.747-0.327,9.762,0c1.007,0.343,4.039,2.707,6.749,4.382
		c2.688,1.68,4.367,3.702,7.074,5.396c2.688,1.679,5.052,1.679,5.052,3.698c0,2.021,1.334,1.356,5.051,1.356
		c3.699,0,5.376-1.013,7.743-0.345c2.364,0.663,5.052,2.686,4.711,5.052c-0.326,2.364,1.695,4.042,1.695,5.72
		c0,1.701,3.031,6.405,3.031,6.405s-1.698,1.013-2.021,2.021c-0.343,1.016-1.7,3.035-1.7,3.035s2.369-1.013,3.379,2.365
		c1.01,3.355,1.354,6.725,1.354,7.74c0,1.01,0.666,3.373,2.688,3.373c2.02,0,4.382,0.324,9.097,0.324
		c4.704,0,8.746,0.346,8.746,0.346l-0.321,7.414c0,0,0.321,4.048,1.679,4.048c1.353,0,0.665,2.342,1.677,2.342
		c1.008,0,2.705,2.363,2.705,2.363l4.042,0.343c0,0-1.694,2.346,0.325,5.378c2.019,3.031,3.379,3.376,3.379,5.051
		c0,1.7-5.398,2.709-4.048,2.709c1.356,0,1.356,2.687,1.356,4.042c0,1.33-2.364,6.385-2.364,6.385v3.03l-2.021,2.022"/>
	<path fill="none" stroke="#666666" stroke-width="0.5" stroke-miterlimit="10" d="M476.416,141.615
		c-0.16,0.183-0.869,1.091,4.063-1.697c5.396-3.032,4.042-4.386,4.042-4.386l1.01-1.677l1.009-2.363l-1.797-2.141
		c0,0-0.647-0.891-1.516-1.013c-0.891-0.123-3.297-3.153-3.297-3.153s1.013-0.89-0.359-1.778c-1.395-0.89-2.022-2.143-2.022-2.143
		s-1.394-1.272,0-2.02c1.372-0.77,1.878-1.518,1.878-3.154c0-1.658-0.866-4.186-0.866-4.186s1.132-0.501,2.769-1.393
		c1.633-0.869,2.768-0.241,4.302-1.01c1.498-0.749,3.276-1.012,3.276-2.384c0-1.395,1.397-2.668,0-3.539
		c-1.396-0.889-3.657-3.92-3.657-3.92s1.516-1.396,2.645-2.143c1.129-0.769,1.012-0.769,2.528-1.394
		c1.514-0.628,4.305-2.404,4.305-2.91c0-0.506,2.141-0.367,2.141-2.911c0-0.729,0.226-1.336,0.566-1.839"/>
	<path fill="none" stroke="#666666" stroke-width="0.5" stroke-miterlimit="10" d="M476.437,141.596c0,0,0,0-0.021,0.019
		c-0.225,0.102-4.102,2.041-6.708,3.013c-2.691,1.011-4.711,0-4.711,0l-3.029,2.362c0,0,1.009,2.689-0.347,4.043
		c-1.353,1.334-2.362,0-2.362,0s-2.02-1.696-4.367-1.696c-2.364,0-4.73-0.668-4.73-0.668l-5.051-2.688l-3.032-2.364l-4.364-0.67
		c0,0,2.342,3.034,2.342,4.043c0,1.011,3.375,3.357,3.375,3.357s1.678,1.697,2.688,3.032c1.013,1.354-2.342,4.727-2.342,4.727
		l2.686,3.032l1.013,2.69v2.363l1.353,0.668h4.708v4.042h-1.353l-0.669,2.021c0,0-1.676,0.342-4.382,1.012
		c-2.691,0.665-2.023,5.051-2.023,5.051l-1.678,1.678h-3.375c0,0-4.364,2.021-7.396,3.719c-3.029,1.678-1.353,5.375-1.353,5.375
		h-2.689l-0.343-2.021l-4.042-1.01l-1.676,1.01c0,0-2.366,1.355-4.388,0c-2.02-1.334,0,0-1.01-0.323
		c-1.01-0.345-2.363-3.72-2.686-4.73c-0.346-1.011-4.044,1.698-4.044,1.698s0-2.022-0.344-3.376s-0.344-3.03-0.344-5.053
		c0-1.576-0.828-3.577-1.169-4.365"/>
	<path fill="none" stroke="#666666" stroke-width="0.5" stroke-miterlimit="10" d="M486.54,131.491l4.893-0.505
		c0,0,2.021-0.85,2.021,1.17c0,2.021,0.163,2.527-0.163,3.032c-0.344,0.506-2.021,2.205-2.021,2.205l0.163,2.847
		c0,0,1.678-0.322,2.366,0.183c0.665,0.506,1.674,2.184,1.674,2.85c0,0.687-0.16,1.516,0,2.367c0.161,0.848,1.52,1.011,1.52,1.011
		s1.17,0.163,0,4.202c-1.175,4.043-1.012,4.385-2.022,6.064c-1.012,1.697-2.869,2.87-2.365,5.054c0.506,2.202,0.85,5.738,0.85,5.738
		l2.869,3.538l0.157,3.697c0,0,0.344,1.172,1.521,2.183c1.169,1.009,1.01,1.516,1.857,3.031c0.828,1.517,3.197,2.87,3.698,2.87
		c0.506,0,5.561,0,5.561,0s1.351-0.848,5.215-3.03c3.881-2.181,3.371-3.033,5.232-4.044c1.841-1.01,3.355-2.871,3.355-2.871
		s0.846-0.667,3.878,0c3.033,0.69,6.229,0.69,6.229,0.69s-2.53-4.042-3.035-4.387c-0.504-0.345-4.546-4.042-4.546-6.225
		c0-2.203-0.324-4.043-1.681-5.902c-1.35-1.86-3.192-3.698-3.192-3.698s-3.535-2.869-3.717-4.548
		c-0.165-1.699-1.841-3.212-1.841-4.384c0-1.173,0.506-3.882,1.676-5.054c1.175-1.171,1.682-3.699,1.682-4.547
		c0-0.85,0.179-1.354,0.503-1.86c0.345-0.505,0,0,3.213-0.505c3.196-0.507,2.692-4.365,2.692-4.365s1.351-0.687,1.351-2.525
		c0-0.688,0.328-2.546,0.731-4.591"/>
	<path fill="none" stroke="#666666" stroke-width="0.5" stroke-miterlimit="10" d="M533.028,173.771c0,0,4.22-0.508,4.886-0.508
		c0.672,0,1.354-1.009,1.521-2.525c0.159-1.515-0.503-3.032-0.503-3.032s2.525,0,5.208,0c2.708,0,2.708-0.848,2.708-0.848l1.84-1.01
		l5.229,1.354c0,0,1.686,2.182,1.686,2.687c0,0.504,4.701,1.68,4.701,1.68l1.523-1.518c0,0,2.365-0.162,4.041-1.012
		c1.692-0.827,3.374-0.32,3.882-0.32c0.501,0,2.18,1.17,2.18,1.17l1.352,1.515c0,0,1.173-0.504,1.858-1.011
		c0.674-0.504,1.176-1.17,2.021-2.181c0.832-1.01,2.021-1.354,2.021-1.354s1.685-1.355,2.025-3.192c0.318-1.859,0-4.389,0-4.389
		l1.516-3.696c0,0,1.835-3.718,2.184-4.386c0.342-0.667,1.674-1.516,2.361-2.365c0.667-0.829,1.17-1.675,1.52-2.849
		c0.26-0.992,1.452-1.617,1.878-1.8"/>
	<path fill="none" stroke="#666666" stroke-width="0.5" stroke-miterlimit="10" d="M555.4,169.405
		c1.919-1.84,0.987-2.465,2.06-3.394c1.334-1.173,0.827-0.507,2.346-3.538c1.513-3.032-1.336-2.688-1.174-4.367
		c0.162-1.697,0.849-1.354,2.522-4.546c1.682-3.212,0-1.515-0.666-3.72c-0.683-2.18-1.694-2.85-2.363-6.223
		c-0.665-3.377-0.503-4.711-0.503-4.711s0-4.223,0.163-6.404c0.18-2.184,1.859-2.527,3.029-3.701
		c1.196-1.19,1.014-1.858,1.014-4.042c0-0.947,0.324-1.958,0.681-2.89"/>
	<path fill="#394959" d="M387.349,401.135l2.355,1.516c0,0,2.019-0.338,1.516,1.18c-0.506,1.516-1.516,2.185-0.506,2.185
		c1.01,0,2.697,0,2.697,0s0.676,0.339,1.18,1.182c0.506,0.841,1.012,1.351,1.519,1.518c0.501,0.171,1.679,0.336,1.679,0.336
		s1.348,0.674,1.012,1.684c-0.335,1.011-0.335,1.011-0.335,1.011s1.684,1.346,0.674,2.354c-1.012,1.013-2.361-0.332-2.361-0.332
		s-1.013-1.688-2.355-1.688c-1.348,0-3.368-1.854-3.368-1.854s-0.338-1.34-1.518-1.34c-1.177,0-2.694-0.509-4.042-1.012
		c-1.348-0.507-0.336-1.688,0.506-2.696c0.842-1.014,1.012-2.701,1.012-2.701L387.349,401.135z"/>
	<path fill="none" stroke="#C7BCB1" stroke-width="0.25" stroke-miterlimit="10" d="M-6.082-56.317h2.386
		c-0.999,0.111-1.886,0.86-1.886,0.86S-5.762-55.777-6.082-56.317z"/>
	<path fill="none" stroke="#C7BCB1" stroke-width="0.25" stroke-miterlimit="10" d="M780.95,319.21c-0.24,0.74-4.28,5.8-4.55,7.82
		c-0.261,2.01-12.641,14.65-13.391,14.65c-0.76,0-3.52,3.53-3.52,6.31c0,2.79-9.87,19.96-9.87,19.96l-4.28,1.52
		c0,0,0.47-2.77-3.56-2.279c-4.05,0.51,1.77,3.02,1.77,3.02s-0.5,1.53-1.77,2.56c-1.261,1-2.5,10.091-2.5,10.091l2.01,2.77
		c0,0-3.56,3.79-3.56,5.05c0,1.271,3.039,1.521,3.039,7.83c0,6.34,0.261,3.04,0.261,3.04l2.02,6.58c0,0,2.03,3.03,1.28,5.29
		c-0.78,2.26-4.05,4.83-3.811,7.311c0.25,2.56,0.771,6.85,0.771,6.85s1.01,5.29-3.03,9.6c-4.05,4.301-1.279,14.141-1.279,14.141
		s1.01,6.569-2.521,8.83c-3.53,2.29-2.01,7.83-2.79,9.359c-0.74,1.51-2.77,2.28-4.78,4.311c-2.02,2.02,0.261,4.529-2.02,8.58
		c-2.29,4.029,1.26,5.569,1.26,5.569s-3.04,1.48-4.31,1.75c-1.261,0.261-4.78,4.04-4.78,4.04l-2.79,2.521c0,0,1.26,5.06-0.25,4.04
		c-1.52-1-10.87,1.02-10.87,1.02l-1.26-2.02c0,0-1.521,2.79-3.8,2.79c-2.25,0-3.25-1.53-3.25-1.53l-1.54,2.27l-3.03,1.29
		l-0.26-2.029l-6.561,0.25l3.53,2.01c0,0-4.8,4.82-5.81,4.82c-1.011,0-3.03,2.26-3.03,2.26l2.02,1.26l-0.75,1.78c0,0-2.04,0-3.779,0
		c-1.78,0,1.26-0.78-5.58,0c-0.38,0.02-0.78,0.109-1.19,0.24c-6.97,1.96-18.02,13.89-18.02,13.89l-0.73,4.05l-3.79,0.78l-3.29,3.25
		l2.021,2.04l-0.75,3.04c0,0-1.771,2.52-1.54,4.02c0.27,1.521,2.79,12.37,5.05,15.67c2.3,3.29,0.26,14.141-3.76,16.44
		c-4.061,2.26-8.37,12.13-8.37,12.13c0,20.68-18.92,35.36-18.92,35.36s-0.26-2.551-0.26,1c0,3.52-5.551,15.64-6.311,15.909
		c-0.78,0.261-1.77-1.279-1.77,2.28c0,3.53-11.351,15.66-12.131,15.66c-0.75,0-4.05-0.25-5.81-1.27c-1.76-1.011-5.06,0-6.06,0.51
		c-1.011,0.51-3.03,2.02-5.311-1.021c-2.27-3.02-6.55-1.5-8.84-1.5s-3.29-2.529-4.03-3.279c-0.77-0.78-2.77,0-6.069-0.261
		c-3.301-0.27-1.53-1.75-2.28-2.529c-0.61-0.62-1.87-1.881-3.91-2.2c-0.479-0.101-1.03-0.11-1.63-0.061
		c-3.04,0.221-0.53,3.771,0,4.521c0.47,0.78,2.26,2.79,3.77,3.56c1.521,0.75,2.04,1.75,2.771,2.771c0.78,1.02,3.3,1.75,6.06,2.02
		c2.801,0.26,1.79,1.521,2.561,2.3c0.74,0.73,2.01,1.23,3.27,1.23c1.25,0,0.771,3.29,0.771,3.29s-1.53,4.29-0.271,5.3
		c1.28,1.021,1.53,3.04,1.53,3.04l2.01,2.01c0,0,1.24,0.28,2.521,1.771c1.279,1.54,1.52,2.28,2.77,2.79
		c1.28,0.5,0.271,4.81,0.271,4.81s-0.38,0.771-0.67,1.95H400.16c0.27-0.09,0.6-0.21,0.99-0.36c3.02-1.189,1.36-2.199,0.84-3.529
		c-0.48-1.36,0-3.38,1.36-4.551c1.33-1.189,0.82-4.56,0.82-4.56l-2.34-4.04c2.55-0.67,3.2-1.68,3.2-1.68s-5.39,0.33-1-5.38
		c4.37-5.74,1.67-10.301,1.17-11.311c-0.52-1-3.37-9.59,0-9.91c3.36-0.35,0.84-5.56-0.17-5.91c-1-0.34-1.16-1.35,0-6.399
		c1.18-5.04-8.94-27.11-9.26-28.97c-0.33-1.86-1.18-0.841,2.54-6.74c3.68-5.891-2.72-11.101-4.4-12.62
		c-1.66-1.51-0.16-4.73,1.02-6.4c1.16-1.68,1.67-3.189,2.68-5.06c1.02-1.85-1.17-3.03-1.84-4.19c-0.68-1.21,0.5-3.38,1.18-4.05
		c0.66-0.689,0.34-3.03-0.35-4.06c-0.66-0.98-0.51-8.761-0.51-10.09c0-1.36,1.71-3.221,1.71-5.561c0-2.37-2.36-3.53-3.03-5.38
		c-0.69-1.87,0-4.06,1.83-6.07c1.87-2.04,1.53-2.88,0.86-3.699c-0.68-0.86-1.52-1.021-1.52-6.91c0-5.91-0.85-10.61-2.52-12.13
		c-1.68-1.511-2.03-3.69-2.38-4.9c-0.32-1.17,1.51-1.17,3.22-3.53c1.68-2.34,1.01-12.13,1.33-16.66c0.35-4.56-0.66-2.71-2.52-8.93
		c-1.84-6.24-1.17-7.93-1.84-13.83c-0.68-5.88-1.2-6.38-2.36-9.229c-1.18-2.9-1.53-7.25-0.67-8.44c0.52-0.72,0.2-1.34-0.25-1.72
		c-0.26-0.24-0.58-0.41-0.77-0.47c-0.49-0.171-1.51-1.86-1.51-1.86c-7.25-3.19-13.49-10.44-14.84-12.28
		c-1.34-1.87-10.1-8.439-11.78-8.93c-1.69-0.51-7.23-2.351-10.78-5.561c-3.52-3.199-10.44-5.38-16.34-8.26
		c-5.88-2.87-8.75-7.41-12.96-11.63c-4.21-4.18-6.24-8.41-7.75-10.75c-1.52-2.37,1.35-4.55,1.69-6.07
		c0.32-1.51-7.58-13.819-8.94-14.319c-1.34-0.511-3.69-4.87-3.69-4.87s0-4.91-1.87-6.25c-1.84-1.34-4.36-5.38-5.21-6.57
		c-0.84-1.17-3.88-9.94-5.22-10.93c-1.35-1.02-2.03-4.9-3.04-6.41c-1.01-1.52-3.19-5.72-3.35-8.26c-0.18-2.52-3.54-6.73-4.4-8.77
		c-0.83-2.01-5.04-6.54-5.04-6.54s-7.74-14.82-11.97-19.03c-4.21-4.23-10.76-4.9-10.76-4.9l0.49-3.7c1.36-2.2,1.68-1.01,3.54-1.84
		c1.87-0.86-1.86-4.73-1.86-4.73l-3.35-2.36c0,0,0.51-2.52-1-3.54c-1.53-1-0.86-2.53-1.71-3.37c-0.83-0.82,1.85-3.37,1.51-4.37
		c-0.31-1.01,1.71-2.7,2.03-3.2c0.35-0.51,1.86-1.53,2.35-3.04c0.52-1.52,3.9-3.7,4.4-3.7c0.26,0,1.97-1.77,3.56-3.48
		c1.46-1.58,2.82-3.1,2.82-3.1s-0.51-3.67,0.69-5.55c1.18-1.85,0-3.2-0.85-3.89c-0.84-0.65-2.19,0.51-2.87,1.03
		c-0.66,0.49-0.66,2.52-0.66,2.52l-1.01,1.01c0,0-2.01-1.18-2.01-1.83c0-0.69-1.38-2.38-1.38-2.38l-2.52-1l-0.32-1.69
		c0,0,0,0,1.35-1.68c1.34-1.69,0-4.05,0-4.05l-0.68-0.51c0,0-1.01-3.69,0.16-4.86c1.18-1.21-0.16-1.86-0.16-1.86
		s-0.85-3.04-0.67-4.05c0.15-1.01,2.52-2.52,3.19-2.87c0.68-0.33,2.69-0.16,3.38-1.34c0.67-1.18-2.87-0.83-2.87-0.83
		s-0.34-3.89,0.17-4.22c0.48-0.34,1.51-1.69,2.01-2.52c0.51-0.86,3.22-1.51,4.39-3.38c1.17-1.85-0.51-0.85-1.87-1.51
		c-1.33-0.67-0.5-6.23-0.5-6.23c3.2-0.84,3.88-1.36,3.88-1.36c7.24-3.53,9.44-4.69,12.13-5.39c2.69-0.66-2.17-3.19-3.2-3.35
		c-1.01-0.18,0.17-2.37,1.03-3.9c0.81-1.49,3.02,0.52,4.02-0.33c1.02-0.82-0.67-1.51-0.67-4.03c0-2.53,1.86-4.56,3.52-4.87
		c1.71-0.34,4.23,1.5,6.4-1.36c2.19-2.88,3.39-7.08,6.08-11.79c2.68-4.73,2.68-3.02,2.17-5.74c-0.48-2.68-3.34-0.67-3.34-3.87
		c0-3.2,0.82-3.86,2.34-6.4c1.51-2.52-1.34-2.69-1.34-2.69s-0.83-4.37-1-6.24c-0.18-1.84,0.51-2.19,0.51-2.19s1-1.49,2.02-2.67
		c0.99-1.21,0.33-1.86,0.33-1.86s-2.69-1.36-2.69-1.87c0-0.5,1.66-1.83,3.03-3.04c1.35-1.16-0.16-2.17-1.52-3.53
		c-1.38-1.33-1.51-2.18-1.68-3.17c-0.18-1.03-3.71-3.39-4.23-4.91c-0.51-1.51-2.02-4.87-4.21-5.21c-2.17-0.35-1-3.54-1-3.54
		s0.85-0.86,0.85-2.02c0-1.18,2.52-3.02,2.52-3.02s3.03-1.87,0.51-2.37c-2.53-0.5-6.66-4.48-6.66-4.48
		c-3.53-5.67-10.36-1.23-10.36-1.23c-4.81,10.23-7.97,4.26-9.34,7.19c-1.4,2.9-0.76,2.65,2.77,6.17c3.54,3.56,1.14,1.4,1.51,3.67
		c0.39,2.29-4.54,4.17-5.68,4.3c-1.15,0.11-5.82-0.75-6.45-1.13c-0.61-0.4-1.63-5.07-2-5.07c-0.39,0-4.05-1.12-4.05-1.12
		s-2.41-0.89-3.92-2.66c-1.52-1.78-1.64-3.27-3.54-3.79c-1.89-0.51-3.78,0-5.04-0.74c-0.5-0.31-1.32-1.45-2.19-2.51
		c-1.39-1.67-2.93-3.14-3.62-0.9c-1.12,3.64-4.55,2.14-4.94,2.14c-0.37,0-2.91-3.93-1.63-4.06c1.26-0.11,4.28-2.52,2.26-4.05
		c-2.01-1.49-9.04-6.55-9.04-6.55c-3.03-1.36-4.05-7.07-5.07-9.09c-1-2.03-4.04,0.99-4.04,0.99l2.37,2.39h1.36l0.31,3.34
		c0,0,0,0-4.04,0s-3.35-3.04-3.35-3.04c-6.06-0.3-3.04-6.37-3.04-6.37s5.38-2.03,2.35-3.37c-3.03-1.36,0-4.05,0-4.05
		s0.59-1.68,1.48-3.05h0.01c1.01-1.61,2.45-2.82,3.9-0.65c2.69,4.03,4.39-3.71,2.03-4.03c-2.37-0.35-4.04-4.74-4.04-4.74
		c-1.36,0-5.05-4.04-5.05-4.04s-2.38-3.35-4.04-2.35c-1.68,1.01,0.66,3.7,1.66,3.7c1.02,0,3.03,1.69,3.03,1.69l1.71,7.05
		c0,0,2.34,1.71-0.69,2.72c-3.03,1.01-7.07-6.07-8.4-7.41c-1.36-1.36-3.04-4.7-7.43-8.75c-1.82-1.69-2.78-2.75-3.25-3.38
		c-0.66-0.9-0.44-1.01-0.44-1.01s1.68-1.68,1.68-5.4c0-3.7-3.39-0.68-4.05,0.68c-0.67,1.33-5.05,0-6.72,0
		c-1.71,0-7.43-2.01-8.78-3.37c-1.34-1.35-4.05-0.34-5.71-0.67c-1.69-0.34-5.07-4.72-6.07-5.73c-1.01-1.02-8.09-1.33-13.14-1.68
		c-1.05-0.07-2.85-1.35-5.08-3.38h-0.02c-2.79-2.5-6.22-6.14-9.57-9.88H232.7c0.04,0.12,0.06,0.24,0.08,0.36
		c0.17,0.98,0.09,1.84-0.3,2.02c-1.01,0.53-3.29,1.28-1.01,5.59c2.28,4.28-0.75,1.76,0,4.28c0.76,2.52-0.75,2.79-2.51,4.27
		c-1.78,1.54-0.77,7.61-0.77,10.65c0,3.02-0.25,3.52-1.26,4.78c-0.99,1.27,0,1.77-1.52,3.28c-1.51,1.51-0.25,3.29,0,5.33
		c0.26,2.01-0.25,2.52-2.04,4.53c-1.75,2.02-0.47,3.53-0.74,6.07c-0.26,2.52,2.53,2.01,2.53,2.01s0.94,1.57,0.47,3.24
		c-0.13,0.45-0.35,0.89-0.72,1.32c-1.76,2.01,0,3.27,3.03,5.56c3.04,2.27,2.03,3.28,5.55,6.57c0.4,0.37,0.76,0.72,1.09,1.04
		c2.56,2.51,2.96,3.49,2.96,3.49s-0.5,1.28-0.5,2.29c0,1.01,1.49,2.27,3.28,3.78c1.78,1.53,2.52-1.03,2.52-1.03l2.02,0.27
		c0,0,1.02,1.77,3.54,2.51c2.53,0.77,1.51,0,3.28-0.22c1.77-0.25,1.27-0.52,3.29-0.78c2.01-0.25,2.28,0,3.77-1.78
		c1.54-1.74,3.57-2.52,4.58-2.52c1.01,0,2.77-1.24,4.04-2.01c1.25-0.77,2.02-1.77,2.78-2.02c0.73-0.24,2.27,0.5,2.27,0.5
		c1.75,0,4.05-0.74,4.05-0.74l1,2.01c0,0,6.55-2.01,10.11,3.52c3.52,5.58,6.31,5.05,6.56,6.08c0.03,0.16,0.12,0.39,0.27,0.71
		c0.01,0,0.01,0.01,0.01,0.01c0.72,1.69,2.59,5.29,3.01,6.33c0.49,1.29,2.02,3.04,3.03,2.81c1-0.25,1-0.77,1.76-1.78
		c0.76-1.03-2.04-5.55-2.04-5.55S299.94,84,302.21,84s8.59-9.35,8.59-9.35l4.8-0.76c0,0,0,0,0-3.03c0-3.04-1.26-4.81-1.26-6.08
		c0-1.23,2.27-3.78,4.54-6.82c2.26-3.02,6.82-5.53,6.82-5.53h3.3c0,0-1.02,3.51,1.02,4.27c2,0.78,3.76-5.54,4.78-6.57
		c1.02-0.99,1.76,0.52,3.03,0.27c1.28-0.27,4.31-1.53,6.57-1.53c2.26,0,1.78-0.25,3.27-2.02c1.54-1.76,4.05-3.51,5.82-3.51
		c1.78,0,2.27-1.02,4.04-3.03c1.79-2.04,7.33-6.34,8.09-6.07c0.77,0.24,2.03,2.5,4.29,4.53c2.27,2.01-1.25,2.53-4.29,4.05
		c-3.02,1.52-2.53,1.52-6.3,4.29c-1.26,0.92-1.75,1.53-1.76,1.98c-0.04,0.92,1.81,1.21,3,2.07c1.79,1.27,0.78,3.28,0,4.53
		c-0.77,1.26,0.52,3.8,1.79,5.57c1.25,1.76-0.52,2.53-3.8,5.31c-3.28,2.77-2.27,4.04-3.03,5.05c-0.78,1.02,1.25,2.27,4.05,6.07
		c2.78,3.78,3.25,1.48,3.25,1.48s2.31-2.01,4.05-4.27c1.79-2.26,0.78-3.03,0.78-5.29c0-2.28,0-3.04-2.03-5.31
		c-2.02-2.3-1.78-4.81-2.8-5.32c-0.99-0.49,1.79-2.51,2.57-3.51c0.73-1.03,2.51-2.3,3.77-3.81c1.27-1.53,3.02-0.76,4.31-1.26
		c1.23-0.53,2.26-0.77,4.52-2.54c2.28-1.76,4.31-1.01,10.1-1.01c5.82,0,7.35-1.76,6.84,0.51c-0.5,2.27,6.07,3.54,6.07,3.54
		s-1.27,5.31,0.99,8.34c2.26,3.02,3.54,0,6.08,0.75c2.52,0.76,3.02,0,7.07-0.5c4.03-0.51,2.02,0,5.29-0.51c3.3-0.49,3.56,0,5.06,0
		c1.54,0,1.77,1.01,2.55,2.28c0.73,1.27,4.52,2.03,6.06,3.3c1.49,1.25,3.27,1,4.53,1c1.27,0,2.01,0.75,3.03-0.53
		c1-1.24,4.3-2.77,5.81-4.03c1.51-1.26,2.26-0.75,3.29-1.26c0.99-0.5,4.54-1.01,5.57-1.78c1.01-0.74,6.06-1.01,6.06-1.01
		s2.02,0,4.04,0c2.03,0,6.54-1.74,6.54-1.74l0.27,3.77c0,0-2.52,1.27-6.07,1.27c-3.54,0-5.05,1.51-5.05,1.51l3.3,1.26l2.51,1.76
		c0,0,0.53,1.53-0.5,2.79c-1,1.26,1.26,1.77,2.27,2.79c1.02,0.99,1.27-2.29,1.27-2.29l2.27-1.03c0,0,2.02,2.82,3.3,2.82
		c1.26,0,2.76-0.78,2.76-0.78s3.29,2.79,4.79,3.3c1.54,0.5,2.02,2.52,2.02,2.52s-0.74,2.01-2.02,3.04
		c-1.24,1.01-1.76,4.79-1.76,4.79l-5.79,3.52c0,0,1.49,1.54,7.32,1.54c5.82,0,1.24-1.01,1.77-1.78c0.48-0.77,4.78-0.5,4.78-0.5
		l4.31,0.26l1.021,2.02c0,0,0.87,0.45,1.689,0.67c0.431,0.11,0.811,0.16,1.08,0.08c0.73-0.26,1.76,0.27,3.29,2.29
		c1.5,2.02,9.101,10.09,10.351,11.36c1.26,1.24,2.26,1.5,0.51,3.54c-1.76,2.01-3.55,4.03-4.561,5.04c-1,1.02,0.761,3.79,0.761,3.79
		s2.04,0,2.04-2.27c0-2.26,1.76-2.53,1.76-2.53s0.5-1.76,5.31,0.27c4.79,2.02,8.561,11.1,8.561,11.1l2.04,0.25l1.529-1l1.48-0.25
		l4.05-0.76l1.55,1.52l2.761,1.26l1.76-1.02l1.79-0.75c0,0,2.779,1.77,8.31-0.25c2.5-0.9,6.75,0.22,10.7,1.73l0.01,0.01
		c4.87,1.86,9.25,4.33,9.25,4.33s9.11,7.56,10.9,9.57c1.09,1.26,4.85,5.1,8.01,8.41c1.9,1.98,3.59,3.78,4.34,4.74
		c2.04,2.54,2.78,14.14,2.78,16.15c0,2.03,2.51,4.31,3.79,6.33c1.28,2.03,3.54,3.54,6.33,5.57c2.76,2.01,2.26,3.26,2.26,3.26
		s-2.79,0-2.79,4.31s-7.81,10.11-14.63,15.91c-6.84,5.83-4.31,8.35-4.31,8.35l3.05-3.3c0,0,2.75,0.78,2.52,3.3
		c-0.25,2.52-0.25,4.03-4.56,4.53c-4.311,0.51-4.53,2.81-5.311,2.81h-4.529c-2.551,0-2.551,2.26-1.261,3.51
		c1.261,1.28,7.33-1.25,7.33-1.25l6.061-3.03c0,0,5.31-6.57,7.06-3.54c1.771,3.02,3.521,0.5,3.521,0.5s-1.261-2.02-1.49-3.27
		c-0.26-1.27,0-2.27,0-2.27l0.75-3.55l2.02-1.79c0,0,4.051-0.73,4.801,0.27c0.77,1.01,3.56,1.01,3.56,1.01s1.48-0.25,2.26-0.75
		c0.761-0.53,2.521-1.26,2.521-1.26s4.05,0.48,5.81,0.48s5.04,3.55,2.78,5.08c-2.271,1.51,0,2.01,0,5.29c0,3.28-3.03,7.05-5.05,5.81
		c-2.03-1.24-7.33,3.28-7.33,3.28s-2.78,0.78-6.82,0.27c-4.04-0.52-5.83-2.78-5.83-2.78s-0.229,2.03,0,3.51
		c0.271,1.54,2.79,3.04,4.311,2.04c1.52-1.01,3.04,0.26,5.81,0.26c2.771,0,2.771-1.02,4.29-0.76l-0.24,3.03l-0.5,3.79h1.74
		l0.771-3.04l2.779-3.28l3.29-2.77c0,0,3.55-0.52,4.05-1.53c0.49-1,0.99-1.77,0.99-2.78c0-1.02,1.01-2.01,1.79-5.3
		c0.75-3.27,5.811-2.01,5.811-2.01l1.25-1.26c0,0,1.26-0.53,2.029-0.53c0.75,0,7.311,2.28,15.65,6.59c8.36,4.29,7.6,5.54,9.36,7.08
		c1.77,1.5,1.77-1.54,2.51-2.3c0.77-0.74,2.8-3.77,3.029,0c0.271,3.8,3.021,4.31,3.021,4.31s-2.26,4.05-1.23,4.8
		c1,0.74,2.261,2.02,2.261,2.02l2.27-1.01l2.521,3.03l-2.521,2.01l-1.74-0.73c0,0-1.56,0.25-3.04,2.26
		c-1.54,2.01-0.779,4.03-0.779,4.03s4.55-1,5.56-1.77c1.01-0.75,2.521-2.01,4.311-4.05c1.76-2.01,2.029-2.26,2.779-3.26
		c0.73-1.02,2.271-0.25,3.03-0.25c0.74,0,5.05-0.26,5.05-0.26s2.521,2.02,5.311,4.54c2.77,2.53,4.04,1.53,4.04,1.53l-0.261-1.29
		l1.521-2.26c0,0,1.78,2.26,6.56,4.81c4.801,2.51,3.29,0.49,3.29,0.49s1.771-1.26,3.03-1.26s4.55-1,6.32-1
		c1.77,0,4.8,0.77,7.069,2.52c2.271,1.76,5.061,3.53,7.07,6.32c2.021,2.77,5.06,4.8,10.12,7.32c5.04,2.54,6.57,4.3,11.1,10.1
		c4.54,5.83,13.92,5.06,16.41,5.06c2.55,0,2.55-0.25,4.311,0.5c1.75,0.76,3.79,3.55,3.79,5.05c0,1.52,0.52,7.83,1.76,11.39
		c1.27,3.51,2.03,12.6,3.55,15.63C787.01,302.51,781.18,318.44,780.95,319.21z"/>
</g>
<image overflow="visible" width="166" height="357" xlink:href="rojo3.png"  transform="matrix(1.3861 0 0 1.3861 244.6934 169.6138)">
</image>
<g>
	<path fill="#09B9E8" d="M870.672,46.535c0,4.404-1.581,9.26-4.592,12.271c-2.259,2.221-5.195,3.539-8.696,3.539
		c-6.55,0-9.637-4.931-9.637-10.314c0-4.479,1.77-9.411,4.856-12.46c2.146-2.108,5.308-3.425,8.507-3.425
		C867.924,36.145,870.672,41.114,870.672,46.535z M854.899,41.34c-2.446,2.447-3.877,6.889-3.877,10.427
		c0,4.141,1.845,7.942,6.813,7.942c2.146,0,4.216-0.941,5.797-2.522c2.371-2.409,3.765-6.964,3.765-10.502
		c0-3.614-1.167-7.905-6.701-7.905C858.438,38.78,856.443,39.759,854.899,41.34z"/>
	<path fill="#09B9E8" d="M889.796,61.103c-1.431,0.64-3.727,1.205-6.588,1.205c-6.399,0-10.276-4.028-10.276-10.502
		c0-4.781,1.92-9.335,5.421-12.234c2.597-2.221,5.834-3.425,9.561-3.425c2.823,0,4.818,0.715,5.496,1.242l-1.016,2.522
		c-0.941-0.564-2.748-1.054-5.007-1.054c-2.635,0-5.308,1.016-7.266,2.861c-2.371,2.221-3.877,5.797-3.877,9.637
		c0,4.555,2.07,8.281,7.717,8.281c1.92,0,4.028-0.376,5.421-1.091L889.796,61.103z"/>
	<path fill="#09B9E8" d="M907.751,49.998h-9.223l-1.731,9.26h10.39l-0.527,2.673h-13.514l4.818-25.372h12.949l-0.527,2.672h-9.787
		l-1.543,8.131h9.223L907.751,49.998z M910.649,30.762l-5.119,4.442h-2.786l3.84-4.442H910.649z"/>
	<path fill="#09B9E8" d="M915.995,53.913l-4.028,8.018h-3.313l13.138-25.372h3.689l3.501,25.372h-3.2l-1.017-8.018H915.995z
		 M924.502,51.428l-0.979-7.34c-0.15-1.318-0.339-3.162-0.451-4.668h-0.075c-0.678,1.506-1.318,3.087-2.07,4.63l-3.803,7.378
		H924.502z"/>
	<path fill="#09B9E8" d="M932.22,61.931l4.818-25.372h3.426l5.834,14.38c1.092,2.861,1.694,4.894,2.222,7.077l0.075-0.038
		c0.15-2.296,0.414-4.404,1.054-7.943l2.56-13.476h2.975l-4.856,25.372h-3.087l-5.76-14.342c-1.242-3.124-1.807-4.931-2.371-7.303
		l-0.113,0.038c-0.263,2.372-0.677,4.894-1.317,8.357l-2.521,13.25H932.22z"/>
	<path fill="#09B9E8" d="M979.574,46.535c0,4.404-1.581,9.26-4.592,12.271c-2.259,2.221-5.195,3.539-8.696,3.539
		c-6.55,0-9.637-4.931-9.637-10.314c0-4.479,1.77-9.411,4.856-12.46c2.146-2.108,5.308-3.425,8.507-3.425
		C976.826,36.145,979.574,41.114,979.574,46.535z M963.802,41.34c-2.446,2.447-3.877,6.889-3.877,10.427
		c0,4.141,1.845,7.942,6.813,7.942c2.146,0,4.216-0.941,5.797-2.522c2.371-2.409,3.765-6.964,3.765-10.502
		c0-3.614-1.167-7.905-6.701-7.905C967.341,38.78,965.346,39.759,963.802,41.34z"/>
	<path fill="#09B9E8" d="M833.838,99.085l-4.028,8.018h-3.313l13.138-25.372h3.689l3.501,25.372h-3.2l-1.017-8.018H833.838z
		 M842.345,96.601l-0.979-7.34c-0.15-1.318-0.339-3.162-0.451-4.668h-0.075c-0.678,1.506-1.318,3.087-2.07,4.63l-3.803,7.378
		H842.345z"/>
	<path fill="#09B9E8" d="M856.499,84.442h-7.415l0.526-2.71h17.994l-0.527,2.71h-7.453l-4.292,22.661h-3.124L856.499,84.442z"/>
	<path fill="#09B9E8" d="M870.465,81.732h3.124l-4.329,22.661h10.239l-0.526,2.71h-13.326L870.465,81.732z"/>
	<path fill="#09B9E8" d="M887.855,99.085l-4.028,8.018h-3.313l13.138-25.372h3.689l3.501,25.372h-3.2l-1.017-8.018H887.855z
		 M896.362,96.601l-0.979-7.34c-0.15-1.318-0.339-3.162-0.451-4.668h-0.075c-0.678,1.506-1.318,3.087-2.07,4.63l-3.803,7.378
		H896.362z M901.558,75.935l-5.119,4.442h-2.786l3.84-4.442H901.558z"/>
	<path fill="#09B9E8" d="M904.08,107.104l4.818-25.372h3.426l5.834,14.38c1.092,2.861,1.694,4.894,2.222,7.077l0.075-0.038
		c0.15-2.296,0.414-4.404,1.054-7.943l2.56-13.476h2.975l-4.856,25.372H919.1l-5.76-14.342c-1.242-3.124-1.807-4.931-2.371-7.303
		l-0.113,0.038c-0.263,2.372-0.677,4.894-1.317,8.357l-2.521,13.25H904.08z"/>
	<path fill="#09B9E8" d="M936.566,84.442h-7.415l0.526-2.71h17.994l-0.527,2.71h-7.453l-4.292,22.661h-3.124L936.566,84.442z"/>
	<path fill="#09B9E8" d="M953.619,81.732l-4.818,25.372h-3.125l4.818-25.372H953.619z"/>
	<path fill="#09B9E8" d="M972.026,106.275c-1.431,0.64-3.727,1.205-6.588,1.205c-6.399,0-10.276-4.028-10.276-10.502
		c0-4.781,1.92-9.335,5.421-12.234c2.597-2.221,5.834-3.425,9.561-3.425c2.823,0,4.818,0.715,5.496,1.242l-1.016,2.522
		c-0.941-0.564-2.748-1.054-5.007-1.054c-2.635,0-5.308,1.016-7.266,2.861c-2.371,2.221-3.877,5.797-3.877,9.637
		c0,4.555,2.07,8.281,7.717,8.281c1.92,0,4.028-0.376,5.421-1.091L972.026,106.275z"/>
	<path fill="#09B9E8" d="M998,91.708c0,4.404-1.581,9.26-4.592,12.271c-2.259,2.221-5.195,3.539-8.696,3.539
		c-6.55,0-9.637-4.931-9.637-10.314c0-4.479,1.77-9.411,4.856-12.46c2.146-2.108,5.308-3.425,8.507-3.425
		C995.252,81.318,998,86.287,998,91.708z M982.228,86.513c-2.446,2.447-3.877,6.889-3.877,10.427c0,4.141,1.845,7.942,6.813,7.942
		c2.146,0,4.216-0.941,5.797-2.522c2.371-2.409,3.765-6.964,3.765-10.502c0-3.614-1.167-7.905-6.701-7.905
		C985.767,83.953,983.771,84.932,982.228,86.513z"/>
</g>
<g>
	<path fill="#09B9E8" d="M44.135,477.548c0,4.312-1.548,9.064-4.496,12.013c-2.211,2.174-5.085,3.464-8.513,3.464
		c-6.412,0-9.434-4.827-9.434-10.097c0-4.386,1.732-9.213,4.754-12.197c2.101-2.063,5.196-3.354,8.328-3.354
		C41.445,467.377,44.135,472.241,44.135,477.548z M28.695,472.462c-2.396,2.396-3.796,6.744-3.796,10.208
		c0,4.053,1.806,7.775,6.67,7.775c2.101,0,4.127-0.922,5.675-2.47c2.322-2.358,3.685-6.816,3.685-10.28
		c0-3.538-1.142-7.739-6.559-7.739C32.159,469.956,30.206,470.914,28.695,472.462z"/>
	<path fill="#09B9E8" d="M62.858,491.809c-1.4,0.626-3.648,1.179-6.449,1.179c-6.265,0-10.06-3.942-10.06-10.281
		c0-4.68,1.879-9.139,5.306-11.976c2.543-2.175,5.712-3.354,9.36-3.354c2.764,0,4.717,0.7,5.38,1.216l-0.995,2.469
		c-0.921-0.553-2.69-1.031-4.901-1.031c-2.58,0-5.196,0.995-7.112,2.801c-2.321,2.174-3.795,5.675-3.795,9.434
		c0,4.458,2.027,8.106,7.554,8.106c1.879,0,3.943-0.368,5.307-1.068L62.858,491.809z"/>
	<path fill="#09B9E8" d="M80.438,480.938h-9.028l-1.695,9.065h10.17l-0.516,2.616H66.141l4.717-24.837h12.676l-0.516,2.616h-9.581
		l-1.511,7.96h9.028L80.438,480.938z M83.276,462.107l-5.012,4.349h-2.727l3.759-4.349H83.276z"/>
	<path fill="#09B9E8" d="M88.511,484.771l-3.943,7.849h-3.243l12.861-24.837h3.611l3.427,24.837h-3.132l-0.995-7.849H88.511z
		 M96.839,482.338l-0.958-7.186c-0.147-1.29-0.332-3.096-0.442-4.569h-0.074c-0.663,1.474-1.29,3.021-2.027,4.532l-3.722,7.223
		H96.839z"/>
	<path fill="#09B9E8" d="M104.396,492.619l4.717-24.837h3.353l5.712,14.077c1.068,2.8,1.658,4.79,2.174,6.928l0.073-0.037
		c0.147-2.248,0.406-4.312,1.032-7.775l2.505-13.192h2.911l-4.753,24.837H119.1l-5.638-14.04c-1.216-3.059-1.769-4.827-2.322-7.148
		l-0.11,0.036c-0.258,2.322-0.664,4.791-1.29,8.182l-2.469,12.971H104.396z"/>
	<path fill="#09B9E8" d="M150.756,477.548c0,4.312-1.548,9.064-4.496,12.013c-2.211,2.174-5.085,3.464-8.513,3.464
		c-6.412,0-9.434-4.827-9.434-10.097c0-4.386,1.732-9.213,4.754-12.197c2.101-2.063,5.196-3.354,8.328-3.354
		C148.066,467.377,150.756,472.241,150.756,477.548z M135.316,472.462c-2.396,2.396-3.796,6.744-3.796,10.208
		c0,4.053,1.806,7.775,6.67,7.775c2.101,0,4.127-0.922,5.675-2.47c2.322-2.358,3.685-6.816,3.685-10.28
		c0-3.538-1.142-7.739-6.559-7.739C138.78,469.956,136.827,470.914,135.316,472.462z"/>
	<path fill="#09B9E8" d="M23.665,512.377c1.4-0.331,3.354-0.553,5.38-0.553c2.396,0,4.68,0.59,6.081,1.917
		c1.179,1.105,1.806,2.542,1.806,4.495c0,2.801-1.364,5.122-2.985,6.485c-1.917,1.622-4.717,2.358-7.518,2.358
		c-0.921,0-1.769-0.073-2.542-0.184l-1.879,9.949h-3.021L23.665,512.377z M24.365,524.316c0.884,0.185,1.584,0.258,2.469,0.258
		c4.201,0,7.001-2.616,7.001-6.116c0-2.948-2.1-4.128-4.938-4.128c-1.216,0-2.138,0.111-2.69,0.258L24.365,524.316z"/>
	<path fill="#09B9E8" d="M40.36,528.997l-3.943,7.849h-3.243l12.861-24.837h3.611l3.427,24.837h-3.132l-0.995-7.849H40.36z
		 M48.688,526.564l-0.958-7.186c-0.147-1.29-0.332-3.096-0.442-4.569h-0.074c-0.664,1.474-1.29,3.021-2.027,4.532l-3.722,7.223
		H48.688z"/>
	<path fill="#09B9E8" d="M72.644,536.035c-1.4,0.626-3.648,1.179-6.449,1.179c-6.265,0-10.06-3.942-10.06-10.281
		c0-4.68,1.879-9.139,5.306-11.976c2.543-2.175,5.712-3.354,9.36-3.354c2.764,0,4.717,0.7,5.38,1.216l-0.995,2.469
		c-0.921-0.553-2.69-1.031-4.901-1.031c-2.58,0-5.196,0.995-7.112,2.801c-2.321,2.174-3.795,5.675-3.795,9.434
		c0,4.458,2.027,8.106,7.554,8.106c1.879,0,3.943-0.368,5.307-1.068L72.644,536.035z"/>
	<path fill="#09B9E8" d="M83.665,512.009l-4.717,24.837h-3.059l4.717-24.837H83.665z M88.086,506.334l-5.048,4.349h-2.69
		l3.722-4.349H88.086z"/>
	<path fill="#09B9E8" d="M89.23,512.009h12.603l-0.479,2.616h-9.544l-1.621,8.365h8.807l-0.516,2.616h-8.77l-2.138,11.239h-3.058
		L89.23,512.009z"/>
	<path fill="#09B9E8" d="M109.389,512.009l-4.717,24.837h-3.059l4.717-24.837H109.389z"/>
	<path fill="#09B9E8" d="M127.409,536.035c-1.4,0.626-3.648,1.179-6.449,1.179c-6.265,0-10.06-3.942-10.06-10.281
		c0-4.68,1.879-9.139,5.306-11.976c2.543-2.175,5.712-3.354,9.36-3.354c2.764,0,4.717,0.7,5.38,1.216l-0.995,2.469
		c-0.921-0.553-2.69-1.031-4.901-1.031c-2.58,0-5.196,0.995-7.112,2.801c-2.321,2.174-3.795,5.675-3.795,9.434
		c0,4.458,2.027,8.106,7.554,8.106c1.879,0,3.943-0.368,5.307-1.068L127.409,536.035z"/>
	<path fill="#09B9E8" d="M152.838,521.774c0,4.312-1.548,9.064-4.496,12.013c-2.211,2.174-5.085,3.464-8.513,3.464
		c-6.412,0-9.434-4.827-9.434-10.097c0-4.386,1.732-9.213,4.754-12.197c2.101-2.063,5.196-3.354,8.328-3.354
		C150.148,511.604,152.838,516.468,152.838,521.774z M137.398,516.688c-2.396,2.396-3.796,6.744-3.796,10.208
		c0,4.053,1.806,7.775,6.67,7.775c2.101,0,4.127-0.922,5.675-2.47c2.322-2.358,3.685-6.816,3.685-10.28
		c0-3.538-1.142-7.739-6.559-7.739C140.862,514.183,138.909,515.141,137.398,516.688z"/>
</g>
</svg>
