<?xml version="1.0" encoding="utf-8"?>
<!-- Generator: Adobe Illustrator 15.1.0, SVG Export Plug-In . SVG Version: 6.00 Build 0)  -->
<!DOCTYPE svg PUBLIC "-//W3C//DTD SVG 1.1//EN" "http://www.w3.org/Graphics/SVG/1.1/DTD/svg11.dtd">
<svg version="1.1" xmlns="http://www.w3.org/2000/svg" xmlns:xlink="http://www.w3.org/1999/xlink" x="0px" y="0px" width="983px"
	 height="690px" viewBox="0 0 983 690" enable-background="new 0 0 983 690" xml:space="preserve">
<g id="Layer_1">
	<image overflow="visible" width="983" height="690" xlink:href="mapa2.png" >
	</image>
</g>
<g id="Layer_2">
	<rect fill="#61747E" width="983" height="690"/>
	<g>
		<path fill="#C7BCB1" d="M261.441,20.465l0.061,0.136C261.502,20.601,261.194,20.663,261.441,20.465z"/>
		<path fill="#C7BCB1" d="M274.143,12.437h0.53C274.414,12.45,274.143,12.437,274.143,12.437z"/>
		<path fill="#C7BCB1" d="M446.272,586.326c0,0,0.012,0,0.024,0C446.321,586.365,446.272,586.326,446.272,586.326z"/>
		<path fill="#C7BCB1" d="M160.79,59.85l0.61,0.83v1.44l-1.02,0.82l-0.41,1.85c0,0,0,0-2.26,0.61c-2.26,0.62-2.67-2.46-2.67-2.46
			c1.64-1.43-9.05-11.3-9.05-11.3l-2.05-2.06l1.43-1.23c0,0,0,0,0.62-1.45c0.62-1.43,0.21-2.25,0.21-2.25
			c3.08-0.83-0.21-5.34-0.21-5.34c-2.47-0.83-4.32-4.53-4.32-4.53l-3.49-0.61c-3.08-2.68-7.4-7.81-7.4-7.81h5.76l1.85,1.85
			c1.98-0.2-0.61-3.44-0.81-3.69c0.11,0.09,0.89,0.52,1.84-2.9c1.02-3.69-7.4-10.48-7.4-10.48l-0.62-0.81l0.41-1.24l-0.62-1.03
			l1.65-2.47l-1.44-0.4l-0.41-1.24l1.24-1.64l-1.45-1.65c0,0,0.1-0.26,0.2-0.66h10.08v4.98l-1.24,3.08c0,0,1.04,1.85,4.53,8.22
			c3.49,6.38,2.47,10.08,2.47,10.08c3.7,3.08,2.67,6.36,3.91,7.19c1.23,0.83,3.49,3.29,2.87,5.55c-0.62,2.25,0.41,8.22,0.41,8.22
			l0.82,0.82l0.21,2.06c0,0-2.67-0.62-0.62,3.49c2.05,4.12,3.49,1.23,3.49,1.23l1.65,1.65L160.79,59.85z"/>
		<path fill="#C7BCB1" d="M666.61,323.82c-0.15,0.45-2.62,3.54-2.78,4.77s-7.71,8.94-8.17,8.94s-2.15,2.16-2.15,3.85
			c0,1.7-6.02,12.18-6.02,12.18l-2.61,0.931c0,0,0.29-1.69-2.17-1.4c-2.47,0.32,1.08,1.851,1.08,1.851s-0.31,0.939-1.08,1.56
			c-0.77,0.61-1.53,6.16-1.53,6.16l1.23,1.689c0,0-2.17,2.311-2.17,3.08c0,0.78,1.85,0.931,1.85,4.78c0,3.86,0.16,1.85,0.16,1.85
			l1.23,4.021c0,0,1.239,1.85,0.779,3.229c-0.47,1.381-2.47,2.94-2.319,4.46c0.149,1.561,0.47,4.171,0.47,4.171
			s0.62,3.229-1.851,5.859c-2.47,2.63-0.779,8.63-0.779,8.63s0.62,4.011-1.54,5.391c-2.16,1.39-1.23,4.779-1.7,5.71
			c-0.46,0.92-1.69,1.39-2.92,2.63c-1.23,1.229,0.16,2.76-1.23,5.229c-1.399,2.46,0.771,3.4,0.771,3.4s-1.851,0.91-2.63,1.07
			c-0.771,0.159-2.92,2.47-2.92,2.47l-1.7,1.54c0,0,0.77,3.08-0.15,2.46c-0.93-0.61-6.63,0.62-6.63,0.62l-0.77-1.23
			c0,0-0.931,1.7-2.32,1.7c-1.38,0-1.99-0.93-1.99-0.93l-0.939,1.39l-1.851,0.78l-0.149-1.24l-4.011,0.15l2.16,1.229
			c0,0-2.93,2.94-3.55,2.94c-0.61,0-1.85,1.38-1.85,1.38l1.239,0.77l-0.46,1.08c0,0-1.239,0-2.31,0c-1.08,0,0.77-0.47-3.4,0
			c-0.239,0.021-0.479,0.07-0.729,0.15c-4.25,1.2-10.99,8.479-10.99,8.479l-0.45,2.471l-2.31,0.47l-2.01,1.99l1.229,1.239
			l-0.45,1.851c0,0-1.09,1.54-0.939,2.46c0.16,0.93,1.7,7.55,3.08,9.56c1.399,2.011,0.159,8.63-2.301,10.03
			c-2.47,1.38-5.1,7.4-5.1,7.4c0,12.62-11.55,21.58-11.55,21.58s-0.16-1.561-0.16,0.609c0,2.15-3.38,9.55-3.85,9.71
			c-0.471,0.16-1.08-0.779-1.08,1.391c0,2.149-6.931,9.55-7.4,9.55c-0.46,0-2.47-0.15-3.54-0.771c-1.08-0.62-3.09,0-3.7,0.311
			c-0.62,0.31-1.85,1.229-3.239-0.62c-1.391-1.85-4-0.92-5.4-0.92c-1.39,0-2-1.54-2.46-2c-0.46-0.47-1.69,0-3.7-0.16
			s-0.93-1.07-1.39-1.54c-0.37-0.38-1.141-1.15-2.38-1.35c-0.301-0.051-0.641-0.061-1-0.03c-1.851,0.14-0.32,2.3,0,2.76
			c0.29,0.47,1.38,1.7,2.3,2.17c0.93,0.46,1.24,1.07,1.689,1.69c0.471,0.62,2.011,1.069,3.7,1.229c1.71,0.16,1.09,0.931,1.561,1.4
			c0.449,0.45,1.229,0.76,2,0.76c0.76,0,0.46,2,0.46,2s-0.931,2.62-0.16,3.24c0.78,0.62,0.93,1.85,0.93,1.85l1.23,1.23
			c0,0,0.76,0.17,1.54,1.08c0.779,0.939,0.93,1.39,1.689,1.7c0.78,0.31,0.16,2.939,0.16,2.939s-0.61,1.23-0.61,2.76
			c0,1.551-1.689,1.551-2.63,2.62c-0.91,1.08,0,3.7,0,3.7c-7.08,6.17-17.56,6.17-19.569,6.17H516.3c-0.76,0-1.689-0.62-4.31-1.229
			c-2.61-0.62-0.62,1.54-0.15,2.31c0.47,0.771,1.38,2.16,2.771,2.78c1.399,0.62,1.399,3.229,0,3.7
			c-1.391,0.46-0.301,4.77,1.239,5.55c1.54,0.76-0.159,2.14-0.93,2.609c-0.76,0.471-1.38,1.54-1.38,1.54s-4.93,1.08-6.94-0.3
			c-2.01-1.38-4.77-1.55-6.619-2.47c-1.851-0.93-3.551,2.93-1.091,4.01c2.471,1.07,3.23,6.78,3.23,6.78l1.56,0.78
			c0,0,0.61,0.29,2.141,0.76c1.56,0.47,1.239-0.311,1.239-0.311s0.61-0.77,1.391-1.39s1.54-0.15,1.85,0.32
			c0.311,0.46,1.23,1.38,2.46,1.529c1.24,0.16,0.62,3.7,0.62,3.7l-2.92,0.32c0,0-0.94-0.62-1.39-0.62c-0.46,0-0.78-1.23-2.16-1.55
			c-1.38-0.3-1.09,0.319-2.16,1.55c-1.07,1.24,0.92,0.77,1.69,1.24c0.779,0.45,1.699,0.45,1.699,0.45s0.62,0.93-0.76,2.159
			c-1.399,1.23-3.7,2.94-2.47,4.62c1.229,1.7,1.689,4.16,1.689,4.16s-0.31,1.39-1.689,2.32c-1.391,0.92,1.38,1.09,1.38,1.09
			s3.55,2.46-0.47,2.14c-3.99-0.3-4.61,0.78-7.24,3.24c-2.62,2.47-1.23,6.48-0.3,7.4c0.92,0.93,4.779,3.699,5.08,4.63
			c0.319,0.92,5.09,0.76,6.159,0.76c1.091,0,3.24,0.78,3.24,0.78s-1.069,3.39-0.149,4.479c0.93,1.07,1.229,1.99-0.301,2.46
			c-1.56,0.46-4.17,5.7-5.25,6.17c-1.079,0.45-3.229,2.301-0.619,4.61c2.63,2.32,0,5.25,0,5.25s-2,0.15-2.15-0.47
			c-0.16-0.61,0-1.54-1.08-1.851c-1.09-0.3-0.77,1.391-0.77,1.391l0.92,1.229c0,0-0.46,2.32-1.08,3.24
			c-0.61,0.93,0.16,3.25,0.31,3.86c0.15,0.62,3.391,2.62,3.391,2.62s-4.471,1.079-2.15,1.539c2.31,0.461,5.08,1.54,6.16,2.771
			c1.09,1.24,1.38,2.78,1.38,2.78s-1.38,1.229-1.23,1.85c0.16,0.61,2.471,0.61,2.471,0.61l3.08,2.47c0,0-2.761,1.54-0.771,1.54
			c2,0,7.25,4.32,8.64,5.55c1.381,1.23,1.851,1.54,4.311,2.771c2.47,1.239,2,1.399,3.7,2.31c1.699,0.94,2.16,0.94,5.08,1.39
			c2.939,0.46,2.319,0.62,2.79,0.62c0.229,0,0.64,0.601,0.8,1.32h-15.99c-0.82-0.55-2.53-0.94-3.93-1.32
			c-1.62-0.43,0.13,0.811,0.83,1.32h-6.92c0.02-0.03,0.05-0.06,0.079-0.09c1.23-1.391,0.61-0.92-0.93-1.391
			c-1.54-0.46-1.39,1.851-4,0.471c-2.62-1.38-1.39,0-2.939,0.31c-1.53,0.311-0.301-1.24-0.771-1.689
			c-0.46-0.471-1.229,0.449-3.229,0.76c-2.011,0.31-1.391-0.92-3.4-1.7c-2-0.76,2.79-0.29,3.24-0.29c0.46,0,2.63-0.47,2.63-0.47
			s-0.78-0.93-2.17-1.55c-1.38-0.61,0.939-0.771,0.939-0.771s1.23,0,1.53-0.46c0.32-0.45-0.3-0.92-1.08-1.689
			c-0.77-0.771,1.08-0.471,2.311-0.32c1.229,0.16,0.779,1.56,0.939,2.939c0.14,1.381,0.29,1.851,0.29,1.851s1.85-0.47,3.55-0.47
			c1.71,0,1.851,0.939,4.011,0.939c2.159,0,0,0-0.16-0.939c-0.15-0.91-2.141-0.46-2.141-0.46s-1.239,0-1.399-0.62
			c-0.16-0.61-1.69-0.61-2.15-1.391c-0.47-0.76-1.55-0.76-2.16-1.529c-0.62-0.771,1.07-0.771,1.54-0.931
			c0.471-0.149,0.15-0.92,1.7-1.529c1.53-0.62,0.29-1.711,0.29-1.711s-1.68,0.15-2.46,0.471c-0.771,0.3-1.69,0.3-2.31,0.46
			c-0.61,0.16-1.851-0.311-1.851-0.311l-0.3-1.38l-0.47-0.779l0.77-0.45c0,0-0.16-1.09,0.311-1.4c0.47-0.3,1.38-0.45,1.38-0.45
			s-2.301-0.779,0.47-1.55c2.78-0.77,0.47-0.77-0.15-1.24c-0.609-0.46-1.39,0-2.31,0.78c-0.93,0.78-1.55,0.61-3.561,1.69
			c-1.989,1.08-0.609,0.77,0.16,1.55c0.78,0.76,0.311,1.53,0.311,2s0.149,0.92,0.62,1.54c0.47,0.62,0.149,1.069,0.31,2.16
			c0.16,1.08-0.16,0.76-0.62,0.76s-1.069,0.16-2.77,0c-1.71-0.15-1.851-0.29-1.851-0.76c0-0.471-0.93-0.311-2-0.471
			c-1.09-0.149-0.939-1.689-0.939-1.689s0.62-0.78,1.39-1.851c0.78-1.069,0.93-0.46,2.01-0.93c1.08-0.46,1.24-1.08,0.15-1.99
			c-1.08-0.939-1.38,1.07-2,1.53c-0.61,0.46-1.85,0.771-2.62,1.23c-0.78,0.47-0.93,1.229-0.93,1.229s-1.54,0.16-2.46-0.29
			c-0.93-0.47-0.15-1.71-0.15-1.71s0.76-0.92-1.55-0.92s-2.77-0.92-3.7-2.3c-0.92-1.4-1.69,0-2.47-1.09
			c-0.77-1.08-0.91-0.311-1.07-1.7c-0.16-1.38,2.46-0.15,2.46-0.15s1.54-0.31,1.4-1.229c-0.16-0.931,0.61-0.15,1.69-1.851
			c1.07-1.699-2.63-0.62-2.63,0c0,0.61-0.77,2.15-0.77,2.15s-1.54-0.92-2.31-1.07c-0.77-0.16-1.39-1.85-1.39-1.85
			s-0.61,0.149-2.61-0.78c-2.01-0.92-0.78-1.39-0.78-1.39s2.47-0.91,0-1.53c-2.46-0.61-2.62-0.78-1.85-2.63c0.78-1.85,0,0,1.4-0.92
			c1.38-0.93-0.62-1.08-0.62-1.08s-0.78,1.08-1.55,0.32c-0.77-0.78-1.08,0.14-1.39,1.069c-0.3,0.92,0,0,0.31,1.07
			c0.31,1.09-0.92,1.09-1.69,1.09c-0.77,0,0.15-0.77-1.85-1.55c-2.01-0.771-1.39-1.07-0.93-1.54c0.47-0.46,2.17,0.15,1.55-0.46
			c-0.62-0.62,0.62-0.62,1.23-1.24c0.62-0.609,1.24-0.76,1.24-0.76s-1.09-0.311-3.09-0.771c-2.01-0.47-0.93-1.55-0.16-2.319
			c0.78-0.76,1.54-1.23,1.54-1.23s-1.7-0.149-1.84-1.38c-0.1-0.84,0.22-0.979,0.43-0.979c-0.19-0.17-0.43-0.721-0.43-2.57
			c0-2.93-1.85,0.15-1.85,0.15l-0.31,2.46c0,0-1.08,2.79-1.54,0.319c-0.47-2.46-0.62-0.609-0.62-0.609s-0.31,0.76-1.23,2.3
			c-0.93,1.54-1.09-0.61-1.09-0.61s-0.15-0.78-0.91-0.78c-0.78,0-0.47-1.689,1.07-2.149c1.54-0.46,0,0-0.46-0.32
			c-0.46-0.29,0-0.76,0.15-1.53c0.15-0.77-0.15-0.609-0.15-0.609s0-0.78-0.16-1.24c-0.16-0.46-1.23,0.771-1.39,1.24
			c-0.15,0.45-0.97,1.479-0.97,1.479s-3.28-2.67-0.2-3.39s0.81-1.74,0.81-1.74c-4.72,1.021-2.25-0.62-3.39-1.55
			c-1.12-0.92-0.61-1.65-0.61-2.46c0-0.83,1.13-1.04,1.96-1.34c0.81-0.311,1.12,0.92,2.15,1.439c1.03,0.521,2.05,2.16,2.36,2.87
			c0.31,0.73,1.85,2.16,1.85,2.16l0.73-1.64v-1.33c0,0-2.89-1.141-3.2-1.141c-0.3,0-0.92-1.13-0.92-1.13l0.73-1.029
			c0,0,1.33,0.409,2.15,0.52c0.82,0.1,1.13,0.41,2.16,1.03c1.03,0.609,1.03,0.3,1.95-0.62c0.93-0.93-1.13-1.33-1.85-1.75
			c-0.71-0.41-2.46-0.2-3.39-0.82c-0.93-0.609-0.52-1.13-0.52-1.13s-1.12-0.83-1.95-1.02c-0.82-0.21-0.3-0.931,1.03-2.78
			c1.34-1.85-0.51,0.82-2.36-0.82c-1.85-1.64,0.72-4.529,0.72-4.529s0.92,1.229,1.23,0.42c0.31-0.83,0.21-1.54,0.72-2.471
			c0.51-0.92-1.55-0.62-1.95-0.92c-0.41-0.31,0.4-1.96,0.4-1.96s-1.02-1.03-1.43-2.16c-0.42-1.12,1.34,0.311,1.95,0
			c0.62-0.31,1.85-0.409,2.47-1.33c0.62-0.93-2.37-0.52-4.32-1.239c-1.95-0.71,1.02-2.051,1.02-2.051s0.52-0.199,1.24-1.029
			c0.73-0.82,0.11-1.851,0.31-2.78c0.21-0.92-0.62-0.4-1.64-0.61c-1.03-0.21-1.24-1.02-2.06-1.14c-0.82-0.09-2.05-0.61-1.54-1.84
			c0.51-1.24,1.13-1.03,1.54-2.05c0.42-1.04-0.31-1.141-1.43-1.44c-1.14-0.31-1.24-1.76-1.35-2.37c-0.1-0.62,1.14-2.779,1.24-3.09
			c0.11-0.3,0.21-0.92-0.93-1.33c-1.12-0.41,0,0-0.41-0.92c-0.4-0.93,0-2.47,0-2.47c2.37-0.101,0.31-2.37,0.31-2.37
			c-3.18,0.729-1.23-0.4-2.06-1.43c-0.81-1.03,0.52-0.61,1.04-1.131c0.5-0.52-1.14-1.029-2.68-1.13
			c-1.54-0.109-0.71,0.721-1.02,1.03c-0.29,0.28-2.28,0.39-2.55,0.41c-0.04-0.05-0.53-0.48-3.31-2.68
			c-3.91-3.08-1.75-5.96-3.08-8.631c-1.35-2.67-0.31-2.359,1.02-4.109c1.33-1.75-0.4-2.87-0.4-4.93c0-2.061-1.66-2.98-2.78-4.11
			c-1.13-1.13-1.04-2.46-1.75-4.43c-0.72-1.94-0.83-1.94-1.64-4.721c-0.83-2.77-1.34-2.16,0.5-2.87c1.85-0.729,0.83-1.35,0.52-2.159
			c-0.3-0.83,0-2.061,0.83-2.771c0.81-0.729,0.5-2.78,0.5-2.78l-1.43-2.47c1.55-0.41,1.95-1.03,1.95-1.03s-3.29,0.21-0.61-3.279
			c2.67-3.5,1.02-6.28,0.71-6.9c-0.31-0.61-2.05-5.85,0-6.05c2.06-0.21,0.52-3.391-0.1-3.601c-0.61-0.21-0.71-0.829,0-3.909
			c0.72-3.08-5.45-16.54-5.65-17.67c-0.2-1.141-0.72-0.521,1.55-4.11c2.25-3.601-1.66-6.78-2.68-7.71c-1.02-0.92-0.1-2.88,0.62-3.91
			c0.71-1.02,1.02-1.94,1.64-3.08c0.61-1.13-0.72-1.85-1.13-2.56c-0.41-0.73,0.31-2.061,0.72-2.471c0.41-0.42,0.21-1.85-0.21-2.47
			c-0.41-0.61-0.31-5.35-0.31-6.16c0-0.83,1.04-1.96,1.04-3.39c0-1.45-1.44-2.16-1.85-3.29c-0.42-1.14,0-2.47,1.12-3.7
			c1.14-1.24,0.93-1.76,0.52-2.26c-0.41-0.521-0.93-0.62-0.93-4.22c0-3.601-0.51-6.471-1.54-7.4c-1.02-0.92-1.23-2.25-1.44-2.98
			c-0.2-0.72,0.92-0.72,1.96-2.159c1.02-1.431,0.62-7.4,0.81-10.17c0.21-2.78-0.4-1.641-1.54-5.44c-1.12-3.81-0.71-4.84-1.12-8.44
			c-0.42-3.59-0.73-3.89-1.44-5.64c-0.72-1.76-0.93-4.42-0.41-5.15c0.32-0.439,0.12-0.81-0.15-1.05
			c-0.16-0.14-0.35-0.239-0.47-0.279c-0.3-0.101-0.92-1.141-0.92-1.141c-4.43-1.939-8.23-6.359-9.05-7.49
			c-0.82-1.14-6.17-5.149-7.19-5.449c-1.03-0.311-4.42-1.431-6.58-3.391c-2.15-1.95-6.37-3.279-9.97-5.04
			c-3.59-1.75-5.34-4.52-7.91-7.09c-2.57-2.56-3.81-5.14-4.73-6.57c-0.93-1.439,0.82-2.77,1.03-3.699c0.2-0.92-4.62-8.431-5.45-8.74
			c-0.82-0.311-2.25-2.97-2.25-2.97s0-2.99-1.14-3.811c-1.13-0.82-2.67-3.28-3.18-4.01c-0.52-0.72-2.37-6.06-3.19-6.67
			c-0.82-0.62-1.24-2.99-1.85-3.91c-0.62-0.93-1.95-3.49-2.05-5.04c-0.11-1.54-2.16-4.11-2.68-5.35c-0.51-1.23-3.08-4-3.08-4
			s-4.72-9.04-7.3-11.61c-2.57-2.58-6.57-2.98-6.57-2.98l0.3-2.26c0.83-1.35,1.03-0.62,2.16-1.13c1.14-0.52-1.13-2.88-1.13-2.88
			l-2.05-1.44c0,0,0.31-1.54-0.61-2.16c-0.93-0.61-0.52-1.54-1.04-2.06c-0.51-0.5,1.13-2.05,0.92-2.66
			c-0.19-0.62,1.04-1.65,1.24-1.96c0.21-0.31,1.13-0.93,1.44-1.85c0.31-0.93,2.37-2.26,2.68-2.26c0.3,0,3.89-4.01,3.89-4.01
			s-0.31-2.25,0.42-3.39c0.72-1.13,0-1.95-0.52-2.37c-0.51-0.4-1.33,0.31-1.75,0.62c-0.4,0.31-0.4,1.54-0.4,1.54l-0.62,0.62
			c0,0-1.23-0.72-1.23-1.12c0-0.42-0.83-1.45-0.83-1.45l-1.54-0.61l-0.2-1.03c0,0,0,0,0.82-1.03c0.82-1.03,0-2.47,0-2.47l-0.41-0.31
			c0,0-0.62-2.25,0.1-2.97c0.72-0.73-0.1-1.13-0.1-1.13s-0.52-1.85-0.41-2.47c0.1-0.62,1.54-1.54,1.95-1.75
			c0.41-0.2,1.64-0.1,2.06-0.82c0.41-0.72-1.75-0.51-1.75-0.51s-0.21-2.37,0.1-2.57c0.3-0.21,0.92-1.03,1.23-1.54
			c0.31-0.52,1.96-0.92,2.68-2.06c0.71-1.13-0.31-0.52-1.14-0.92c-0.81-0.41-0.31-3.8-0.31-3.8c1.96-0.52,2.37-0.83,2.37-0.83
			c4.42-2.16,5.76-2.87,7.4-3.29c1.64-0.41-1.33-1.95-1.95-2.05c-0.62-0.11,0.1-1.44,0.62-2.37c0.5-0.92,1.85,0.31,2.46-0.21
			c0.62-0.5-0.41-0.92-0.41-2.46s1.13-2.78,2.15-2.97c1.04-0.21,2.58,0.92,3.91-0.83c1.33-1.75,2.06-4.32,3.7-7.19
			c1.64-2.89,1.64-1.85,1.33-3.5c-0.3-1.64-2.04-0.41-2.04-2.36c0-1.96,0.5-2.36,1.43-3.91c0.92-1.54-0.82-1.64-0.82-1.64
			s-0.51-2.67-0.61-3.81c-0.11-1.12,0.31-1.33,0.31-1.33s0.61-0.92,1.23-1.64c0.61-0.73,0.2-1.13,0.2-1.13s-1.64-0.83-1.64-1.14
			s1.02-1.12,1.85-1.85c0.82-0.71-0.1-1.33-0.93-2.16c-0.83-0.81-0.92-1.33-1.02-1.94c-0.11-0.62-2.27-2.06-2.58-2.99
			c-0.31-0.92-1.23-2.97-2.57-3.18c-1.33-0.21-0.61-2.16-0.61-2.16s0.52-0.52,0.52-1.23c0-0.72,1.54-1.85,1.54-1.85
			s1.85-1.14,0.31-1.44c-1.55-0.31-4.07-2.73-4.07-2.73c-2.15-3.46-6.32-0.76-6.32-0.76c-2.93,6.24-4.86,2.61-5.7,4.39
			c-0.85,1.77-0.46,1.62,1.69,3.77c2.16,2.17,0.7,0.85,0.93,2.24c0.23,1.39-2.78,2.54-3.47,2.62c-0.7,0.07-3.55-0.46-3.93-0.69
			c-0.38-0.24-1-3.09-1.23-3.09c-0.24,0-2.47-0.69-2.47-0.69s-1.47-0.54-2.39-1.62c-0.93-1.08-1-2-2.16-2.31
			c-1.15-0.31-2.31,0-3.08-0.46s-2.85-4.31-3.54-2.08s-2.78,1.31-3.01,1.31s-1.78-2.4-1-2.47c0.77-0.07,2.61-1.54,1.38-2.47
			c-1.23-0.92-5.52-4-5.52-4c-1.85-0.83-2.47-4.32-3.09-5.55c-0.61-1.24-2.46,0.61-2.46,0.61l1.44,1.45h0.83l0.19,2.04
			c0,0,0,0-2.46,0c-2.47,0-2.05-1.85-2.05-1.85c-3.7-0.19-1.85-3.89-1.85-3.89s3.28-1.24,1.43-2.06c-1.85-0.83,0-2.47,0-2.47
			s0.36-1.02,0.9-1.86h0.01c0.62-0.98,1.5-1.72,2.38-0.4c1.64,2.47,2.68-2.26,1.24-2.46c-1.45-0.21-2.47-2.89-2.47-2.89
			c-0.83,0-3.08-2.46-3.08-2.46s-1.45-2.05-2.47-1.44c-1.02,0.62,0.41,2.26,1.02,2.26c0.62,0,1.85,1.03,1.85,1.03l1.04,4.31
			c0,0,1.43,1.04-0.42,1.65c-1.85,0.62-4.32-3.7-5.13-4.52c-0.83-0.83-1.85-2.87-4.53-5.34c-1.11-1.03-1.69-1.67-1.98-2.06
			c-0.41-0.55-0.27-0.62-0.27-0.62s1.02-1.02,1.02-3.29c0-2.26-2.06-0.41-2.47,0.42c-0.4,0.81-3.08,0-4.1,0
			c-1.04,0-4.53-1.23-5.35-2.06c-0.82-0.83-2.47-0.21-3.49-0.41c-1.03-0.21-3.09-2.88-3.7-3.5c-0.62-0.62-4.94-0.81-8.02-1.02
			c-0.64-0.04-1.75-0.83-3.11-2.06c-5.17-4.65-13.94-15.61-13.94-15.61s-2.89-0.62-3.51-1.24c-0.61-0.62-1.64,0.2-1.64,1.03
			c0,0.82-2.87,1.85-2.87,1.85c-10.9,8.22-24.05-4.53-24.05-4.53l-4.31-0.2c-1.04-1.23-3.7-2.27-3.7-2.27
			c-9.67-3.69-10.9-8.42-10.9-8.42c-5.13,2.68-11.92-3.29-11.92-3.29c-1.03-2.26-4.73-5.96-5.55-7.19c-0.82-1.23-2.26,0-2.26,0
			s-3.09-5.55-4.73-6.78c-1.64-1.24-0.21-2.88-0.21-2.88c2.06,0.82,4.74-1.65,4.74-1.65s-1.65-0.81-1.85-1.64
			c-0.21-0.83,3.49-3.91,3.49-3.91l-1.85-2.26c0,0-1.03-2.46-0.41-4.72c0.62-2.27-0.83-4.12-0.83-4.12
			c-6.57-8.83-8.84-14.18-8.84-14.18l-1.64-0.2l-1.85-1.44l1.03-2.68c-1.85,0.62-5.34-4.72-5.34-4.72l-1.24-0.21l-1.23-1.02
			l0.21-2.47l2.26-2.06l-1.03-3.28l-2.27-0.21l-0.4-2.46l-3.49-1.24l0.81-3.49l-0.62-1.85c-4.93-0.82-6.78-8.22-6.78-8.22
			l-3.49,0.41l-0.4-2.05l2.04-0.42l2.06-1.23c0,0,0,0-1.02-2.26c-1.04-2.26-2.47-8.02-2.47-8.02l0.82-2.46l1.03-0.83L153.48,0H367.4
			c-0.34,0.45-0.74,0.95-1.22,1.49c-3.41,3.84-0.32,9.86-0.32,12.02c0,2.16,0.16,1.54,0.93,2.77c0.77,1.24,0.15,1.39,0.15,1.39
			l1.54,1.55l-0.16,1.38c0,0-0.15,0.62-0.76,0c-0.62-0.62-1.09,0.92-0.77,3.55c0.3,2.62,1.85,8.93,1.85,8.93l-0.16,3.55
			c0,0-1.23,2.62-1.23,3.23c0,0.62,0,2.17-1.23,3.25c-1.24,1.07-1.24,2.62-1.24,2.62l-2.01,1.69c0,0,0.47,1.54-2.3,0.16
			c-2.78-1.39-1.69-1.23-1.54-1.7c0.14-0.47-0.15-1.85-1.71-3.7c-1.53-1.85-1.69-2.61-1.69-2.61s0.31-1.7,0.16-2.17
			c-0.16-0.46-1.39-0.62-1.39-1.08c0-0.45-0.31-2.15-0.31-2.15l-1.38-1.24c0,0,0.15-1.85-0.78-2.32c0,0,0.62-2.3,1.69-2.46
			c1.09-0.15,0.94-1.23,0.78-2.77c-0.16-1.55-1.23,0.92-1.23,0.92s-2.31-1.38-2.78-1.53c-0.47-0.16,2-3.08,2-3.08
			s1.39-2.01,2.32-4.17c0.92-2.16-0.15-1.54,0.15-2c0.32-0.47-4.16-2.17-5.55-4.17c-1.38-2-0.77-2.46-0.77-2.46s-1.7-1.09-2.61-1.24
			c-0.94-0.15-1.09,0.15-2.32,1.38c-1.23,1.24-0.76,1.24-2.94,2.01c-2.14,0.78-1.84,0.16-2.76,0.16c-0.93,0,0-0.93,0-0.93
			l-0.47-1.24c0,0,0-1.38-0.14-2.46c-0.16-1.08-1.85,0.47-1.85,0.47h-2.79V5.8l0.32-1.54l-1.23,1.07l-3.56,0.62
			c0,0,0-1.23-0.76-1.23c-0.78,0-2.17,1.08-3.24,1.55c-1.08,0.46-2.01,0.3-2.01,0.3l-0.3-0.62l0.3-1.69l-0.92-0.46l-1.7,2.15
			c0,0-3.84-0.3-5.24,0.16c-1.39,0.46-2.77,0.62-2.77,0.62s-2-0.46-3.85-0.93c-1.85-0.47-3.4,0.62-3.4,0.62l0.61,1.85
			c0,0,2.17-0.15,3.86,0.62c1.69,0.76,1.85,0,1.85,0s0.78,0.92-0.45,1.85c-1.24,0.92-1.4,1.08-1.4,1.08s0.46,0.76,1.85,1.07
			c1.4,0.31,1.54,2.16,1.54,2.16l-0.14,1.85h-3.09c0,0-0.32-0.76,0.15-1.7c0.47-0.91,0,0-1.54-1.38c-1.54-1.38-2.16-1.38-2.16-1.38
			v2.14l-1.7,0.32l-1.23-1.23l-1.39,1.38l-3.23,0.31c0,0-1.85-1.23-2.17-2.16c-0.29-0.92-0.29-0.92-0.29-0.92l-2.17-0.46
			c0,0,0.61-1.08-0.62-1.7s-0.76,0.62-0.76,0.62l-0.77,0.61c0,0-3.24,0.62-4.02,0.31c-0.76-0.31-1.38-1.07-1.38-1.07l-0.93-1.85
			l-1.07,1.38h-2.17l-0.45-1.54l-1.08,0.61l0.3,1.24l-2.76,2.01h-2.72c0.57-0.03,1.11-0.2-0.98-0.94c-3.09-1.07-1.24,2.17-1.24,2.17
			s2.77,1.53,0.15,1.53c-2.61,0-2.61,0.47-3.39,0.47c-0.78,0-1.07,1.08-2.78,2.32c-1.7,1.23-1.99,0.91-3.84,1.85
			c-0.68,0.33-1,0.53-1.15,0.62l-0.55-1.24l-1.71,0.3l-0.29,2.62l-2.79,1.54l-1.23,1.54l-2.15,1.24l0.3,2.01l-2.15,1.69l1.08,0.31
			c0,0,2.3-0.15-1.08,1.54c-3.4,1.69-1.7,7.56-1.7,7.56l0.93,2.46l-0.93,2.62l-1.38,1.85c0,0-2.63,2.46-5.4,13.56
			c-2.78,11.1-2,14.49-2,14.49l1.07,2.31c0,0-0.92,2.32-0.31,3.55c0.62,1.23,1.09,4.17,2.16,5.08c1.08,0.94,3.86,9.57,3.86,9.57
			s0.3,2.92,2.47,4.16c2.15,1.23,1.38,0.45,3.7,0.45c2.31,0,1.38,0.32,1.38,0.32s1.09,1.39,1.85,2.62c0.76,1.23,2.32,1.38,2.32,1.38
			s0,0,0.76,0c0.77,0,2.78-0.77,2.78-0.77l5.86-1.54c0,0,1.7-0.3,2.61-1.23c0.94-0.92,4.64-0.31,4.64-0.31l0.76,2l1.23-0.15
			c0,0,1.09-0.76,1.71-1.23c0.61-0.47,0.91-0.31,1.23-0.77c0.3-0.46-0.94-0.93-0.94-0.93s-0.91-1.24-0.45-1.24
			c0.45,0,2.46-1.23,3.08-1.53c0.62-0.32,3.08-2.01,3.08-2.01s0.93-3.54,2.16-5.24s1.23-4.16,1.85-5.4c0.62-1.23,0.92-3.23,2-4.31
			s4.63-1.24,4.63-1.24h4.78l-0.16-0.76l5.4-1.24c0,0,2,0.47,2.61,1.55c0.62,1.07,1.09,0.45,2.01-0.62
			c0.93-1.07,1.24-0.16,1.85-0.31c0.62-0.15,1.85,1.38,1.85,1.38l0.62,2.94c0,0-0.46,1.99-0.93,2.77c-0.46,0.78-1.85,1.69-3.23,2.47
			c-1.39,0.77-1.7,1.23-1.7,1.23s0,1.23-1.08,2.16c-1.08,0.92-1.39,2.47-0.3,2.93c1.07,0.46,0,1.39-0.32,3.24
			c-0.3,1.85-1.38,3.23-2.15,4c-0.77,0.78-0.77,2.16-0.77,2.16l-1.55,0.62l-0.61-0.31c0,0,1.38-2.77,1.08-3.24
			c-0.32-0.46-3.55,3.7-3.55,3.7l2.47,0.61c0,0-1.38,4.02-1.38,5.26c0,1.23-0.78,3.84-0.47,4.93c0.31,1.07-1.38,3.54-4.47,6.16
			c-3.08,2.62-2.17,2.93-2.17,2.93l1.09-0.16c0,0,1.23,1.08,1.7,1.23c0.19,0.07,0.57,0.08,1.01,0.07c0.62-0.02,1.37-0.07,1.91-0.07
			c0.93,0-0.16-1.07-0.16-1.07l2.01-0.93c0,0,2.01-0.15,2.16,0.77c0.15,0.93,2.32,0,3.85,1.39c1.55,1.39,3.4-0.16,4.78-0.31
			c1.39-0.15,0.93-0.31,1.55-0.76c0.61-0.47,0.45-1.56,0.45-1.56l1.7-0.14l1.39,1.08c0,0,0.93,0.62,1.7,0.3
			c0.76-0.3,1.08-0.62,1.08-0.62l2.92-0.15c0,0,2.16,0.62,3.7,1.38c1.54,0.78,2.78-0.61,0.78,2.01c-2.01,2.63,1.85,2.01,3.23,2.01
			c0.85,0,1.41,1.18,1.57,2.15c0.1,0.6,0.05,1.12-0.19,1.23c-0.61,0.32-2,0.78-0.61,3.41c1.39,2.61-0.46,1.07,0,2.61
			s-0.46,1.7-1.53,2.61c-1.09,0.94-0.47,4.64-0.47,6.49s-0.15,2.15-0.77,2.92c-0.61,0.78,0,1.08-0.93,2.01c-0.92,0.92-0.15,2,0,3.24
			c0.16,1.23-0.15,1.54-1.24,2.77c-1.07,1.23-0.29,2.16-0.45,3.7c-0.16,1.54,1.54,1.23,1.54,1.23s0.92,1.54-0.15,2.78
			c-1.08,1.23,0,2,1.85,3.39c1.85,1.39,1.23,2.01,3.38,4.01c0.25,0.23,0.47,0.44,0.67,0.64c1.56,1.53,1.8,2.13,1.8,2.13
			s-0.3,0.78-0.3,1.39c0,0.62,0.91,1.39,2,2.31c1.08,0.93,1.54-0.62,1.54-0.62l1.23,0.16c0,0,0.62,1.08,2.16,1.53
			c1.54,0.47,0.92,0,2-0.14c1.08-0.15,0.78-0.31,2.01-0.47c1.23-0.15,1.39,0,2.3-1.08c0.94-1.07,2.17-1.54,2.79-1.54
			c0.62,0,1.69-0.76,2.47-1.23c0.76-0.47,1.23-1.08,1.69-1.23c0.45-0.15,1.39,0.3,1.39,0.3c1.07,0,2.47-0.45,2.47-0.45l0.61,1.23
			c0,0,4-1.23,6.17,2.15c2.15,3.4,3.85,3.08,4,3.7c0.02,0.1,0.08,0.25,0.17,0.44c0.44,1.03,1.58,3.23,1.84,3.87
			c0.3,0.78,1.23,1.85,1.85,1.71c0.61-0.15,0.61-0.47,1.07-1.09c0.47-0.62-1.24-3.38-1.24-3.38s-0.14-1.7,1.24-1.7
			c1.39,0,5.25-5.7,5.25-5.7l2.92-0.47c0,0,0,0,0-1.85c0-1.85-0.77-2.93-0.77-3.7c0-0.76,1.39-2.31,2.78-4.16
			c1.38-1.85,4.16-3.38,4.16-3.38h2.01c0,0-0.62,2.14,0.62,2.61c1.23,0.47,2.3-3.39,2.92-4.01c0.62-0.61,1.07,0.31,1.85,0.16
			c0.78-0.16,2.63-0.93,4.01-0.93c1.38,0,1.08-0.15,1.99-1.24c0.94-1.07,2.47-2.14,3.56-2.14c1.08,0,1.38-0.62,2.46-1.85
			c1.09-1.24,4.47-3.86,4.94-3.7c0.46,0.15,1.23,1.53,2.61,2.76c1.39,1.23-0.76,1.55-2.61,2.47c-1.85,0.93-1.55,0.93-3.85,2.62
			c-2.32,1.69-0.32,1.69,0.76,2.47c1.09,0.78,0.47,2.01,0,2.77c-0.47,0.77,0.31,2.32,1.09,3.4c0.76,1.07-0.32,1.54-2.32,3.24
			c-2,1.69-1.38,2.46-1.85,3.08s0.76,1.38,2.47,3.7c1.7,2.31,1.99,0.91,1.99,0.91s1.4-1.23,2.47-2.61c1.09-1.38,0.47-1.85,0.47-3.23
			c0-1.39,0-1.85-1.23-3.24c-1.24-1.4-1.09-2.93-1.71-3.25c-0.61-0.29,1.09-1.53,1.56-2.14c0.45-0.62,1.53-1.4,2.3-2.32
			c0.78-0.93,1.85-0.47,2.63-0.77c0.76-0.32,1.38-0.47,2.76-1.55c1.4-1.07,2.63-0.62,6.17-0.62c3.55,0,4.48-1.07,4.17,0.32
			c-0.31,1.38,3.7,2.15,3.7,2.15s-0.77,3.24,0.61,5.09s2.16,0,3.7,0.46c1.54,0.47,1.85,0,4.32-0.3c2.46-0.32,1.23,0,3.23-0.32
			c2.01-0.29,2.17,0,3.08,0c0.94,0,1.09,0.62,1.56,1.4c0.45,0.77,2.76,1.23,3.7,2.01c0.91,0.76,1.99,0.61,2.76,0.61
			c0.78,0,1.23,0.46,1.85-0.32c0.61-0.76,2.63-1.69,3.55-2.46s1.38-0.46,2-0.77c0.61-0.31,2.78-0.62,3.4-1.08
			c0.62-0.46,3.7-0.62,3.7-0.62s1.23,0,2.47,0c1.23,0,3.99-1.07,3.99-1.07l0.16,2.3c0,0-1.54,0.78-3.7,0.78
			c-2.16,0-3.08,0.92-3.08,0.92l2.01,0.77l1.53,1.08c0,0,0.32,0.93-0.3,1.7c-0.61,0.77,0.77,1.08,1.38,1.7
			c0.62,0.61,0.77-1.4,0.77-1.4l1.39-0.62c0,0,1.24,1.71,2.01,1.71s1.69-0.47,1.69-0.47s2.01,1.7,2.92,2.01
			c0.94,0.31,1.24,1.54,1.24,1.54s-0.46,1.23-1.24,1.85c-0.76,0.62-1.07,2.93-1.07,2.93l-3.54,2.15c0,0,0.92,0.94,4.47,0.94
			c3.55,0,0.76-0.62,1.08-1.09c0.3-0.47,2.92-0.31,2.92-0.31l2.63,0.16l0.62,1.24c0,0,0.53,0.27,1.03,0.4
			c0.26,0.07,0.5,0.1,0.659,0.05c0.45-0.16,1.07,0.16,2.011,1.4c0.91,1.23,5.55,6.16,6.31,6.93c0.771,0.76,1.38,0.92,0.311,2.16
			c-1.07,1.23-2.16,2.46-2.78,3.08c-0.61,0.62,0.47,2.31,0.47,2.31s1.24,0,1.24-1.39c0-1.38,1.07-1.54,1.07-1.54
			s0.31-1.07,3.239,0.16c2.931,1.24,5.23,6.78,5.23,6.78l1.24,0.15l0.93-0.61l0.91-0.15l2.47-0.47l0.94,0.93l1.689,0.77l1.07-0.62
			l1.09-0.46c0,0,1.7,1.08,5.08-0.15c3.4-1.24,12.18,3.7,12.18,3.7s5.55,4.61,6.641,5.84c0.67,0.77,2.96,3.11,4.89,5.13
			c1.16,1.21,2.19,2.31,2.65,2.89c1.239,1.55,1.699,8.63,1.699,9.86c0,1.24,1.53,2.63,2.311,3.86c0.78,1.24,2.16,2.16,3.859,3.4
			c1.69,1.23,1.381,1.99,1.381,1.99s-1.7,0-1.7,2.63s-4.771,6.17-8.931,9.71c-4.17,3.55-2.63,5.09-2.63,5.09l1.86-2.01
			c0,0,1.68,0.47,1.54,2.01c-0.15,1.54-0.15,2.46-2.78,2.77c-2.63,0.31-2.77,1.71-3.24,1.71h-2.77c-1.55,0-1.55,1.38-0.77,2.14
			c0.77,0.78,4.479-0.76,4.479-0.76l3.69-1.85c0,0,3.239-4.01,4.319-2.16c1.07,1.85,2.15,0.31,2.15,0.31s-0.771-1.24-0.92-2
			c-0.16-0.78,0-1.39,0-1.39l0.46-2.16l1.229-1.09c0,0,2.471-0.45,2.931,0.16c0.47,0.62,2.17,0.62,2.17,0.62s0.91-0.16,1.38-0.46
			c0.47-0.32,1.54-0.77,1.54-0.77s2.47,0.3,3.54,0.3c1.08,0,3.08,2.16,1.7,3.09c-1.381,0.92,0,1.23,0,3.23
			c0,2.01-1.851,4.31-3.08,3.55c-1.24-0.76-4.471,2-4.471,2s-1.699,0.47-4.159,0.16c-2.471-0.31-3.561-1.69-3.561-1.69
			s-0.14,1.23,0,2.14c0.16,0.94,1.7,1.85,2.63,1.24c0.931-0.62,1.851,0.16,3.54,0.16c1.7,0,1.7-0.62,2.63-0.46l-0.16,1.85l-0.3,2.31
			h1.07l0.46-1.85l1.7-2.01l2-1.69c0,0,2.17-0.31,2.47-0.93c0.311-0.61,0.61-1.08,0.61-1.7c0-0.62,0.62-1.23,1.09-3.23
			c0.46-2,3.55-1.23,3.55-1.23l0.76-0.77c0,0,0.771-0.32,1.24-0.32c0.46,0,4.46,1.39,9.55,4.02c5.101,2.62,4.63,3.38,5.71,4.32
			c1.08,0.91,1.08-0.94,1.53-1.4c0.47-0.45,1.71-2.3,1.85,0c0.16,2.31,1.851,2.63,1.851,2.63s-1.38,2.47-0.76,2.92
			c0.609,0.46,1.38,1.24,1.38,1.24l1.39-0.62l1.54,1.85l-1.54,1.23l-1.07-0.45c0,0-0.939,0.15-1.85,1.38
			c-0.94,1.23-0.47,2.46-0.47,2.46s2.77-0.61,3.39-1.08c0.62-0.46,1.54-1.23,2.63-2.47c1.07-1.23,1.23-1.38,1.69-1.99
			c0.45-0.62,1.39-0.15,1.85-0.15c0.45,0,3.08-0.16,3.08-0.16s1.54,1.23,3.24,2.77c1.689,1.54,2.47,0.93,2.47,0.93l-0.16-0.78
			l0.931-1.38c0,0,1.08,1.38,4,2.93c2.93,1.53,2.01,0.3,2.01,0.3s1.08-0.77,1.85-0.77c0.771,0,2.771-0.61,3.851-0.61
			c1.09,0,2.93,0.47,4.319,1.54c1.38,1.07,3.08,2.16,4.311,3.86c1.24,1.69,3.09,2.92,6.17,4.46c3.08,1.55,4.01,2.62,6.78,6.17
			c2.77,3.55,8.489,3.08,10.01,3.08c1.56,0,1.56-0.15,2.63,0.31s2.31,2.16,2.31,3.08c0,0.93,0.32,4.78,1.08,6.95
			c0.771,2.14,1.24,7.69,2.16,9.54C670.3,313.63,666.75,323.35,666.61,323.82z"/>
		<polygon fill="#C7BCB1" points="266.127,251.208 267.668,253.674 269.827,254.599 269.827,256.141 267.668,257.99 
			269.519,259.224 271.061,257.99 273.835,257.065 273.526,255.523 271.677,253.365 270.135,251.208 269.519,249.975 
			267.668,249.049 		"/>
		<path fill="#C7BCB1" d="M272.293,252.132h2.467v-1.541C274.76,250.591,272.91,251.516,272.293,252.132z"/>
		<polygon fill="#C7BCB1" points="274.451,254.291 275.376,256.448 277.534,256.448 277.843,254.599 		"/>
		<polygon fill="#C7BCB1" points="282.262,256.243 281.748,256.859 280.72,257.477 281.646,258.298 283.289,258.504 283.495,257.58 
			283.083,256.038 		"/>
		<path fill="#C7BCB1" d="M443.911,588.279l1.337-0.616l2.262,1.233l0.717,1.232l0.104,1.029l-1.438,0.204
			c0,0-0.72,1.131-0.308,1.232c0.409,0.104,1.746,1.544,1.746,2.263c0,0.718-0.41,0.926,0.104,1.336
			c0.513,0.412,1.542,0.203,1.438,0.719c-0.104,0.514-0.309,0.926-0.822,1.542c-0.515,0.617-1.028,1.54-1.028,1.54
			s-0.617,1.851-1.85,0c-1.233-1.849-2.466-2.363-1.747-3.187c0.717-0.819,1.13-2.771,0.308-3.49
			c-0.824-0.723-1.233-1.234-1.028-2.057c0.204-0.822,0.204-1.438,0.204-2.055C443.911,588.589,443.911,588.279,443.911,588.279z"/>
		<polygon fill="#C7BCB1" points="449.051,603.491 450.181,602.974 449.256,601.845 448.227,602.46 		"/>
		<polygon fill="#C7BCB1" points="451.209,604.724 450.077,605.957 450.592,607.189 452.647,606.98 		"/>
		<path fill="#C7BCB1" d="M448.843,607.497l1.542,1.336l0.721-0.103l0.719,1.026v1.543l1.748,0.615l1.849,1.646l0.103,1.541
			l-0.823,1.851l-0.925,0.409v1.234c0,0,0.925,0.515,1.233,0.617s0.515,1.747,0.515,1.747l0.617,1.334v0.927v0.618l0.309,1.129
			l-1.132,1.746l-2.362-0.309l-0.822-1.334l-1.131-0.516l-0.822,1.028l0.412,1.029l-0.616,1.232l-1.233-0.208l-0.823-2.156
			l0.72-1.131l0.616-0.72l1.541-1.95h0.721l0.205-1.338l-1.85-0.104l-0.617-0.924l1.645-1.233l1.438-1.027v-1.849l1.541,0.308
			l-0.205-1.953l-1.233,0.413c0,0-0.924,1.745-1.336,0c-0.413-1.75-0.104-2.88-1.233-2.674c-1.13,0.208-2.775-0.719-2.775-0.719
			s0.308-0.104,0.512-1.134C447.818,608.424,448.64,607.497,448.843,607.497z"/>
		<path fill="#C7BCB1" d="M462.513,654.052l1.85,0.615l0.513-1.027c0,0-0.101-1.132-0.718-1.438
			c-0.617-0.308-1.336-0.308-1.336-0.308L462.513,654.052z"/>
		<polygon fill="#C7BCB1" points="464.054,655.384 464.774,655.592 464.875,657.339 464.259,658.16 463.232,656.722 		"/>
		<polygon fill="#C7BCB1" points="467.754,661.962 467.65,663.813 468.062,664.942 468.885,664.225 468.781,662.991 		"/>
		<polygon fill="#C7BCB1" points="470.322,662.066 470.426,662.991 471.967,663.093 470.939,661.348 		"/>
		<path fill="#C7BCB1" d="M470.118,665.25l0.616,1.85c0,0,1.13,0.517,1.13,0.927c0,0.412,0.412,1.54,0.412,1.54l2.054,0.104
			l-1.026-1.645l-0.617-0.927l-0.206-1.232l-1.13-1.334l-1.13,0.101L470.118,665.25z"/>
		<path fill="#C7BCB1" d="M478.544,674.192l2.466,1.131l1.747,0.205c0,0,1.029,0,1.748,1.028c0.719,1.026,3.39,1.85,3.39,1.85
			l1.542,1.232c0,0,0.513,1.029,1.438,0.31c0.924-0.72,1.542-1.132,1.644-0.72c0.103,0.41-0.208,1.438,0.206,1.746
			c0.411,0.308,1.541,0.411,2.054,0.515c0.516,0.103,0.72,1.335,0.72,1.335s0.821,0.412,0.617,0.925
			c-0.204,0.516-1.437,1.541-1.437,1.541s-0.104-1.13-0.413-1.232c-0.308-0.102-2.875-0.926-3.288-0.616
			c-0.412,0.308-1.234-0.924-1.645-1.027c-0.411-0.103-1.439,0.204-2.569-1.336c-1.131-1.542-1.028-2.055-2.056-2.055
			c-1.026,0-0.615,1.027-2.362,0c-1.747-1.029-2.468-1.132-3.187-2.058c-0.719-0.924-2.158-1.129-2.158-1.129
			S475.461,674.809,478.544,674.192z"/>
		<path fill="#C7BCB1" d="M497.298,683.494l0.979,0.771c0,0,0.77,0.308,0.719,0.462c-0.051,0.153,0.566,0.308,0.566,0.308
			l0.511-0.411v-1.129l-0.872-0.772l-0.872,0.463C498.328,683.185,497.194,682.567,497.298,683.494z"/>
		<path fill="#C7BCB1" d="M559.216,665.354l-1.026,0.618l0.515,1.131l-0.722,0.821l1.337,0.616l1.644-0.821l1.644-1.438l0.823-0.823
			l1.132-0.924l-0.104-2.363h-2.26l-2.26-0.307l-0.926,0.923l-2.057,0.41l0.31,1.028
			C557.265,664.225,560.346,665.457,559.216,665.354z"/>
		<polygon fill="#C7BCB1" points="555.825,666.796 554.696,667 554.696,666.178 555.414,665.563 555.929,666.074 		"/>
		<path fill="#C7BCB1" d="M564.87,669.362v-1.644v-0.823l0.409-1.026l0.823-0.412l1.541-1.438l-0.924-1.133l2.773-0.408l1.747,1.541
			c0,0,1.438-1.744,1.952,0.617c0.514,2.363-1.337,1.747-1.337,1.747l-1.541,0.719l-1.951,1.232l-2.674,0.31L564.87,669.362z"/>
		<path fill="#C7BCB1" d="M560.656,658.572l1.335,1.542l1.85-0.618l0.927-1.025l1.643,1.233l1.129,0.41l1.03-1.027l1.334-1.541
			c0,0-0.718-2.775-0.926-2.364c-0.204,0.41-0.204,2.055-0.204,2.055l-1.13,0.31l-0.411,0.616l-1.337-0.721l-1.128,0.104
			l-0.722,0.513l-1.233,0.514l-0.718-0.719l-1.233,0.101L560.656,658.572z"/>
		<polygon fill="#C7BCB1" points="543.98,690 544.6,688.83 545.37,687.76 547.6,687.83 547.83,688.45 546.29,688.83 544.93,690 		
			"/>
		<polygon fill="#C7BCB1" points="378.451,37.043 382.15,36.221 380.505,34.782 378.04,35.398 		"/>
		<polygon fill="#C7BCB1" points="384.617,33.344 385.438,35.811 387.288,36.017 387.494,37.454 386.876,39.51 386.055,40.332 
			386.467,41.565 387.288,41.565 387.904,40.332 389.344,39.099 389.344,37.454 388.317,35.398 385.644,32.521 		"/>
		<polygon fill="#C7BCB1" points="379.067,47.114 380.917,48.142 381.328,50.608 381.739,52.047 380.711,53.486 379.478,54.514 
			377.628,53.28 377.218,51.225 377.834,50.402 		"/>
		<polygon fill="#C7BCB1" points="380.505,55.336 382.15,55.747 382.15,57.802 381.534,58.83 379.889,58.625 		"/>
		<polygon fill="#C7BCB1" points="391.194,46.087 389.755,45.882 389.755,44.443 391.194,44.854 		"/>
		<polygon fill="#C7BCB1" points="391.811,47.731 393.25,49.375 393.455,51.225 392.633,52.047 392.222,51.02 392.222,49.786 		"/>
		<polygon fill="#C7BCB1" points="395.921,52.664 395.716,54.72 397.771,56.158 397.771,53.896 		"/>
		<polygon fill="#C7BCB1" points="401.676,55.747 403.525,56.98 402.909,58.214 		"/>
		<polygon fill="#C7BCB1" points="397.977,60.885 397.154,62.324 398.387,62.529 		"/>
		<polygon fill="#C7BCB1" points="402.086,65.817 404.965,68.695 403.936,70.134 402.703,71.983 404.759,71.983 405.582,70.545 
			406.403,69.723 406.403,67.462 404.348,66.434 		"/>
		<polygon fill="#C7BCB1" points="410.719,70.956 412.775,70.751 412.159,69.106 		"/>
		<polygon fill="#C7BCB1" points="411.336,77.944 410.514,80.615 409.281,82.055 405.376,81.849 405.582,80.615 407.636,79.177 
			409.692,79.177 409.898,77.533 		"/>
		<path fill="#C7BCB1" d="M328.095,73.833L332,72.806l0.206-2.672l2.055-2.056l4.728-2.261l2.055-0.821l3.494,0.205l1.233-1.644
			c0,0,9.455-0.617,11.305,0c1.85,0.616,4.933,1.85,4.933,1.85s1.233-1.028,2.466,0.411c1.233,1.439,0.616,2.672,1.644,3.083
			c1.027,0.411,3.288,1.028,4.317,1.028c1.027,0,3.904,1.85,3.904,1.85l3.905,2.055l-1.85-2.877l-2.26-1.439l-0.823-0.821
			l1.233-0.617c0,0,1.439,0.001,1.85,1.028c0.411,1.028,1.439,2.056,1.439,2.056s3.083,2.055,2.876,2.671
			c-0.206,0.617-0.206,0.617-0.206,0.617s-2.054,1.85,0.822,2.466c2.877,0.617,3.288,1.233,4.11,1.85
			c0.822,0.617,4.728,0.822,5.756,1.233c1.027,0.412,0.206,0.412-0.617,1.438c-0.822,1.028,1.85,1.439,1.85,1.439
			s4.727-0.206,6.989,3.083c2.26,3.289,3.493,1.849,0.205,3.289c-3.287,1.438-2.671,0.204-2.671,0.204h-3.495
			c0,0,0.823,1.646-0.821,1.234c-1.646-0.411-4.935-0.616-5.345-1.234c-0.412-0.616-4.933,0.823-4.933,1.44
			c0,0.616-2.671-1.645-2.877-0.822c-0.206,0.822-1.644,1.233-2.26,0.822c-0.617-0.412-1.441-2.056,0.205-2.466
			c1.645-0.413,1.645-2.057,3.288-1.44c1.645,0.618,0-1.85-0.617-2.671c-0.616-0.822-1.643,0.205-2.466,0
			c-0.822-0.206-1.643,0.616-2.466-0.206c-0.822-0.822-2.877-0.616-2.672-2.672c0.206-2.055,0.412-2.877-0.204-3.288
			c-0.617-0.411-1.233-1.232-2.057-1.644c-0.822-0.411-1.233,0.823-1.85,0.617c-0.617-0.206-4.111-0.206-4.522-1.438
			c-0.411-1.233-1.644-2.261-2.671-1.851c-1.028,0.412-2.056,0-2.056-0.616s-2.055,0.412-2.055,0.412l-0.822-1.233l-5.961-1.234
			c0,0-1.438-1.233-0.41-1.439c1.028-0.206,2.261-1.645,2.261-1.645s-3.496-0.411-4.317-0.411s-2.465-0.615-3.494,0.206
			c-1.027,0.823-1.233,1.439-3.083,1.644c-1.85,0.206,0,2.672-2.261,2.467c-2.261-0.205-4.316-1.027-4.316,0
			c0,1.028-1.439,1.851-2.262,2.056C331.589,74.245,328.711,75.888,328.095,73.833z"/>
		<path fill="#C7BCB1" d="M370.023,102.813c0,0-0.82,2.055,1.646,2.261c2.466,0.205,3.288,2.261,3.288,2.261s1.645,0,2.262,0
			c0.616,0,0.821-1.439,2.671-1.027c1.85,0.411,3.083,0.616,3.083,0.616l1.233-0.616c0,0,2.26-1.851-1.233-2.878
			c-3.494-1.027-1.644-0.822-4.727-2.055c-3.083-1.233-3.7-0.617-5.138,0.205C371.669,102.403,370.023,102.813,370.023,102.813z"/>
		<polygon fill="#C7BCB1" points="344.332,75.066 344.332,76.711 342.072,77.533 340.633,75.684 341.866,74.245 		"/>
		<path fill="#C7BCB1" d="M412.364,99.936l-1.85,1.85c0,0-0.822-0.617-2.055-0.411c-1.233,0.205-3.083,0-3.7,0
			c-0.616,0-1.439-1.439-2.26-1.233c-0.823,0.205-2.878,0.411-2.878,0.411s-1.644,0.206-1.644,0.822
			c0,0.616,0.411-0.206,1.233,1.233c0.822,1.438,1.027,2.468,1.85,2.877c0.822,0.411-2.26-1.644,1.85-1.233
			c4.11,0.411,6.989-0.206,6.989-0.206l4.11,0.617l1.644,2.056l1.233,1.233c0,0,0.617,0.206,1.028-0.411
			c0.412-0.617,0.412-1.029,1.645-2.467c1.233-1.439,3.287-4.316,4.11-3.083c0.823,1.233,2.466,2.055,2.466,2.055
			s1.85-2.055,2.878-3.082c1.027-1.028,2.67,0.822,2.67,0.822l3.7,0.205l0.823,1.644l1.233,0.206l2.055-2.672
			c0,0,0.412-1.85-0.206-1.85c-0.616,0-3.699-1.438-3.699-1.438l-3.906-2.055c0,0-1.643-1.85-2.26-2.261
			c-0.616-0.411-3.699-1.644-3.699-1.644l-2.878-1.644l-4.933,0.822l-1.849,0.822l-2.672-1.439l-3.699-0.616l-3.083,1.233
			l4.109,2.261c0,0,0.617,1.027-0.205,1.644s-1.028,2.672-1.028,2.672l-0.236,0.071l-1.818,0.545l1.438,1.027l1.645-1.849
			L412.364,99.936z"/>
		<path fill="#C7BCB1" d="M447.098,102.403l1.028,2.672c0,0,0.411,0.822,3.083,0.822c2.671,0,4.521-1.233,5.138-0.822
			c0.616,0.411,1.85-1.029,1.85-1.029s1.027-2.672-1.233-3.082c-2.26-0.411-4.11-1.028-4.727-1.028
			c-0.617,0-3.699,1.439-3.699,1.439L447.098,102.403z"/>
		<polygon fill="#C7BCB1" points="415.447,76.095 416.68,76.095 417.296,74.862 415.651,75.066 		"/>
		<path fill="#C7BCB1" d="M420.997,155.019l1.644,1.028c0,0,1.234,0.822,1.85,0.205c0.617-0.617,0.617-2.261,0.617-2.261
			l-1.439-1.438l-1.233,0.205l-0.411,1.439L420.997,155.019z"/>
		<polygon fill="#C7BCB1" points="429.628,151.319 430.656,152.757 431.683,153.785 433.74,152.963 432.299,151.73 430.862,150.291 
					"/>
		<polygon fill="#C7BCB1" points="435.589,152.552 436.822,152.552 437.027,150.702 436.206,150.907 		"/>
		<path fill="#C7BCB1" d="M480.19,168.789c0,0,2.67,0.616,3.287,0.616c0.616,0,1.85-0.822,1.85-0.822s-0.41-1.645,0.206-2.261
			c0.617-0.617,0.206-2.466,0.206-2.466s-1.646-2.466-2.262-1.644c-0.617,0.822-2.875,2.054-2.054,2.26
			c0.821,0.206,1.233,0.206,1.233,1.028c0,0.821-1.439,1.849-1.439,1.849L480.19,168.789z"/>
		<path fill="none" stroke="#FFFFFF" stroke-width="0.5" stroke-miterlimit="10" d="M488.205,159.335"/>
		<polygon fill="#C7BCB1" points="487.792,160.568 488.41,162.212 490.259,160.568 488.616,158.307 488.205,159.335 		"/>
		<polygon fill="#C7BCB1" points="481.833,153.374 483.066,153.374 482.86,151.936 482.04,151.73 		"/>
		<polygon fill="#C7BCB1" points="485.533,144.537 486.355,145.153 487.589,143.92 486.56,142.688 		"/>
		<polygon fill="#C7BCB1" points="487.589,140.837 488.822,140.22 489.026,137.958 487.589,137.754 487.383,140.016 		"/>
		<polygon fill="#C7BCB1" points="487.792,133.232 489.85,133.643 488.822,130.56 486.972,130.56 486.972,131.999 		"/>
		<polygon fill="#C7BCB1" points="485.533,127.272 487.589,127.272 486.766,124.188 483.89,125.217 		"/>
		<polygon fill="#C7BCB1" points="484.506,121.927 486.56,120.489 487.792,120.489 487.999,118.228 487.176,117.611 
			485.943,118.228 485.533,119.05 484.093,118.844 		"/>
		<polygon fill="#C7BCB1" points="483.89,113.912 484.71,113.912 485.943,112.063 484.3,111.445 483.477,112.268 		"/>
		<polygon fill="#C7BCB1" points="484.3,109.186 485.943,109.186 486.15,108.158 484.506,108.158 		"/>
		<polygon fill="#C7BCB1" points="477.107,111.241 478.34,111.445 478.751,110.212 477.312,110.212 		"/>
		<polygon fill="#C7BCB1" points="462.103,162.623 463.746,162.829 463.746,163.651 464.569,164.062 465.595,163.034 
			466.212,162.212 466.212,160.568 464.774,160.773 462.924,160.979 		"/>
		<polygon fill="#C7BCB1" points="496.889,144.922 498.66,145.384 498.738,143.766 497.427,143.766 		"/>
		<path fill="none" stroke="#666666" stroke-width="0.5" stroke-miterlimit="10" d="M203.41,0c1.32,1.67,2.44,3.15,2.6,3.55
			c0.41,1.02,1.23,3.7,1.23,4.72s-0.21,2.87-0.21,2.87l4.74,3.91l4.31,2.26c0,0,0.41-5.13,3.09-5.55c2.66-0.41,3.89-1.43,3.89-1.43
			l5.55,0.61l1.66,2.88l2.46,8.63l3.7,6.17l0.82,6.57l1.23,3.29l11.18,2.41"/>
		<polyline fill="none" stroke="#666666" stroke-width="0.5" stroke-miterlimit="10" points="271.343,135.078 270.752,127.061 
			274.243,121.513 282.875,120.489 283.91,118.64 277.942,112.066 280.408,111.031 280.617,107.75 281.641,106.715 295.207,106.517 
			299.731,102.756 		"/>
		<path fill="none" stroke="#666666" stroke-width="0.5" stroke-miterlimit="10" d="M284.526,140.43
			c2.097-3.219,4.638-6.758,5.957-7.201l0.209-3.083c0,0,4.859-3.639,6.82-6.352"/>
		<path fill="none" stroke="#666666" stroke-width="0.5" stroke-miterlimit="10" d="M300.83,147.62
			c1.061-0.677,2.354-1.443,3.317-1.751c1.96-0.616,2.367-2.774,2.367-2.774l0.827-3.182c0,0,1.233-0.716,2.158-0.408
			c0.925,0.309,2.874-2.466,2.874-2.466s1.023,1.023,1.332,1.332c0.308,0.309,0.826-0.309,1.344-0.827
			c0.506-0.505-0.209-1.331,0.925-1.849c1.123-0.506,1.233-0.715,2.665-1.641c1.442-0.925,2.466-2.158,2.466-2.158
			s1.344,0.716,2.268,0.617c0.926-0.1,3.392-0.407,4.205-1.024c0.828-0.617,1.96-0.925,1.96-0.925s1.233-0.518,2.159-1.134
			c0.123-0.086,0.271-0.136,0.432-0.16"/>
		<path fill="none" stroke="#666666" stroke-width="0.5" stroke-miterlimit="10" d="M313.371,159.939
			c0.407-0.013,0.926,0.122,1.258,0.728c0.617,1.133,1.542,1.343,2.159,1.442c0.617,0.098,2.577-0.099,2.984-0.406
			c0.407-0.31,1.134-1.036,1.64,0.406c0.518,1.443,1.443,2.158,2.159,2.257c0.443,0.061,2.527-0.371,4.192-0.901"/>
		<path fill="none" stroke="#666666" stroke-width="0.5" stroke-miterlimit="10" d="M330.846,181.705
			c0.085-0.345,0.148-0.715,0.233-0.998c0.197-0.716,0.099-0.926,0.099-2.048c0-1.134-1.442-1.96-0.924-2.466
			c0.517-0.518,1.022-0.925,1.022-1.442c0-0.519-0.197-0.827,0.519-1.333c0.345-0.246,0.913-0.642,1.431-1.11"/>
		<path fill="none" stroke="#666666" stroke-width="0.5" stroke-miterlimit="10" d="M365.189,192.421l1.961-2.971l2.047-0.617
			c0,0-0.098-0.827,0.617-1.443c0.727-0.617,1.134-1.233,0.419-2.157c-0.728-0.926-1.233-1.333-1.134-2.06
			c0.049-0.382,0.344-1.381,0.628-2.282"/>
		<path fill="none" stroke="#666666" stroke-width="0.5" stroke-miterlimit="10" d="M348.356,277.45l1.11,1.294l-0.925,1.233
			c0,0-0.098,1.135-0.715,1.962c-0.616,0.814-0.924,1.233-1.332,1.849c-0.419,0.617,0.099,0.925,0.924,1.542
			c0.814,0.617,1.123,0.814,1.123,0.814l1.961,0.111c0,0,1.233,0.715,2.256,0.815c1.024,0.11,0.715,0.726,0.925,1.035
			c0.208,0.308,0.407,1.542,0.518,2.047c0.099,0.518,1.641,0,1.641,0l0.617-0.715c0,0,0.924-0.407,1.332-0.826
			c0.419-0.408,0.209-0.408,0.518-1.332c0.308-0.925,1.024-0.716,1.024-0.716c-0.407-3.391,1.134-3.81,1.85-6.474
			c0.727-2.676,2.466-3.811,2.466-3.811s1.344-1.331,2.157-2.047c0.827-0.728,2.27-1.135,2.886-1.135
			c0.617,0,1.123-0.616,1.949-1.022c0.825-0.42,3.292-1.233,3.292-1.233s0.716-0.309,1.85-1.653
			c1.122-1.332,2.258-2.047,2.566-2.355c0.309-0.309,1.023-2.466,1.023-2.466s0.518-0.925,0.309-2.158
			c-0.198-1.233,0.826-1.233,1.443-1.751c0.616-0.518,1.023-1.64,1.442-2.676c0.407-1.023,0.407-1.639,0-2.971
			c-0.418-1.345-1.134-1.135-1.134-1.135l-0.209-0.715l2.885-0.518c0,0,0.925,1.64,2.048,1.751c1.134,0.099,1.651,1.122,1.651,1.122
			l0.815,3.293c0,0,0.11,0.924,0.826,0.826c0.715-0.111,3.798,2.774,3.798,2.774l1.037,0.309l0.407,2.564l3.292,3.392l0.407,1.443
			l1.134,0.925c0,0,1.023-1.037,2.774,0.308c1.739,1.332,4.008-0.617,4.008-0.617s0.506-0.826,0.506-1.135
			c0-0.307,0.518-0.518,0.518-0.518l1.542-0.505l1.233,0.196l4.933,0.112l0.309,1.542l2.984,1.541l0.925,1.738
			c0,0-1.85,1.653-1.85,2.159c0,0.518-0.419,1.233-0.419,1.233s-0.505,0.925-0.814,1.653c-0.309,0.715-0.925,1.85-0.925,1.85
			l0.505,0.925l2.775,0.407l-0.309,1.64c0,0,0.926,1.233,1.542,1.134c0.617-0.098,1.135-1.442,1.344-1.85
			c0.198-0.407,1.431-5.858,1.431-5.858l0.418-8.422c0,0,0.617-3.083,1.024-5.55c0.407-2.466,0.617-0.827,0.308-2.578
			c-0.308-1.738-0.616-1.541-0.616-1.541l-1.443-2.467l-1.64-2.663l-1.134-1.652c0,0,0.826-1.024,0.209-3.182
			c-0.617-2.158,1.135-2.874,1.135-2.874l1.85-0.209c0,0,1.123,0.1,1.541,0.308c0.407,0.209,1.332-0.308,1.332-0.308
			s0.407-1.023,0.407-1.443c0-0.407-0.098-1.122-0.407-1.233c-0.309-0.099-1.443-0.308-2.565-0.813
			c-1.135-0.518-2.577-0.419-2.577-0.419l-0.715-1.949c0,0,0.407-0.925,1.233-1.949c0.826-1.035,0.826-0.727,0.826-0.727
			l4.724-0.308c0,0,2.158,0.728,2.984-0.198c0.813-0.924,2.774,0.198,2.774,0.198l2.565,0.111c0,0,0.827-1.344,1.233-1.85
			c0.407-0.518,1.64-0.617,1.64-0.617l1.653-0.21l0.406-1.948c0,0-1.134-1.752-1.949-2.775c-0.826-1.036-2.269-1.75-2.269-1.75
			s0.308-0.827,1.541-1.95c1.233-1.134,1.233-0.728,1.653-1.134c0.406-0.407,0.406-0.925,0.197-1.64
			c-0.197-0.728-0.715-1.542-1.123-1.652c-0.418-0.099-1.85-3.083-1.85-3.083l-0.418-10.791l1.443-1.431
			c0,0,0.518-0.419,0.924-2.367c0.407-1.948,1.751-2.466,1.751-2.466l-1.541-1.332c0,0-2.677-0.309-3.812-0.419
			c-1.122-0.099-2.256,1.442-2.664,1.442c-0.419,0-2.269-0.099-5.352-0.209c-3.083-0.099-0.925-0.099-2.158-0.925
			c-1.233-0.814-1.023-1.122-1.739-2.158c-0.727-1.024-2.157-3.7-4.525-3.7c-2.367,0-11.506-0.308-11.506-0.308l-0.11-1.64
			c0,0-1.024-0.924-1.739-0.924c-0.727,0-0.308-0.925-0.209-1.542c0.099-0.617,0-0.617-0.098-1.136
			c-0.111-0.505-0.111-1.429,1.023-2.256s0.099-1.75,0-2.06c-0.099-0.308-0.518-1.123-1.333-1.948
			c-0.826-0.827-0.11-0.519-0.517-2.258c-0.407-1.751-1.751-2.885-2.256-3.392c-0.519-0.516-2.468-0.209-1.961-0.924
			c0.518-0.728,0.11-0.925,0.11-1.542c0-0.616,1.234-0.826,1.234-0.826s1.331,1.751,1.121-2.564
			c-0.197-4.317,1.035-2.984,1.035-3.91c0-0.925,0.507-1.232,1.543-2.774c1.023-1.541,1.331-1.64,2.256-2.775
			c0.925-1.134,0.715-0.826,1.023-1.542c0.309-0.716,0.728-0.616,0.728-0.616l0.11-0.025"/>
		<path fill="none" stroke="#666666" stroke-width="0.5" stroke-miterlimit="10" d="M358,239.899c0,0,2.565-0.197,2.565,1.233
			c0,1.443,1.443,1.443,1.443,1.443l3.083,0.617c0,0,1.442,3.909,2.059,4.316c0.617,0.406,7.597,0.826,7.597,0.826l1.035-2.06
			c0,0,0.815,0.209,1.85,1.64c1.025,1.443,1.85,2.467,1.85,2.467l1.74,2.577"/>
		<path fill="none" stroke="#666666" stroke-width="0.5" stroke-miterlimit="10" d="M418.216,283.369c0,0-3.39,0.616-4.414,1.233
			c-1.024,0.616-0.826,0.727-1.752,1.233c-0.924,0.518-1.64,0.418-3.49,0.209c-1.85-0.209-1.85,0.518-2.874,1.332
			c-1.035,0.826-1.85,2.06-2.884,2.985c-1.024,0.924-2.048,1.639-2.874,2.367c-0.826,0.715-0.925,1.64-0.925,1.64
			s0.209,3.182-0.308,3.91c-0.518,0.715-0.617,0.506-0.1,1.332c0.507,0.827,0.408,1.443,0.408,2.159
			c0,0.714-0.099,1.133-0.408,1.442s-1.541,0.814-2.059,1.332c-0.518,0.518-1.948,1.85-1.948,1.85s0.407,0.925,0.308,2.059
			c-0.11,1.123-0.615,1.023-0.925,1.542c-0.309,0.505-0.924,1.541-0.924,1.541l1.122,1.333l0.616,1.023c0,0,0.925,2.773,1.542,4.316
			c0.616,1.541,2.059,1.752,2.885,2.675c0.814,0.926,2.467,3.083,2.257,3.7c-0.209,0.616-0.308,2.059-0.308,2.059l3.392,0.308
			l1.64-0.209c0,0,0,1.023,0,2.158s0.728,2.158,1.134,2.466c0.407,0.309,1.849,0.407,4.218,1.024
			c2.355,0.617,1.431-0.309,1.849-0.506c0.408-0.209,1.024-0.727,1.85-1.85c0.814-1.134,0.505-1.134,1.023-1.651
			c0.518-0.506,1.751-1.641,1.751-1.641s0.505,0.826,0.616,1.134c0.099,0.309-0.209,1.233-0.209,1.233l-0.309,1.739l0.309,7.77
			c0,0.912,0.776,1.073,1.689,1.073c0.937,0,0.937-0.308,0.937-0.308h3.54l1.85,0.147l7.399,12.494l-0.457,1.071
			c0,0-1.233,1.085-1.851,3.551c-0.616,2.467-0.159,2.775,0,3.848c0.148,1.086,0.617,0.938,0.914,1.557c0.32,0.614,0,3.376,0,3.376
			l-0.914,1.234l-0.319,1.233l-1.382,1.393l0.309,1.69l0.925,0.938l0.616,1.528l-0.468,1.554l0.16,5.845c0,0,2.467,3.7,1.542,4.169
			c-0.925,0.469-0.765,1.381-0.765,1.381s-0.16,1.085-1.702,1.7c-1.542,0.619-0.617,1.852-0.617,1.852l0.925,1.381l-2.01,1.851
			l-0.457,1.554l0.925,1.528l-0.616,1.085l-0.617,0.616l-0.617,1.383l-0.555,0.134"/>
		<path fill="none" stroke="#666666" stroke-width="0.5" stroke-miterlimit="10" d="M519.351,684.994
			c0.037,0.085,0.197,0.481-0.826-0.728c-1.135-1.344-2.157-2.368-2.157-2.368l-1.135-1.752c0,0-0.21-0.924-1.641-2.255
			c-1.442-1.333-2.775-3.603-2.775-3.603s-1.96-0.713-2.367-1.023c-0.408-0.307,0.099-1.233,0.209-1.849
			c0.1-0.617,0.926-1.751,0.1-2.157c-0.826-0.407-2.565-1.136-3.799-1.136s-5.241,0.31-5.143-0.407
			c0.099-0.715-9.458-0.208-9.458-0.208s-1.541-0.716-2.047-1.433c-0.519-0.727-2.158-1.961-2.368-2.576
			c-0.209-0.617-1.332-2.565-1.442-3.799c-0.099-1.232-0.926-1.541-1.332-1.948c-0.408-0.418-2.676-0.519-2.676-0.519l-3.083,0.31
			c0,0,0.111-0.31-1.431-2.565c-1.54-2.268-1.75-2.268-2.466-2.887c-0.727-0.614-1.035-2.256-1.035-2.256l-1.431-1.331
			c0,0-0.616-1.233,0.31-1.96c0.923-0.717,1.022-0.717,1.948-1.739c0.924-1.037,1.331-1.346,1.85-1.753
			c0.518-0.407-0.408-1.641-0.715-1.54c-0.31,0.099-2.368-0.716-1.653-1.234c0.727-0.518,2.368-1.332,2.368-1.332l0.098-1.442
			l-2.774-1.023c0,0-1.333,0.309-0.814-1.541c0.506-1.851,0.31-4.427,1.233-4.836c0.926-0.406,0.926-1.64,0.926-1.64
			s-2.776,0.407-1.751-1.134c1.024-1.541,0.924-3.182,0.924-3.182s-0.715-0.111-1.639-1.134c-0.926-1.024-1.962-1.542-0.728-2.061
			c1.233-0.505,0.209-1.232,0.209-1.232s-1.135-0.813-1.444-1.124c-0.307-0.308-0.099-1.133,0.518-1.343
			c0.616-0.197,1.134-1.235,1.134-1.235l-0.518-1.946l-2.157-0.715c0,0-0.716-1.443-1.85-1.443c-1.135,0-2.159-1.332-0.309-1.232
			c1.849,0.1,3.181-0.718,3.181-0.718l0.309-1.44l-4.723-0.925c0,0-0.518-0.211-0.518-1.751c0-1.542,0-2.355-0.715-3.183
			c-0.715-0.827-0.826-2.158-1.751-3.293c-0.925-1.121-1.332-1.85-2.159-2.663c-0.813-0.827-2.256-1.135-2.256-3.082
			c0-1.963-0.716-1.963,0-2.577c0.714-0.618,1.542-1.431,1.542-1.431s-3.083-3.811-3.91-6.166c-0.814-2.368-1.023-2.368-1.233-3.501
			c-0.197-1.124-1.64-1.544-0.715-2.776c0.925-1.233,0.925-2.157,0.925-2.157s0.519,0.11-0.616-0.618
			c-1.135-0.716-1.752-1.232-1.444-2.158c0.309-0.924,0.729-2.156,0.419-2.774c-0.308-0.615-0.518-4.204-0.727-4.724
			c-0.197-0.518,1.541-0.713,2.158-1.023c0.617-0.308,1.652-1.033,1.652-1.033l-0.308-1.234c0,0-3.392-3.898-3.7-5.438
			c-0.309-1.543-0.827-1.754-1.345-2.159c-0.505-0.42-0.617-3.294-0.617-3.294s-0.098-1.44-0.715-2.157
			c-0.616-0.716-1.64-2.156-0.825-2.873c0.825-0.727,0.727-1.036,1.541-1.961c0.827-0.924,0.926-1.121,2.159-1.949
			c1.233-0.825-0.197-1.638-0.197-1.638s-0.617-1.037-1.135-1.851c-0.518-0.827-1.443-1.036-1.443-2.467c0-1.443,0-3.293,0-3.293
			l0.925-3.6c0,0-0.099-0.506,0.826-1.124c0.925-0.614,1.233-1.035,1.233-1.035l-0.308-1.431c0,0-0.827,0-1.332-1.849
			c-0.518-1.851-0.112-1.444-1.234-3.81c-1.134-2.356-3.083-6.057-3.811-8.018c-0.715-1.949-0.505-1.849-1.122-2.564
			c-0.617-0.716,0.098,0.518-1.653-1.641c-1.739-2.159-2.775-2.577-2.158-3.084c0.616-0.518,0.518-2.885,0.518-2.885
			s0,0.21,0.827-1.43c0.813-1.654,0.924-3.812,0.924-3.812s0.925-1.121,1.233-1.232c0.309-0.1,0.506-0.717-0.111-1.332
			c-0.617-0.617-1.331-2.467-1.331-2.467s-0.519-1.64-0.925-2.157c-0.407-0.52-1.023-0.52-0.925-1.233
			c0.098-0.716,0.715-1.443,0.715-1.443s1.344-5.339,1.135-6.166c-0.21-0.814,0.407-1.233,1.023-2.158
			c0.617-0.926,0.308-0.406,0.826-1.851c0.518-1.429,0.209-1.429,0.716-2.354c0.518-0.925,0.11-3.083,0.727-3.811
			c0.617-0.716,3.181-0.616,3.181-0.616s0-0.197,0.309-0.407c0.308-0.21,0-1.642,0-1.642l-1.85-2.205c0,0-0.925-0.777-0.925-1.703
			c0-0.925,0-3.082,0-4.007c0-0.927-0.924-2.467-0.924-3.539c0-1.088-0.309-1.703,0-2.17c0.308-0.456,0.924-2.617,0.456-2.923
			c-0.456-0.309-2.614-0.776-0.148-2.01c2.466-1.232,4.316-2.308,4.933-2.924s1.997-1.851,1.997-1.851l0.162-8.015l-0.252-0.044
			l-3.288-0.572c0,0-2.626,0.159-2.318-2.01c0.308-2.146-0.148-1.691-0.925-4.157c-0.777-2.467-2.775-7.399-3.541-8.175
			c-0.776-0.767-1.392-0.767-2.009-2.923c-0.616-2.158-2.923-2.923-2.466-4.933c0.456-2.01,0.617-1.851,0.776-3.084
			c0.148-1.233,0-3.082,0-3.082s-0.234-0.618-0.776-1.468c-0.542-0.838-0.309-0.075-1.542-2.541
			c-1.233-2.467-2.615-5.168-2.615-6.313c0-1.16-0.543-1.395-1.084-2.012c-0.542-0.616-1.702-2.01-1.702-2.231
			c0-0.234-0.457-1.012-0.457-1.012"/>
		<path fill="none" stroke="#666666" stroke-width="0.5" stroke-miterlimit="10" d="M527.21,690c-0.83-0.38-2.51-1.05-2.83-1.22
			c-0.42-0.2-2.67-1.851-2.67-1.851l-2.36-1.939l-0.01-0.01"/>
		<path fill="none" stroke="#666666" stroke-width="0.5" stroke-miterlimit="10" d="M452.956,435.878l-0.309-2.258
			c0,0,0.21-1.135,1.233-2.269c1.023-1.123,1.332-1.432,2.06-2.047c0.716-0.617,1.541-2.059,1.541-2.059l1.949-1.232
			c0,0,1.024,0.824,1.542,1.947c0.518,1.134,1.023,0.209,1.023,0.209l3.293,0.211c0,0,2.256,0.099,2.565,0.099
			c0.308,0,0.826,0.923,1.134,1.134c0.308,0.197,0.826,0.925,1.541,1.738c0.716,0.827,0.926,3.293,0.926,3.293
			s0.616-0.617,0.715-1.444c0.11-0.813,0.727-1.232,1.542-2.467c0.826-1.232,0-2.872,0-2.872l6.684,0.1c0,0,2.258,0.42,2.258,0.925
			c0,0.517,1.441,2.367,1.959,2.982c0.507,0.617,0,0,1.233,1.544c1.233,1.54,2.257,1.64,2.775,2.156
			c0.505,0.519,2.047,1.444,3.391,2.873c1.333,1.442,2.257,3.084,4.624,4.219c2.355,1.135,4.206,1.442,4.206,1.442l2.059,0.1
			c0,0,1.642,1.638,1.948,1.947c0.311,0.309,2.886,1.851,2.886,1.851s2.047,1.036,2.665,1.849c0.614,0.828,2.27,1.346,2.27,1.346
			l2.873,1.331c0,0,1.75,0.21,2.674,1.233c0.925,1.022,1.74,0.716,2.157,0.716c0.408,0,0.408,0,0.817,0.924
			c0.418,0.925-1.123,2.466-1.123,2.466s-0.421,1.653-0.728,2.369c-0.31,0.714-1.124,1.022-1.124,2.367
			c0,1.331-0.517,3.589-1.749,5.958c-1.233,2.366-0.099,1.132-0.099,1.849c0,0.715,0.924,0.518,3.797,0.518
			c2.874,0,1.85,0.1,3.082,0.308c1.235,0.197,1.753,1.233,3.395,1.233c1.639,0,4.104,0.309,4.104,0.309s2.367-0.729,3.391-0.729
			c1.036,0,1.542-0.504,2.269-1.332c0.717-0.825,1.025-1.134,1.641-1.849c0.618-0.716,1.136-1.233,2.565-3.182
			c1.444-1.962,0.828-1.752,0.828-2.466c0-0.729,0-5.661,0-5.661s0.616-0.715,1.442-0.813c0.814-0.113,2.047-0.211,2.047-0.211
			l1.442,0.211l0.405,1.12l1.345,1.444c0,0,0.309,1.54,1.121,4.315c0.828,2.774-2.156,6.684-2.156,6.684
			c-7.807,3.798-17.462,19.62-17.77,20.447c-0.31,0.825-1.442,2.157-1.653,2.466c-0.196,0.309-1.85,2.058-1.85,2.058v12.84
			c0,0,0.519,2.577,0.309,4.315c-0.198,1.751,1.443,2.466,1.443,2.466s0.309,0.827,0.516,1.543c0.199,0.728-0.418,0.924-0.826,1.343
			c-0.406,0.407-1.331,1.431-1.331,1.431s-0.825,1.345,0,2.776c0.814,1.442,2.049,2.269,2.049,2.269l0.134,0.604"/>
		<path fill="none" stroke="#666666" stroke-width="0.5" stroke-miterlimit="10" d="M525.813,495.291
			c1.369-0.244,3.392-0.837,3.392-0.837l1.135-0.617h2.059l1.541,0.209c0,0,0,0,0,0.507c0,0.517,0.716,1.035,2.466,2.466
			c1.739,1.443,1.951,1.752,1.951,1.752s-0.212,1.85-0.311,2.256c-0.097,0.419,1.332,0.728,1.85,0.112
			c0.519-0.619,0.827-0.827,0.827-0.827l1.121-0.309c0,0,0.729,0.408,1.233,1.442c0.521,1.024,3.085,1.541,3.085,1.541
			s2.268,1.544,2.773,1.95c0.52,0.407,2.773,1.948,2.773,1.948l2.368,1.652c0,0,1.232,1.43,2.259,2.355
			c1.036,0.925,1.959,1.036,1.959,1.036s-0.308-0.925,1.024,1.023c1.023,1.505,1.146,1.186,1.146,0.947"/>
		<path fill="none" stroke="#666666" stroke-width="0.5" stroke-miterlimit="10" d="M561.304,522.472
			c-0.752,0.1-1.776,0.049-1.776-0.986c0-1.652,0.311-1.85-0.419-2.775c-0.715-0.925-1.122-1.234-0.615-1.344
			c0.517-0.1,0-1.023,0.923-1.023c0.926,0,1.234-0.925,1.234-0.925l-0.186-1.519l-0.014-0.122"/>
		<path fill="none" stroke="#FFFFFF" stroke-width="0.5" stroke-miterlimit="10" d="M378.348,460.849"/>
		<path fill="none" stroke="#666666" stroke-width="0.5" stroke-miterlimit="10" d="M482.652,428.886c0,0,1.035-0.198,1.233-3.281
			c0.208-3.084,1.343-10.593,1.343-10.593s0.716-0.099,1.124-2.158c0.419-2.048,0.616-2.972,0.616-2.972s0.308-0.616,2.158-1.135
			c1.851-0.518,1.851,0.308,4.317-0.615c2.466-0.927,2.268-0.618,4.118-1.444c1.85-0.815,2.564-0.504,4.933,0
			c2.354,0.518,2.973,0.518,3.391,1.035c0.408,0.507,2.774,0.927,2.774,0.927s2.158-0.729,2.874,2.354
			c0.715,3.082-0.099,2.368,0.925,4.315c1.023,1.962,1.541,4.933,2.368,5.55c0.814,0.615-0.112,0,0,3.293
			c0.098,3.291,0.506,3.49,0.506,3.799c0,0.307-0.506,2.268,5.144,1.85c0,0,1.44-0.408,1.947,0.518
			c0.519,0.925,0.925,0.519,1.233,0.405c0.307-0.098-0.1-1.232,1.133-1.232c1.233,0,2.466,0,3.085,0.618
			c0.615,0.614,1.233,2.366,2.059,2.366c0.813,0,2.157,1.542,2.157,1.948c0,0.419-0.307,2.159,0.198,2.775
			c0.519,0.618,1.136,0.519,1.034,1.751c-0.109,1.234-0.109,2.059,0.506,2.873c0.617,0.827,0.927,0.617,0.617,1.541
			c-0.309,0.926,1.851,1.852,2.578,1.136c0.716-0.715,0.099-1.751,1.333-1.751c1.233,0,2.156,0.11,2.564,0.42
			c0.417,0.307,1.343-0.112,1.441,2.564c0.101,2.675,0.31,4.105,0.31,4.105s-0.716,0.926-0.828,2.677
			c-0.098,1.753,0.212,3.084,0.212,3.084l-0.616,1.947"/>
		<path fill="none" stroke="#666666" stroke-width="0.5" stroke-miterlimit="10" d="M426.442,339.528c0,0,3.601,0.469,5.451,0.678
			c1.85,0.199,1.233,0.199,2.873-1.034c1.64-1.234,2.256-2.875,3.083-2.875c0.827,0,3.7-2.059,3.7-2.059s1.023-0.407,1.85-1.232
			c0.827-0.814,2.257-2.049,2.874-3.083c0.617-1.024,3.502,0,3.502,0l5.55-1.233c0,0,0.197,0.418,0.197,1.652
			c0,1.231,0.209,2.467,0.209,3.082c0,0.617-0.209-0.418-0.826,1.431c-0.616,1.851-0.407,3.084,0.21,3.501
			c0.616,0.408,0.616,0.817,0,1.851c-0.617,1.023-1.023,2.047,0.21,2.665c1.233,0.616,3.28,2.887,3.699,3.7
			c0.407,0.825,1.431,2.886,2.664,3.291c1.233,0.408,1.443,1.642,1.443,1.642s5.339-0.199,5.957,0
			c0.616,0.209,2.466,1.652,4.119,2.675c1.64,1.023,2.663,2.258,4.316,3.292c1.64,1.024,3.083,1.024,3.083,2.257
			c0,1.233,0.814,0.827,3.083,0.827c2.257,0,3.281-0.617,4.723-0.21c1.443,0.405,3.083,1.639,2.875,3.082
			c-0.198,1.442,1.035,2.467,1.035,3.49c0,1.037,1.85,3.909,1.85,3.909s-1.035,0.616-1.233,1.232
			c-0.209,0.618-1.036,1.851-1.036,1.851s1.444-0.617,2.061,1.443c0.617,2.047,0.826,4.104,0.826,4.724
			c0,0.615,0.406,2.059,1.64,2.059s2.676,0.197,5.551,0.197c2.871,0,5.337,0.21,5.337,0.21l-0.196,4.525
			c0,0,0.196,2.467,1.024,2.467c0.825,0,0.406,1.43,1.023,1.43c0.615,0,1.651,1.443,1.651,1.443l2.466,0.21
			c0,0-1.035,1.43,0.198,3.279c1.232,1.851,2.061,2.06,2.061,3.083c0,1.038-3.294,1.652-2.467,1.652
			c0.826,0,0.826,1.641,0.826,2.468c0,0.813-1.443,3.896-1.443,3.896v1.849l-1.232,1.233"/>
		<path fill="none" stroke="#666666" stroke-width="0.5" stroke-miterlimit="10" d="M480.79,215.457
			c-0.099,0.111-0.532,0.666,2.479-1.036c3.292-1.85,2.466-2.676,2.466-2.676l0.617-1.024l0.616-1.442l-1.097-1.308
			c0,0-0.396-0.542-0.925-0.617c-0.543-0.075-2.012-1.924-2.012-1.924s0.617-0.542-0.221-1.084c-0.85-0.543-1.232-1.307-1.232-1.307
			s-0.851-0.777,0-1.233c0.837-0.469,1.146-0.926,1.146-1.924c0-1.011-0.53-2.553-0.53-2.553s0.691-0.308,1.69-0.851
			c0.997-0.53,1.688-0.147,2.625-0.617c0.914-0.456,1.998-0.616,1.998-1.454c0-0.852,0.852-1.628,0-2.159
			c-0.851-0.543-2.231-2.393-2.231-2.393s0.925-0.851,1.614-1.307c0.69-0.469,0.617-0.469,1.542-0.851
			c0.924-0.383,2.626-1.468,2.626-1.776c0-0.308,1.307-0.222,1.307-1.776c0-0.444,0.137-0.814,0.345-1.122"/>
		<path fill="none" stroke="#666666" stroke-width="0.5" stroke-miterlimit="10" d="M480.801,215.445c0,0,0,0-0.012,0.012
			c-0.137,0.062-2.504,1.246-4.095,1.838c-1.64,0.616-2.873,0-2.873,0l-1.85,1.441c0,0,0.616,1.641-0.211,2.467
			c-0.826,0.814-1.442,0-1.442,0s-1.232-1.035-2.664-1.035c-1.443,0-2.886-0.407-2.886-0.407l-3.083-1.641l-1.85-1.442l-2.663-0.408
			c0,0,1.43,1.85,1.43,2.466c0,0.617,2.06,2.048,2.06,2.048s1.023,1.035,1.64,1.85c0.617,0.826-1.43,2.885-1.43,2.885l1.64,1.85
			l0.617,1.641v1.442l0.826,0.408h2.873v2.466h-0.826l-0.408,1.233c0,0-1.023,0.209-2.675,0.617
			c-1.64,0.407-1.233,3.083-1.233,3.083l-1.023,1.024h-2.06c0,0-2.664,1.233-4.513,2.269c-1.85,1.023-0.827,3.28-0.827,3.28h-1.64
			l-0.21-1.233l-2.467-0.616l-1.023,0.616c0,0-1.443,0.827-2.676,0c-1.233-0.813,0,0-0.616-0.197
			c-0.617-0.209-1.443-2.27-1.64-2.886c-0.21-0.617-2.466,1.036-2.466,1.036s0-1.234-0.21-2.06c-0.209-0.827-0.209-1.85-0.209-3.083
			c0-0.962-0.506-2.183-0.715-2.665"/>
		<path fill="none" stroke="#666666" stroke-width="0.5" stroke-miterlimit="10" d="M486.967,209.279l2.984-0.309
			c0,0,1.233-0.519,1.233,0.715c0,1.233,0.099,1.542-0.099,1.85c-0.209,0.309-1.233,1.345-1.233,1.345l0.099,1.738
			c0,0,1.024-0.197,1.442,0.112c0.407,0.308,1.023,1.332,1.023,1.738c0,0.419-0.098,0.925,0,1.443
			c0.099,0.518,0.927,0.617,0.927,0.617s0.715,0.099,0,2.564c-0.717,2.467-0.617,2.676-1.232,3.7
			c-0.619,1.035-1.753,1.751-1.444,3.083c0.309,1.343,0.518,3.502,0.518,3.502l1.75,2.158l0.098,2.256c0,0,0.21,0.715,0.927,1.332
			c0.715,0.616,0.617,0.925,1.134,1.851c0.506,0.924,1.95,1.75,2.256,1.75c0.31,0,3.394,0,3.394,0s0.824-0.518,3.181-1.85
			c2.368-1.332,2.059-1.85,3.193-2.466c1.123-0.617,2.048-1.752,2.048-1.752s0.517-0.407,2.367,0c1.85,0.42,3.799,0.42,3.799,0.42
			s-1.542-2.466-1.851-2.677c-0.308-0.209-2.774-2.466-2.774-3.797c0-1.344-0.198-2.467-1.024-3.602
			c-0.825-1.134-1.948-2.257-1.948-2.257s-2.158-1.75-2.268-2.775c-0.1-1.036-1.123-1.96-1.123-2.675
			c0-0.716,0.309-2.369,1.023-3.084c0.715-0.714,1.025-2.256,1.025-2.774c0-0.519,0.108-0.825,0.307-1.135
			c0.211-0.308,0,0,1.96-0.308c1.949-0.309,1.642-2.663,1.642-2.663s0.825-0.419,0.825-1.542c0-0.419,0.199-1.553,0.445-2.8"/>
		<path fill="none" stroke="#666666" stroke-width="0.5" stroke-miterlimit="10" d="M515.331,235.078c0,0,2.576-0.309,2.983-0.309
			c0.408,0,0.825-0.617,0.928-1.541c0.097-0.925-0.31-1.85-0.31-1.85s1.542,0,3.179,0c1.654,0,1.654-0.518,1.654-0.518l1.122-0.617
			l3.192,0.826c0,0,1.026,1.332,1.026,1.641c0,0.307,2.871,1.023,2.871,1.023l0.926-0.925c0,0,1.443-0.099,2.467-0.617
			c1.034-0.505,2.06-0.196,2.368-0.196c0.307,0,1.331,0.715,1.331,0.715l0.825,0.924c0,0,0.716-0.307,1.135-0.617
			c0.409-0.307,0.716-0.714,1.233-1.331c0.506-0.617,1.232-0.826,1.232-0.826s1.026-0.827,1.235-1.948c0.197-1.134,0-2.677,0-2.677
			l0.924-2.256c0,0,1.121-2.269,1.333-2.676c0.209-0.407,1.021-0.925,1.441-1.443c0.408-0.506,0.715-1.023,0.925-1.739
			c0.161-0.604,0.889-0.986,1.147-1.098"/>
		<path fill="none" stroke="#666666" stroke-width="0.5" stroke-miterlimit="10" d="M528.982,232.413
			c1.171-1.122,0.604-1.503,1.257-2.071c0.814-0.715,0.506-0.309,1.432-2.158c0.924-1.85-0.815-1.64-0.717-2.664
			c0.1-1.036,0.518-0.826,1.542-2.775c1.025-1.96,0-0.925-0.407-2.269c-0.418-1.331-1.035-1.739-1.442-3.798
			c-0.407-2.06-0.308-2.874-0.308-2.874s0-2.577,0.1-3.908c0.109-1.332,1.135-1.542,1.849-2.258
			c0.729-0.727,0.616-1.134,0.616-2.466c0-0.578,0.197-1.195,0.418-1.763"/>
		<path fill="#394959" d="M426.442,373.809l1.438,0.925c0,0,1.233-0.206,0.925,0.721c-0.309,0.926-0.925,1.333-0.309,1.333
			c0.616,0,1.645,0,1.645,0s0.412,0.206,0.72,0.72c0.309,0.514,0.617,0.825,0.925,0.927c0.308,0.104,1.026,0.204,1.026,0.204
			s0.823,0.413,0.617,1.028c-0.205,0.617-0.205,0.617-0.205,0.617s1.028,0.82,0.412,1.437c-0.617,0.617-1.44-0.204-1.44-0.204
			s-0.617-1.028-1.438-1.028c-0.822,0-2.055-1.131-2.055-1.131s-0.206-0.818-0.925-0.818s-1.645-0.312-2.466-0.617
			c-0.823-0.309-0.205-1.03,0.309-1.646c0.513-0.617,0.617-1.646,0.617-1.646L426.442,373.809z"/>
		<path fill="none" stroke="#C7BCB1" stroke-width="0.25" stroke-miterlimit="10" d="M261.441,20.465l0.061,0.136
			C261.502,20.601,261.194,20.663,261.441,20.465z"/>
		<path fill="none" stroke="#C7BCB1" stroke-width="0.25" stroke-miterlimit="10" d="M274.143,12.437h0.53
			C274.414,12.45,274.143,12.437,274.143,12.437z"/>
		<path fill="none" stroke="#C7BCB1" stroke-width="0.25" stroke-miterlimit="10" d="M446.272,586.326c0,0,0.012,0,0.024,0
			C446.321,586.365,446.272,586.326,446.272,586.326z"/>
		<path fill="none" stroke="#C7BCB1" stroke-width="0.25" stroke-miterlimit="10" d="M160.79,59.85l0.61,0.83v1.44l-1.02,0.82
			l-0.41,1.85c0,0,0,0-2.26,0.61c-2.26,0.62-2.67-2.46-2.67-2.46c1.64-1.43-9.05-11.3-9.05-11.3l-2.05-2.06l1.43-1.23
			c0,0,0,0,0.62-1.45c0.62-1.43,0.21-2.25,0.21-2.25c3.08-0.83-0.21-5.34-0.21-5.34c-2.47-0.83-4.32-4.53-4.32-4.53l-3.49-0.61
			c-3.08-2.68-7.4-7.81-7.4-7.81h5.76l1.85,1.85c1.98-0.2-0.61-3.44-0.81-3.69c0.11,0.09,0.89,0.52,1.84-2.9
			c1.02-3.69-7.4-10.48-7.4-10.48l-0.62-0.81l0.41-1.24l-0.62-1.03l1.65-2.47l-1.44-0.4l-0.41-1.24l1.24-1.64l-1.45-1.65
			c0,0,0.1-0.26,0.2-0.66h10.08v4.98l-1.24,3.08c0,0,1.04,1.85,4.53,8.22c3.49,6.38,2.47,10.08,2.47,10.08
			c3.7,3.08,2.67,6.36,3.91,7.19c1.23,0.83,3.49,3.29,2.87,5.55c-0.62,2.25,0.41,8.22,0.41,8.22l0.82,0.82l0.21,2.06
			c0,0-2.67-0.62-0.62,3.49c2.05,4.12,3.49,1.23,3.49,1.23l1.65,1.65L160.79,59.85z"/>
		<path fill="none" stroke="#C7BCB1" stroke-width="0.25" stroke-miterlimit="10" d="M666.61,323.82c-0.15,0.45-2.62,3.54-2.78,4.77
			s-7.71,8.94-8.17,8.94s-2.15,2.16-2.15,3.85c0,1.7-6.02,12.18-6.02,12.18l-2.61,0.931c0,0,0.29-1.69-2.17-1.4
			c-2.47,0.32,1.08,1.851,1.08,1.851s-0.31,0.939-1.08,1.56c-0.77,0.61-1.53,6.16-1.53,6.16l1.23,1.689c0,0-2.17,2.311-2.17,3.08
			c0,0.78,1.85,0.931,1.85,4.78c0,3.86,0.16,1.85,0.16,1.85l1.23,4.021c0,0,1.239,1.85,0.779,3.229
			c-0.47,1.381-2.47,2.94-2.319,4.46c0.149,1.561,0.47,4.171,0.47,4.171s0.62,3.229-1.851,5.859c-2.47,2.63-0.779,8.63-0.779,8.63
			s0.62,4.011-1.54,5.391c-2.16,1.39-1.23,4.779-1.7,5.71c-0.46,0.92-1.69,1.39-2.92,2.63c-1.23,1.229,0.16,2.76-1.23,5.229
			c-1.399,2.46,0.771,3.4,0.771,3.4s-1.851,0.91-2.63,1.07c-0.771,0.159-2.92,2.47-2.92,2.47l-1.7,1.54c0,0,0.77,3.08-0.15,2.46
			c-0.93-0.61-6.63,0.62-6.63,0.62l-0.77-1.23c0,0-0.931,1.7-2.32,1.7c-1.38,0-1.99-0.93-1.99-0.93l-0.939,1.39l-1.851,0.78
			l-0.149-1.24l-4.011,0.15l2.16,1.229c0,0-2.93,2.94-3.55,2.94c-0.61,0-1.85,1.38-1.85,1.38l1.239,0.77l-0.46,1.08
			c0,0-1.239,0-2.31,0c-1.08,0,0.77-0.47-3.4,0c-0.239,0.021-0.479,0.07-0.729,0.15c-4.25,1.2-10.99,8.479-10.99,8.479l-0.45,2.471
			l-2.31,0.47l-2.01,1.99l1.229,1.239l-0.45,1.851c0,0-1.09,1.54-0.939,2.46c0.16,0.93,1.7,7.55,3.08,9.56
			c1.399,2.011,0.159,8.63-2.301,10.03c-2.47,1.38-5.1,7.4-5.1,7.4c0,12.62-11.55,21.58-11.55,21.58s-0.16-1.561-0.16,0.609
			c0,2.15-3.38,9.55-3.85,9.71c-0.471,0.16-1.08-0.779-1.08,1.391c0,2.149-6.931,9.55-7.4,9.55c-0.46,0-2.47-0.15-3.54-0.771
			c-1.08-0.62-3.09,0-3.7,0.311c-0.62,0.31-1.85,1.229-3.239-0.62c-1.391-1.85-4-0.92-5.4-0.92c-1.39,0-2-1.54-2.46-2
			c-0.46-0.47-1.69,0-3.7-0.16s-0.93-1.07-1.39-1.54c-0.37-0.38-1.141-1.15-2.38-1.35c-0.301-0.051-0.641-0.061-1-0.03
			c-1.851,0.14-0.32,2.3,0,2.76c0.29,0.47,1.38,1.7,2.3,2.17c0.93,0.46,1.24,1.07,1.689,1.69c0.471,0.62,2.011,1.069,3.7,1.229
			c1.71,0.16,1.09,0.931,1.561,1.4c0.449,0.45,1.229,0.76,2,0.76c0.76,0,0.46,2,0.46,2s-0.931,2.62-0.16,3.24
			c0.78,0.62,0.93,1.85,0.93,1.85l1.23,1.23c0,0,0.76,0.17,1.54,1.08c0.779,0.939,0.93,1.39,1.689,1.7
			c0.78,0.31,0.16,2.939,0.16,2.939s-0.61,1.23-0.61,2.76c0,1.551-1.689,1.551-2.63,2.62c-0.91,1.08,0,3.7,0,3.7
			c-7.08,6.17-17.56,6.17-19.569,6.17H516.3c-0.76,0-1.689-0.62-4.31-1.229c-2.61-0.62-0.62,1.54-0.15,2.31
			c0.47,0.771,1.38,2.16,2.771,2.78c1.399,0.62,1.399,3.229,0,3.7c-1.391,0.46-0.301,4.77,1.239,5.55
			c1.54,0.76-0.159,2.14-0.93,2.609c-0.76,0.471-1.38,1.54-1.38,1.54s-4.93,1.08-6.94-0.3c-2.01-1.38-4.77-1.55-6.619-2.47
			c-1.851-0.93-3.551,2.93-1.091,4.01c2.471,1.07,3.23,6.78,3.23,6.78l1.56,0.78c0,0,0.61,0.29,2.141,0.76
			c1.56,0.47,1.239-0.311,1.239-0.311s0.61-0.77,1.391-1.39s1.54-0.15,1.85,0.32c0.311,0.46,1.23,1.38,2.46,1.529
			c1.24,0.16,0.62,3.7,0.62,3.7l-2.92,0.32c0,0-0.94-0.62-1.39-0.62c-0.46,0-0.78-1.23-2.16-1.55c-1.38-0.3-1.09,0.319-2.16,1.55
			c-1.07,1.24,0.92,0.77,1.69,1.24c0.779,0.45,1.699,0.45,1.699,0.45s0.62,0.93-0.76,2.159c-1.399,1.23-3.7,2.94-2.47,4.62
			c1.229,1.7,1.689,4.16,1.689,4.16s-0.31,1.39-1.689,2.32c-1.391,0.92,1.38,1.09,1.38,1.09s3.55,2.46-0.47,2.14
			c-3.99-0.3-4.61,0.78-7.24,3.24c-2.62,2.47-1.23,6.48-0.3,7.4c0.92,0.93,4.779,3.699,5.08,4.63c0.319,0.92,5.09,0.76,6.159,0.76
			c1.091,0,3.24,0.78,3.24,0.78s-1.069,3.39-0.149,4.479c0.93,1.07,1.229,1.99-0.301,2.46c-1.56,0.46-4.17,5.7-5.25,6.17
			c-1.079,0.45-3.229,2.301-0.619,4.61c2.63,2.32,0,5.25,0,5.25s-2,0.15-2.15-0.47c-0.16-0.61,0-1.54-1.08-1.851
			c-1.09-0.3-0.77,1.391-0.77,1.391l0.92,1.229c0,0-0.46,2.32-1.08,3.24c-0.61,0.93,0.16,3.25,0.31,3.86
			c0.15,0.62,3.391,2.62,3.391,2.62s-4.471,1.079-2.15,1.539c2.31,0.461,5.08,1.54,6.16,2.771c1.09,1.24,1.38,2.78,1.38,2.78
			s-1.38,1.229-1.23,1.85c0.16,0.61,2.471,0.61,2.471,0.61l3.08,2.47c0,0-2.761,1.54-0.771,1.54c2,0,7.25,4.32,8.64,5.55
			c1.381,1.23,1.851,1.54,4.311,2.771c2.47,1.239,2,1.399,3.7,2.31c1.699,0.94,2.16,0.94,5.08,1.39c2.939,0.46,2.319,0.62,2.79,0.62
			c0.229,0,0.64,0.601,0.8,1.32h-15.99c-0.82-0.55-2.53-0.94-3.93-1.32c-1.62-0.43,0.13,0.811,0.83,1.32h-6.92
			c0.02-0.03,0.05-0.06,0.079-0.09c1.23-1.391,0.61-0.92-0.93-1.391c-1.54-0.46-1.39,1.851-4,0.471c-2.62-1.38-1.39,0-2.939,0.31
			c-1.53,0.311-0.301-1.24-0.771-1.689c-0.46-0.471-1.229,0.449-3.229,0.76c-2.011,0.31-1.391-0.92-3.4-1.7
			c-2-0.76,2.79-0.29,3.24-0.29c0.46,0,2.63-0.47,2.63-0.47s-0.78-0.93-2.17-1.55c-1.38-0.61,0.939-0.771,0.939-0.771
			s1.23,0,1.53-0.46c0.32-0.45-0.3-0.92-1.08-1.689c-0.77-0.771,1.08-0.471,2.311-0.32c1.229,0.16,0.779,1.56,0.939,2.939
			c0.14,1.381,0.29,1.851,0.29,1.851s1.85-0.47,3.55-0.47c1.71,0,1.851,0.939,4.011,0.939c2.159,0,0,0-0.16-0.939
			c-0.15-0.91-2.141-0.46-2.141-0.46s-1.239,0-1.399-0.62c-0.16-0.61-1.69-0.61-2.15-1.391c-0.47-0.76-1.55-0.76-2.16-1.529
			c-0.62-0.771,1.07-0.771,1.54-0.931c0.471-0.149,0.15-0.92,1.7-1.529c1.53-0.62,0.29-1.711,0.29-1.711s-1.68,0.15-2.46,0.471
			c-0.771,0.3-1.69,0.3-2.31,0.46c-0.61,0.16-1.851-0.311-1.851-0.311l-0.3-1.38l-0.47-0.779l0.77-0.45c0,0-0.16-1.09,0.311-1.4
			c0.47-0.3,1.38-0.45,1.38-0.45s-2.301-0.779,0.47-1.55c2.78-0.77,0.47-0.77-0.15-1.24c-0.609-0.46-1.39,0-2.31,0.78
			c-0.93,0.78-1.55,0.61-3.561,1.69c-1.989,1.08-0.609,0.77,0.16,1.55c0.78,0.76,0.311,1.53,0.311,2s0.149,0.92,0.62,1.54
			c0.47,0.62,0.149,1.069,0.31,2.16c0.16,1.08-0.16,0.76-0.62,0.76s-1.069,0.16-2.77,0c-1.71-0.15-1.851-0.29-1.851-0.76
			c0-0.471-0.93-0.311-2-0.471c-1.09-0.149-0.939-1.689-0.939-1.689s0.62-0.78,1.39-1.851c0.78-1.069,0.93-0.46,2.01-0.93
			c1.08-0.46,1.24-1.08,0.15-1.99c-1.08-0.939-1.38,1.07-2,1.53c-0.61,0.46-1.85,0.771-2.62,1.23c-0.78,0.47-0.93,1.229-0.93,1.229
			s-1.54,0.16-2.46-0.29c-0.93-0.47-0.15-1.71-0.15-1.71s0.76-0.92-1.55-0.92s-2.77-0.92-3.7-2.3c-0.92-1.4-1.69,0-2.47-1.09
			c-0.77-1.08-0.91-0.311-1.07-1.7c-0.16-1.38,2.46-0.15,2.46-0.15s1.54-0.31,1.4-1.229c-0.16-0.931,0.61-0.15,1.69-1.851
			c1.07-1.699-2.63-0.62-2.63,0c0,0.61-0.77,2.15-0.77,2.15s-1.54-0.92-2.31-1.07c-0.77-0.16-1.39-1.85-1.39-1.85
			s-0.61,0.149-2.61-0.78c-2.01-0.92-0.78-1.39-0.78-1.39s2.47-0.91,0-1.53c-2.46-0.61-2.62-0.78-1.85-2.63c0.78-1.85,0,0,1.4-0.92
			c1.38-0.93-0.62-1.08-0.62-1.08s-0.78,1.08-1.55,0.32c-0.77-0.78-1.08,0.14-1.39,1.069c-0.3,0.92,0,0,0.31,1.07
			c0.31,1.09-0.92,1.09-1.69,1.09c-0.77,0,0.15-0.77-1.85-1.55c-2.01-0.771-1.39-1.07-0.93-1.54c0.47-0.46,2.17,0.15,1.55-0.46
			c-0.62-0.62,0.62-0.62,1.23-1.24c0.62-0.609,1.24-0.76,1.24-0.76s-1.09-0.311-3.09-0.771c-2.01-0.47-0.93-1.55-0.16-2.319
			c0.78-0.76,1.54-1.23,1.54-1.23s-1.7-0.149-1.84-1.38c-0.1-0.84,0.22-0.979,0.43-0.979c-0.19-0.17-0.43-0.721-0.43-2.57
			c0-2.93-1.85,0.15-1.85,0.15l-0.31,2.46c0,0-1.08,2.79-1.54,0.319c-0.47-2.46-0.62-0.609-0.62-0.609s-0.31,0.76-1.23,2.3
			c-0.93,1.54-1.09-0.61-1.09-0.61s-0.15-0.78-0.91-0.78c-0.78,0-0.47-1.689,1.07-2.149c1.54-0.46,0,0-0.46-0.32
			c-0.46-0.29,0-0.76,0.15-1.53c0.15-0.77-0.15-0.609-0.15-0.609s0-0.78-0.16-1.24c-0.16-0.46-1.23,0.771-1.39,1.24
			c-0.15,0.45-0.97,1.479-0.97,1.479s-3.28-2.67-0.2-3.39s0.81-1.74,0.81-1.74c-4.72,1.021-2.25-0.62-3.39-1.55
			c-1.12-0.92-0.61-1.65-0.61-2.46c0-0.83,1.13-1.04,1.96-1.34c0.81-0.311,1.12,0.92,2.15,1.439c1.03,0.521,2.05,2.16,2.36,2.87
			c0.31,0.73,1.85,2.16,1.85,2.16l0.73-1.64v-1.33c0,0-2.89-1.141-3.2-1.141c-0.3,0-0.92-1.13-0.92-1.13l0.73-1.029
			c0,0,1.33,0.409,2.15,0.52c0.82,0.1,1.13,0.41,2.16,1.03c1.03,0.609,1.03,0.3,1.95-0.62c0.93-0.93-1.13-1.33-1.85-1.75
			c-0.71-0.41-2.46-0.2-3.39-0.82c-0.93-0.609-0.52-1.13-0.52-1.13s-1.12-0.83-1.95-1.02c-0.82-0.21-0.3-0.931,1.03-2.78
			c1.34-1.85-0.51,0.82-2.36-0.82c-1.85-1.64,0.72-4.529,0.72-4.529s0.92,1.229,1.23,0.42c0.31-0.83,0.21-1.54,0.72-2.471
			c0.51-0.92-1.55-0.62-1.95-0.92c-0.41-0.31,0.4-1.96,0.4-1.96s-1.02-1.03-1.43-2.16c-0.42-1.12,1.34,0.311,1.95,0
			c0.62-0.31,1.85-0.409,2.47-1.33c0.62-0.93-2.37-0.52-4.32-1.239c-1.95-0.71,1.02-2.051,1.02-2.051s0.52-0.199,1.24-1.029
			c0.73-0.82,0.11-1.851,0.31-2.78c0.21-0.92-0.62-0.4-1.64-0.61c-1.03-0.21-1.24-1.02-2.06-1.14c-0.82-0.09-2.05-0.61-1.54-1.84
			c0.51-1.24,1.13-1.03,1.54-2.05c0.42-1.04-0.31-1.141-1.43-1.44c-1.14-0.31-1.24-1.76-1.35-2.37c-0.1-0.62,1.14-2.779,1.24-3.09
			c0.11-0.3,0.21-0.92-0.93-1.33c-1.12-0.41,0,0-0.41-0.92c-0.4-0.93,0-2.47,0-2.47c2.37-0.101,0.31-2.37,0.31-2.37
			c-3.18,0.729-1.23-0.4-2.06-1.43c-0.81-1.03,0.52-0.61,1.04-1.131c0.5-0.52-1.14-1.029-2.68-1.13
			c-1.54-0.109-0.71,0.721-1.02,1.03c-0.29,0.28-2.28,0.39-2.55,0.41c-0.04-0.05-0.53-0.48-3.31-2.68
			c-3.91-3.08-1.75-5.96-3.08-8.631c-1.35-2.67-0.31-2.359,1.02-4.109c1.33-1.75-0.4-2.87-0.4-4.93c0-2.061-1.66-2.98-2.78-4.11
			c-1.13-1.13-1.04-2.46-1.75-4.43c-0.72-1.94-0.83-1.94-1.64-4.721c-0.83-2.77-1.34-2.16,0.5-2.87c1.85-0.729,0.83-1.35,0.52-2.159
			c-0.3-0.83,0-2.061,0.83-2.771c0.81-0.729,0.5-2.78,0.5-2.78l-1.43-2.47c1.55-0.41,1.95-1.03,1.95-1.03s-3.29,0.21-0.61-3.279
			c2.67-3.5,1.02-6.28,0.71-6.9c-0.31-0.61-2.05-5.85,0-6.05c2.06-0.21,0.52-3.391-0.1-3.601c-0.61-0.21-0.71-0.829,0-3.909
			c0.72-3.08-5.45-16.54-5.65-17.67c-0.2-1.141-0.72-0.521,1.55-4.11c2.25-3.601-1.66-6.78-2.68-7.71c-1.02-0.92-0.1-2.88,0.62-3.91
			c0.71-1.02,1.02-1.94,1.64-3.08c0.61-1.13-0.72-1.85-1.13-2.56c-0.41-0.73,0.31-2.061,0.72-2.471c0.41-0.42,0.21-1.85-0.21-2.47
			c-0.41-0.61-0.31-5.35-0.31-6.16c0-0.83,1.04-1.96,1.04-3.39c0-1.45-1.44-2.16-1.85-3.29c-0.42-1.14,0-2.47,1.12-3.7
			c1.14-1.24,0.93-1.76,0.52-2.26c-0.41-0.521-0.93-0.62-0.93-4.22c0-3.601-0.51-6.471-1.54-7.4c-1.02-0.92-1.23-2.25-1.44-2.98
			c-0.2-0.72,0.92-0.72,1.96-2.159c1.02-1.431,0.62-7.4,0.81-10.17c0.21-2.78-0.4-1.641-1.54-5.44c-1.12-3.81-0.71-4.84-1.12-8.44
			c-0.42-3.59-0.73-3.89-1.44-5.64c-0.72-1.76-0.93-4.42-0.41-5.15c0.32-0.439,0.12-0.81-0.15-1.05
			c-0.16-0.14-0.35-0.239-0.47-0.279c-0.3-0.101-0.92-1.141-0.92-1.141c-4.43-1.939-8.23-6.359-9.05-7.49
			c-0.82-1.14-6.17-5.149-7.19-5.449c-1.03-0.311-4.42-1.431-6.58-3.391c-2.15-1.95-6.37-3.279-9.97-5.04
			c-3.59-1.75-5.34-4.52-7.91-7.09c-2.57-2.56-3.81-5.14-4.73-6.57c-0.93-1.439,0.82-2.77,1.03-3.699c0.2-0.92-4.62-8.431-5.45-8.74
			c-0.82-0.311-2.25-2.97-2.25-2.97s0-2.99-1.14-3.811c-1.13-0.82-2.67-3.28-3.18-4.01c-0.52-0.72-2.37-6.06-3.19-6.67
			c-0.82-0.62-1.24-2.99-1.85-3.91c-0.62-0.93-1.95-3.49-2.05-5.04c-0.11-1.54-2.16-4.11-2.68-5.35c-0.51-1.23-3.08-4-3.08-4
			s-4.72-9.04-7.3-11.61c-2.57-2.58-6.57-2.98-6.57-2.98l0.3-2.26c0.83-1.35,1.03-0.62,2.16-1.13c1.14-0.52-1.13-2.88-1.13-2.88
			l-2.05-1.44c0,0,0.31-1.54-0.61-2.16c-0.93-0.61-0.52-1.54-1.04-2.06c-0.51-0.5,1.13-2.05,0.92-2.66
			c-0.19-0.62,1.04-1.65,1.24-1.96c0.21-0.31,1.13-0.93,1.44-1.85c0.31-0.93,2.37-2.26,2.68-2.26c0.3,0,3.89-4.01,3.89-4.01
			s-0.31-2.25,0.42-3.39c0.72-1.13,0-1.95-0.52-2.37c-0.51-0.4-1.33,0.31-1.75,0.62c-0.4,0.31-0.4,1.54-0.4,1.54l-0.62,0.62
			c0,0-1.23-0.72-1.23-1.12c0-0.42-0.83-1.45-0.83-1.45l-1.54-0.61l-0.2-1.03c0,0,0,0,0.82-1.03c0.82-1.03,0-2.47,0-2.47l-0.41-0.31
			c0,0-0.62-2.25,0.1-2.97c0.72-0.73-0.1-1.13-0.1-1.13s-0.52-1.85-0.41-2.47c0.1-0.62,1.54-1.54,1.95-1.75
			c0.41-0.2,1.64-0.1,2.06-0.82c0.41-0.72-1.75-0.51-1.75-0.51s-0.21-2.37,0.1-2.57c0.3-0.21,0.92-1.03,1.23-1.54
			c0.31-0.52,1.96-0.92,2.68-2.06c0.71-1.13-0.31-0.52-1.14-0.92c-0.81-0.41-0.31-3.8-0.31-3.8c1.96-0.52,2.37-0.83,2.37-0.83
			c4.42-2.16,5.76-2.87,7.4-3.29c1.64-0.41-1.33-1.95-1.95-2.05c-0.62-0.11,0.1-1.44,0.62-2.37c0.5-0.92,1.85,0.31,2.46-0.21
			c0.62-0.5-0.41-0.92-0.41-2.46s1.13-2.78,2.15-2.97c1.04-0.21,2.58,0.92,3.91-0.83c1.33-1.75,2.06-4.32,3.7-7.19
			c1.64-2.89,1.64-1.85,1.33-3.5c-0.3-1.64-2.04-0.41-2.04-2.36c0-1.96,0.5-2.36,1.43-3.91c0.92-1.54-0.82-1.64-0.82-1.64
			s-0.51-2.67-0.61-3.81c-0.11-1.12,0.31-1.33,0.31-1.33s0.61-0.92,1.23-1.64c0.61-0.73,0.2-1.13,0.2-1.13s-1.64-0.83-1.64-1.14
			s1.02-1.12,1.85-1.85c0.82-0.71-0.1-1.33-0.93-2.16c-0.83-0.81-0.92-1.33-1.02-1.94c-0.11-0.62-2.27-2.06-2.58-2.99
			c-0.31-0.92-1.23-2.97-2.57-3.18c-1.33-0.21-0.61-2.16-0.61-2.16s0.52-0.52,0.52-1.23c0-0.72,1.54-1.85,1.54-1.85
			s1.85-1.14,0.31-1.44c-1.55-0.31-4.07-2.73-4.07-2.73c-2.15-3.46-6.32-0.76-6.32-0.76c-2.93,6.24-4.86,2.61-5.7,4.39
			c-0.85,1.77-0.46,1.62,1.69,3.77c2.16,2.17,0.7,0.85,0.93,2.24c0.23,1.39-2.78,2.54-3.47,2.62c-0.7,0.07-3.55-0.46-3.93-0.69
			c-0.38-0.24-1-3.09-1.23-3.09c-0.24,0-2.47-0.69-2.47-0.69s-1.47-0.54-2.39-1.62c-0.93-1.08-1-2-2.16-2.31
			c-1.15-0.31-2.31,0-3.08-0.46s-2.85-4.31-3.54-2.08s-2.78,1.31-3.01,1.31s-1.78-2.4-1-2.47c0.77-0.07,2.61-1.54,1.38-2.47
			c-1.23-0.92-5.52-4-5.52-4c-1.85-0.83-2.47-4.32-3.09-5.55c-0.61-1.24-2.46,0.61-2.46,0.61l1.44,1.45h0.83l0.19,2.04
			c0,0,0,0-2.46,0c-2.47,0-2.05-1.85-2.05-1.85c-3.7-0.19-1.85-3.89-1.85-3.89s3.28-1.24,1.43-2.06c-1.85-0.83,0-2.47,0-2.47
			s0.36-1.02,0.9-1.86h0.01c0.62-0.98,1.5-1.72,2.38-0.4c1.64,2.47,2.68-2.26,1.24-2.46c-1.45-0.21-2.47-2.89-2.47-2.89
			c-0.83,0-3.08-2.46-3.08-2.46s-1.45-2.05-2.47-1.44c-1.02,0.62,0.41,2.26,1.02,2.26c0.62,0,1.85,1.03,1.85,1.03l1.04,4.31
			c0,0,1.43,1.04-0.42,1.65c-1.85,0.62-4.32-3.7-5.13-4.52c-0.83-0.83-1.85-2.87-4.53-5.34c-1.11-1.03-1.69-1.67-1.98-2.06
			c-0.41-0.55-0.27-0.62-0.27-0.62s1.02-1.02,1.02-3.29c0-2.26-2.06-0.41-2.47,0.42c-0.4,0.81-3.08,0-4.1,0
			c-1.04,0-4.53-1.23-5.35-2.06c-0.82-0.83-2.47-0.21-3.49-0.41c-1.03-0.21-3.09-2.88-3.7-3.5c-0.62-0.62-4.94-0.81-8.02-1.02
			c-0.64-0.04-1.75-0.83-3.11-2.06c-5.17-4.65-13.94-15.61-13.94-15.61s-2.89-0.62-3.51-1.24c-0.61-0.62-1.64,0.2-1.64,1.03
			c0,0.82-2.87,1.85-2.87,1.85c-10.9,8.22-24.05-4.53-24.05-4.53l-4.31-0.2c-1.04-1.23-3.7-2.27-3.7-2.27
			c-9.67-3.69-10.9-8.42-10.9-8.42c-5.13,2.68-11.92-3.29-11.92-3.29c-1.03-2.26-4.73-5.96-5.55-7.19c-0.82-1.23-2.26,0-2.26,0
			s-3.09-5.55-4.73-6.78c-1.64-1.24-0.21-2.88-0.21-2.88c2.06,0.82,4.74-1.65,4.74-1.65s-1.65-0.81-1.85-1.64
			c-0.21-0.83,3.49-3.91,3.49-3.91l-1.85-2.26c0,0-1.03-2.46-0.41-4.72c0.62-2.27-0.83-4.12-0.83-4.12
			c-6.57-8.83-8.84-14.18-8.84-14.18l-1.64-0.2l-1.85-1.44l1.03-2.68c-1.85,0.62-5.34-4.72-5.34-4.72l-1.24-0.21l-1.23-1.02
			l0.21-2.47l2.26-2.06l-1.03-3.28l-2.27-0.21l-0.4-2.46l-3.49-1.24l0.81-3.49l-0.62-1.85c-4.93-0.82-6.78-8.22-6.78-8.22
			l-3.49,0.41l-0.4-2.05l2.04-0.42l2.06-1.23c0,0,0,0-1.02-2.26c-1.04-2.26-2.47-8.02-2.47-8.02l0.82-2.46l1.03-0.83L153.48,0H367.4
			c-0.34,0.45-0.74,0.95-1.22,1.49c-3.41,3.84-0.32,9.86-0.32,12.02c0,2.16,0.16,1.54,0.93,2.77c0.77,1.24,0.15,1.39,0.15,1.39
			l1.54,1.55l-0.16,1.38c0,0-0.15,0.62-0.76,0c-0.62-0.62-1.09,0.92-0.77,3.55c0.3,2.62,1.85,8.93,1.85,8.93l-0.16,3.55
			c0,0-1.23,2.62-1.23,3.23c0,0.62,0,2.17-1.23,3.25c-1.24,1.07-1.24,2.62-1.24,2.62l-2.01,1.69c0,0,0.47,1.54-2.3,0.16
			c-2.78-1.39-1.69-1.23-1.54-1.7c0.14-0.47-0.15-1.85-1.71-3.7c-1.53-1.85-1.69-2.61-1.69-2.61s0.31-1.7,0.16-2.17
			c-0.16-0.46-1.39-0.62-1.39-1.08c0-0.45-0.31-2.15-0.31-2.15l-1.38-1.24c0,0,0.15-1.85-0.78-2.32c0,0,0.62-2.3,1.69-2.46
			c1.09-0.15,0.94-1.23,0.78-2.77c-0.16-1.55-1.23,0.92-1.23,0.92s-2.31-1.38-2.78-1.53c-0.47-0.16,2-3.08,2-3.08
			s1.39-2.01,2.32-4.17c0.92-2.16-0.15-1.54,0.15-2c0.32-0.47-4.16-2.17-5.55-4.17c-1.38-2-0.77-2.46-0.77-2.46s-1.7-1.09-2.61-1.24
			c-0.94-0.15-1.09,0.15-2.32,1.38c-1.23,1.24-0.76,1.24-2.94,2.01c-2.14,0.78-1.84,0.16-2.76,0.16c-0.93,0,0-0.93,0-0.93
			l-0.47-1.24c0,0,0-1.38-0.14-2.46c-0.16-1.08-1.85,0.47-1.85,0.47h-2.79V5.8l0.32-1.54l-1.23,1.07l-3.56,0.62
			c0,0,0-1.23-0.76-1.23c-0.78,0-2.17,1.08-3.24,1.55c-1.08,0.46-2.01,0.3-2.01,0.3l-0.3-0.62l0.3-1.69l-0.92-0.46l-1.7,2.15
			c0,0-3.84-0.3-5.24,0.16c-1.39,0.46-2.77,0.62-2.77,0.62s-2-0.46-3.85-0.93c-1.85-0.47-3.4,0.62-3.4,0.62l0.61,1.85
			c0,0,2.17-0.15,3.86,0.62c1.69,0.76,1.85,0,1.85,0s0.78,0.92-0.45,1.85c-1.24,0.92-1.4,1.08-1.4,1.08s0.46,0.76,1.85,1.07
			c1.4,0.31,1.54,2.16,1.54,2.16l-0.14,1.85h-3.09c0,0-0.32-0.76,0.15-1.7c0.47-0.91,0,0-1.54-1.38c-1.54-1.38-2.16-1.38-2.16-1.38
			v2.14l-1.7,0.32l-1.23-1.23l-1.39,1.38l-3.23,0.31c0,0-1.85-1.23-2.17-2.16c-0.29-0.92-0.29-0.92-0.29-0.92l-2.17-0.46
			c0,0,0.61-1.08-0.62-1.7s-0.76,0.62-0.76,0.62l-0.77,0.61c0,0-3.24,0.62-4.02,0.31c-0.76-0.31-1.38-1.07-1.38-1.07l-0.93-1.85
			l-1.07,1.38h-2.17l-0.45-1.54l-1.08,0.61l0.3,1.24l-2.76,2.01h-2.72c0.57-0.03,1.11-0.2-0.98-0.94c-3.09-1.07-1.24,2.17-1.24,2.17
			s2.77,1.53,0.15,1.53c-2.61,0-2.61,0.47-3.39,0.47c-0.78,0-1.07,1.08-2.78,2.32c-1.7,1.23-1.99,0.91-3.84,1.85
			c-0.68,0.33-1,0.53-1.15,0.62l-0.55-1.24l-1.71,0.3l-0.29,2.62l-2.79,1.54l-1.23,1.54l-2.15,1.24l0.3,2.01l-2.15,1.69l1.08,0.31
			c0,0,2.3-0.15-1.08,1.54c-3.4,1.69-1.7,7.56-1.7,7.56l0.93,2.46l-0.93,2.62l-1.38,1.85c0,0-2.63,2.46-5.4,13.56
			c-2.78,11.1-2,14.49-2,14.49l1.07,2.31c0,0-0.92,2.32-0.31,3.55c0.62,1.23,1.09,4.17,2.16,5.08c1.08,0.94,3.86,9.57,3.86,9.57
			s0.3,2.92,2.47,4.16c2.15,1.23,1.38,0.45,3.7,0.45c2.31,0,1.38,0.32,1.38,0.32s1.09,1.39,1.85,2.62c0.76,1.23,2.32,1.38,2.32,1.38
			s0,0,0.76,0c0.77,0,2.78-0.77,2.78-0.77l5.86-1.54c0,0,1.7-0.3,2.61-1.23c0.94-0.92,4.64-0.31,4.64-0.31l0.76,2l1.23-0.15
			c0,0,1.09-0.76,1.71-1.23c0.61-0.47,0.91-0.31,1.23-0.77c0.3-0.46-0.94-0.93-0.94-0.93s-0.91-1.24-0.45-1.24
			c0.45,0,2.46-1.23,3.08-1.53c0.62-0.32,3.08-2.01,3.08-2.01s0.93-3.54,2.16-5.24s1.23-4.16,1.85-5.4c0.62-1.23,0.92-3.23,2-4.31
			s4.63-1.24,4.63-1.24h4.78l-0.16-0.76l5.4-1.24c0,0,2,0.47,2.61,1.55c0.62,1.07,1.09,0.45,2.01-0.62
			c0.93-1.07,1.24-0.16,1.85-0.31c0.62-0.15,1.85,1.38,1.85,1.38l0.62,2.94c0,0-0.46,1.99-0.93,2.77c-0.46,0.78-1.85,1.69-3.23,2.47
			c-1.39,0.77-1.7,1.23-1.7,1.23s0,1.23-1.08,2.16c-1.08,0.92-1.39,2.47-0.3,2.93c1.07,0.46,0,1.39-0.32,3.24
			c-0.3,1.85-1.38,3.23-2.15,4c-0.77,0.78-0.77,2.16-0.77,2.16l-1.55,0.62l-0.61-0.31c0,0,1.38-2.77,1.08-3.24
			c-0.32-0.46-3.55,3.7-3.55,3.7l2.47,0.61c0,0-1.38,4.02-1.38,5.26c0,1.23-0.78,3.84-0.47,4.93c0.31,1.07-1.38,3.54-4.47,6.16
			c-3.08,2.62-2.17,2.93-2.17,2.93l1.09-0.16c0,0,1.23,1.08,1.7,1.23c0.19,0.07,0.57,0.08,1.01,0.07c0.62-0.02,1.37-0.07,1.91-0.07
			c0.93,0-0.16-1.07-0.16-1.07l2.01-0.93c0,0,2.01-0.15,2.16,0.77c0.15,0.93,2.32,0,3.85,1.39c1.55,1.39,3.4-0.16,4.78-0.31
			c1.39-0.15,0.93-0.31,1.55-0.76c0.61-0.47,0.45-1.56,0.45-1.56l1.7-0.14l1.39,1.08c0,0,0.93,0.62,1.7,0.3
			c0.76-0.3,1.08-0.62,1.08-0.62l2.92-0.15c0,0,2.16,0.62,3.7,1.38c1.54,0.78,2.78-0.61,0.78,2.01c-2.01,2.63,1.85,2.01,3.23,2.01
			c0.85,0,1.41,1.18,1.57,2.15c0.1,0.6,0.05,1.12-0.19,1.23c-0.61,0.32-2,0.78-0.61,3.41c1.39,2.61-0.46,1.07,0,2.61
			s-0.46,1.7-1.53,2.61c-1.09,0.94-0.47,4.64-0.47,6.49s-0.15,2.15-0.77,2.92c-0.61,0.78,0,1.08-0.93,2.01c-0.92,0.92-0.15,2,0,3.24
			c0.16,1.23-0.15,1.54-1.24,2.77c-1.07,1.23-0.29,2.16-0.45,3.7c-0.16,1.54,1.54,1.23,1.54,1.23s0.92,1.54-0.15,2.78
			c-1.08,1.23,0,2,1.85,3.39c1.85,1.39,1.23,2.01,3.38,4.01c0.25,0.23,0.47,0.44,0.67,0.64c1.56,1.53,1.8,2.13,1.8,2.13
			s-0.3,0.78-0.3,1.39c0,0.62,0.91,1.39,2,2.31c1.08,0.93,1.54-0.62,1.54-0.62l1.23,0.16c0,0,0.62,1.08,2.16,1.53
			c1.54,0.47,0.92,0,2-0.14c1.08-0.15,0.78-0.31,2.01-0.47c1.23-0.15,1.39,0,2.3-1.08c0.94-1.07,2.17-1.54,2.79-1.54
			c0.62,0,1.69-0.76,2.47-1.23c0.76-0.47,1.23-1.08,1.69-1.23c0.45-0.15,1.39,0.3,1.39,0.3c1.07,0,2.47-0.45,2.47-0.45l0.61,1.23
			c0,0,4-1.23,6.17,2.15c2.15,3.4,3.85,3.08,4,3.7c0.02,0.1,0.08,0.25,0.17,0.44c0.44,1.03,1.58,3.23,1.84,3.87
			c0.3,0.78,1.23,1.85,1.85,1.71c0.61-0.15,0.61-0.47,1.07-1.09c0.47-0.62-1.24-3.38-1.24-3.38s-0.14-1.7,1.24-1.7
			c1.39,0,5.25-5.7,5.25-5.7l2.92-0.47c0,0,0,0,0-1.85c0-1.85-0.77-2.93-0.77-3.7c0-0.76,1.39-2.31,2.78-4.16
			c1.38-1.85,4.16-3.38,4.16-3.38h2.01c0,0-0.62,2.14,0.62,2.61c1.23,0.47,2.3-3.39,2.92-4.01c0.62-0.61,1.07,0.31,1.85,0.16
			c0.78-0.16,2.63-0.93,4.01-0.93c1.38,0,1.08-0.15,1.99-1.24c0.94-1.07,2.47-2.14,3.56-2.14c1.08,0,1.38-0.62,2.46-1.85
			c1.09-1.24,4.47-3.86,4.94-3.7c0.46,0.15,1.23,1.53,2.61,2.76c1.39,1.23-0.76,1.55-2.61,2.47c-1.85,0.93-1.55,0.93-3.85,2.62
			c-2.32,1.69-0.32,1.69,0.76,2.47c1.09,0.78,0.47,2.01,0,2.77c-0.47,0.77,0.31,2.32,1.09,3.4c0.76,1.07-0.32,1.54-2.32,3.24
			c-2,1.69-1.38,2.46-1.85,3.08s0.76,1.38,2.47,3.7c1.7,2.31,1.99,0.91,1.99,0.91s1.4-1.23,2.47-2.61c1.09-1.38,0.47-1.85,0.47-3.23
			c0-1.39,0-1.85-1.23-3.24c-1.24-1.4-1.09-2.93-1.71-3.25c-0.61-0.29,1.09-1.53,1.56-2.14c0.45-0.62,1.53-1.4,2.3-2.32
			c0.78-0.93,1.85-0.47,2.63-0.77c0.76-0.32,1.38-0.47,2.76-1.55c1.4-1.07,2.63-0.62,6.17-0.62c3.55,0,4.48-1.07,4.17,0.32
			c-0.31,1.38,3.7,2.15,3.7,2.15s-0.77,3.24,0.61,5.09s2.16,0,3.7,0.46c1.54,0.47,1.85,0,4.32-0.3c2.46-0.32,1.23,0,3.23-0.32
			c2.01-0.29,2.17,0,3.08,0c0.94,0,1.09,0.62,1.56,1.4c0.45,0.77,2.76,1.23,3.7,2.01c0.91,0.76,1.99,0.61,2.76,0.61
			c0.78,0,1.23,0.46,1.85-0.32c0.61-0.76,2.63-1.69,3.55-2.46s1.38-0.46,2-0.77c0.61-0.31,2.78-0.62,3.4-1.08
			c0.62-0.46,3.7-0.62,3.7-0.62s1.23,0,2.47,0c1.23,0,3.99-1.07,3.99-1.07l0.16,2.3c0,0-1.54,0.78-3.7,0.78
			c-2.16,0-3.08,0.92-3.08,0.92l2.01,0.77l1.53,1.08c0,0,0.32,0.93-0.3,1.7c-0.61,0.77,0.77,1.08,1.38,1.7
			c0.62,0.61,0.77-1.4,0.77-1.4l1.39-0.62c0,0,1.24,1.71,2.01,1.71s1.69-0.47,1.69-0.47s2.01,1.7,2.92,2.01
			c0.94,0.31,1.24,1.54,1.24,1.54s-0.46,1.23-1.24,1.85c-0.76,0.62-1.07,2.93-1.07,2.93l-3.54,2.15c0,0,0.92,0.94,4.47,0.94
			c3.55,0,0.76-0.62,1.08-1.09c0.3-0.47,2.92-0.31,2.92-0.31l2.63,0.16l0.62,1.24c0,0,0.53,0.27,1.03,0.4
			c0.26,0.07,0.5,0.1,0.659,0.05c0.45-0.16,1.07,0.16,2.011,1.4c0.91,1.23,5.55,6.16,6.31,6.93c0.771,0.76,1.38,0.92,0.311,2.16
			c-1.07,1.23-2.16,2.46-2.78,3.08c-0.61,0.62,0.47,2.31,0.47,2.31s1.24,0,1.24-1.39c0-1.38,1.07-1.54,1.07-1.54
			s0.31-1.07,3.239,0.16c2.931,1.24,5.23,6.78,5.23,6.78l1.24,0.15l0.93-0.61l0.91-0.15l2.47-0.47l0.94,0.93l1.689,0.77l1.07-0.62
			l1.09-0.46c0,0,1.7,1.08,5.08-0.15c3.4-1.24,12.18,3.7,12.18,3.7s5.55,4.61,6.641,5.84c0.67,0.77,2.96,3.11,4.89,5.13
			c1.16,1.21,2.19,2.31,2.65,2.89c1.239,1.55,1.699,8.63,1.699,9.86c0,1.24,1.53,2.63,2.311,3.86c0.78,1.24,2.16,2.16,3.859,3.4
			c1.69,1.23,1.381,1.99,1.381,1.99s-1.7,0-1.7,2.63s-4.771,6.17-8.931,9.71c-4.17,3.55-2.63,5.09-2.63,5.09l1.86-2.01
			c0,0,1.68,0.47,1.54,2.01c-0.15,1.54-0.15,2.46-2.78,2.77c-2.63,0.31-2.77,1.71-3.24,1.71h-2.77c-1.55,0-1.55,1.38-0.77,2.14
			c0.77,0.78,4.479-0.76,4.479-0.76l3.69-1.85c0,0,3.239-4.01,4.319-2.16c1.07,1.85,2.15,0.31,2.15,0.31s-0.771-1.24-0.92-2
			c-0.16-0.78,0-1.39,0-1.39l0.46-2.16l1.229-1.09c0,0,2.471-0.45,2.931,0.16c0.47,0.62,2.17,0.62,2.17,0.62s0.91-0.16,1.38-0.46
			c0.47-0.32,1.54-0.77,1.54-0.77s2.47,0.3,3.54,0.3c1.08,0,3.08,2.16,1.7,3.09c-1.381,0.92,0,1.23,0,3.23
			c0,2.01-1.851,4.31-3.08,3.55c-1.24-0.76-4.471,2-4.471,2s-1.699,0.47-4.159,0.16c-2.471-0.31-3.561-1.69-3.561-1.69
			s-0.14,1.23,0,2.14c0.16,0.94,1.7,1.85,2.63,1.24c0.931-0.62,1.851,0.16,3.54,0.16c1.7,0,1.7-0.62,2.63-0.46l-0.16,1.85l-0.3,2.31
			h1.07l0.46-1.85l1.7-2.01l2-1.69c0,0,2.17-0.31,2.47-0.93c0.311-0.61,0.61-1.08,0.61-1.7c0-0.62,0.62-1.23,1.09-3.23
			c0.46-2,3.55-1.23,3.55-1.23l0.76-0.77c0,0,0.771-0.32,1.24-0.32c0.46,0,4.46,1.39,9.55,4.02c5.101,2.62,4.63,3.38,5.71,4.32
			c1.08,0.91,1.08-0.94,1.53-1.4c0.47-0.45,1.71-2.3,1.85,0c0.16,2.31,1.851,2.63,1.851,2.63s-1.38,2.47-0.76,2.92
			c0.609,0.46,1.38,1.24,1.38,1.24l1.39-0.62l1.54,1.85l-1.54,1.23l-1.07-0.45c0,0-0.939,0.15-1.85,1.38
			c-0.94,1.23-0.47,2.46-0.47,2.46s2.77-0.61,3.39-1.08c0.62-0.46,1.54-1.23,2.63-2.47c1.07-1.23,1.23-1.38,1.69-1.99
			c0.45-0.62,1.39-0.15,1.85-0.15c0.45,0,3.08-0.16,3.08-0.16s1.54,1.23,3.24,2.77c1.689,1.54,2.47,0.93,2.47,0.93l-0.16-0.78
			l0.931-1.38c0,0,1.08,1.38,4,2.93c2.93,1.53,2.01,0.3,2.01,0.3s1.08-0.77,1.85-0.77c0.771,0,2.771-0.61,3.851-0.61
			c1.09,0,2.93,0.47,4.319,1.54c1.38,1.07,3.08,2.16,4.311,3.86c1.24,1.69,3.09,2.92,6.17,4.46c3.08,1.55,4.01,2.62,6.78,6.17
			c2.77,3.55,8.489,3.08,10.01,3.08c1.56,0,1.56-0.15,2.63,0.31s2.31,2.16,2.31,3.08c0,0.93,0.32,4.78,1.08,6.95
			c0.771,2.14,1.24,7.69,2.16,9.54C670.3,313.63,666.75,323.35,666.61,323.82z"/>
	</g>
	<image overflow="visible" width="41" height="39" xlink:href="rojo1.png"  transform="matrix(1 0 0 1 361 322.2495)">
	</image>
	<g>
		<path fill="#09B9E8" d="M215.612,411.433c0,2.641-0.948,5.552-2.753,7.357c-1.354,1.331-3.114,2.121-5.213,2.121
			c-3.927,0-5.777-2.956-5.777-6.184c0-2.686,1.061-5.642,2.911-7.47c1.286-1.264,3.182-2.054,5.1-2.054
			C213.964,405.204,215.612,408.184,215.612,411.433z M206.156,408.318c-1.467,1.467-2.324,4.13-2.324,6.251
			c0,2.483,1.105,4.763,4.084,4.763c1.287,0,2.528-0.564,3.476-1.513c1.422-1.444,2.257-4.175,2.257-6.296
			c0-2.167-0.7-4.739-4.017-4.739C208.277,406.784,207.081,407.371,206.156,408.318z"/>
		<path fill="#09B9E8" d="M227.079,420.167c-0.858,0.383-2.234,0.722-3.95,0.722c-3.836,0-6.161-2.415-6.161-6.296
			c0-2.866,1.151-5.598,3.25-7.335c1.557-1.331,3.498-2.054,5.732-2.054c1.692,0,2.889,0.429,3.295,0.745l-0.609,1.512
			c-0.564-0.339-1.647-0.632-3.001-0.632c-1.58,0-3.182,0.609-4.356,1.715c-1.421,1.332-2.324,3.476-2.324,5.777
			c0,2.731,1.241,4.965,4.626,4.965c1.151,0,2.415-0.226,3.25-0.654L227.079,420.167z"/>
		<path fill="#09B9E8" d="M237.846,413.509h-5.529l-1.038,5.552h6.229l-0.316,1.603h-8.102l2.889-15.211h7.763l-0.316,1.603h-5.868
			l-0.925,4.875h5.529L237.846,413.509z M239.583,401.977l-3.069,2.663h-1.67l2.302-2.663H239.583z"/>
		<path fill="#09B9E8" d="M242.789,415.856l-2.415,4.807h-1.986l7.876-15.211h2.212l2.099,15.211h-1.918l-0.609-4.807H242.789z
			 M247.889,414.366l-0.586-4.4c-0.09-0.79-0.203-1.896-0.271-2.798h-0.045c-0.406,0.902-0.79,1.851-1.241,2.775l-2.279,4.423
			H247.889z"/>
		<path fill="#09B9E8" d="M252.518,420.663l2.889-15.211h2.054l3.498,8.621c0.654,1.715,1.015,2.934,1.332,4.243l0.045-0.022
			c0.09-1.377,0.248-2.641,0.632-4.763l1.535-8.079h1.783l-2.911,15.211h-1.851l-3.453-8.599c-0.745-1.873-1.083-2.956-1.422-4.378
			l-0.068,0.022c-0.158,1.422-0.406,2.934-0.79,5.01l-1.512,7.944H252.518z"/>
		<path fill="#09B9E8" d="M280.91,411.433c0,2.641-0.948,5.552-2.753,7.357c-1.354,1.331-3.114,2.121-5.213,2.121
			c-3.927,0-5.777-2.956-5.777-6.184c0-2.686,1.061-5.642,2.912-7.47c1.286-1.264,3.182-2.054,5.1-2.054
			C279.263,405.204,280.91,408.184,280.91,411.433z M271.454,408.318c-1.467,1.467-2.324,4.13-2.324,6.251
			c0,2.483,1.105,4.763,4.084,4.763c1.287,0,2.528-0.564,3.476-1.513c1.422-1.444,2.257-4.175,2.257-6.296
			c0-2.167-0.7-4.739-4.017-4.739C273.576,406.784,272.379,407.371,271.454,408.318z"/>
		<path fill="#09B9E8" d="M203.075,432.764c0.857-0.203,2.053-0.338,3.295-0.338c1.467,0,2.866,0.36,3.724,1.173
			c0.722,0.678,1.105,1.558,1.105,2.754c0,1.715-0.835,3.137-1.828,3.972c-1.174,0.993-2.889,1.444-4.604,1.444
			c-0.564,0-1.083-0.045-1.557-0.113l-1.151,6.094h-1.851L203.075,432.764z M203.504,440.076c0.542,0.112,0.97,0.158,1.512,0.158
			c2.573,0,4.288-1.603,4.288-3.747c0-1.805-1.287-2.527-3.024-2.527c-0.745,0-1.309,0.067-1.647,0.158L203.504,440.076z"/>
		<path fill="#09B9E8" d="M213.3,442.942l-2.415,4.807h-1.986l7.876-15.211h2.212l2.099,15.211h-1.918l-0.609-4.807H213.3z
			 M218.4,441.452l-0.586-4.4c-0.09-0.79-0.203-1.896-0.271-2.798h-0.045c-0.406,0.902-0.79,1.851-1.241,2.775l-2.279,4.423H218.4z"
			/>
		<path fill="#09B9E8" d="M233.071,447.253c-0.858,0.383-2.234,0.722-3.95,0.722c-3.836,0-6.161-2.415-6.161-6.296
			c0-2.866,1.151-5.598,3.25-7.335c1.557-1.331,3.498-2.054,5.732-2.054c1.692,0,2.889,0.429,3.295,0.745l-0.609,1.512
			c-0.564-0.339-1.647-0.632-3.001-0.632c-1.58,0-3.182,0.609-4.355,1.715c-1.422,1.332-2.325,3.476-2.325,5.777
			c0,2.731,1.241,4.965,4.626,4.965c1.151,0,2.415-0.226,3.25-0.654L233.071,447.253z"/>
		<path fill="#09B9E8" d="M239.821,432.538l-2.889,15.211h-1.873l2.889-15.211H239.821z M242.529,429.063l-3.092,2.663h-1.647
			l2.279-2.663H242.529z"/>
		<path fill="#09B9E8" d="M243.229,432.538h7.718l-0.293,1.603h-5.845l-0.993,5.123h5.394l-0.316,1.603h-5.371l-1.309,6.883h-1.873
			L243.229,432.538z"/>
		<path fill="#09B9E8" d="M255.575,432.538l-2.889,15.211h-1.873l2.889-15.211H255.575z"/>
		<path fill="#09B9E8" d="M266.612,447.253c-0.858,0.383-2.234,0.722-3.95,0.722c-3.836,0-6.161-2.415-6.161-6.296
			c0-2.866,1.151-5.598,3.25-7.335c1.557-1.331,3.498-2.054,5.732-2.054c1.692,0,2.889,0.429,3.295,0.745l-0.609,1.512
			c-0.564-0.339-1.647-0.632-3.001-0.632c-1.58,0-3.182,0.609-4.356,1.715c-1.421,1.332-2.324,3.476-2.324,5.777
			c0,2.731,1.241,4.965,4.626,4.965c1.151,0,2.415-0.226,3.25-0.654L266.612,447.253z"/>
		<path fill="#09B9E8" d="M282.186,438.519c0,2.641-0.948,5.552-2.753,7.357c-1.354,1.331-3.114,2.121-5.213,2.121
			c-3.927,0-5.777-2.956-5.777-6.184c0-2.686,1.061-5.642,2.912-7.47c1.286-1.264,3.182-2.054,5.1-2.054
			C280.538,432.29,282.186,435.27,282.186,438.519z M272.729,435.404c-1.467,1.467-2.324,4.13-2.324,6.251
			c0,2.483,1.105,4.763,4.084,4.763c1.287,0,2.528-0.564,3.476-1.513c1.422-1.444,2.257-4.175,2.257-6.296
			c0-2.167-0.7-4.739-4.017-4.739C274.851,433.87,273.655,434.457,272.729,435.404z"/>
	</g>
	<g>
		<path fill="#09B9E8" d="M709.732,164.68c0,2.639-0.947,5.548-2.752,7.352c-1.353,1.331-3.112,2.12-5.209,2.12
			c-3.925,0-5.773-2.954-5.773-6.179c0-2.684,1.06-5.638,2.909-7.465c1.285-1.263,3.18-2.052,5.097-2.052
			C708.086,158.456,709.732,161.432,709.732,164.68z M700.282,161.567c-1.466,1.466-2.322,4.127-2.322,6.247
			c0,2.481,1.104,4.759,4.082,4.759c1.285,0,2.525-0.564,3.473-1.511c1.421-1.443,2.255-4.172,2.255-6.292
			c0-2.165-0.698-4.736-4.014-4.736C702.402,160.034,701.207,160.621,700.282,161.567z"/>
		<path fill="#09B9E8" d="M721.193,173.408c-0.857,0.383-2.233,0.722-3.947,0.722c-3.834,0-6.156-2.413-6.156-6.292
			c0-2.864,1.149-5.593,3.247-7.33c1.557-1.331,3.496-2.052,5.729-2.052c1.691,0,2.887,0.428,3.293,0.744l-0.609,1.511
			c-0.563-0.338-1.646-0.631-2.999-0.631c-1.579,0-3.181,0.609-4.354,1.714c-1.42,1.331-2.322,3.473-2.322,5.773
			c0,2.729,1.24,4.962,4.623,4.962c1.15,0,2.413-0.226,3.248-0.654L721.193,173.408z"/>
		<path fill="#09B9E8" d="M731.953,166.755h-5.525l-1.037,5.548h6.225l-0.315,1.601h-8.097l2.887-15.2h7.758l-0.315,1.601h-5.864
			l-0.924,4.871h5.525L731.953,166.755z M733.689,155.23l-3.066,2.661h-1.669l2.3-2.661H733.689z"/>
		<path fill="#09B9E8" d="M736.896,169.1l-2.413,4.804h-1.985l7.871-15.2h2.21l2.098,15.2h-1.917l-0.608-4.804H736.896z
			 M741.992,167.612l-0.586-4.398c-0.091-0.789-0.203-1.895-0.271-2.796h-0.045c-0.406,0.902-0.789,1.849-1.24,2.774l-2.277,4.42
			H741.992z"/>
		<path fill="#09B9E8" d="M746.619,173.904l2.887-15.2h2.052l3.496,8.615c0.654,1.714,1.015,2.932,1.331,4.24l0.045-0.022
			c0.09-1.375,0.248-2.639,0.631-4.758l1.534-8.074h1.781l-2.909,15.2h-1.85l-3.45-8.592c-0.744-1.872-1.083-2.955-1.421-4.375
			l-0.067,0.022c-0.158,1.421-0.406,2.932-0.79,5.007l-1.511,7.938H746.619z"/>
		<path fill="#09B9E8" d="M774.994,164.68c0,2.639-0.947,5.548-2.752,7.352c-1.353,1.331-3.112,2.12-5.209,2.12
			c-3.925,0-5.773-2.954-5.773-6.179c0-2.684,1.06-5.638,2.909-7.465c1.285-1.263,3.18-2.052,5.097-2.052
			C773.348,158.456,774.994,161.432,774.994,164.68z M765.544,161.567c-1.466,1.466-2.322,4.127-2.322,6.247
			c0,2.481,1.104,4.759,4.082,4.759c1.285,0,2.525-0.564,3.473-1.511c1.421-1.443,2.255-4.172,2.255-6.292
			c0-2.165-0.698-4.736-4.014-4.736C767.664,160.034,766.469,160.621,765.544,161.567z"/>
		<path fill="#09B9E8" d="M687.661,196.17l-2.413,4.804h-1.985l7.871-15.2h2.21l2.098,15.2h-1.917l-0.608-4.804H687.661z
			 M692.758,194.682l-0.586-4.398c-0.091-0.789-0.203-1.895-0.271-2.796h-0.045c-0.406,0.902-0.789,1.849-1.24,2.774l-2.277,4.42
			H692.758z"/>
		<path fill="#09B9E8" d="M701.241,187.397h-4.443l0.315-1.624h10.78l-0.315,1.624h-4.466l-2.57,13.577h-1.872L701.241,187.397z"/>
		<path fill="#09B9E8" d="M709.61,185.774h1.872l-2.594,13.576h6.134l-0.315,1.624h-7.983L709.61,185.774z"/>
		<path fill="#09B9E8" d="M720.032,196.17l-2.413,4.804h-1.985l7.871-15.2h2.21l2.098,15.2h-1.917l-0.608-4.804H720.032z
			 M725.129,194.682l-0.586-4.398c-0.091-0.789-0.203-1.895-0.271-2.796h-0.045c-0.406,0.902-0.789,1.849-1.24,2.774l-2.277,4.42
			H725.129z M728.241,182.301l-3.067,2.661h-1.669l2.301-2.661H728.241z"/>
		<path fill="#09B9E8" d="M729.756,200.974l2.887-15.2h2.052l3.496,8.615c0.654,1.714,1.015,2.932,1.331,4.24l0.045-0.022
			c0.09-1.375,0.248-2.639,0.631-4.758l1.534-8.074h1.781l-2.909,15.2h-1.85l-3.45-8.592c-0.744-1.872-1.083-2.955-1.421-4.375
			l-0.067,0.022c-0.158,1.421-0.406,2.932-0.79,5.007l-1.511,7.938H729.756z"/>
		<path fill="#09B9E8" d="M749.223,187.397h-4.443l0.315-1.624h10.78l-0.315,1.624h-4.466l-2.57,13.577h-1.872L749.223,187.397z"/>
		<path fill="#09B9E8" d="M759.441,185.774l-2.887,15.2h-1.872l2.887-15.2H759.441z"/>
		<path fill="#09B9E8" d="M770.471,200.478c-0.857,0.383-2.233,0.722-3.947,0.722c-3.834,0-6.156-2.413-6.156-6.292
			c0-2.864,1.149-5.593,3.247-7.33c1.557-1.331,3.496-2.052,5.729-2.052c1.691,0,2.887,0.428,3.293,0.744l-0.609,1.511
			c-0.563-0.338-1.646-0.631-2.999-0.631c-1.579,0-3.181,0.609-4.354,1.714c-1.42,1.331-2.322,3.473-2.322,5.773
			c0,2.729,1.24,4.962,4.623,4.962c1.15,0,2.413-0.226,3.248-0.654L770.471,200.478z"/>
		<path fill="#09B9E8" d="M786.035,191.75c0,2.639-0.947,5.548-2.752,7.352c-1.353,1.331-3.112,2.12-5.209,2.12
			c-3.925,0-5.773-2.954-5.773-6.179c0-2.684,1.06-5.638,2.909-7.465c1.285-1.263,3.18-2.052,5.097-2.052
			C784.389,185.526,786.035,188.502,786.035,191.75z M776.585,188.638c-1.466,1.466-2.322,4.127-2.322,6.247
			c0,2.481,1.104,4.759,4.082,4.759c1.285,0,2.525-0.564,3.473-1.511c1.421-1.443,2.255-4.172,2.255-6.292
			c0-2.165-0.698-4.736-4.014-4.736C778.705,187.104,777.51,187.691,776.585,188.638z"/>
	</g>
</g>
</svg>
